<?xml version="1.0" encoding="UTF-8" standalone="no"?>
<!-- Created with Inkscape (http://www.inkscape.org/) -->

<svg
   xmlns:dc="http://purl.org/dc/elements/1.1/"
   xmlns:cc="http://creativecommons.org/ns#"
   xmlns:rdf="http://www.w3.org/1999/02/22-rdf-syntax-ns#"
   xmlns:svg="http://www.w3.org/2000/svg"
   xmlns="http://www.w3.org/2000/svg"
   xmlns:sodipodi="http://sodipodi.sourceforge.net/DTD/sodipodi-0.dtd"
   xmlns:inkscape="http://www.inkscape.org/namespaces/inkscape"
   width="210mm"
   height="297mm"
   viewBox="0 0 210 297"
   version="1.1"
   id="svg1945"
   inkscape:version="0.92.4 (5da689c313, 2019-01-14)"
   sodipodi:docname="art3.svg">
  <defs
     id="defs1939" />
  <sodipodi:namedview
     id="base"
     pagecolor="#ffffff"
     bordercolor="#666666"
     borderopacity="1.0"
     inkscape:pageopacity="0.0"
     inkscape:pageshadow="2"
     inkscape:zoom="3.959798"
     inkscape:cx="317.53244"
     inkscape:cy="559.68605"
     inkscape:document-units="mm"
     inkscape:current-layer="g2636"
     showgrid="false"
     inkscape:window-width="3840"
     inkscape:window-height="2069"
     inkscape:window-x="-13"
     inkscape:window-y="-13"
     inkscape:window-maximized="1" />
  <metadata
     id="metadata1942">
    <rdf:RDF>
      <cc:Work
         rdf:about="">
        <dc:format>image/svg+xml</dc:format>
        <dc:type
           rdf:resource="http://purl.org/dc/dcmitype/StillImage" />
        <dc:title></dc:title>
      </cc:Work>
    </rdf:RDF>
  </metadata>
  <g
     inkscape:label="Layer 1"
     inkscape:groupmode="layer"
     id="layer1">
    <path
       style="fill:none;stroke:#0000ff;stroke-width:0.5;stroke-miterlimit:4;stroke-dasharray:none;stroke-opacity:1"
       d="m 116.43235,170.58572 12.08733,-5.00676 10.37971,-7.96454 7.96454,-10.3797 5.00677,-12.08734 1.70772,-12.97136 -1.70772,-12.97135 -5.00677,-12.087326 -7.96454,-10.379716 -10.37971,-7.96454 -12.08733,-5.006764 -12.97136,-1.707726 -12.971351,1.707726 -12.08733,5.006764 -10.37971,7.96454 -7.964542,10.379716 -5.006762,12.087326 -1.707726,12.97135 1.707726,12.97136 5.006762,12.08734 7.964542,10.3797 10.37971,7.96454 12.08733,5.00676 12.971351,1.70774 z"
       id="path2347" />
    <path
       style="fill:none;stroke:#ff0000;stroke-width:0.5;stroke-miterlimit:4;stroke-dasharray:none;stroke-opacity:1"
       d="m 90.980229,169.07596 -11.995678,-4.96882 -9.677612,-7.42586 -7.964594,-10.37964 -4.742392,-11.44916 -1.668884,-12.67646 1.668884,-12.67645 4.742392,-11.449146 7.964594,-10.379662 9.677612,-7.42585 11.995678,-4.968822 12.480761,-1.643116 12.48077,1.643116 11.99568,4.968822 9.67761,7.42585 7.9646,10.379662 4.74239,11.449146 1.66888,12.67645 -1.66888,12.67646 -4.74239,11.44916 -7.9646,10.37964 -9.67761,7.42586 -11.99568,4.96882 -12.48077,1.64312 z"
       id="path2345" />
    <path
       style="fill:none;stroke:#0000ff;stroke-width:0.5;stroke-miterlimit:4;stroke-dasharray:none;stroke-opacity:1"
       d="m 109.09884,90.101488 0.2167,-0.247068 0.46836,-0.410738 0.23046,-0.17156 0.33147,-0.22151 0.55874,-0.275538 0.95891,-0.413648 0.58991,-0.200238 0.61098,-0.1215 1.02854,-0.1814 0.15996,-0.0104 0.0818,0.0048 h 0.98113 l 0.79375,-0.576686 0.30316,-0.933078 -0.30316,-0.933134 -0.79375,-0.576686 -0.0451,-0.0194 -0.0894,-0.06658 -0.67131,-0.799994 -0.31337,-0.62394 -0.093,-0.39243 v -1.044352 l 0.12938,-0.546046 1.01135,-2.441522 0.30321,-0.933134 -0.30321,-0.933078 -0.79375,-0.576686 -9.21718,-1.213486 h -0.98113 l -0.79374,0.576686 -0.30319,0.933134 0.32573,2.47417 0.12124,1.037274 -0.104,0.889846 -0.0712,0.19574 -0.57388,0.872542 -0.43617,0.41148 -0.43416,0.250666 -0.69797,0.208968 -0.79375,0.576686 -0.30318,0.933134 0.30318,0.933078 0.79375,0.576686 0.93951,0.281306 0.58991,0.200236 0.55871,0.275538 0.86688,0.500486 0.23015,0.201824 0.75964,0.716702 0.41075,0.468366 0.3461,0.517948 0.54375,0.826718 0.79375,0.576738 h 0.98112 z"
       id="path2343" />
    <path
       style="fill:none;stroke:#00ff00;stroke-width:0.5;stroke-miterlimit:4;stroke-dasharray:none;stroke-opacity:1"
       d="m 113.60232,86.348532 -1.02849,0.18134 -0.61098,0.12156 -0.58991,0.200236 -0.95896,0.41365 -0.55869,0.275536 -0.518,0.346076 -0.8377,0.623622 -0.46837,0.410792 -0.21668,0.247068 -0.54374,-0.826716 -0.34611,-0.518002 -0.41075,-0.468366 -0.75963,-0.71665 -0.46837,-0.410792 -0.51798,-0.346074 -0.90444,-0.522182 -0.55871,-0.275538 -0.5899,-0.200236 -0.93951,-0.281252 0.69797,-0.208968 0.90443,-0.522182 0.75964,-0.716704 0.57388,-0.872542 0.35719,-0.98134 0.12124,-1.037324 -0.12124,-1.037274 -0.32573,-2.47417 9.2172,1.21343 -1.20311,2.90449 -0.24083,1.016212 v 1.044364 l 0.24083,1.016212 0.46873,0.933238 0.6713,0.800048 0.83767,0.623622 0.0906,0.0391 -0.60123,-0.03504 z"
       id="path2341" />
    <path
       style="fill:none;stroke:#00ff00;stroke-width:0.5;stroke-miterlimit:4;stroke-dasharray:none;stroke-opacity:1"
       d="m 101.1824,81.773358 0.79375,-0.576686 0.30319,-0.933132 -0.45931,-3.48885 -0.30319,-0.93308 -0.79375,-0.576684 h -0.981125 l -5.403802,0.71141 -0.79375,0.576686 -0.30316,0.933132 0.459316,3.48885 0.30316,0.93308 0.79375,0.576686 h 0.981128 z"
       id="path2339" />
    <path
       style="fill:none;stroke:#0000ff;stroke-width:0.5;stroke-miterlimit:4;stroke-dasharray:none;stroke-opacity:1"
       d="m 94.828753,77.486154 5.403777,-0.711464 0.45931,3.48885 -5.403771,0.711464 z"
       id="path2337" />
    <path
       style="fill:none;stroke:#ff0000;stroke-width:0.5;stroke-miterlimit:4;stroke-dasharray:none;stroke-opacity:1"
       d="m 92.016867,92.372514 0.303212,-0.933134 0.07996,-0.337344 0.233944,-0.474398 0.468684,-0.93329 0.346128,-0.518002 0.6713,-0.799994 0.41074,-0.468366 0.468364,-0.410738 0.230452,-0.1716 0.33147,-0.221456 0.302736,-0.14928 0.79375,-0.576686 0.30316,-0.933134 -0.303162,-0.93308 -0.79375,-0.576686 h -0.461274 l -0.913976,-0.16118 -0.9135,-0.394016 -0.08938,-0.06658 -0.671302,-0.800048 -0.313372,-0.62394 -0.09298,-0.392376 -0.374546,-2.844854 -0.303212,-0.93308 -0.79375,-0.576684 h -0.981128 l -8.561546,3.546316 -0.79375,0.576686 -0.303212,0.933132 0.303212,0.93308 1.667722,2.173498 0.573882,0.872544 0.07128,0.19568 0.10398,0.889846 -0.10398,0.889846 -0.07128,0.19568 -0.573882,0.872544 -0.340624,0.321416 -0.303214,0.933078 0.303214,0.933134 0.79375,0.576686 h 0.981128 l 0.18938,-0.0643 0.610976,-0.12154 1.028488,-0.18134 0.15996,-0.0104 0.523134,0.03048 0.621612,0.04074 0.611028,0.12154 1.000442,0.299508 0.589916,0.200236 0.558694,0.275536 0.646218,0.373064 h 0.981128 z"
       id="path2335" />
    <path
       style="fill:none;stroke:#0000ff;stroke-width:0.5;stroke-miterlimit:4;stroke-dasharray:none;stroke-opacity:1"
       d="m 84.126093,89.28202 0.357188,-0.981392 0.12124,-1.037272 -0.12124,-1.037272 -0.357188,-0.981394 -0.573882,-0.872542 -1.667774,-2.173446 8.561598,-3.54637 0.374546,2.844854 0.240822,1.016158 0.468684,0.933292 0.6713,0.799994 0.837724,0.623676 0.958956,0.413648 1.028488,0.18134 0.34671,-0.02022 -0.302736,0.14928 -0.517948,0.346128 -0.837724,0.623624 -0.468366,0.410738 -0.410738,0.468366 -0.671302,0.800048 -0.346074,0.518 -0.468736,0.933238 -0.275484,0.558696 -0.20029,0.589914 -0.14128,0.596266 -0.646226,-0.373064 -0.558694,-0.275538 -0.589914,-0.200236 -1.000496,-0.299508 -0.610976,-0.12154 -0.621666,-0.04074 -1.042564,-0.0607 -0.621612,0.04074 -1.028488,0.18134 -0.611028,0.1215 -0.1894,0.0643 0.340678,-0.321362 z"
       id="path2333" />
    <path
       style="fill:none;stroke:#00ff00;stroke-width:0.5;stroke-miterlimit:4;stroke-dasharray:none;stroke-opacity:1"
       d="m 123.30337,85.427306 1.34668,-3.251094 0.30316,-0.933132 -0.30316,-0.93308 -0.79375,-0.576686 -5.03555,-2.085816 h -0.98113 l -0.79375,0.576686 -1.34662,3.251146 -0.30322,0.93308 0.30322,0.933132 0.79375,0.576686 5.03549,2.085764 h 0.98113 z"
       id="path2331" />
    <path
       style="fill:none;stroke:#ff0000;stroke-width:0.5;stroke-miterlimit:4;stroke-dasharray:none;stroke-opacity:1"
       d="m 116.98353,82.40841 1.34668,-3.251094 5.0355,2.085764 -1.34663,3.251094 z"
       id="path2329" />
    <path
       style="fill:none;stroke:#ff0000;stroke-width:0.5;stroke-miterlimit:4;stroke-dasharray:none;stroke-opacity:1"
       d="m 132.50256,97.744034 0.30322,-0.93308 -0.30322,-0.93313 -0.23389,-0.465724 -0.093,-0.392378 V 93.97536 l 0.093,-0.39243 0.31337,-0.62394 0.6713,-0.799996 2.71458,-2.082958 0.30316,-0.933134 -0.30316,-0.933078 -7.38669,-5.66801 -0.79375,-0.576686 h -0.98113 l -0.79375,0.576686 -1.25836,3.037946 -0.57388,0.872542 -0.43619,0.41148 -0.43413,0.250666 -1.0005,0.299508 -0.30506,0.0178 -0.73433,-0.12948 h -0.98112 l -0.79375,0.576686 -0.30322,0.933132 0.30322,0.93308 0.51906,0.489744 0.41079,0.468366 0.34607,0.518 0.57388,0.872544 0.27554,0.558694 0.28072,0.771208 0.095,0.477942 0.12128,1.037326 0.0407,0.621612 -0.0124,0.189224 0.30322,0.93313 0.79375,0.57668 h 0.98112 l 0.0601,-0.0204 0.61098,-0.12154 1.02849,-0.18134 0.16002,-0.0104 0.52308,0.0304 0.62161,0.0407 0.61103,0.12154 1.00044,0.29956 0.58992,0.20024 0.55875,0.27549 0.73924,0.42682 h 0.98113 z"
       id="path2327" />
    <path
       style="fill:none;stroke:#0000ff;stroke-width:0.5;stroke-miterlimit:4;stroke-dasharray:none;stroke-opacity:1"
       d="m 123.70517,94.938972 -0.12128,-1.037326 -0.1215,-0.610976 -0.20029,-0.589914 -0.35719,-0.981394 -0.27554,-0.558694 -0.57388,-0.872542 -0.34608,-0.51795 -0.41073,-0.468418 -0.51912,-0.48969 0.97796,0.1724 1.04261,-0.0607 1.00045,-0.299508 0.90445,-0.522182 0.75962,-0.716704 0.57388,-0.872542 1.25836,-3.037946 7.38669,5.66801 -2.71458,2.082958 -0.6713,0.800048 -0.46868,0.933238 -0.24088,1.016212 v 1.044362 l 0.24088,1.01616 0.38926,0.77507 -0.7393,-0.42683 -0.5587,-0.27553 -0.58991,-0.20024 -1.0005,-0.299508 -0.61097,-0.12154 -0.62167,-0.04074 -1.04256,-0.06074 -0.62162,0.04074 -1.02848,0.18134 -0.61098,0.121558 -0.0601,0.0204 0.0124,-0.189218 z"
       id="path2325" />
    <path
       style="fill:none;stroke:#00ff00;stroke-width:0.5;stroke-miterlimit:4;stroke-dasharray:none;stroke-opacity:1"
       d="m 77.066797,91.51447 4.324138,-3.317982 0.30316,-0.933132 -0.30316,-0.933132 -2.142224,-2.791778 -0.79375,-0.576686 h -0.981128 l -0.79375,0.576686 -4.324086,3.318034 -0.303212,0.93308 0.303212,0.933132 2.142172,2.791778 0.79375,0.576686 h 0.981128 z"
       id="path2323" />
    <path
       style="fill:none;stroke:#ff0000;stroke-width:0.5;stroke-miterlimit:4;stroke-dasharray:none;stroke-opacity:1"
       d="m 73.640285,87.78956 4.324086,-3.317982 2.142224,2.791778 -4.324084,3.31798 z"
       id="path2321" />
    <path
       style="fill:none;stroke:#00ff00;stroke-width:0.5;stroke-miterlimit:4;stroke-dasharray:none;stroke-opacity:1"
       d="m 101.86419,101.22483 2.89921,-3.778346 0.3461,-0.518 0.27553,-0.5587 0.20025,-0.58991 0.30318,-0.933082 0.12154,-0.61103 0.0407,-0.621612 -0.0408,-0.621612 -0.12152,-0.611028 -0.30318,-0.93308 -0.20025,-0.589916 -0.27552,-0.558748 -0.34611,-0.517948 -0.41074,-0.468364 -0.46837,-0.410792 -0.79375,-0.576686 -0.51798,-0.346076 -0.55871,-0.275536 -0.58991,-0.200238 -0.611,-0.12154 -0.62163,-0.04074 h -0.981131 l -0.621618,0.04074 -0.611002,0.12156 -0.589914,0.200236 -0.558694,0.275536 -0.518002,0.346076 -0.79375,0.576686 -0.468366,0.410792 -0.410738,0.468312 -0.346076,0.518002 -0.275536,0.558746 -0.200238,0.589862 -0.303212,0.933134 -0.1215,0.610976 -0.0408,0.621664 0.04074,0.621612 0.12154,0.610976 0.303212,0.933128 0.200238,0.58992 0.275536,0.55869 0.346076,0.51801 0.410738,0.46836 0.468366,0.41074 3.778362,2.899246 0.793749,0.57669 h 0.98113 z"
       id="path2319" />
    <path
       style="fill:none;stroke:#0000ff;stroke-width:0.5;stroke-miterlimit:4;stroke-dasharray:none;stroke-opacity:1"
       d="m 96.801539,97.392454 -0.468366,-0.41074 -0.410738,-0.46837 -0.346128,-0.51794 -0.275538,-0.55875 -0.200236,-0.589916 -0.12154,-0.610976 -0.04074,-0.621612 0.0408,-0.621664 0.1215,-0.610976 0.200236,-0.589916 0.275538,-0.558694 0.346128,-0.518002 0.410738,-0.468366 0.468366,-0.410738 0.517948,-0.346128 0.558748,-0.275484 0.589904,-0.20029 0.610986,-0.1215 0.621618,-0.04074 0.621637,0.04074 0.611,0.1215 0.5899,0.20029 0.55871,0.275484 0.51799,0.346128 0.46836,0.410738 0.41075,0.468366 0.3461,0.518002 0.27553,0.558694 0.20025,0.589916 0.12152,0.611028 0.0408,0.621612 -0.0407,0.621612 -0.12154,0.61103 -0.20024,0.589862 -0.27554,0.55875 -0.34609,0.51794 -2.89922,3.778356 z"
       id="path2317" />
    <path
       style="fill:none;stroke:#ff0000;stroke-width:0.5;stroke-miterlimit:4;stroke-dasharray:none;stroke-opacity:1"
       d="m 116.79854,101.47037 0.55874,-0.27554 0.51795,-0.34613 0.79375,-0.57668 0.46837,-0.410736 0.41079,-0.46837 0.34607,-0.518 0.27554,-0.55869 0.20024,-0.58992 0.30321,-0.93308 0.12154,-0.61103 0.0407,-0.62161 -0.0407,-0.621612 -0.12154,-0.611028 -0.30321,-0.93308 -0.20024,-0.589916 -0.27554,-0.558746 -0.34607,-0.51795 -0.41074,-0.468366 -0.46842,-0.410738 -0.79375,-0.576738 -0.51795,-0.346076 -0.55874,-0.275538 -0.58987,-0.200236 -0.61097,-0.12154 -0.62167,-0.04074 h -0.98112 l -0.62162,0.04074 -0.61097,0.12154 -0.58992,0.200238 -0.55874,0.275536 -0.51795,0.346076 -0.79375,0.576738 -0.46842,0.41074 -0.41074,0.468364 -0.34608,0.518002 -0.27553,0.558694 -0.20025,0.589916 -0.30319,0.93308 -0.12152,0.611028 -0.0407,0.621612 0.0407,0.62161 0.12154,0.61103 0.30319,0.93308 0.20024,0.58992 1.8225,4.399956 0.79375,0.57669 h 0.98113 z"
       id="path2315" />
    <path
       style="fill:none;stroke:#0000ff;stroke-width:0.5;stroke-miterlimit:4;stroke-dasharray:none;stroke-opacity:1"
       d="m 110.08553,97.383084 -0.20029,-0.58986 -0.1215,-0.61103 -0.0407,-0.62161 0.0407,-0.621612 0.1215,-0.611028 0.20029,-0.589862 0.27548,-0.558748 0.34613,-0.517948 0.41074,-0.468418 0.46836,-0.41074 0.51801,-0.346076 0.55869,-0.275536 0.58992,-0.200238 0.61097,-0.12154 0.62161,-0.04074 0.62167,0.04074 0.61097,0.12154 0.58992,0.200238 0.55869,0.275536 0.518,0.346076 0.46837,0.41074 0.41074,0.468364 0.34613,0.518002 0.27553,0.558694 0.20024,0.589916 0.12154,0.611028 0.0407,0.621612 -0.0407,0.62161 -0.12154,0.61103 -0.20024,0.58986 -0.27553,0.55875 -0.34613,0.51795 -0.41074,0.46842 -0.46837,0.41074 -0.518,0.34607 -0.55869,0.27554 -4.39997,1.822546 z"
       id="path2313" />
    <path
       style="fill:none;stroke:#0000ff;stroke-width:0.5;stroke-miterlimit:4;stroke-dasharray:none;stroke-opacity:1"
       d="m 71.362011,105.80297 0.313584,-0.35756 0.468366,-0.41074 0.230452,-0.17156 0.331522,-0.2215 0.558694,-0.27554 0.958956,-0.41365 0.589916,-0.20024 0.610974,-0.12156 1.02849,-0.18134 0.200924,-0.0132 h 0.894132 l 0.79375,-0.57668 0.303214,-0.93314 -0.201614,-0.85068 -0.12154,-0.61098 -0.04074,-0.621606 v -1.04437 l 0.04074,-0.62166 0.12154,-0.61098 0.1795,-0.75734 0.233944,-0.47434 0.468684,-0.933296 0.03482,-0.05212 0.303214,-0.93308 -0.303214,-0.933132 -0.79375,-0.576686 h -0.981128 l -0.511968,0.295592 -1.000496,0.299508 -0.30501,0.0178 -0.784914,-0.13838 -0.9135,-0.394072 -0.08938,-0.06656 -0.671306,-0.799988 -1.591892,-2.0746 -0.79375,-0.576686 h -0.981128 l -0.79375,0.576686 -5.647424,7.359864 -0.30316,0.93313 0.30316,0.93313 0.79375,0.57669 2.775478,1.149606 0.434128,0.25067 0.436192,0.41148 0.573882,0.87254 0.07122,0.19574 0.10398,0.8898 -0.11652,0.99705 -0.08282,0.25485 0.303212,0.93313 0.79375,0.57669 h 0.981074 z"
       id="path2311" />
    <path
       style="fill:none;stroke:#00ff00;stroke-width:0.5;stroke-miterlimit:4;stroke-dasharray:none;stroke-opacity:1"
       d="m 70.155827,104.65526 0.12124,-1.03732 -0.12124,-1.03728 -0.357186,-0.98134 -0.573882,-0.87254 -0.759618,-0.7167 -0.904452,-0.522176 -2.775426,-1.14962 5.647424,-7.35986 1.59184,2.074598 0.6713,0.799994 0.837724,0.623624 0.958956,0.413648 1.028488,0.18134 1.042566,-0.0607 1.000494,-0.299508 0.51197,-0.295592 -0.03482,0.05208 -0.468736,0.933292 -0.275536,0.558694 -0.200238,0.58991 -0.240824,1.01622 -0.12154,0.61097 -0.04074,0.62167 v 1.04436 l 0.04074,0.621606 0.12154,0.61098 0.201614,0.85069 -0.473446,-0.0276 -0.621666,0.0407 -1.028488,0.18134 -0.610976,0.12154 -0.589914,0.20023 -0.958956,0.41365 -0.558694,0.27554 -0.517948,0.34613 -0.837724,0.62362 -0.468366,0.41074 -0.313584,0.35756 z"
       id="path2309" />
    <path
       style="fill:none;stroke:#00ff00;stroke-width:0.5;stroke-miterlimit:4;stroke-dasharray:none;stroke-opacity:1"
       d="m 139.65795,99.754764 2.79183,-2.14223 0.30316,-0.93313 -0.30316,-0.93308 -3.31803,-4.324088 -0.79375,-0.576686 h -0.98113 l -0.79375,0.576686 -2.79177,2.142172 -0.30316,0.933134 0.30316,0.933078 3.31803,4.324144 0.79375,0.576676 h 0.98107 z"
       id="path2307" />
    <path
       style="fill:none;stroke:#0000ff;stroke-width:0.5;stroke-miterlimit:4;stroke-dasharray:none;stroke-opacity:1"
       d="m 135.05569,94.497542 2.79177,-2.142226 3.31798,4.324088 -2.79177,2.14222 z"
       id="path2305" />
    <path
       style="fill:none;stroke:#ff0000;stroke-width:0.5;stroke-miterlimit:4;stroke-dasharray:none;stroke-opacity:1"
       d="m 91.308049,105.59734 0.30316,-0.93314 0.621612,-4.721746 0.04074,-0.62161 -0.04074,-0.62167 -0.1215,-0.61097 -0.303212,-0.93308 -0.200236,-0.58992 -0.275538,-0.55874 -0.346074,-0.517952 -0.41074,-0.468366 -0.468418,-0.410792 -0.79375,-0.576686 -0.517948,-0.346074 -0.558748,-0.275538 -0.589862,-0.200236 -0.611028,-0.12156 -0.621612,-0.04074 h -0.981128 l -0.621612,0.04074 -0.61103,0.12156 -0.589914,0.200236 -0.558694,0.275538 -0.518002,0.346074 -0.79375,0.576686 -0.468366,0.41074 -0.410738,0.468364 -0.346076,0.518006 -0.275536,0.55874 -0.200238,0.58987 -0.303212,0.93313 -0.12154,0.61097 -0.04074,0.62167 0.04074,0.62161 0.12154,0.610976 0.303212,0.93313 0.200238,0.58991 0.275536,0.5587 0.346076,0.518 0.410738,0.46836 0.468366,0.41074 0.79375,0.57669 0.518002,0.34613 0.558694,0.27553 0.589914,0.20019 0.61103,0.12154 4.721754,0.62166 h 0.981128 z"
       id="path2303" />
    <path
       style="fill:none;stroke:#0000ff;stroke-width:0.5;stroke-miterlimit:4;stroke-dasharray:none;stroke-opacity:1"
       d="m 85.301953,104.04259 -0.610974,-0.12156 -0.589916,-0.20023 -0.558748,-0.27554 -0.517948,-0.34613 -0.468364,-0.41074 -0.41074,-0.46836 -0.346128,-0.51795 -0.275536,-0.55875 -0.200238,-0.58991 -0.12156,-0.610976 -0.04074,-0.62161 0.04074,-0.62167 0.12156,-0.61097 0.200238,-0.58992 0.275536,-0.55869 0.346128,-0.518 0.41074,-0.46837 0.468364,-0.410738 0.517948,-0.346074 0.558748,-0.275538 0.589916,-0.20029 0.610974,-0.1215 0.621612,-0.04074 0.621666,0.04074 0.610976,0.12154 0.589914,0.200236 0.558694,0.275484 0.518002,0.346128 0.468366,0.410742 0.410738,0.46836 0.346128,0.518 0.275484,0.5587 0.20029,0.58991 0.1215,0.61098 0.04074,0.62166 -0.04074,0.62162 -0.621612,4.721746 z"
       id="path2301" />
    <path
       style="fill:none;stroke:#00ff00;stroke-width:0.5;stroke-miterlimit:4;stroke-dasharray:none;stroke-opacity:1"
       d="m 127.42838,110.87017 0.61098,-0.12154 0.58991,-0.20024 0.55875,-0.27554 0.51795,-0.34607 0.79375,-0.57669 0.46837,-0.41074 0.41073,-0.46842 0.34613,-0.51794 0.27554,-0.55875 0.20024,-0.58986 0.30316,-0.93314 0.12154,-0.61097 0.0407,-0.62167 -0.0407,-0.62161 -0.1215,-0.61097 -0.30322,-0.93314 -0.20023,-0.58991 -0.27554,-0.5587 -0.34613,-0.518 -0.41074,-0.46836 -0.46836,-0.410736 -0.79375,-0.57669 -0.51795,-0.34613 -0.55875,-0.27548 -0.58986,-0.20024 -0.61103,-0.12154 -0.62161,-0.0407 h -0.98113 l -0.62161,0.0407 -0.61103,0.1215 -0.58991,0.20029 -0.5587,0.27549 -0.518,0.34612 -0.79375,0.57669 -0.46837,0.410736 -0.41073,0.46836 -0.34608,0.51801 -0.27554,0.55869 -0.20023,0.58991 -0.30322,0.93314 -0.12154,0.61097 -0.62161,4.72176 0.30322,0.93313 0.79375,0.57669 4.7217,0.62161 0.62166,0.0407 h 0.98113 z"
       id="path2299" />
    <path
       style="fill:none;stroke:#0000ff;stroke-width:0.5;stroke-miterlimit:4;stroke-dasharray:none;stroke-opacity:1"
       d="m 125.69457,109.36035 -4.72176,-0.62161 0.62162,-4.72176 0.12154,-0.61097 0.20023,-0.58992 0.27554,-0.55875 0.34613,-0.51795 0.41074,-0.46836 0.46836,-0.41074 0.51795,-0.34613 0.55875,-0.27553 0.58991,-0.20024 0.61098,-0.121556 0.62161,-0.0407 0.62167,0.0407 0.61097,0.121556 0.58992,0.20024 0.55869,0.27553 0.518,0.34613 0.46837,0.41074 0.41074,0.46836 0.34607,0.51795 0.27554,0.55875 0.20029,0.58992 0.1215,0.61097 0.0407,0.62161 -0.0407,0.62167 -0.12154,0.61097 -0.20024,0.58992 -0.27548,0.55869 -0.34613,0.518 -0.41074,0.46837 -0.46837,0.41074 -0.518,0.34613 -0.55869,0.27548 -0.58992,0.20029 -0.61097,0.1215 -0.62167,0.0407 z"
       id="path2297" />
    <path
       style="fill:none;stroke:#0000ff;stroke-width:0.5;stroke-miterlimit:4;stroke-dasharray:none;stroke-opacity:1"
       d="m 108.97862,115.16573 0.30321,-0.93308 v -10.88538 l -0.30321,-0.93313 -0.013,-0.0258 -1.31894,-3.184156 -0.79375,-0.57674 h -0.98113 l -0.79375,0.57674 -2.33698,3.045566 -0.43616,0.41153 -0.43416,0.25067 -1.00048,0.29951 -0.30504,0.0178 -0.784893,-0.13842 -0.91349,-0.39402 -0.0894,-0.0666 -2.553414,-1.95929 -0.79375,-0.57669 h -0.981048 l -0.79375,0.57669 -0.30316,0.93313 -0.520646,3.95451 -0.276226,0.85016 0.303212,0.93308 0.79375,0.57674 13.551345,7.82389 h 0.98112 z"
       id="path2295" />
    <path
       style="fill:none;stroke:#ff0000;stroke-width:0.5;stroke-opacity:1;stroke-miterlimit:4;stroke-dasharray:none"
       d="m 94.142953,106.40876 0.25744,-0.70728 0.539432,-4.09739 2.553388,1.95929 0.837702,0.62362 0.958946,0.41365 1.028489,0.18134 1.04257,-0.0607 1.00048,-0.29956 0.90444,-0.52218 0.75963,-0.71665 2.33698,-3.04562 1.31892,3.18415 0.013,0.0258 -1e-5,10.88539 z"
       id="path2293" />
    <path
       style="fill:none;stroke:#0000ff;stroke-width:0.5;stroke-miterlimit:4;stroke-dasharray:none;stroke-opacity:1"
       d="m 141.47887,115.00518 0.30316,-0.93308 v -0.59118 l 0.093,-0.39243 0.31332,-0.62395 0.6713,-0.79999 0.0894,-0.0666 0.9135,-0.39402 1.02849,-0.1814 2.59255,-0.34131 0.79375,-0.57669 0.30321,-0.93308 -0.30321,-0.93313 -3.55013,-8.570746 -0.79375,-0.57669 h -0.98113 l -0.79375,0.57669 -1.75995,1.350476 -0.73406,0.42381 -1.00044,0.29951 -0.30507,0.0178 -0.78491,-0.13838 -0.91345,-0.39407 -0.0894,-0.0666 -0.1468,-0.17494 -0.79375,-0.57668 h -0.98113 l -0.79375,0.57668 -0.30321,0.93313 0.16324,0.50229 0.11118,0.55906 0.12124,1.03728 0.0407,0.62161 -0.0407,0.62166 -0.12124,1.03728 -0.095,0.47789 -0.28072,0.77126 -0.27554,0.55874 -0.26062,0.39624 -0.30321,0.93308 0.30321,0.93314 0.79375,0.57668 0.83752,0.25072 0.58991,0.20029 0.5587,0.27554 0.86693,0.50048 0.23013,0.20183 0.75962,0.7167 0.41074,0.46831 0.34613,0.51801 0.57388,0.87254 0.0277,0.0562 0.79375,0.57668 h 0.98113 z"
       id="path2291" />
    <path
       style="fill:none;stroke:#00ff00;stroke-width:0.5;stroke-miterlimit:4;stroke-dasharray:none;stroke-opacity:1"
       d="m 139.59292,113.14331 -0.34608,-0.51795 -0.41073,-0.46837 -0.75968,-0.71665 -0.46836,-0.41079 -0.51795,-0.34607 -0.90445,-0.52219 -0.5587,-0.27553 -0.58991,-0.20024 -0.83757,-0.25077 0.26062,-0.39624 0.27554,-0.5587 0.35718,-0.98139 0.20024,-0.58991 0.12154,-0.61098 0.12124,-1.03727 0.0407,-0.62167 -0.0407,-0.62161 -0.12124,-1.03727 -0.12154,-0.61103 -0.15288,-0.45032 0.14678,0.17494 0.83772,0.62362 0.95896,0.41365 1.02849,0.18134 1.04256,-0.0607 1.0005,-0.29956 0.9044,-0.52213 2.38336,-1.8288 3.55013,8.57075 -2.5926,0.34132 -1.02849,0.18134 -0.95895,0.41365 -0.83767,0.62362 -0.6713,0.80005 -0.46874,0.93323 -0.24082,1.01622 v 0.59118 l -0.0277,-0.0562 z"
       id="path2289" />
    <path
       style="fill:none;stroke:#00ff00;stroke-width:0.5;stroke-miterlimit:4;stroke-dasharray:none;stroke-opacity:1"
       d="m 64.977721,109.58657 2.085762,-5.0355 0.30316,-0.93313 -0.30316,-0.93308 -0.79375,-0.57669 -3.251094,-1.34668 h -0.981128 l -0.79375,0.57669 -2.085816,5.03555 -0.30316,0.93308 0.30316,0.93313 0.79375,0.57669 3.251148,1.34667 h 0.981128 z"
       id="path2287" />
    <path
       style="fill:none;stroke:#0000ff;stroke-width:0.5;stroke-miterlimit:4;stroke-dasharray:none;stroke-opacity:1"
       d="m 60.442285,107.30681 2.085764,-5.0355 3.251094,1.34663 -2.085762,5.03555 z"
       id="path2285" />
    <path
       style="fill:none;stroke:#00ff00;stroke-width:0.5;stroke-miterlimit:4;stroke-dasharray:none;stroke-opacity:1"
       d="m 122.38691,117.93041 0.79375,-0.57669 2.11555,-2.75706 0.30316,-0.93308 -0.30316,-0.93313 -0.79375,-0.57668 -3.30062,-0.4345 -1.02849,-0.1814 -0.91345,-0.39402 -0.0894,-0.0666 -0.6713,-0.8 -0.31337,-0.62394 -0.093,-0.39243 v -1.04436 l 0.48313,-3.66988 -0.30316,-0.93308 -0.79375,-0.57674 h -0.98113 l -3.29893,1.36647 -1.0005,0.29956 -0.2322,0.0134 -0.79375,0.57669 -0.30321,0.93313 v 15.64431 l 0.30321,0.9331 0.79375,0.5767 h 0.98108 z"
       id="path2283" />
    <path
       style="fill:none;stroke:#ff0000;stroke-width:0.5;stroke-opacity:1;stroke-miterlimit:4;stroke-dasharray:none"
       d="m 112.45683,106.2262 0.23225,-0.0136 1.0005,-0.29951 3.29887,-1.36647 -0.48312,3.66988 v 1.04436 l 0.24082,1.01621 0.46873,0.93324 0.67125,0.80005 0.83773,0.62362 0.95895,0.41365 1.02849,0.18134 3.30057,0.43455 -2.11555,2.75701 -9.43949,5.44991 z"
       id="path2281" />
    <path
       style="fill:none;stroke:#00ff00;stroke-width:0.5;stroke-miterlimit:4;stroke-dasharray:none;stroke-opacity:1"
       d="m 77.957755,117.3831 0.610976,-0.12154 0.589916,-0.20025 4.399968,-1.82251 0.79375,-0.57669 0.303212,-0.93313 -0.303212,-0.93308 -1.822504,-4.40002 -0.275536,-0.55869 -0.346128,-0.518 -0.41074,-0.46837 -0.468366,-0.41074 -0.79375,-0.57668 -0.518,-0.34608 -0.558694,-0.27554 -0.589916,-0.20023 -0.610976,-0.12154 -0.621664,-0.0407 h -0.981128 l -0.621612,0.0407 -0.610976,0.12154 -0.589916,0.20023 -0.558746,0.27554 -0.517948,0.34608 -0.79375,0.57668 -0.468366,0.41074 -0.41074,0.46837 -0.346128,0.518 -0.275536,0.55869 -0.200238,0.58992 -0.303158,0.93313 -0.12154,0.61098 -0.04074,0.62166 0.04074,0.62161 0.12154,0.61098 0.303158,0.93308 0.200238,0.58991 0.275536,0.55875 0.346128,0.51795 0.41074,0.46842 0.468366,0.41074 0.79375,0.57668 0.518,0.34608 0.558694,0.27554 0.589916,0.20025 0.610976,0.12152 0.621664,0.0407 h 0.981128 z"
       id="path2279" />
    <path
       style="fill:none;stroke:#0000ff;stroke-width:0.5;stroke-miterlimit:4;stroke-dasharray:none;stroke-opacity:1"
       d="m 76.223941,115.87328 -0.611028,-0.1215 -0.589862,-0.20029 -0.558748,-0.27548 -0.517948,-0.34613 -0.468418,-0.41074 -0.41074,-0.46837 -0.346074,-0.518 -0.275538,-0.55869 -0.200236,-0.58992 -0.12154,-0.61097 -0.04074,-0.62162 0.04074,-0.62166 0.12154,-0.61098 0.200236,-0.58991 0.275538,-0.5587 0.346074,-0.518 0.41074,-0.46836 0.468364,-0.41074 0.518002,-0.34613 0.558694,-0.27554 0.589916,-0.20023 0.611028,-0.12154 0.621612,-0.0407 0.621612,0.0407 0.611028,0.12154 0.589862,0.20023 0.558748,0.27554 0.517948,0.34613 0.468418,0.41074 0.41074,0.46836 0.346074,0.518 0.275538,0.5587 1.822556,4.39997 -4.400022,1.8225 -0.589862,0.20029 -0.611028,0.1215 -0.621612,0.0407 z"
       id="path2277" />
    <path
       style="fill:none;stroke:#00ff00;stroke-width:0.5;stroke-miterlimit:4;stroke-dasharray:none;stroke-opacity:1"
       d="m 99.189059,116.04796 0.79375,-0.57669 0.303181,-0.93308 -0.303181,-0.93313 -0.79375,-0.57669 -9.439512,-5.44994 -3.445458,-0.45355 h -0.981128 l -0.79375,0.57669 -0.303158,0.93308 0.303158,0.93313 1.274022,3.07568 0.07122,0.19568 0.10404,0.88984 -0.10404,0.88985 -0.07122,0.19568 -0.57388,0.87255 -0.436192,0.41153 -0.43413,0.25066 -3.419792,1.4165 -0.79375,0.5767 -0.30316,0.9331 0.30316,0.93311 2.832842,2.1737 0.759618,0.71668 0.12784,0.1944 0.79375,0.5767 h 0.981128 z"
       id="path2275" />
    <path
       style="fill:none;stroke:#ff0000;stroke-width:0.5;stroke-opacity:1;stroke-miterlimit:4;stroke-dasharray:none"
       d="m 85.022289,122.16594 -0.759672,-0.71668 -2.832788,-2.1737 3.41974,-1.41651 0.904452,-0.52217 0.759618,-0.71668 0.573882,-0.87254 0.357188,-0.9814 0.12128,-1.03727 -0.12128,-1.03727 -0.357188,-0.98139 -1.273968,-3.07568 3.445404,0.4536 9.439538,5.44994 -13.54836,7.82213 z"
       id="path2273" />
    <path
       style="fill:none;stroke:#ff0000;stroke-width:0.5;stroke-miterlimit:4;stroke-dasharray:none;stroke-opacity:1"
       d="m 67.191965,124.79276 0.303212,-0.9331 0.10318,-0.43552 0.233946,-0.47438 0.468736,-0.93328 0.346074,-0.51798 0.671302,-0.8 0.410738,-0.46838 0.468366,-0.41074 0.230504,-0.1716 0.331418,-0.22148 0.17012,-0.0839 0.79375,-0.5767 0.30316,-0.9331 -0.30316,-0.93311 -0.04774,-0.0418 -0.41074,-0.46836 -0.6713,-0.8 -0.346076,-0.518 -0.468736,-0.93324 -0.23389,-0.47439 -0.17954,-0.75735 -0.1215,-0.61097 -0.04074,-0.62167 v -0.8536 l -0.303216,-0.93314 -0.79375,-0.57669 h -0.981128 l -0.79375,0.57669 -0.476568,0.72459 -0.436138,0.41153 -0.434182,0.25061 -1.000442,0.29957 -0.305066,0.0178 -0.784912,-0.13842 -3.161188,-1.30943 h -0.981128 l -0.79375,0.57674 -0.30316,0.93308 -1.215284,9.23107 0.30316,0.9331 0.79375,0.5767 h 0.981128 l 2.959204,-0.3896 0.362374,0.0212 1.000496,0.29954 0.434128,0.25066 0.436192,0.4115 0.573882,0.87254 0.339618,0.93314 0.79375,0.5767 h 0.981128 z"
       id="path2271" />
    <path
       style="fill:none;stroke:#0000ff;stroke-width:0.5;stroke-miterlimit:4;stroke-dasharray:none;stroke-opacity:1"
       d="m 62.403377,112.96244 1.028488,0.18134 1.042566,-0.0607 1.000494,-0.29956 0.9044,-0.52218 0.75967,-0.71665 0.476568,-0.72459 v 0.8536 l 0.04074,0.62166 0.1215,0.61098 0.240876,1.01621 0.200238,0.58991 0.275536,0.5587 0.468684,0.93329 0.346128,0.51795 0.6713,0.80002 0.41074,0.46837 0.04768,0.0418 -0.17008,0.0839 -0.518002,0.34611 -0.83767,0.62364 -0.468366,0.41075 -0.410792,0.46836 -0.6713,0.80002 -0.346076,0.51798 -0.468682,0.93326 -0.275538,0.55872 -0.200236,0.5899 -0.16458,0.6944 -0.339672,-0.93314 -0.57388,-0.87254 -0.75962,-0.71668 -0.90445,-0.52218 -1.000496,-0.29952 -1.042564,-0.0608 -3.26009,0.4292 1.215284,-9.23106 z"
       id="path2269" />
    <path
       style="fill:none;stroke:#00ff00;stroke-width:0.5;stroke-miterlimit:4;stroke-dasharray:none;stroke-opacity:1"
       d="m 149.35287,120.45736 0.79375,-0.5767 0.30321,-0.9331 -0.71146,-5.40378 -0.30316,-0.93313 -0.79375,-0.57669 h -0.98113 l -3.48885,0.45932 -0.79375,0.57669 -0.30321,0.93313 0.71146,5.40376 0.30316,0.93312 0.79375,0.5767 h 0.98113 z"
       id="path2267" />
    <path
       style="fill:none;stroke:#ff0000;stroke-width:0.5;stroke-miterlimit:4;stroke-dasharray:none;stroke-opacity:1"
       d="m 144.66202,114.0031 3.48885,-0.45932 0.71146,5.40378 -3.48885,0.4593 z"
       id="path2265" />
    <path
       style="fill:none;stroke:#ff0000;stroke-width:0.5;stroke-miterlimit:4;stroke-dasharray:none;stroke-opacity:1"
       d="m 133.13508,124.64732 0.61097,-0.1216 0.58992,-0.20024 0.55874,-0.27554 0.51795,-0.3461 0.79375,-0.57668 0.46837,-0.41076 0.41079,-0.46836 0.34607,-0.51798 0.27554,-0.55872 0.20024,-0.5899 0.30321,-0.9331 0.1215,-0.61101 0.0407,-0.62163 -0.0407,-0.62162 -0.1215,-0.61099 -0.30321,-0.93312 -0.20024,-0.58991 -0.27554,-0.5587 -0.34612,-0.518 -0.41074,-0.46837 -0.46837,-0.41073 -0.79375,-0.57669 -0.51795,-0.34608 -0.55874,-0.27553 -0.58987,-0.20029 -0.61102,-0.1215 -0.62162,-0.0407 h -0.98112 l -0.62167,0.0407 -0.61098,0.1215 -0.58991,0.20029 -0.55869,0.27548 -0.51801,0.34613 -0.79375,0.57669 -0.46836,0.41073 -0.41074,0.46837 -2.8992,3.77836 -0.30321,0.93311 0.30321,0.93311 3.7783,2.89922 0.79375,0.57668 0.51801,0.3461 0.55869,0.27554 0.58991,0.20024 0.61098,0.1216 0.62167,0.0408 h 0.98112 z"
       id="path2263" />
    <path
       style="fill:none;stroke:#0000ff;stroke-width:0.5;stroke-miterlimit:4;stroke-dasharray:none;stroke-opacity:1"
       d="m 131.40126,123.13754 -0.61103,-0.1216 -0.58986,-0.20026 -0.55875,-0.27552 -0.51795,-0.3461 -3.77835,-2.89922 2.89925,-3.77833 0.41074,-0.46837 0.46836,-0.41074 0.51795,-0.34612 0.55875,-0.27554 0.58992,-0.20024 0.61097,-0.12154 0.62161,-0.0407 0.62167,0.0408 0.61097,0.1215 0.58992,0.20024 0.55869,0.27554 0.518,0.34612 0.46837,0.41074 0.41074,0.46837 0.34613,0.51795 0.27548,0.55874 0.20029,0.58991 0.1215,0.61098 0.0407,0.62162 -0.0407,0.62164 -0.1215,0.61099 -0.20029,0.58992 -0.27548,0.5587 -0.34613,0.51798 -0.41074,0.46838 -0.46837,0.41074 -0.518,0.3461 -0.55869,0.27552 -0.58992,0.20026 -0.61102,0.1216 -0.62162,0.0408 z"
       id="path2261" />
    <path
       style="fill:none;stroke:#ff0000;stroke-width:0.5;stroke-miterlimit:4;stroke-dasharray:none;stroke-opacity:1"
       d="m 140.59908,134.47042 0.1559,-0.3104 0.6713,-0.8 0.0894,-0.0666 0.9135,-0.39402 0.78491,-0.1384 0.30501,0.018 1.0005,0.29956 2.65097,1.09802 h 0.98112 l 0.79375,-0.57668 0.30316,-0.93314 1.20957,-9.18768 -0.30316,-0.9331 -0.79375,-0.5767 h -0.98113 l -2.71615,0.3576 -0.30507,0.018 -0.78486,-0.1384 -0.9135,-0.39404 -0.0894,-0.0666 -0.67125,-0.80002 -0.35523,-0.70732 -0.22151,-0.68164 -0.79375,-0.5767 h -0.98113 l -0.79375,0.5767 -0.30316,0.9331 -0.0126,0.063 -0.28072,0.7713 -0.27554,0.5587 -0.57388,0.87256 -0.34613,0.51798 -0.41073,0.46836 -0.75962,0.71668 -0.23019,0.20186 -0.6086,0.35138 -0.79375,0.5767 -0.30321,0.9331 0.30321,0.9331 0.44572,0.42054 0.41074,0.46838 0.34608,0.51794 0.57388,0.87254 0.27559,0.55876 0.28067,0.7712 0.0951,0.47794 0.12124,1.03728 0.0407,0.6216 -0.0221,0.33682 0.30316,0.93314 0.79375,0.57668 h 0.98112 z"
       id="path2259" />
    <path
       style="fill:none;stroke:#0000ff;stroke-width:0.5;stroke-miterlimit:4;stroke-dasharray:none;stroke-opacity:1"
       d="m 144.00966,131.26896 -1.04256,-0.0608 -1.02849,0.1814 -0.95896,0.41366 -0.83772,0.62362 -0.67125,0.80004 -0.1559,0.31036 0.0221,-0.33682 -0.0407,-0.6216 -0.12124,-1.03728 -0.12154,-0.61098 -0.20023,-0.58992 -0.35719,-0.98138 -0.27554,-0.5587 -0.57388,-0.87254 -0.34607,-0.51798 -0.4108,-0.46838 -0.44571,-0.42052 0.64621,-0.37308 0.51795,-0.34612 0.46837,-0.41074 0.75962,-0.71668 0.41079,-0.46836 0.34607,-0.51798 0.57389,-0.87254 0.27553,-0.55872 0.35719,-0.98138 0.20024,-0.5899 0.0391,-0.1962 0.108,0.4557 0.46868,0.93326 0.6713,0.80002 0.83772,0.62364 0.95891,0.41364 1.02848,0.1814 1.04257,-0.0608 2.71616,-0.35758 -1.20957,9.18768 -2.65091,-1.09802 z"
       id="path2257" />
    <path
       style="fill:none;stroke:#ff0000;stroke-width:0.5;stroke-miterlimit:4;stroke-dasharray:none;stroke-opacity:1"
       d="m 104.29395,124.96366 0.31907,-0.1322 0.79375,-0.5767 0.27398,-0.21024 0.21023,-0.27398 0.13216,-0.31906 0.30319,-0.9331 0.0451,-0.3424 -0.0451,-0.34238 -0.30319,-0.93312 -0.13216,-0.31906 -0.21023,-0.27398 -0.27398,-0.21024 -0.79375,-0.5767 -0.31907,-0.1322 -0.34239,-0.0451 h -0.98113 l -0.34239,0.0451 -0.31906,0.1322 -0.79375,0.5767 -0.27399,0.21024 -0.21023,0.27398 -0.13216,0.31906 -0.30319,0.93312 -0.0451,0.34238 0.0451,0.3424 0.30319,0.9331 0.13216,0.31906 0.21023,0.27398 0.27398,0.21024 0.79375,0.5767 0.31907,0.1322 0.34239,0.045 h 0.98113 z"
       id="path2255" />
    <path
       style="fill:none;stroke:#0000ff;stroke-width:0.5;stroke-miterlimit:4;stroke-dasharray:none;stroke-opacity:1"
       d="m 103.11861,123.45386 -0.31907,-0.1322 -0.27398,-0.21024 -0.21024,-0.27398 -0.13216,-0.31906 -0.0451,-0.3424 0.0451,-0.34238 0.13216,-0.31906 0.21024,-0.274 0.27399,-0.21022 0.31906,-0.1322 0.34238,-0.045 0.34239,0.045 0.31907,0.1322 0.27398,0.21022 0.21024,0.274 0.13216,0.31906 0.0451,0.34238 -0.0451,0.3424 -0.13216,0.31906 -0.21024,0.27398 -0.27398,0.21024 -0.31907,0.1322 -0.34239,0.045 z"
       id="path2253" />
    <path
       style="fill:none;stroke:#ff0000;stroke-width:0.5;stroke-miterlimit:4;stroke-dasharray:none;stroke-opacity:1"
       d="m 76.011321,132.1678 0.610976,-0.1214 0.589916,-0.20028 0.558694,-0.2755 0.518002,-0.34612 0.79375,-0.57668 0.468364,-0.41074 0.41074,-0.46836 2.899198,-3.77838 0.303212,-0.9331 -0.303212,-0.9331 -3.778302,-2.89922 -0.79375,-0.5767 -0.518002,-0.3461 -0.558694,-0.27552 -0.589916,-0.20024 -0.610976,-0.1216 -0.621664,-0.0408 h -0.981128 l -0.621612,0.0408 -0.610976,0.1216 -0.589916,0.20024 -0.558746,0.27552 -0.517948,0.34612 -0.79375,0.57668 -0.468366,0.41076 -0.410792,0.46836 -0.346076,0.51798 -0.275536,0.55872 -0.200236,0.5899 -0.303214,0.9331 -0.1215,0.611 -0.04074,0.62164 0.04074,0.62162 0.1215,0.61098 0.303214,0.93312 0.200236,0.58992 0.275536,0.5587 0.346128,0.518 0.41074,0.46836 0.468366,0.41074 0.79375,0.57668 0.517948,0.34608 0.558746,0.27554 0.589862,0.20028 0.611136,0.1214 0.621506,0.0408 h 0.981128 z"
       id="path2251" />
    <path
       style="fill:none;stroke:#0000ff;stroke-width:0.5;stroke-miterlimit:4;stroke-dasharray:none;stroke-opacity:1"
       d="m 74.277613,130.65804 -0.611134,-0.1216 -0.589916,-0.20024 -0.558694,-0.27552 -0.518002,-0.34614 -0.468364,-0.41074 -0.41074,-0.46836 -0.346128,-0.51794 -0.275484,-0.55876 -0.20029,-0.5899 -0.1215,-0.61098 -0.04074,-0.62162 0.04074,-0.62164 0.1215,-0.611 0.20029,-0.5899 0.275484,-0.55872 0.346128,-0.51798 0.41074,-0.46836 0.468364,-0.41076 0.518002,-0.3461 0.558694,-0.27552 0.589916,-0.20026 0.611028,-0.1216 0.621612,-0.0408 0.621612,0.0408 0.61103,0.1216 0.589862,0.20024 0.558746,0.27554 0.517948,0.3461 3.778356,2.89922 -2.89925,3.77832 -0.41074,0.46838 -0.468366,0.41074 -0.517948,0.34612 -0.558746,0.27554 -0.589916,0.20024 -0.610976,0.1216 -0.621612,0.0408 z"
       id="path2249" />
    <path
       style="fill:none;stroke:#0000ff;stroke-width:0.5;stroke-miterlimit:4;stroke-dasharray:none;stroke-opacity:1"
       d="m 122.38066,136.64122 0.30322,-0.93308 -0.30322,-0.93314 -1.2773,-3.08372 -0.12944,-0.54604 v -1.04436 l 0.093,-0.39244 0.31337,-0.62394 0.67125,-0.79998 0.0894,-0.0666 0.9135,-0.39402 2.97349,-1.23168 0.79375,-0.5767 0.30316,-0.9331 -0.30316,-0.93312 -3.27877,-2.51588 -0.48381,-0.57656 -0.79375,-0.5767 h -0.98113 l -13.55135,7.8239 -0.79375,0.57668 -0.30319,0.93308 0.30319,0.93314 0.79375,0.57668 9.42702,5.4427 0.0288,0.002 3.41704,0.44984 h 0.98113 z"
       id="path2247" />
    <path
       style="fill:none;stroke:#ff0000;stroke-width:0.5;stroke-opacity:1;stroke-miterlimit:4;stroke-dasharray:none"
       d="m 117.67933,135.25824 -0.0288,-0.002 -9.42705,-5.44276 13.55138,-7.82386 0.48376,0.57658 3.27877,2.51588 -2.97349,1.23166 -0.9589,0.41364 -0.83773,0.62364 -0.6713,0.80004 -0.46868,0.93324 -0.24088,1.0162 v 1.04438 l 0.24088,1.0162 1.46907,3.5467 z"
       id="path2245" />
    <path
       style="fill:none;stroke:#0000ff;stroke-width:0.5;stroke-miterlimit:4;stroke-dasharray:none;stroke-opacity:1"
       d="m 94.214497,139.7698 0.741204,-0.1306 0.79375,-0.57668 0.303212,-0.93308 v -15.6478 l -0.303212,-0.9331 -0.79375,-0.5767 h -0.981076 l -9.427052,5.4427 -0.79375,0.5767 -0.0158,0.024 -2.098094,2.73432 -0.303212,0.93308 0.303212,0.93314 0.79375,0.57668 3.806032,0.50108 1.000496,0.2995 0.43418,0.25066 0.43614,0.41154 0.573882,0.87254 0.07128,0.1956 0.10398,0.88986 -0.12124,1.03726 -0.420106,3.19098 0.30316,0.93308 0.79375,0.57674 h 0.981128 z"
       id="path2243" />
    <path
       style="fill:none;stroke:#ff0000;stroke-width:0.5;stroke-opacity:1;stroke-miterlimit:4;stroke-dasharray:none"
       d="m 90.325863,136.65058 0.12124,-1.03726 -0.12124,-1.03728 -0.357188,-0.9814 -0.573882,-0.87254 -0.759672,-0.71664 -0.904398,-0.52218 -1.000496,-0.29956 -3.806084,-0.50108 2.098146,-2.7343 0.0158,-0.024 9.427052,-5.44272 v 15.6478 l -0.741204,0.1306 -3.818202,1.58158 z"
       id="path2241" />
    <path
       style="fill:none;stroke:#00ff00;stroke-width:0.5;stroke-miterlimit:4;stroke-dasharray:none;stroke-opacity:1"
       d="m 62.750511,131.85876 0.79375,-0.57668 0.303212,-0.93314 -0.711464,-5.40376 -0.30316,-0.9331 -0.79375,-0.5767 h -0.981128 l -3.488848,0.45932 -0.79375,0.57668 -0.303212,0.93312 0.711464,5.40376 0.30316,0.93314 0.79375,0.57668 h 0.981128 z"
       id="path2239" />
    <path
       style="fill:none;stroke:#ff0000;stroke-width:0.5;stroke-miterlimit:4;stroke-dasharray:none;stroke-opacity:1"
       d="m 58.059661,125.4045 3.488848,-0.45932 0.711464,5.40376 -3.488848,0.45932 z"
       id="path2237" />
    <path
       style="fill:none;stroke:#00ff00;stroke-width:0.5;stroke-miterlimit:4;stroke-dasharray:none;stroke-opacity:1"
       d="m 131.18864,139.43204 0.61098,-0.1216 0.58991,-0.20024 0.55875,-0.27554 0.51795,-0.34606 0.79375,-0.5767 0.46836,-0.41074 0.41074,-0.46836 0.34613,-0.518 0.27554,-0.5587 0.20023,-0.5899 0.30316,-0.93314 0.12154,-0.61098 0.0407,-0.62166 -0.0407,-0.62162 -0.12154,-0.61096 -0.30316,-0.93308 -0.20023,-0.58992 -0.27554,-0.55874 -0.34613,-0.51796 -0.41074,-0.46842 -0.46836,-0.41074 -0.79375,-0.57668 -0.518,-0.34608 -0.5587,-0.27554 -0.58991,-0.20026 -0.61098,-0.1216 -0.62166,-0.0408 h -0.98113 l -0.62161,0.0408 -0.61098,0.1216 -0.58991,0.20026 -4.39997,1.8225 -0.79375,0.57668 -0.30321,0.93314 0.30321,0.93308 1.8225,4.40002 0.27554,0.5587 0.34613,0.518 0.41074,0.46836 0.46836,0.41074 0.79375,0.57668 0.518,0.34608 0.5587,0.27554 0.58991,0.20024 0.61098,0.1216 0.62166,0.0408 h 0.98113 z"
       id="path2235" />
    <path
       style="fill:none;stroke:#0000ff;stroke-width:0.5;stroke-miterlimit:4;stroke-dasharray:none;stroke-opacity:1"
       d="m 129.45483,137.92228 -0.61103,-0.1216 -0.58986,-0.20024 -0.55875,-0.27554 -0.51795,-0.34612 -0.46842,-0.41074 -0.41074,-0.46836 -0.34607,-0.518 -0.27554,-0.5587 -1.82255,-4.39998 4.40002,-1.8225 0.58986,-0.20028 0.61103,-0.1214 0.62161,-0.0408 0.62161,0.0408 0.61103,0.1214 0.58986,0.20028 0.55875,0.27548 0.51795,0.34614 0.46842,0.41074 0.41074,0.46836 0.34607,0.518 0.27554,0.5587 0.20023,0.58992 0.12154,0.61096 0.0407,0.62162 -0.0407,0.62166 -0.12154,0.61098 -0.20023,0.58992 -0.27554,0.5587 -0.34607,0.518 -0.41074,0.46836 -0.46837,0.41074 -0.518,0.34612 -0.55869,0.27554 -0.58992,0.20024 -0.61103,0.1216 -0.62161,0.0408 z"
       id="path2233" />
    <path
       style="fill:none;stroke:#00ff00;stroke-width:0.5;stroke-miterlimit:4;stroke-dasharray:none;stroke-opacity:1"
       d="m 101.84187,145.16292 2.02661,-2.64112 0.6713,-0.8 0.0894,-0.0666 0.91349,-0.39402 0.7849,-0.1384 0.30504,0.018 1.00048,0.2995 0.73403,0.42382 2.3133,1.77504 0.79375,0.57668 h 0.98113 l 0.79375,-0.57668 0.30316,-0.93308 0.46609,-3.54018 0.14144,-0.5969 0.20378,-0.62722 -0.30316,-0.93308 -0.79375,-0.57668 -13.548383,-7.8222 h -0.981122 l -0.793734,0.57674 -0.303212,0.93308 v 10.89978 l 0.303212,0.93312 1.32987,3.21062 0.793749,0.57674 h 0.98112 z"
       id="path2231" />
    <path
       style="fill:none;stroke:#ff0000;stroke-width:0.5;stroke-opacity:1;stroke-miterlimit:4;stroke-dasharray:none"
       d="m 108.12365,139.9303 -1.00048,-0.29956 -1.04258,-0.0606 -1.02849,0.1814 -0.95893,0.41366 -0.83771,0.62362 -0.67129,0.80004 -2.02662,2.64112 -1.329887,-3.21066 10e-6,-10.89978 13.548347,7.82214 -0.1044,0.20792 -0.24082,1.01622 -0.46609,3.54016 -2.93661,-2.25334 z"
       id="path2229" />
    <path
       style="fill:none;stroke:#0000ff;stroke-width:0.5;stroke-miterlimit:4;stroke-dasharray:none;stroke-opacity:1"
       d="m 64.766159,144.71106 1.979824,-1.51918 0.08938,-0.0666 0.913502,-0.39408 0.784912,-0.1384 0.305064,0.018 1.000444,0.29952 0.43418,0.25066 0.206482,0.1948 0.79375,0.57674 h 0.981128 l 0.79375,-0.57674 0.30316,-0.93308 -0.226166,-0.9543 -0.12154,-0.61098 -0.0407,-0.6216 v -1.04436 l 0.0407,-0.62162 0.12154,-0.61102 0.1795,-0.75736 0.233946,-0.47434 0.444076,-0.88428 0.303212,-0.93314 -0.303212,-0.9331 -0.79375,-0.57668 -0.322316,-0.0642 -0.589914,-0.20024 -0.958904,-0.41364 -0.558746,-0.27554 -0.33147,-0.22152 -0.230452,-0.1716 -0.468366,-0.41078 -0.41074,-0.46838 -0.6713,-0.79998 -0.346076,-0.518 -0.270298,-0.53818 -0.79375,-0.57668 h -0.981128 l -0.79375,0.57668 -0.303212,0.93314 0.0114,0.098 -0.10404,0.88984 -0.07122,0.1958 -0.573882,0.8725 -0.436192,0.41154 -0.434128,0.25066 -1.000496,0.2995 -3.116896,0.41038 -0.79375,0.57668 -0.30316,0.93308 0.30316,0.93314 3.557746,8.58906 0.79375,0.57668 h 0.981128 z"
       id="path2227" />
    <path
       style="fill:none;stroke:#00ff00;stroke-width:0.5;stroke-miterlimit:4;stroke-dasharray:none;stroke-opacity:1"
       d="m 70.329871,141.40038 -1.000496,-0.29956 -1.042564,-0.0606 -1.028488,0.1814 -0.958956,0.41366 -0.837724,0.62362 -1.979824,1.51918 -3.557694,-8.58906 3.116898,-0.41032 1.000442,-0.29956 0.904452,-0.52212 0.75962,-0.71672 0.57388,-0.87254 0.357188,-0.98138 0.12128,-1.03728 -0.0114,-0.098 0.270298,0.53816 0.346128,0.51794 0.671248,0.80006 0.410792,0.46836 0.468312,0.41074 0.837724,0.62362 0.518002,0.34614 0.558694,0.27552 0.958956,0.41366 0.589914,0.20024 0.322316,0.064 -0.444076,0.88428 -0.275538,0.55876 -0.200236,0.58986 -0.240876,1.0162 -0.12154,0.61104 -0.0407,0.6216 v 1.04438 l 0.0407,0.6216 0.12154,0.61098 0.226166,0.9543 -0.529962,-0.50002 z"
       id="path2225" />
    <path
       style="fill:none;stroke:#00ff00;stroke-width:0.5;stroke-miterlimit:4;stroke-dasharray:none;stroke-opacity:1"
       d="m 81.717961,145.94498 0.611028,-0.1214 0.589916,-0.2003 0.558694,-0.27548 0.518002,-0.34612 0.79375,-0.5767 0.468364,-0.41074 0.41074,-0.46836 0.346074,-0.518 0.275538,-0.5587 0.200236,-0.58992 0.303212,-0.93312 0.12154,-0.61098 0.621612,-4.72176 -0.303212,-0.93312 -0.79375,-0.5767 -4.721702,-0.6216 -0.621664,-0.0408 h -0.981128 l -0.621612,0.0408 -0.610976,0.1216 -0.589914,0.20024 -0.558748,0.27554 -0.517948,0.34606 -0.79375,0.5767 -0.468366,0.41074 -0.410738,0.4684 -0.346128,0.51796 -0.275538,0.55874 -0.200236,0.58986 -0.30316,0.93314 -0.12156,0.61098 -0.04074,0.62166 0.04074,0.62162 0.1215,0.61096 0.303214,0.93314 0.200236,0.58992 0.275538,0.55868 0.346128,0.51802 0.410738,0.46836 0.468366,0.41074 0.79375,0.57668 0.517948,0.34612 0.558748,0.2755 0.589862,0.20022 0.611028,0.1216 0.621612,0.0408 h 0.981128 z"
       id="path2223" />
    <path
       style="fill:none;stroke:#0000ff;stroke-width:0.5;stroke-miterlimit:4;stroke-dasharray:none;stroke-opacity:1"
       d="m 79.984147,144.4352 -0.610976,-0.1216 -0.589916,-0.20024 -0.558694,-0.27552 -0.518,-0.34614 -0.468366,-0.41074 -0.41074,-0.46836 -0.346074,-0.51794 -0.275538,-0.55876 -0.20029,-0.58992 -0.1215,-0.61096 -0.04074,-0.62162 0.04074,-0.62166 0.12154,-0.61098 0.200236,-0.58992 0.275484,-0.55868 0.346128,-0.518 0.41074,-0.46838 0.468366,-0.41074 0.518,-0.34612 0.558694,-0.27548 0.589916,-0.2003 0.610976,-0.1214 0.621664,-0.0408 0.621612,0.0408 4.721754,0.62162 -0.621612,4.72176 -0.12154,0.61096 -0.200236,0.58992 -0.275536,0.55874 -0.346128,0.51796 -0.41074,0.46836 -0.468366,0.41074 -0.517948,0.34614 -0.558746,0.27552 -0.589916,0.20024 -0.610976,0.1216 -0.621612,0.0408 z"
       id="path2221" />
    <path
       style="fill:none;stroke:#00ff00;stroke-width:0.5;stroke-miterlimit:4;stroke-dasharray:none;stroke-opacity:1"
       d="m 145.67823,143.01386 2.08582,-5.03554 0.30316,-0.93308 -0.30316,-0.93314 -0.79375,-0.57668 -3.25115,-1.34668 h -0.98113 l -0.79375,0.57674 -2.08576,5.0355 -0.30316,0.93314 0.30316,0.93306 0.79375,0.5767 3.25109,1.34668 h 0.98113 z"
       id="path2219" />
    <path
       style="fill:none;stroke:#0000ff;stroke-width:0.5;stroke-miterlimit:4;stroke-dasharray:none;stroke-opacity:1"
       d="m 141.14285,140.73412 2.08576,-5.03556 3.2511,1.34668 -2.08577,5.0355 z"
       id="path2217" />
    <path
       style="fill:none;stroke:#0000ff;stroke-width:0.5;stroke-miterlimit:4;stroke-dasharray:none;stroke-opacity:1"
       d="m 137.78322,154.30676 5.65949,-7.37564 0.30322,-0.93308 -0.30322,-0.93312 -0.79375,-0.57668 -2.30558,-0.955 -0.9135,-0.39406 -0.0894,-0.0666 -0.6713,-0.80006 -0.31337,-0.62394 -0.093,-0.39242 v -1.04432 l 0.16806,-0.70898 -0.30321,-0.93308 -0.79375,-0.57668 h -0.98113 l -0.79375,0.57668 -0.71332,0.673 -0.23013,0.20182 -0.86694,0.5005 -0.55869,0.27552 -0.58991,0.20024 -1.0005,0.29956 -0.61098,0.1216 -0.62161,0.0408 -0.98785,0.0576 -0.79375,0.5767 -0.30321,0.93308 0.11282,0.34712 0.11436,0.5751 0.12128,1.03728 0.0407,0.6216 -0.0407,0.62168 -0.12128,1.03726 -0.095,0.4779 -0.28072,0.77126 -0.27554,0.55874 -0.33094,0.50318 -0.30321,0.93308 0.30321,0.93314 0.79375,0.57668 h 0.98113 l 0.084,-0.061 0.95409,-0.41158 0.78491,-0.1384 0.30506,0.018 1.00045,0.2995 0.43418,0.25068 0.43614,0.41148 1.91383,2.49416 0.79375,0.5767 h 0.98113 z"
       id="path2215" />
    <path
       style="fill:none;stroke:#00ff00;stroke-width:0.5;stroke-miterlimit:4;stroke-dasharray:none;stroke-opacity:1"
       d="m 134.5851,150.8795 -0.75962,-0.7167 -0.90445,-0.52218 -1.0005,-0.2995 -1.04256,-0.0606 -1.02849,0.1814 -0.95896,0.41364 -0.0792,0.0588 0.331,-0.50318 0.27554,-0.5587 0.35718,-0.98138 0.20024,-0.58992 0.1215,-0.61098 0.12128,-1.03728 0.0407,-0.62166 -0.0407,-0.6216 -0.12128,-1.03728 -0.1215,-0.61098 -0.10568,-0.31126 0.98785,-0.0576 0.62161,-0.0408 0.61103,-0.1216 1.00044,-0.2995 0.58992,-0.20024 0.55874,-0.27554 0.9044,-0.52218 0.518,-0.34608 0.46837,-0.41074 0.71337,-0.67304 -0.16806,0.70898 v 1.0443 l 0.24088,1.01622 0.46868,0.93328 0.6713,0.8 0.83772,0.62368 0.95891,0.41364 2.30563,0.955 -5.65949,7.37558 z"
       id="path2213" />
    <path
       style="fill:none;stroke:#ff0000;stroke-width:0.5;stroke-miterlimit:4;stroke-dasharray:none;stroke-opacity:1"
       d="m 122.11058,151.26278 0.61102,-0.1216 0.58992,-0.20024 0.55869,-0.27554 0.51801,-0.34606 0.79375,-0.5767 0.46836,-0.41074 0.41074,-0.46836 0.34607,-0.518 0.27554,-0.55874 0.20024,-0.58986 0.30321,-0.93314 0.12154,-0.61098 0.0407,-0.62166 -0.0407,-0.62162 -0.12154,-0.61096 -0.30321,-0.93314 -0.20024,-0.58992 -0.27554,-0.5587 -0.34607,-0.518 -0.41074,-0.46836 -0.46836,-0.41074 -0.79375,-0.57668 -0.51801,-0.34614 -0.55869,-0.27552 -0.58992,-0.2002 -0.61102,-0.1216 -4.72176,-0.62166 h -0.98113 l -0.79375,0.57668 -0.30316,0.93314 -0.62161,4.72176 -0.0407,0.6216 0.0407,0.62168 0.1215,0.61096 0.30321,0.93308 0.20024,0.58992 0.27554,0.55876 0.34607,0.51794 0.41074,0.46836 0.46842,0.4108 0.79375,0.57668 0.51795,0.34608 0.55875,0.27554 0.58986,0.20024 0.61103,0.1216 0.62161,0.0408 h 0.98113 z"
       id="path2211" />
    <path
       style="fill:none;stroke:#0000ff;stroke-width:0.5;stroke-miterlimit:4;stroke-dasharray:none;stroke-opacity:1"
       d="m 120.37676,149.75296 -0.61097,-0.1216 -0.58992,-0.20024 -0.55869,-0.27548 -0.518,-0.34612 -0.46837,-0.41074 -0.41074,-0.46838 -0.34613,-0.518 -0.27548,-0.55868 -0.20029,-0.58992 -0.1215,-0.61098 -0.0407,-0.62166 0.0407,-0.62162 0.62161,-4.72174 4.72176,0.6216 0.61097,0.1216 0.58992,0.20024 0.55874,0.27554 0.51795,0.34612 0.46837,0.41074 0.41074,0.46836 0.34613,0.51796 0.27553,0.55874 0.20024,0.58992 0.12154,0.61098 0.0407,0.6216 -0.0407,0.62168 -0.12154,0.61096 -0.20024,0.58992 -0.27553,0.5587 -0.34613,0.518 -0.41074,0.46836 -0.46837,0.41074 -0.51795,0.34608 -0.55874,0.27554 -0.58992,0.20028 -0.61097,0.1214 -0.62162,0.0408 z"
       id="path2209" />
    <path
       style="fill:none;stroke:#ff0000;stroke-width:0.5;stroke-miterlimit:4;stroke-dasharray:none;stroke-opacity:1"
       d="m 93.548699,155.02304 0.610976,-0.1216 0.589914,-0.20024 0.558748,-0.27554 0.517948,-0.34606 0.79375,-0.57674 0.468418,-0.41074 0.41074,-0.46838 0.346074,-0.518 0.275538,-0.55868 0.200252,-0.58992 0.303186,-0.93308 0.12152,-0.61104 0.04074,-0.6216 -0.04074,-0.62162 -0.12154,-0.61102 -0.303186,-0.93308 -0.200242,-0.58992 -1.822504,-4.39996 -0.79375,-0.5767 h -0.981128 l -4.399968,1.82252 -0.558746,0.27552 -0.517948,0.34614 -0.79375,0.57668 -0.468366,0.41074 -0.410792,0.46836 -0.346074,0.518 -0.275538,0.5587 -0.200236,0.58992 -0.303214,0.93308 -0.12154,0.61102 -0.0407,0.62162 0.0407,0.6216 0.12154,0.61104 0.303214,0.93308 0.200236,0.58992 0.275538,0.55874 0.346074,0.51794 0.41074,0.46838 0.468418,0.41074 0.79375,0.57674 0.517948,0.34606 0.558746,0.27554 0.589864,0.20024 0.610974,0.1216 0.621666,0.0408 h 0.981128 z"
       id="path2207" />
    <path
       style="fill:none;stroke:#0000ff;stroke-width:0.5;stroke-miterlimit:4;stroke-dasharray:none;stroke-opacity:1"
       d="m 91.814885,153.51322 -0.610976,-0.1216 -0.589916,-0.20024 -0.558694,-0.27554 -0.518,-0.34606 -0.468366,-0.41074 -0.41074,-0.46838 -0.346128,-0.518 -0.275536,-0.55868 -0.200238,-0.58992 -0.12154,-0.61104 -0.0407,-0.6216 0.0407,-0.62162 0.12154,-0.61102 0.200238,-0.58986 0.275536,-0.55876 0.346128,-0.51794 0.41074,-0.46842 0.468366,-0.41074 0.518,-0.34608 0.558694,-0.27554 4.399968,-1.82254 1.822504,4.40002 0.200288,0.58986 0.1215,0.61102 0.04074,0.62162 -0.04074,0.6216 -0.1215,0.61104 -0.200288,0.58986 -0.275484,0.55874 -0.346128,0.51796 -0.41074,0.46842 -0.468366,0.41074 -0.518,0.34606 -0.558694,0.27554 -0.589916,0.20024 -0.610976,0.1216 -0.621612,0.0408 z"
       id="path2205" />
    <path
       style="fill:none;stroke:#00ff00;stroke-width:0.5;stroke-miterlimit:4;stroke-dasharray:none;stroke-opacity:1"
       d="m 108.33343,156.96948 0.611,-0.1216 0.58992,-0.20024 0.55869,-0.27554 0.518,-0.34608 0.79375,-0.57668 0.46837,-0.4108 0.41074,-0.4683 0.34607,-0.518 0.27554,-0.55876 0.20024,-0.58986 0.30321,-0.93312 0.1215,-0.61098 0.0408,-0.62166 -0.0407,-0.62162 -0.12156,-0.61098 -0.30321,-0.93314 -0.20024,-0.58992 -0.27554,-0.55868 -0.34607,-0.51802 -0.41074,-0.46836 -0.46837,-0.41074 -3.77836,-2.89924 -0.79375,-0.5767 h -0.98113 l -0.79375,0.5767 -2.89921,3.77834 -0.3461,0.51802 -0.27553,0.55868 -0.20025,0.58992 -0.30318,0.93308 -0.12154,0.61102 -0.0407,0.62162 0.0408,0.62162 0.12152,0.61102 0.30319,0.93308 0.20025,0.58992 0.27552,0.55874 0.34611,0.51796 0.41075,0.46836 0.46836,0.41078 0.79375,0.5767 0.51799,0.34606 0.55871,0.27554 0.5899,0.20024 0.611,0.1216 0.62164,0.0408 h 0.98113 z"
       id="path2203" />
    <path
       style="fill:none;stroke:#0000ff;stroke-width:0.5;stroke-miterlimit:4;stroke-dasharray:none;stroke-opacity:1"
       d="m 106.59961,155.45966 -0.611,-0.1214 -0.5899,-0.2003 -0.55871,-0.27548 -0.51799,-0.34612 -0.46836,-0.41074 -0.41075,-0.46838 -0.3461,-0.518 -0.27553,-0.55868 -0.20025,-0.58992 -0.12152,-0.61102 -0.0408,-0.62162 0.0407,-0.62162 0.12154,-0.61102 0.20024,-0.58986 0.27553,-0.55876 0.3461,-0.51794 2.89922,-3.77836 3.77833,2.89926 0.46837,0.41074 0.41074,0.46836 0.34612,0.51794 0.27554,0.55876 0.20024,0.58992 0.12154,0.61096 0.0407,0.62162 -0.0408,0.62166 -0.1215,0.61098 -0.20024,0.58992 -0.27554,0.55868 -0.34612,0.518 -0.41074,0.46838 -0.46837,0.41074 -0.51795,0.34612 -0.55874,0.27548 -0.58991,0.2003 -0.61099,0.1214 -0.62161,0.0408 z"
       id="path2201" />
    <path
       style="fill:none;stroke:#00ff00;stroke-width:0.5;stroke-miterlimit:4;stroke-dasharray:none;stroke-opacity:1"
       d="m 70.358869,152.92982 2.791778,-2.14218 0.30316,-0.93314 -0.30316,-0.93308 -3.318034,-4.32412 -0.79375,-0.5767 h -0.981076 l -0.79375,0.5767 -2.79183,2.14222 -0.30316,0.93312 0.30316,0.93308 3.318034,4.3241 0.79375,0.57668 h 0.981128 z"
       id="path2199" />
    <path
       style="fill:none;stroke:#0000ff;stroke-width:0.5;stroke-miterlimit:4;stroke-dasharray:none;stroke-opacity:1"
       d="m 65.756547,147.67264 2.791778,-2.14222 3.317982,4.32408 -2.791778,2.14224 z"
       id="path2197" />
    <path
       style="fill:none;stroke:#ff0000;stroke-width:0.5;stroke-miterlimit:4;stroke-dasharray:none;stroke-opacity:1"
       d="m 80.912199,161.78362 1.048384,-2.53106 0.468736,-0.93324 0.671248,-0.8 0.08944,-0.0666 0.9135,-0.39406 0.78486,-0.1384 0.305064,0.018 0.448628,0.1342 h 0.981128 l 0.79375,-0.57668 0.303212,-0.93314 -0.303212,-0.93308 -0.15034,-0.1318 -0.41074,-0.46836 -0.6713,-0.80006 -0.346128,-0.51794 -0.468682,-0.9333 -0.233946,-0.47434 -0.1795,-0.75734 -0.12154,-0.61102 -0.04074,-0.62162 v -0.74618 l -0.30316,-0.93308 -0.79375,-0.57668 h -0.981128 l -0.587058,0.1758 -0.611028,0.1216 -0.621612,0.0408 -0.523134,0.0304 -0.15992,-0.01 -1.028488,-0.1814 -0.61103,-0.1216 -0.589914,-0.20024 -0.958904,-0.41364 -0.558746,-0.27554 -0.280618,-0.1874 h -0.981136 l -0.79375,0.57668 -0.303212,0.93308 0.303212,0.93312 0.19088,0.2902 0.07122,0.1958 0.10398,0.8898 -0.10398,0.88984 -0.07122,0.1958 -0.57388,0.8725 -0.759672,0.7167 -2.276422,1.74672 -0.30316,0.93314 0.30316,0.93308 7.35203,5.6414 0.79375,0.57668 h 0.981128 z"
       id="path2195" />
    <path
       style="fill:none;stroke:#0000ff;stroke-width:0.5;stroke-miterlimit:4;stroke-dasharray:none;stroke-opacity:1"
       d="m 72.275881,155.20914 2.276422,-1.74672 0.75962,-0.7167 0.57388,-0.87254 0.357188,-0.9814 0.12124,-1.03728 -0.12124,-1.03726 -0.357188,-0.9814 -0.19088,-0.2902 0.28067,0.1876 0.558694,0.27554 0.958956,0.41366 0.589916,0.20024 0.610974,0.1216 1.02849,0.1814 0.621612,0.0408 1.042616,-0.0608 0.621612,-0.0408 0.610976,-0.1214 0.587058,-0.1758 v 0.74616 l 0.04074,0.62162 0.12154,0.61102 0.240822,1.01616 0.200238,0.58992 0.27559,0.55874 0.468682,0.93324 0.346076,0.518 0.6713,0.8 0.41074,0.46836 0.15038,0.1318 -0.44868,-0.1344 -1.042564,-0.0606 -1.028488,0.1814 -0.958904,0.41366 -0.837722,0.62362 -0.671302,0.8 -0.468682,0.93328 -1.048438,2.53106 z"
       id="path2193" />
    <path
       style="fill:none;stroke:#ff0000;stroke-width:0.5;stroke-miterlimit:4;stroke-dasharray:none;stroke-opacity:1"
       d="m 125.54979,163.67888 0.79375,-0.57668 0.30316,-0.93314 -0.30316,-0.93308 -2.00179,-2.60874 -0.31337,-0.62394 -0.093,-0.39242 v -1.04436 l 0.093,-0.39244 0.31337,-0.62394 0.63829,-0.76068 0.30321,-0.93312 -0.30321,-0.93308 -0.79375,-0.5767 h -0.98113 l -0.68363,0.20468 -0.61103,0.1214 -0.62161,0.0408 -0.52309,0.0304 -0.15996,-0.01 -1.02848,-0.1814 -0.61103,-0.1216 -0.58992,-0.20022 -0.9589,-0.41366 -0.55875,-0.27554 -0.1577,-0.1054 h -0.98113 l -0.79375,0.5767 -0.19532,0.60108 -0.0174,0.051 -0.35718,0.98134 -0.27554,0.55874 -0.57388,0.87254 -0.34608,0.51794 -0.41079,0.46838 -0.75962,0.7167 -0.23018,0.20182 -0.70168,0.40514 -0.79375,0.57668 -0.30316,0.93314 0.30316,0.93306 0.79375,0.5767 0.86582,0.0504 1.00045,0.29956 0.43418,0.2506 0.43614,0.41154 0.57388,0.87254 0.0747,0.20512 0.42598,3.23552 0.30321,0.93308 0.79375,0.57674 h 0.98108 z"
       id="path2191" />
    <path
       style="fill:none;stroke:#0000ff;stroke-width:0.5;stroke-miterlimit:4;stroke-dasharray:none;stroke-opacity:1"
       d="m 116.01061,162.33978 -0.35719,-0.9814 -0.57388,-0.87254 -0.75962,-0.71666 -0.90445,-0.52218 -1.0005,-0.2995 -0.86577,-0.0504 0.73925,-0.42682 0.518,-0.34614 0.46831,-0.41074 0.75967,-0.71664 0.41074,-0.46838 0.34608,-0.518 0.57388,-0.87254 0.27554,-0.5587 0.35718,-0.98138 0.20029,-0.58992 0.0124,-0.0622 0.1577,0.1054 0.5587,0.27554 0.95895,0.4136 0.58992,0.20024 0.61098,0.1216 1.02848,0.1814 0.62167,0.0408 1.04256,-0.0606 0.62161,-0.0408 0.61098,-0.1216 0.68368,-0.20468 -0.63833,0.76072 -0.46868,0.93324 -0.24083,1.01622 v 1.04436 l 0.24083,1.0162 0.46868,0.93324 2.00178,2.60874 -8.60197,3.5631 z"
       id="path2189" />
    <path
       style="fill:none;stroke:#00ff00;stroke-width:0.5;stroke-miterlimit:4;stroke-dasharray:none;stroke-opacity:1"
       d="m 130.24191,160.8136 4.32409,-3.31802 0.30321,-0.93308 -0.30321,-0.93314 -2.14218,-2.79178 -0.79375,-0.57668 h -0.98113 l -0.79375,0.57668 -4.32413,3.31798 -0.30316,0.93314 0.30316,0.93312 2.14222,2.79178 0.79375,0.57668 h 0.98113 z"
       id="path2187" />
    <path
       style="fill:none;stroke:#ff0000;stroke-width:0.5;stroke-miterlimit:4;stroke-dasharray:none;stroke-opacity:1"
       d="m 126.8154,157.0887 4.32408,-3.31798 2.14223,2.79178 -4.32409,3.31798 z"
       id="path2185" />
    <path
       style="fill:none;stroke:#0000ff;stroke-width:0.5;stroke-miterlimit:4;stroke-dasharray:none;stroke-opacity:1"
       d="m 103.43907,168.52218 0.30319,-0.93312 -0.39211,-2.97842 v -1.04432 l 0.093,-0.39242 0.31336,-0.62394 0.67129,-0.80004 0.0894,-0.0666 0.91349,-0.39408 0.22492,-0.0396 0.79376,-0.57668 0.30319,-0.93314 -0.30319,-0.93314 -0.79376,-0.57668 -0.46646,-0.0928 -0.5899,-0.20024 -0.95894,-0.41364 -0.55871,-0.27554 -0.33148,-0.22146 -0.23045,-0.1716 -0.46837,-0.41074 -0.41075,-0.46836 -0.67129,-0.8 -0.34611,-0.518 -0.21285,-0.4238 -0.793747,-0.5767 h -0.981118 l -0.793766,0.5767 -0.6359,0.59996 -0.230134,0.20182 -0.86688,0.5005 -0.558748,0.27552 -0.589914,0.20024 -1.000496,0.29952 -0.610976,0.1216 -0.621612,0.0408 -0.972132,0.0566 h -0.13298 l -0.79375,0.57668 -0.303212,0.93314 0.303212,0.93308 0.79375,0.57668 0.04164,0.024 0.436192,0.41154 0.57388,0.87254 0.07122,0.1956 0.10404,0.88984 -0.10404,0.88984 -0.07122,0.1956 -1.000706,2.41592 -0.30316,0.93314 0.30316,0.93308 0.79375,0.57668 9.197537,1.2109 h 0.98113 z"
       id="path2183" />
    <path
       style="fill:none;stroke:#00ff00;stroke-width:0.5;stroke-miterlimit:4;stroke-dasharray:none;stroke-opacity:1"
       d="m 93.957957,163.9623 0.357186,-0.98138 0.12124,-1.03728 -0.12124,-1.03728 -0.357186,-0.98138 -0.573882,-0.87254 -0.759672,-0.71666 -0.511968,-0.2956 0.06254,0.004 1.042564,-0.0606 0.621664,-0.0408 0.610976,-0.1216 1.000496,-0.2995 0.589914,-0.20024 0.558694,-0.27554 0.904452,-0.52218 0.517948,-0.34612 0.468388,-0.41074 0.63592,-0.59998 0.212846,0.42388 0.346108,0.51794 0.671285,0.8 0.41075,0.46836 0.46837,0.4108 0.8377,0.62362 0.51798,0.34612 0.55871,0.27554 0.95895,0.4136 0.5899,0.20028 0.46646,0.0928 -0.22492,0.0396 -0.95894,0.4136 -0.83771,0.62368 -0.67129,0.8 -0.4687,0.93328 -0.24085,1.01622 v 1.0443 l 0.39211,2.97842 -9.197509,-1.21084 z"
       id="path2181" />
    <path
       style="fill:none;stroke:#00ff00;stroke-width:0.5;stroke-miterlimit:4;stroke-dasharray:none;stroke-opacity:1"
       d="m 89.876123,166.12786 1.346624,-3.25114 0.303212,-0.93308 -0.303212,-0.93314 -0.79375,-0.57668 -5.035498,-2.08576 h -0.981128 l -0.79375,0.57668 -1.346676,3.2511 -0.30316,0.93314 0.30316,0.93306 0.79375,0.5767 5.03555,2.08582 h 0.981128 z"
       id="path2179" />
    <path
       style="fill:none;stroke:#ff0000;stroke-width:0.5;stroke-miterlimit:4;stroke-dasharray:none;stroke-opacity:1"
       d="m 83.556285,163.10898 1.346624,-3.2511 5.03555,2.08576 -1.346676,3.2511 z"
       id="path2177" />
    <path
       style="fill:none;stroke:#00ff00;stroke-width:0.5;stroke-miterlimit:4;stroke-dasharray:none;stroke-opacity:1"
       d="m 112.58383,168.37572 0.79375,-0.5767 0.30316,-0.93312 -0.45932,-3.48886 -0.30316,-0.93308 -0.79375,-0.57668 h -0.98112 l -5.4038,0.71142 -0.79375,0.57668 -0.30319,0.93314 0.45931,3.48884 0.30319,0.93308 0.79375,0.57668 h 0.98113 z"
       id="path2175" />
    <path
       style="fill:none;stroke:#0000ff;stroke-width:0.5;stroke-miterlimit:4;stroke-dasharray:none;stroke-opacity:1"
       d="m 106.23015,164.08852 5.40377,-0.71148 0.45932,3.48886 -5.40378,0.71146 z"
       id="path1426" />
    <g
       id="g2636"
       transform="matrix(3.5829917,0,0,3.5829917,-565.11336,-392.18869)"
       style="fill:none">
      <path
         id="path2367"
         d="m 190.0735,163.2148 -0.032,-0.003 -0.031,-0.008 -0.0294,-0.0136 -0.0262,-0.0184 -0.0233,-0.0233 -0.0185,-0.0264 -0.0135,-0.0292 -0.008,-0.0311 -0.003,-0.032 v -3.91588 l -1.86532,-3e-5 -0.032,-0.003 -0.031,-0.008 -0.0294,-0.0136 -0.0262,-0.0184 -0.0233,-0.0233 -0.0185,-0.0264 -0.0135,-0.0292 -0.008,-0.0311 -0.003,-0.032 0.003,-0.032 0.008,-0.0311 0.18468,-0.61595 0.0135,-0.0291 0.0185,-0.0263 0.0228,-0.0228 0.0265,-0.0184 0.0291,-0.0136 0.0315,-0.009 0.032,-0.003 h 2.87073 l 0.0323,0.003 0.031,0.008 0.0296,0.0138 0.0265,0.0184 0.0228,0.0228 0.0185,0.0264 0.0135,0.0291 0.18468,0.61516 0.008,0.0319 0.003,0.032 -0.003,0.032 -0.008,0.0311 -0.0135,0.0292 -0.0185,0.0264 -0.0233,0.0233 -0.0262,0.0184 -0.0294,0.0136 -0.031,0.008 -0.032,0.003 -0.635,2e-5 v 3.91568 l -0.003,0.032 -0.008,0.0311 -0.014,0.0297 -0.0185,0.0264 -0.0225,0.0228 -0.0265,0.0184 -0.0291,0.0136 -0.032,0.008 -0.032,0.003 z"
         style="fill:none;stroke:#00ff00;stroke-width:0.13229166;stroke-opacity:1"
         inkscape:connector-curvature="0" />
      <path
         id="path2365"
         d="m 191.30407,163.21483 -0.032,-0.003 -0.0312,-0.008 -0.0296,-0.0138 -0.0265,-0.0184 -0.0228,-0.0228 -0.0183,-0.0263 -0.0138,-0.0292 -0.008,-0.0316 -0.003,-0.032 0.003,-0.032 0.008,-0.0311 1.41499,-4.71641 0.0135,-0.0292 0.0185,-0.0264 0.0233,-0.0233 0.0265,-0.0185 0.0291,-0.0136 0.0312,-0.008 0.032,-0.003 1.23032,-3e-5 0.0323,0.003 0.031,0.008 0.0296,0.0138 0.0265,0.0184 0.0228,0.0228 0.0185,0.0264 0.0135,0.0291 0.18468,0.61516 0.008,0.0319 0.003,0.032 -0.003,0.032 -0.008,0.0311 -0.0135,0.0292 -0.0185,0.0264 -0.0233,0.0233 -0.0262,0.0184 -0.0294,0.0136 -0.031,0.008 -0.032,0.003 -1.093,3e-5 -0.31935,1.06463 h 0.61225 l 0.0323,0.003 0.031,0.008 0.0296,0.0138 0.0265,0.0184 0.0228,0.0228 0.0185,0.0264 0.0135,0.0291 0.18467,0.61515 0.008,0.0319 0.003,0.032 -0.003,0.032 -0.008,0.0311 -0.0135,0.0292 -0.0185,0.0264 -0.0233,0.0233 -0.0262,0.0184 -0.0294,0.0136 -0.031,0.008 -0.032,0.003 -1.09299,3e-5 -0.31935,1.06463 0.61251,3e-5 0.032,0.003 0.0312,0.008 0.0291,0.0136 0.0265,0.0185 0.0233,0.0233 0.0185,0.0263 0.0135,0.0292 0.18441,0.61515 0.008,0.0311 0.003,0.032 -0.003,0.032 -0.008,0.0319 -0.0138,0.0292 -0.0185,0.0264 -0.0225,0.0228 -0.0265,0.0184 -0.0291,0.0136 -0.0318,0.009 -0.032,0.003 z"
         style="fill:none;stroke:#ff0000;stroke-width:0.13229166;stroke-opacity:1"
         inkscape:connector-curvature="0" />
      <path
         id="path2363"
         d="m 178.59105,163.2148 -0.032,-0.003 -0.0319,-0.008 -0.0292,-0.0136 -0.0263,-0.0184 -0.0228,-0.0228 -0.0185,-0.0264 -0.0136,-0.0292 -1.23052,-4.10141 -0.008,-0.0311 -0.003,-0.032 0.003,-0.0325 0.008,-0.0311 0.18455,-0.61516 0.0136,-0.0292 0.0185,-0.0264 0.0233,-0.0233 0.0263,-0.0185 0.0292,-0.0136 0.0311,-0.008 0.032,-0.003 0.032,0.003 0.0319,0.008 0.0292,0.0136 0.0264,0.0184 0.0228,0.0228 0.0184,0.0264 0.0136,0.0291 1.0995,3.66467 0.61648,-1.23301 0.0185,-0.0264 0.0228,-0.0228 0.0268,-0.0188 0.0292,-0.0136 0.0311,-0.008 0.032,-0.003 0.032,0.003 0.0319,0.008 0.0292,0.0136 0.0264,0.0184 0.0228,0.0228 0.0184,0.0264 0.61664,1.23317 1.09926,-3.6643 0.0136,-0.0292 0.0185,-0.0263 0.0233,-0.0233 0.0264,-0.0185 0.0292,-0.0136 0.0311,-0.008 0.032,-0.003 0.032,0.003 0.0319,0.009 0.0292,0.0136 0.0264,0.0184 0.0228,0.0228 0.0184,0.0263 0.0136,0.0291 0.18479,0.61574 0.008,0.0311 0.003,0.032 -0.003,0.032 -0.008,0.0311 -1.23034,4.10126 -0.0136,0.0292 -0.0186,0.0267 -0.0228,0.0228 -0.0264,0.0184 -0.0292,0.0136 -0.0319,0.008 -0.032,0.003 h -0.3691 l -0.032,-0.003 -0.0311,-0.008 -0.0292,-0.0136 -0.0267,-0.0187 -0.0228,-0.0228 -0.0185,-0.0264 -0.47524,-0.95044 -0.47514,0.95028 -0.0184,0.0264 -0.0228,0.0228 -0.0269,0.0188 -0.0292,0.0136 -0.0311,0.008 -0.032,0.003 z"
         style="fill:none;stroke:#0000ff;stroke-width:0.13229166;stroke-opacity:1"
         inkscape:connector-curvature="0" />
      <path
         id="path2361"
         d="m 193.76496,163.2148 -0.032,-0.003 -0.032,-0.008 -0.0291,-0.0136 -0.0265,-0.0184 -0.0228,-0.0228 -0.0183,-0.0264 -0.0138,-0.0292 -0.008,-0.0316 -0.003,-0.032 0.003,-0.032 0.008,-0.0311 1.41499,-4.71641 0.0135,-0.0292 0.0185,-0.0264 0.0233,-0.0233 0.0265,-0.0185 0.0291,-0.0136 0.0312,-0.008 0.032,-0.003 0.032,0.003 0.0318,0.008 0.0291,0.0136 0.0265,0.0184 0.0228,0.0228 0.0185,0.0264 0.0135,0.0291 0.92287,3.07616 0.008,0.0311 0.003,0.032 -0.003,0.032 -0.008,0.0318 -0.0138,0.0292 -0.0185,0.0264 -0.0225,0.0227 -0.0265,0.0184 -0.0291,0.0136 -0.0317,0.009 -0.032,0.003 h -0.41063 l 0.8374,0.69794 0.0228,0.0228 0.0185,0.0263 0.0138,0.0295 0.18442,0.61516 0.008,0.0311 0.003,0.032 -0.003,0.032 -0.008,0.0319 -0.0138,0.0292 -0.0185,0.0264 -0.0225,0.0228 -0.0265,0.0184 -0.0291,0.0136 -0.032,0.008 -0.032,0.003 h -0.3691 l -0.032,-0.003 -0.031,-0.008 -0.0294,-0.0136 -0.0262,-0.0184 -1.45785,-1.2147 -0.34079,1.13585 -0.0135,0.0292 -0.0185,0.0264 -0.0233,0.0233 -0.0262,0.0184 -0.0294,0.0136 -0.031,0.008 -0.032,0.003 z"
         style="fill:none;stroke:#0000ff;stroke-width:0.13229166;stroke-opacity:1"
         inkscape:connector-curvature="0" />
      <path
         id="path2359"
         d="m 187.61313,163.21483 -0.032,-0.003 -0.0312,-0.008 -0.0296,-0.0138 -0.0265,-0.0184 -0.0228,-0.0228 -0.0183,-0.0263 -0.0138,-0.0292 -1.23031,-4.10141 -0.008,-0.0311 -0.003,-0.032 0.003,-0.0325 0.008,-0.0311 0.18442,-0.61516 0.0135,-0.0292 0.0185,-0.0264 0.0233,-0.0233 0.0265,-0.0185 0.0291,-0.0136 0.0312,-0.008 0.032,-0.003 0.032,0.003 0.0317,0.008 0.0291,0.0136 0.0265,0.0184 0.0228,0.0228 0.0185,0.0264 0.0135,0.0291 1.19406,3.97939 1.09273,2e-5 0.032,0.003 0.0312,0.008 0.0291,0.0136 0.0265,0.0185 0.0233,0.0233 0.0185,0.0263 0.0135,0.0292 0.18442,0.61516 0.008,0.0311 0.003,0.032 -0.003,0.032 -0.008,0.0319 -0.0138,0.0292 -0.0185,0.0264 -0.0225,0.0228 -0.0265,0.0184 -0.0291,0.0136 -0.0317,0.009 -0.032,0.003 z"
         style="fill:none;stroke:#0000ff;stroke-width:0.13229166;stroke-opacity:1"
         inkscape:connector-curvature="0" />
      <path
         id="path2357"
         d="m 185.15251,163.21483 -0.032,-0.003 -0.0311,-0.008 -0.0297,-0.0138 -0.0263,-0.0184 -0.0228,-0.0228 -0.0184,-0.0263 -0.0136,-0.0292 -1.23052,-4.10141 -0.008,-0.0311 -0.003,-0.032 0.003,-0.0325 0.008,-0.0311 0.18454,-0.61516 0.0136,-0.0292 0.0185,-0.0264 0.0233,-0.0233 0.0263,-0.0185 0.0292,-0.0136 0.0311,-0.008 0.032,-0.003 0.032,0.003 0.0319,0.008 0.0292,0.0136 0.0264,0.0184 0.0228,0.0228 0.0184,0.0264 0.0136,0.0291 1.19404,3.97939 1.09273,2e-5 0.032,0.003 0.0312,0.008 0.0291,0.0136 0.0265,0.0185 0.0233,0.0233 0.0185,0.0263 0.0135,0.0292 0.18441,0.61516 0.008,0.0311 0.003,0.032 -0.003,0.032 -0.008,0.0319 -0.0138,0.0292 -0.0185,0.0264 -0.0225,0.0228 -0.0265,0.0184 -0.0291,0.0136 -0.0317,0.009 -0.032,0.003 z"
         style="fill:none;stroke:#00ff00;stroke-width:0.13229166;stroke-opacity:1"
         inkscape:connector-curvature="0" />
      <path
         id="path4"
         d="m 181.46178,163.2148 -0.032,-0.003 -0.0319,-0.008 -0.0292,-0.0136 -0.0263,-0.0184 -0.0228,-0.0228 -0.0184,-0.0264 -0.0136,-0.0292 -0.009,-0.0316 -0.003,-0.032 0.003,-0.032 0.008,-0.0311 1.41489,-4.71641 0.0136,-0.0292 0.0187,-0.0267 0.0228,-0.0228 0.0264,-0.0184 0.0291,-0.0136 0.0319,-0.008 0.032,-0.003 0.032,0.003 0.0311,0.008 0.0291,0.0136 0.0264,0.0185 0.0233,0.0233 0.0184,0.0264 0.0136,0.0292 1.41486,4.7162 0.008,0.0311 0.003,0.032 -0.003,0.0325 -0.008,0.0311 -0.0136,0.0292 -0.0184,0.0264 -0.0233,0.0233 -0.0264,0.0184 -0.0292,0.0136 -0.0311,0.008 -0.032,0.003 h -0.3691 l -0.032,-0.003 -0.0319,-0.008 -0.0291,-0.0136 -0.0264,-0.0184 -0.0228,-0.0228 -0.0185,-0.0264 -0.0136,-0.0292 -0.45571,-1.51873 h -0.83209 l -0.45554,1.51836 -0.0136,0.0292 -0.0184,0.0264 -0.0233,0.0233 -0.0264,0.0184 -0.0291,0.0136 -0.0311,0.008 -0.032,0.003 z"
         style="fill:none;stroke:#ff0000;stroke-width:0.13229166;stroke-opacity:1"
         inkscape:connector-curvature="0" />
    </g>
  </g>
</svg>
