<?xml version="1.0" encoding="UTF-8" standalone="no"?>
<!-- Generator: Adobe Illustrator 16.0.4, SVG Export Plug-In . SVG Version: 6.00 Build 0)  -->

<svg
   xmlns:dc="http://purl.org/dc/elements/1.1/"
   xmlns:cc="http://creativecommons.org/ns#"
   xmlns:rdf="http://www.w3.org/1999/02/22-rdf-syntax-ns#"
   xmlns:svg="http://www.w3.org/2000/svg"
   xmlns="http://www.w3.org/2000/svg"
   xmlns:sodipodi="http://sodipodi.sourceforge.net/DTD/sodipodi-0.dtd"
   xmlns:inkscape="http://www.inkscape.org/namespaces/inkscape"
   version="1.1"
   id="Layer_1"
   x="0px"
   y="0px"
   width="165px"
   height="250px"
   viewBox="0 0 165 250"
   enable-background="new 0 0 165 250"
   xml:space="preserve"
   sodipodi:docname="tree.svg"
   inkscape:version="0.92.4 (5da689c313, 2019-01-14)"><metadata
   id="metadata17"><rdf:RDF><cc:Work
       rdf:about=""><dc:format>image/svg+xml</dc:format><dc:type
         rdf:resource="http://purl.org/dc/dcmitype/StillImage" /><dc:title></dc:title></cc:Work></rdf:RDF></metadata><defs
   id="defs15" /><sodipodi:namedview
   pagecolor="#ffffff"
   bordercolor="#666666"
   borderopacity="1"
   objecttolerance="10"
   gridtolerance="10"
   guidetolerance="10"
   inkscape:pageopacity="0"
   inkscape:pageshadow="2"
   inkscape:window-width="3840"
   inkscape:window-height="2069"
   id="namedview13"
   showgrid="false"
   inkscape:zoom="0.944"
   inkscape:cx="82.5"
   inkscape:cy="125"
   inkscape:window-x="-13"
   inkscape:window-y="-13"
   inkscape:window-maximized="1"
   inkscape:current-layer="Layer_1" />
<path
   style="fill:#8c1515;stroke:#8c1515;stroke-miterlimit:10"
   d="m 35.872002,1.1236 -0.658051,0.6442261 -0.658047,0.6442222 -0.658046,0.6442223 -0.658051,0.6442261 -0.658047,0.6442222 -0.658048,0.6442242 -0.658049,0.6442242 -0.658047,0.6442222 -0.658048,0.6442242 -0.658051,0.6442242 -0.658045,0.6442222 -0.658048,0.6442261 -0.658051,0.6442242 -0.658045,0.6442226 -0.65805,0.644224 -0.658045,0.644222 -0.65805,0.644224 -0.658049,0.644224 -0.658047,0.644225 -0.65805,0.644224 -0.658047,0.644224 -0.658049,0.644222 -0.658048,0.644226 -0.658047,0.644222 -0.658049,0.644225 -0.658048,0.644224 -0.658047,0.644224 -0.658049,0.644222 -0.658048,0.644226 -0.658047,0.644223 -0.658049,0.644222 -0.658047,0.644226 -0.65805,0.644222 -0.658047,0.644224 -0.658047,0.644224 -0.65805,0.644225 -0.658048,0.644224 -0.658047,0.644222 -0.658049,0.644226 L 9.5500746,26.892551 8.8920288,27.536774 8.2339802,28.181 7.5759306,28.825224 6.9178843,29.469446 6.2598352,30.11367 5.6017861,30.757896 4.9437399,31.402117 4.2856913,32.046341 3.6276419,32.690567 2.9695957,33.334789 2.3115466,33.979015 1.6534976,34.623238 1.3140069,35.40139 v 0.920899 l -1e-7,0.920898 v 0.920891 0.920898 l -1e-7,0.920899 v 0.920898 0.920899 l -1e-7,0.920898 v 0.920898 0.920899 l -2e-7,0.920891 v 0.920898 0.920899 l -1e-7,0.92089 v 0.920899 0.920898 l -1e-7,0.920899 v 0.920898 0.920898 l -10e-8,0.920899 v 0.920898 0.920891 l -1e-7,0.920899 v 0.920898 0.920898 l -1e-7,0.920899 v 0.920898 0.920891 l -2e-7,0.920899 v 0.920898 0.920898 l -1e-7,0.920899 V 65.791 66.711891 l -1e-7,0.920899 v 0.920898 0.920898 l -10e-8,0.920899 v 0.920898 0.920891 l -1e-7,0.920899 v 0.920898 0.920898 l -2e-7,0.920899 v 0.920898 0.920891 l -10e-8,0.920899 v 0.920898 0.920898 l -1e-7,0.920899 v 0.920898 0.920891 l -1e-7,0.920899 v 0.920898 0.920898 l -1e-7,0.920899 v 0.920898 0.920891 l -2e-7,0.920899 v 0.920898 0.920898 l -1e-7,0.920899 v 0.920898 0.920891 l -1e-7,0.920899 v 0.920898 0.920898 l -10e-8,0.920899 v 0.920898 0.920891 l -1e-7,0.920901 v 0.9209 0.92089 l -2e-7,0.9209 v 0.92089 0.9209 l -10e-8,0.9209 v 0.9209 l -1e-7,0.9209 v 0.9209 0.92089 l -1e-7,0.9209 v 0.92089 0.9209 l -10e-8,0.9209 v 0.92089 0.9209 l -2e-7,0.9209 v 0.9209 0.9209 l -1e-7,0.92089 v 0.9209 0.9209 l -10e-8,0.9209 v 0.9209 0.92088 l -1e-7,0.9209 v 0.9209 l 0.4951878,0.71876 0.6444454,0.65783 0.6444473,0.65783 0.6444454,0.65784 0.6444454,0.65782 0.6444474,0.65784 0.6444454,0.65783 0.6444473,0.65784 0.6444454,0.65782 0.6444359,0.65782 0.6444454,0.65784 0.6444454,0.65784 0.6444474,0.65782 0.6444451,0.65784 0.644446,0.65783 0.644447,0.65782 0.644445,0.65784 0.644448,0.65784 0.644445,0.65782 0.644446,0.65784 0.644447,0.65783 0.644434,0.65783 0.644447,0.65782 0.644446,0.65783 0.644445,0.65784 0.644447,0.65782 0.644448,0.65784 0.644443,0.65784 0.644448,0.65783 0.644447,0.65783 0.644443,0.65783 0.644448,0.65784 0.644447,0.65782 0.644434,0.65782 0.644445,0.65784 0.644448,0.65784 0.644445,0.65782 0.644448,0.65783 0.644445,0.65784 0.644447,0.65782 0.644446,0.65784 0.644445,0.65784 0.644447,0.65782 0.644446,0.65784 0.644445,0.65783 0.644436,0.65782 0.686772,0.55712 h 0.920898 0.920898 0.920899 0.920898 0.920899 0.920898 0.920899 0.920898 0.920899 0.920898 0.920883 0.920899 0.920898 0.920898 l 0.682457,0.16806 -0.251323,0.88518 -0.08603,0.9149 0.150768,0.90529 0.401577,0.82537 0.60363,0.6915 0.772758,0.49538 0.873864,0.28409 0.9137,0.10554 0.920627,-0.007 0.918572,-0.0642 0.915928,-0.0954 0.913891,-0.11323 0.445633,0.43274 -0.716565,0.5585 -0.856281,0.3369 -0.853065,0.34604 -0.813179,0.4311 -0.749077,0.53418 -0.649067,0.65139 -0.505058,0.7679 -0.321187,0.86042 -0.687706,0.28484 H 45.492527 44.571629 43.65073 42.729832 41.808933 40.888035 39.967136 39.046238 38.12534 37.204456 36.283558 35.362659 34.441761 33.520863 32.599964 31.679066 30.758167 29.837269 28.91637 27.995472 27.074589 26.15369 25.232792 24.311893 23.390995 22.470097 21.549198 20.6283 19.707401 18.786503 17.865604 16.944706 16.023823 15.102924 14.182026 13.261127 12.340229 11.419331 10.498432 9.5775337 8.6566353 7.7357368 6.8148537 5.8939552 4.9730568 4.0521584 3.1312599 2.2103615 l -0.8827307,0.0382 -2.662e-4,0.9209 -2.663e-4,0.92089 -2.662e-4,0.9209 -2.664e-4,0.9209 -2.663e-4,0.9209 -2.662e-4,0.9209 -2.663e-4,0.9209 -2.662e-4,0.92089 -2.663e-4,0.9209 -2.662e-4,0.9209 -2.663e-4,0.9209 -2.662e-4,0.9209 -2.663e-4,0.9209 -2.662e-4,0.92086 -2.663e-4,0.9209 -2.662e-4,0.9209 -2.663e-4,0.9209 -2.662e-4,0.9209 -2.663e-4,0.9209 -2.662e-4,0.9209 -2.663e-4,0.92089 -2.662e-4,0.9209 -2.663e-4,0.9209 -2.662e-4,0.9209 -2.664e-4,0.9209 -2.661e-4,0.9209 -2.664e-4,0.92089 -2.662e-4,0.9209 -2.663e-4,0.9209 -2.662e-4,0.9209 -2.663e-4,0.9209 -2.662e-4,0.9209 -2.663e-4,0.92089 -2.662e-4,0.9209 -2.663e-4,0.9209 -2.662e-4,0.9209 -2.663e-4,0.9209 -2.662e-4,0.92087 -2.663e-4,0.92089 -2.662e-4,0.9209 -2.663e-4,0.9209 -2.662e-4,0.9209 -2.663e-4,0.9209 -2.663e-4,0.9209 -2.662e-4,0.9209 -2.663e-4,0.92089 -2.662e-4,0.9209 -2.664e-4,0.9209 -2.661e-4,0.9209 -2.664e-4,0.9209 0.3843363,0.75967 0.6568985,0.6454 0.6568985,0.6454 0.6568985,0.6454 0.6568985,0.64539 0.6568985,0.6454 0.6568966,0.6454 0.6568985,0.6454 0.6568985,0.6454 0.6568985,0.64539 0.6568985,0.6454 0.6568756,0.64537 0.6568985,0.6454 0.6568986,0.6454 0.656898,0.6454 0.656899,0.64541 0.656896,0.6454 0.656899,0.64538 0.656898,0.6454 0.656899,0.6454 0.656898,0.64541 0.656899,0.6454 0.656898,0.64538 0.656897,0.6454 0.656899,0.6454 0.656898,0.64541 0.656899,0.6454 0.656898,0.6454 0.656897,0.64538 0.656898,0.6454 0.656899,0.6454 0.656898,0.64541 0.656899,0.6454 0.656898,0.64538 0.656899,0.6454 0.656875,0.64537 0.656899,0.64541 0.656898,0.6454 0.656899,0.6454 0.656898,0.6454 0.656897,0.6454 0.656898,0.64538 0.656899,0.64541 0.656898,0.6454 0.656899,0.6454 0.656896,0.6454 0.656899,0.64538 0.656898,0.64541 0.656899,0.6454 0.656898,0.6454 0.656899,0.6454 0.656898,0.64538 0.656899,0.64541 0.914921,0.0146 h 0.920898 0.920899 0.920898 0.920898 0.920868 0.920899 0.920898 0.920899 0.920898 0.920899 0.920898 0.920898 0.920899 0.920898 0.920899 0.920898 0.920899 0.920898 0.920898 0.920899 0.920898 0.920899 0.920898 0.920899 0.920898 0.920899 0.920898 0.920898 0.920868 0.920899 0.920898 0.920899 0.920898 0.920899 0.920898 0.920898 0.920899 0.920898 0.920899 0.920898 0.920899 0.920898 0.920898 0.920899 0.920898 0.920899 0.920898 0.920899 0.920898 0.920899 0.920898 0.920898 0.920868 0.920899 0.920898 0.920899 0.920898 0.920899 0.920898 0.920898 0.920899 0.920898 0.920899 0.920898 0.920899 0.920898 0.920898 0.920899 0.920898 0.9209 0.9209 0.9209 0.92089 0.9209 0.9209 0.9209 0.92087 0.9209 0.92089 0.9209 0.9209 0.9209 0.9209 0.9209 0.92089 0.9209 0.9209 0.9209 0.9209 0.9209 0.9209 0.92089 0.9209 0.9209 0.9209 0.9209 0.9209 l 0.84622,-0.18276 0.65735,-0.64494 0.65735,-0.64493 0.65734,-0.64491 0.65736,-0.64493 0.65735,-0.64494 0.65735,-0.64493 0.65736,-0.64493 0.65735,-0.64494 0.65736,-0.64493 0.65735,-0.64493 0.65735,-0.64494 0.65736,-0.64493 0.65735,-0.64494 0.65735,-0.64493 0.65737,-0.64493 0.65734,-0.64492 0.65735,-0.64495 0.65737,-0.64493 0.65735,-0.64494 0.65736,-0.64493 0.65735,-0.64493 0.65735,-0.64494 0.65736,-0.64493 0.65735,-0.64492 0.65736,-0.64495 0.65732,-0.64491 0.65737,-0.64493 0.65734,-0.64493 0.65737,-0.64494 0.65735,-0.64493 0.65735,-0.64493 0.65736,-0.64494 0.65735,-0.64493 0.65736,-0.64494 0.65735,-0.64493 0.65735,-0.64493 0.65736,-0.64494 0.65735,-0.64493 0.65735,-0.64492 0.65736,-0.64495 0.65735,-0.64493 0.65737,-0.64492 0.65735,-0.64495 0.65734,-0.64493 0.65737,-0.64492 0.65735,-0.64495 0.65734,-0.64492 0.65737,-0.64493 0.65735,-0.64495 0.65733,-0.64491 0.65736,-0.64493 0.65735,-0.64492 0.18935,-0.84144 v -0.92089 -0.9209 -0.9209 -0.9209 -0.9209 -0.9209 -0.92089 -0.9209 -0.9209 -0.9209 -0.9209 -0.9209 -0.92089 -0.9209 -0.9209 -0.9209 -0.92087 -0.9209 -0.92089 -0.9209 -0.9209 -0.9209 -0.9209 -0.9209 -0.9209 -0.92089 -0.9209 -0.9209 -0.9209 -0.9209 -0.9209 -0.92089 -0.9209 -0.9209 -0.9209 -0.9209 -0.9209 -0.9209 -0.92089 -0.9209 -0.9209 -0.9209 -0.9209 -0.9209 -0.92089 -0.9209 -0.9209 -0.9209 -0.9209 -0.9209 -0.92089 -0.9209 -0.9209 -0.9209 -0.9209 -0.9209 -0.92083 -0.9209 -0.9209 -0.9209 -0.9209 -0.9209 -0.9209 -0.92089 -0.9209 -0.9209 -0.9209 -0.9209 -0.9209 -0.92089 -0.9209 -0.9209 -0.9209 -0.9209 -0.9209 -0.92089 -0.9209 -0.9209 -0.9209 -0.9209 -0.9209 -0.9209 -0.92089 -0.9209 -0.9209 -0.9209 -0.9209 -0.9209 -0.92089 -0.9209 -0.9209 -0.92089 -0.9209 l -0.10014,-0.87994 -0.64502,-0.65727 -0.64502,-0.65727 -0.64502,-0.65728 -0.64501,-0.65727 -0.64502,-0.65728 -0.64502,-0.65727 -0.64502,-0.65728 -0.645,-0.65727 -0.64502,-0.65727 -0.64497,-0.65723 -0.64502,-0.65727 -0.64502,-0.65727 -0.64501,-0.65728 -0.64502,-0.65728 -0.64502,-0.65727 -0.645,-0.65727 -0.64502,-0.65728 -0.64502,-0.65727 -0.64502,-0.65728 -0.64502,-0.65727 -0.645,-0.65727 -0.64502,-0.65727 -0.64502,-0.65728 -0.64502,-0.65728 -0.645,-0.65727 -0.64502,-0.65727 -0.64502,-0.65727 -0.64502,-0.65727 -0.64501,-0.65728 -0.64502,-0.65728 -0.64502,-0.65727 -0.64502,-0.65727 -0.645,-0.65727 -0.64502,-0.65728 -0.64502,-0.65727 -0.64502,-0.65728 -0.645,-0.65727 -0.64502,-0.65727 -0.64502,-0.65728 -0.64502,-0.657268 -0.64501,-0.65728 -0.64502,-0.657272 -0.64502,-0.657273 -0.64501,-0.657272 -0.64501,-0.657272 -0.64502,-0.657273 -0.80275,-0.281418 h -0.9209 -0.9209 -0.92089 -0.9209 -0.9209 -0.9209 -0.9209 -0.9209 -0.92089 -0.9209 -0.92084 -0.9209 -0.9209 -0.9209 -0.92089 -0.9209 -0.9209 -0.9209 -0.9209 -0.9209 -0.92089 -0.9209 -0.9209 -0.9209 -0.9209 -0.9209 -0.92089 l -0.80537,-0.420761 -0.7865,-0.479011 -0.78239,-0.485748 -0.77737,-0.493622 -0.77638,-0.495285 -0.76506,-0.512238 -0.72812,-0.563568 -0.70631,-0.590828 -0.673507,-0.627632 -0.632424,-0.669266 -0.619964,-0.680862 -0.596695,-0.701378 0.119598,-0.261795 0.892387,0.227142 0.898461,0.201988 0.903224,0.17923 0.90719,0.15831 0.91036,0.138886 0.91294,0.120712 0.91502,0.103561 0.9168,0.08704 0.91812,0.07098 0.91922,0.05486 0.92012,0.03639 0.91932,0.04549 0.90506,0.162002 0.84581,0.362213 0.86227,0.323357 0.90246,0.146667 0.9144,-0.08972 0.86934,-0.297684 0.78017,-0.485512 0.6535,-0.646087 0.4954,-0.774086 0.30967,-0.865456 0.1339,-0.909637 -0.0412,-0.918602 0.61494,-0.259476 0.9209,6.79e-4 0.92089,6.87e-4 0.9209,6.79e-4 0.9209,6.86e-4 0.9209,6.79e-4 0.9209,6.79e-4 0.9209,6.87e-4 0.92089,6.79e-4 0.9209,6.87e-4 0.9209,6.79e-4 0.9209,6.86e-4 0.9209,6.79e-4 0.9209,6.79e-4 0.9209,6.87e-4 0.92089,6.79e-4 0.9209,6.87e-4 0.9209,6.79e-4 0.92088,6.86e-4 0.9209,6.79e-4 0.9209,6.79e-4 0.9209,6.87e-4 0.9209,6.79e-4 0.9209,6.87e-4 0.92089,6.79e-4 0.9209,6.86e-4 0.9209,6.79e-4 0.9209,6.79e-4 0.9209,6.87e-4 0.9209,6.79e-4 0.9209,6.87e-4 0.92089,6.79e-4 0.9209,6.86e-4 0.9209,6.79e-4 0.9209,6.87e-4 0.9209,6.79e-4 0.9209,6.79e-4 0.92089,6.87e-4 0.9209,6.79e-4 0.9209,6.86e-4 0.9209,6.79e-4 0.92084,6.87e-4 0.9209,6.79e-4 0.92089,6.79e-4 0.9209,6.87e-4 0.9209,6.79e-4 0.9209,6.86e-4 0.9209,6.79e-4 0.9209,6.87e-4 0.58148,-0.338974 V 84.508102 83.587204 82.666306 81.745407 80.824509 79.90361 78.982712 78.061813 77.140915 76.220016 75.299118 74.37822 73.457321 72.536423 71.615524 70.694626 69.773727 68.852829 67.931931 67.011032 66.090134 65.169235 64.248337 63.327435 62.406536 61.485638 60.564739 59.643841 58.722942 57.802044 56.881145 55.960247 55.039349 54.11845 53.197552 52.276653 51.355755 50.434856 49.513958 48.593121 47.672222 46.751324 45.830425 44.909527 43.988628 43.06773 42.146832 41.225933 40.305035 39.384136 38.463238 37.542339 36.621441 35.700542 l -0.16333,-0.852329 -0.65747,-0.644813 -0.65747,-0.644818 -0.65747,-0.644817 -0.65747,-0.644814 -0.65748,-0.644815 -0.65747,-0.644815 -0.65747,-0.644818 -0.65747,-0.644815 -0.65747,-0.644816 -0.65747,-0.644815 -0.65747,-0.644816 -0.65747,-0.644815 -0.65747,-0.644815 -0.65747,-0.644818 -0.65747,-0.644815 -0.65747,-0.644816 -0.65746,-0.644815 -0.65747,-0.644816 -0.65747,-0.644815 -0.65747,-0.644817 -0.65747,-0.644816 -0.65747,-0.644815 -0.65747,-0.644816 -0.65747,-0.644815 -0.65747,-0.644816 -0.65748,-0.644815 -0.65747,-0.644817 -0.65747,-0.644816 -0.65747,-0.644815 -0.65747,-0.644816 -0.65747,-0.644816 -0.65742,-0.644773 -0.65747,-0.644815 -0.65748,-0.644817 -0.65747,-0.644815 -0.65745,-0.644815 -0.65747,-0.644817 -0.65747,-0.644815 L 135.50777,9.7004433 134.8503,9.0556278 134.19283,8.4108114 133.53535,7.765996 132.87788,7.1211801 132.22041,6.4763646 131.56294,5.8315487 130.90547,5.1867328 130.248,4.5419168 129.59053,3.8971014 128.93306,3.2522857 128.27559,2.60747 127.61813,1.9626541 126.96066,1.3178384 126.11962,1.1224101 h -0.9209 l -0.9209,-2e-7 -0.92089,-1e-7 -0.9209,-1e-7 h -0.9209 l -0.9209,-1e-7 -0.9209,-10e-8 h -0.9209 l -0.92089,-2e-7 -0.9209,-10e-8 h -0.9209 l -0.9209,-1e-7 -0.9209,-1e-7 h -0.9209 l -0.9209,-1e-7 -0.92089,-2e-7 h -0.9209 l -0.9209,-1e-7 -0.9209,-1e-7 h -0.9209 l -0.9209,-10e-8 -0.92089,-1e-7 h -0.9209 l -0.9209,-1e-7 -0.9209,-2e-7 h -0.9209 l -0.92084,-1e-7 -0.92089,-1e-7 h -0.920902 l -0.920899,-1e-7 -0.920898,-10e-8 h -0.920899 l -0.920898,-2e-7 -0.920899,-10e-8 h -0.920898 l -0.920898,-1e-7 -0.920899,-1e-7 h -0.920898 l -0.920899,-1e-7 -0.920898,-2e-7 -0.920899,-1e-7 h -0.920898 l -0.920899,-1e-7 -0.920898,-10e-8 h -0.920898 l -0.920899,-1e-7 -0.920898,-2e-7 h -0.920899 l -0.920898,-10e-8 -0.920899,-1e-7 h -0.920898 l -0.920898,-1e-7 -0.920899,-1e-7 h -0.920898 l -0.920899,-2e-7 -0.920898,-1e-7 h -0.920899 l -0.920898,-10e-8 -0.920899,-1e-7 h -0.920898 l -0.920898,-1e-7 -0.920899,-1e-7 h -0.920898 l -0.920899,-2e-7 -0.920898,-1e-7 h -0.920899 l -0.920898,-1e-7 -0.920898,-10e-8 H 62.57769 l -0.920898,-1e-7 -0.920899,-2e-7 h -0.920898 l -0.920899,-10e-8 -0.920898,-1e-7 h -0.920837 l -0.920899,-1e-7 -0.920898,-1e-7 h -0.920899 l -0.920898,-2e-7 -0.920899,-1e-7 -0.920898,-10e-8 h -0.920899 l -0.920898,-1e-7 -0.920898,-1e-7 h -0.920899 l -0.920898,-2e-7 -0.920899,-1e-7 h -0.920898 l -0.920899,-1e-7 -0.920898,-1e-7 h -0.920898 l -0.920899,-10e-8 -0.920898,-2e-7 H 39.55529 l -0.920898,-1e-7 -0.920899,-10e-8 h -0.920898 z"
   id="polygon2" />
<path
   style="fill:#ffffff;stroke:#8c1515;stroke-miterlimit:10"
   d="m 157.19,36.804001 -0.66081,-0.648194 -0.66081,-0.648189 -0.66081,-0.64819 -0.66082,-0.648197 -0.66081,-0.648189 -0.66081,-0.648194 -0.66081,-0.648193 -0.66082,-0.648191 -0.66079,-0.648192 -0.66082,-0.648191 -0.66081,-0.648194 -0.66081,-0.648193 -0.66081,-0.648192 -0.66082,-0.648191 -0.66081,-0.648191 -0.66081,-0.648192 -0.66081,-0.648193 -0.66082,-0.648192 -0.66081,-0.648193 -0.66081,-0.648192 -0.66081,-0.648193 -0.66081,-0.648191 -0.66082,-0.648192 -0.66079,-0.648193 -0.66082,-0.648192 -0.66081,-0.648193 -0.66081,-0.64819 -0.66081,-0.648193 -0.66082,-0.648193 -0.66081,-0.648192 -0.66081,-0.648191 -0.66081,-0.648193 -0.66082,-0.648192 -0.66081,-0.648191 -0.66081,-0.648194 -0.66081,-0.648192 -0.66082,-0.648192 -0.66079,-0.648192 -0.66081,-0.648191 -0.66082,-0.648192 -0.66081,-0.648195 L 129.43593,9.5799294 128.77512,8.9317379 128.1143,8.2835464 127.45349,7.635354 126.79268,6.9871626 126.13187,6.3389707 125.47105,5.6907763 124.69813,5.317009 h -0.92565 -0.92565 l -0.92565,-5e-7 h -0.92564 -0.92565 -0.92565 -0.92565 -0.92564 l -0.92566,-5e-7 h -0.92565 -0.92564 -0.92565 -0.92565 -0.92565 l -0.92564,-5e-7 h -0.92565 -0.92566 -0.92564 -0.92564 -0.92565 l -0.92566,-4e-7 h -0.92564 -0.92565 -0.92565 -0.92565 -0.92565 l -0.925643,-5e-7 H 98.779976 97.854332 96.92868 96.003036 95.077385 l -0.925652,-5e-7 h -0.925644 -0.925651 -0.925644 -0.925652 -0.925643 l -0.925652,-5e-7 H 87.672195 86.746552 85.8209 84.895256 83.969604 l -0.925643,-4e-7 h -0.925652 -0.925652 -0.925643 -0.925652 l -0.925644,-5e-7 H 77.490067 76.564423 75.638771 74.71312 73.787476 l -0.925652,-5e-7 H 71.93618 71.010529 70.084885 69.159233 68.233589 l -0.925651,-5e-7 h -0.925652 -0.925644 -0.925651 -0.925644 -0.925652 l -0.925644,-4e-7 H 60.8284 59.902748 58.977104 58.051453 57.125809 l -0.925652,-5e-7 H 55.274513 54.348862 53.42321 52.497566 51.571915 l -0.925644,-5e-7 h -0.925652 -0.925644 -0.925651 -0.925652 -0.925644 l -0.925651,-5e-7 h -0.925644 -0.925652 -0.925644 -0.925644 -0.925659 l -0.925644,-5e-7 h -0.925644 -0.925659 l -0.70343,0.5446053 -0.661415,0.6475716 -0.661411,0.6475715 -0.661427,0.6475811 -0.661415,0.6475697 -0.661411,0.6475715 -0.661427,0.6475811 -0.661415,0.6475719 -0.661411,0.647571 -0.661415,0.64757 -0.661425,0.647583 -0.661413,0.64757 -0.661415,0.647571 -0.661425,0.647581 -0.661413,0.647572 -0.661415,0.647571 -0.661413,0.64757 -0.661425,0.647583 -0.661415,0.64757 -0.661413,0.647571 -0.661425,0.647581 -0.661415,0.647572 -0.661413,0.64757 -0.661415,0.647571 -0.661425,0.647583 -0.661413,0.64757 -0.661413,0.647569 -0.661427,0.647583 -0.661413,0.647572 -0.661413,0.647572 -0.661415,0.647569 -0.661425,0.647581 -0.661414,0.647572 -0.661414,0.647571 -0.661425,0.647582 -0.661414,0.647569 -0.661414,0.647572 -0.661414,0.647571 -0.661426,0.647581 -0.661413,0.647572 -0.661414,0.64757 -0.6614259,0.647583 -0.6614132,0.647571 -0.6614142,0.647568 -0.6614141,0.647572 -0.6614246,0.647583 -0.6614142,0.647571 -0.6614141,0.647572 -0.4651547,0.730114 v 0.925644 0.925644 0.925643 0.92566 0.925644 l -5e-7,0.925643 v 0.92566 0.925644 0.925644 0.925643 0.92566 0.925644 0.925643 0.92566 0.925644 0.925643 0.925644 l -4e-7,0.92566 v 0.925643 0.925644 0.925644 0.92566 0.925643 0.925644 0.92566 0.925643 0.925644 0.925644 0.925659 l -5e-7,0.925644 v 0.925644 0.925659 0.925644 0.925644 0.925644 0.925659 0.925644 0.925644 0.925659 0.925644 0.925644 l -5e-7,0.925644 v 0.925659 0.925644 0.925644 0.925659 0.925644 0.925644 0.925644 0.925659 0.925644 0.925644 l -5e-7,0.925659 v 0.925644 0.925644 0.925644 0.925659 0.925644 0.925644 0.925659 0.925644 0.925644 0.925644 0.925659 l -4e-7,0.925644 v 0.925644 0.925659 0.925644 0.925649 0.92564 0.92566 0.92564 0.92565 0.92566 0.92564 0.92564 l -5e-7,0.92565 v 0.92566 0.92564 0.92564 0.92566 0.92565 0.92564 0.92565 0.92565 0.92563 0.92566 0.92566 l -5e-7,0.92563 v 0.92566 0.92566 0.92563 0.92566 0.92566 l 0.5805206,0.68853 0.6480122,0.66101 0.6480103,0.661 0.6479892,0.66099 0.6480103,0.661 0.6479893,0.66098 0.6480102,0.66101 0.6480107,0.661 0.647989,0.66099 0.64801,0.661 0.648012,0.66101 0.64799,0.66098 0.64801,0.66101 0.64801,0.66099 0.647989,0.66098 0.648011,0.66102 0.64801,0.66101 0.647989,0.66098 0.64801,0.66099 0.64799,0.661 0.648012,0.66099 0.64801,0.66101 0.647987,0.66098 0.648011,0.66101 0.648012,0.661 0.647989,0.66098 0.64801,0.66101 0.648011,0.66101 0.647989,0.66098 0.648012,0.661 0.64801,0.66101 0.647988,0.66098 0.648012,0.66101 0.647989,0.66098 0.64801,0.66101 0.648011,0.661 0.647989,0.66098 0.64801,0.66101 0.64801,0.66099 0.64799,0.661 0.64801,0.66099 0.64801,0.66101 0.720257,0.48919 0.925659,9e-4 0.925659,8.8e-4 0.925629,9e-4 0.925659,8.9e-4 0.925629,9e-4 0.925659,9e-4 0.925659,8.8e-4 0.925625,9e-4 0.925659,8.9e-4 0.925659,9e-4 0.925629,8.8e-4 0.925659,9e-4 0.925659,8.9e-4 0.925629,9e-4 0.925655,9e-4 0.925629,8.8e-4 0.925659,9e-4 0.925659,8.9e-4 0.902619,0.01 -0.660408,0.64824 -0.600243,0.70423 -0.531971,0.75705 -0.457718,0.80418 -0.381454,0.84305 -0.319046,0.8688 -0.310208,0.87207 0.02235,0.8805 0.869762,0.25735 0.925118,-0.01 0.922546,-0.0745 0.919945,-0.10254 0.918175,-0.11747 0.915905,-0.1332 0.904632,-0.19546 0.89317,-0.24268 0.883095,-0.27722 0.873226,-0.30702 0.862377,-0.33624 0.849129,-0.36828 0.830646,-0.40823 0.799336,-0.46612 0.829197,-0.40143 0.913284,-0.13201 0.917301,0.10469 0.860046,0.33438 0.716137,0.57897 0.436165,0.8082 0.06076,0.91659 -0.394493,0.83695 -0.476071,0.79336 -0.550068,0.74407 -0.615856,0.69062 -0.673466,0.63459 -0.723487,0.57699 -0.766621,0.51839 -0.803528,0.45903 -0.835094,0.39885 -0.861653,0.33755 -0.883785,0.27459 -0.901531,0.20903 -0.914547,0.14138 -0.915852,0.13414 -0.909805,0.17022 -0.899456,0.21785 -0.880367,0.28495 -0.839749,0.38726 -0.734638,0.55732 -0.417526,0.81014 0.154487,0.89891 0.53431,0.75061 0.736339,0.55888 0.709797,0.59371 0.653565,0.65497 -0.584687,0.15458 h -0.925628 -0.925659 -0.92566 l -0.908451,-0.0172 H 47.321617 46.395958 45.470329 44.54467 43.619011 42.693382 41.767723 40.842094 39.916435 38.990776 38.065147 37.139488 36.213829 35.2882 34.362541 33.436882 32.511253 31.585594 30.659966 29.734306 28.808647 27.883018 26.957359 26.0317 25.106071 24.180412 23.254753 22.329124 21.403465 20.477806 19.552177 18.626518 17.70089 16.77523 15.849571 14.923943 13.998283 13.072624 12.146996 11.221336 10.295677 9.3700485 8.4443893 7.5187302 6.5931015 5.6674423 l -0.2202377,0.70568 -3.929e-4,0.92566 -3.929e-4,0.92566 -3.93e-4,0.92563 -3.929e-4,0.92566 -3.929e-4,0.92566 -3.924e-4,0.92563 -3.929e-4,0.92566 -3.929e-4,0.92566 -3.93e-4,0.92562 -3.929e-4,0.92566 -3.929e-4,0.92566 -3.929e-4,0.92563 -3.929e-4,0.92566 -3.929e-4,0.92563 -3.929e-4,0.92566 -3.93e-4,0.92566 -3.929e-4,0.92563 -3.924e-4,0.92566 -3.929e-4,0.92566 -3.929e-4,0.92562 -3.929e-4,0.92566 -3.93e-4,0.92566 -3.929e-4,0.92563 -3.929e-4,0.92566 -3.929e-4,0.92566 -3.929e-4,0.92563 -3.929e-4,0.92566 -3.929e-4,0.92563 -3.925e-4,0.92565 -3.929e-4,0.92566 -3.929e-4,0.92563 -3.929e-4,0.92566 -3.929e-4,0.92566 -3.929e-4,0.92563 -3.93e-4,0.92566 -3.929e-4,0.92566 -3.929e-4,0.92563 -3.929e-4,0.92566 -3.929e-4,0.92566 -3.925e-4,0.92562 -3.929e-4,0.92566 -3.929e-4,0.92563 0.021429,0.91651 0.6602134,0.64881 0.6601925,0.64881 0.6602135,0.64882 0.6602135,0.6488 0.6601925,0.6488 0.6602134,0.64882 0.660214,0.64882 0.660192,0.64879 0.660213,0.64882 0.660193,0.64879 0.660213,0.64882 0.660214,0.64882 0.660192,0.64878 0.660214,0.64882 0.660213,0.64882 0.660193,0.64879 0.660213,0.64882 0.660214,0.64882 0.660192,0.64879 0.660214,0.64882 0.660215,0.64882 0.660191,0.6488 0.660213,0.6488 0.660193,0.64881 0.660215,0.64882 0.660213,0.6488 0.660191,0.6488 0.660214,0.64882 0.660215,0.64881 0.660192,0.6488 0.660214,0.64882 0.660213,0.64882 0.660191,0.64879 0.660215,0.64881 0.660214,0.64882 0.660192,0.64879 0.660214,0.64882 0.660192,0.64879 0.660214,0.64882 0.660213,0.64882 0.660193,0.64879 0.660213,0.64881 0.660214,0.64882 0.66019,0.64879 0.660217,0.64882 0.660214,0.64882 0.660191,0.6488 0.660213,0.64881 0.773174,0.37275 h 0.925629 0.925659 0.925629 0.925659 0.925659 0.925629 0.925659 0.925659 0.925659 0.925598 0.92566 0.925659 0.925659 0.925659 0.925659 0.925599 0.925659 0.925659 0.925659 0.925659 0.925659 0.925599 0.925659 0.925659 0.925659 0.925659 0.925598 0.92566 0.925659 0.925659 0.925659 0.925659 0.925598 0.92566 0.925659 0.925659 0.925659 0.925598 0.92566 0.925659 0.925659 0.925659 0.925659 0.925598 0.92566 0.925659 0.925659 0.925659 0.925598 0.925659 0.92566 0.925659 0.925659 0.925659 0.925598 0.925659 0.92566 0.925659 0.925659 0.925659 0.925598 0.92566 0.925659 0.925659 0.925659 0.925598 0.925659 0.925659 0.92566 0.92566 0.92566 0.9256 0.92566 0.92565 0.92566 0.92566 0.9256 0.92566 0.92566 0.92566 0.92566 0.92566 0.9256 0.92565 0.92566 0.92566 0.92566 0.92566 0.9256 0.92566 0.92566 0.92566 0.92566 0.92559 l 0.70715,-0.53466 0.66072,-0.6483 0.66071,-0.64832 0.66072,-0.6483 0.66072,-0.6483 0.66067,-0.64825 0.66072,-0.64832 0.66072,-0.6483 0.66073,-0.6483 0.6607,-0.6483 0.66068,-0.64825 0.66072,-0.6483 0.66072,-0.64832 0.66072,-0.6483 0.66072,-0.6483 0.66072,-0.6483 0.66068,-0.64827 0.66072,-0.6483 0.6607,-0.6483 0.66072,-0.6483 0.66072,-0.6483 0.66072,-0.6483 0.66068,-0.64827 0.66072,-0.6483 0.66071,-0.6483 0.66072,-0.6483 0.66072,-0.6483 0.66067,-0.64827 0.66072,-0.6483 0.66072,-0.6483 0.66072,-0.6483 0.66071,-0.6483 0.66072,-0.6483 0.66068,-0.64827 0.66072,-0.6483 0.66072,-0.6483 0.66072,-0.6483 0.6607,-0.64832 0.66068,-0.64825 0.66072,-0.6483 0.66072,-0.6483 0.66072,-0.6483 0.66072,-0.64832 0.66072,-0.6483 0.66068,-0.64825 0.6607,-0.6483 0.66072,-0.6483 0.66073,-0.64832 0.49168,-0.71925 v -0.9256 -0.92566 -0.92566 -0.92566 -0.92566 -0.92566 -0.92559 -0.92566 -0.92566 -0.92566 -0.92566 -0.92566 -0.9256 -0.92566 -0.92566 -0.92565 -0.92566 -0.9256 -0.92566 -0.92566 -0.92566 -0.92566 -0.92566 -0.9256 -0.92566 -0.92565 -0.92566 -0.92566 -0.9256 -0.92566 -0.92566 -0.92566 -0.92566 -0.92566 -0.9256 -0.92565 -0.92566 -0.92566 -0.92566 -0.92566 -0.9256 -0.92566 -0.92566 -0.92566 -0.92566 -0.92559 -0.92566 -0.92566 -0.92566 -0.92566 -0.92566 -0.9256 -0.92566 -0.92566 -0.92566 -0.92565 -0.9256 -0.92566 -0.92566 -0.92566 -0.92566 -0.92566 -0.9256 -0.92566 -0.92566 -0.92565 -0.92566 -0.9256 -0.92566 -0.92566 -0.92566 -0.92566 -0.92566 -0.9256 -0.92566 -0.92565 -0.92566 -0.92566 -0.92566 -0.9256 -0.92566 -0.92566 -0.92566 -0.92566 -0.92559 -0.92566 -0.92566 -0.92566 -0.92566 l -0.004,-0.92391 -0.64837,-0.66057 -0.64842,-0.66062 -0.6484,-0.66061 -0.64841,-0.66061 -0.64841,-0.66062 -0.64836,-0.66057 -0.64842,-0.66061 -0.64841,-0.66061 -0.64841,-0.66062 -0.6484,-0.66061 -0.64841,-0.66062 -0.64838,-0.66056 -0.6484,-0.66062 -0.64841,-0.66061 -0.64841,-0.66062 -0.6484,-0.6606 -0.64841,-0.66062 -0.64838,-0.66057 -0.6484,-0.66062 -0.64841,-0.6606 -0.64841,-0.66062 -0.64841,-0.66061 -0.64837,-0.66058 -0.64841,-0.6606 -0.64841,-0.66062 -0.6484,-0.66061 -0.64841,-0.66062 -0.64842,-0.66061 -0.64836,-0.66057 -0.64841,-0.66061 -0.64841,-0.66062 -0.6484,-0.66061 -0.64843,-0.66061 -0.64836,-0.66057 -0.6484,-0.66062 -0.64841,-0.66061 -0.64841,-0.66061 -0.64842,-0.66062 -0.64841,-0.66061 -0.64836,-0.66057 -0.64841,-0.66061 -0.64842,-0.66062 -0.75851,-0.398169 h -0.92566 -0.92566 -0.9256 -0.92566 -0.92566 -0.92566 -0.92566 -0.92559 -0.92566 -0.92566 -0.92566 -0.92566 -0.92566 -0.9256 -0.92566 -0.92566 -0.92566 -0.92565 -0.9256 -0.92566 -0.92566 -0.92566 -0.92566 l -0.88297,-0.141655 -0.779,-0.499809 -0.78723,-0.4869 -0.79161,-0.479836 -0.79297,-0.477554 -0.79239,-0.478485 -0.78954,-0.483086 -0.7846,-0.491097 -0.77253,-0.496444 -0.778828,-0.499993 -0.746589,-0.546936 -0.715836,-0.586738 -0.70771,-0.596321 -0.673485,-0.634781 -0.637939,-0.670677 -0.623001,-0.684586 -0.601181,-0.703781 -0.578133,-0.722908 -0.552185,-0.742714 -0.520088,-0.765633 -0.470742,-0.796684 -0.359123,-0.851807 -0.212776,-0.899787 -0.04174,-0.922699 0.286552,-0.865632 0.846146,-0.178527 0.823593,0.419853 0.835754,0.397568 0.857971,0.347251 0.874054,0.304291 0.886147,0.26722 0.895386,0.234756 0.902336,0.2062 0.907867,0.180618 0.91204,0.157593 0.91554,0.13652 0.91818,0.117028 0.92036,0.09869 0.92206,0.08147 0.92339,0.06432 0.92441,0.04706 0.92324,0.06167 0.91897,0.110741 0.91489,0.140182 0.8733,0.294823 0.84224,0.383652 0.89788,-0.07987 0.62765,-0.656029 0.12296,-0.905777 -0.26899,-0.881462 -0.47994,-0.789948 -0.53238,-0.756187 -0.55227,-0.742737 -0.58931,-0.713722 -0.61653,-0.690399 0.15978,-0.331795 h 0.92566 0.92559 0.92566 0.92566 0.92566 0.92566 0.9256 0.92566 0.92566 0.92566 0.92566 0.92566 0.92559 0.92566 0.92566 0.92566 0.92566 0.9256 0.92566 0.92566 0.92566 0.92566 0.92565 0.9256 0.92566 0.92566 0.92566 0.92566 0.92566 0.9256 0.92566 0.92566 0.92565 0.92566 0.9256 0.92566 0.92566 0.92566 0.92566 0.92566 0.9256 0.92565 0.92566 0.92566 0.92566 0.9256 0.92566 0.92566 0.92566 0.92566 l 0.60077,-0.324913 v -0.925598 -0.92566 -0.925659 -0.925659 -0.925659 -0.925659 -0.925598 -0.92566 -0.925659 -0.925659 -0.925659 -0.925598 -0.925659 -0.92566 -0.925659 -0.925659 -0.925659 -0.925598 -0.925656 -0.925659 -0.925659 -0.925659 -0.925598 -0.92566 -0.925659 -0.925659 -0.925659 -0.925659 -0.925598 -0.92566 -0.925659 -0.925659 -0.925659 -0.925659 -0.925598 -0.92566 -0.925659 -0.925659 -0.925659 -0.925598 -0.925659 -0.92566 -0.925659 -0.925659 -0.925659 -0.925598 -0.92566 z"
   id="polygon4" />
<path
   style="fill:#8c1515;stroke:#8c1515;stroke-miterlimit:10"
   d="m 112.5585,104.44118 0.25547,0.44346 0.23786,0.45314 0.22092,0.46164 0.2048,0.46903 0.18976,0.47531 0.17562,0.48072 0.16259,0.48528 0.1508,0.48908 0.13975,0.49235 0.1299,0.49504 0.12089,0.49732 0.11266,0.49925 0.10519,0.50088 0.0984,0.50225 0.0923,0.50341 0.0868,0.5044 0.0819,0.50521 0.0772,0.50597 0.0732,0.50656 0.0499,0.50819 -0.0787,0.50438 -0.23147,0.45285 -0.39635,0.31752 -0.48672,0.15161 -0.51021,0.0289 -0.50894,-0.0508 -0.50075,-0.10493 -0.49066,-0.1452 -0.47968,-0.17824 -0.46713,-0.20889 -0.44878,-0.24549 -0.43241,-0.27365 -0.44865,-0.24614 -0.46228,-0.21949 -0.4736,-0.19389 -0.48295,-0.16926 -0.49055,-0.14583 -0.49614,-0.1256 -0.49319,-0.13667 -0.48893,-0.15127 -0.48585,-0.1609 -0.48353,-0.16779 -0.48162,-0.17317 -0.48014,-0.17727 -0.47888,-0.18059 -0.47777,-0.18354 -0.47692,-0.18575 -0.47619,-0.1876 -0.47556,-0.18917 -0.47498,-0.19065 -0.4745,-0.19182 -0.47427,-0.19242 -0.47396,-0.19316 -0.473911,-0.1933 -0.473907,-0.19329 -0.474188,-0.1926 -0.474664,-0.19142 -0.475824,-0.18853 -0.47854,-0.18149 -0.492072,-0.13825 -0.509259,-0.0411 -0.506671,0.0653 -0.482672,0.1676 -0.441766,0.25699 -0.387395,0.33333 -0.303172,0.40997 -0.113246,0.47444 0.03647,0.5093 0.125814,0.49572 0.178481,0.4795 0.217672,0.46305 0.217209,0.46334 0.235617,0.45431 0.257285,0.44237 0.279831,0.42846 0.303068,0.41235 0.326298,0.39422 0.348979,0.37427 0.37036,0.35315 0.389928,0.33142 0.407231,0.30991 0.422009,0.28952 0.43427,0.27078 0.443988,0.25455 0.451556,0.24089 0.457162,0.23008 0.46109,0.22214 0.46355,0.21698 0.46467,0.21455 0.46466,0.21454 0.46366,0.21673 0.46172,0.22084 0.45884,0.22674 0.45508,0.23418 0.45058,0.24274 0.44527,0.25232 0.43927,0.26265 0.43258,0.2735 0.42534,0.28464 0.41799,0.29534 0.41317,0.30205 0.40781,0.30924 0.40149,0.31739 0.39385,0.32684 0.38434,0.33794 0.37229,0.35118 0.35637,0.36728 0.33423,0.38747 0.30108,0.41361 0.24606,0.44814 0.14081,0.49006 -0.075,0.49923 -0.35118,0.3618 -0.48164,0.16503 -0.51012,0.021 -0.50095,-0.0986 -0.46701,-0.20814 -0.48624,-0.15812 -0.50307,-0.0927 -0.50985,-0.043 -0.51169,-0.004 -0.51092,0.0288 -0.50844,0.058 -0.50044,0.10426 -0.49704,0.12194 -0.50088,0.1051 -0.50448,0.0861 -0.50768,0.0646 -0.51014,0.0406 -0.51155,0.0139 -0.51151,-0.0154 -0.50959,-0.0466 -0.505626,-0.0787 -0.499591,-0.11079 -0.492047,-0.14059 -0.483875,-0.16663 -0.47622,-0.18742 -0.470349,-0.20176 -0.467218,-0.20896 -0.467187,-0.20901 -0.470263,-0.20197 -0.475989,-0.18803 -0.483331,-0.16821 -0.491162,-0.14367 -0.501423,-0.10034 -0.509027,0.0148 -0.394835,0.29669 -0.05604,0.502 0.119545,0.49675 0.190859,0.47464 0.229562,0.45733 0.255045,0.44368 0.274088,0.4322 0.289963,0.42171 0.304758,0.41114 0.321184,0.39841 0.352317,0.37081 0.381658,0.34093 0.394335,0.32624 0.401769,0.31705 0.406957,0.31038 0.410716,0.30538 0.413836,0.30114 0.416375,0.29764 0.418627,0.29445 0.420653,0.29154 0.422461,0.28892 0.424169,0.28641 0.425803,0.28397 0.42742,0.28155 0.42901,0.27909 0.43072,0.27648 0.4324,0.27381 0.4342,0.27096 0.43617,0.26777 0.43852,0.26392 0.44108,0.25962 0.44437,0.25391 0.44862,0.24635 0.45484,0.23461 0.46183,0.22056 0.45757,0.22929 0.45114,0.24165 0.44416,0.25428 0.43657,0.26708 0.42839,0.28001 0.41957,0.29307 0.41008,0.3062 0.40012,0.31911 0.38949,0.33199 0.37838,0.34462 0.36677,0.35692 0.35473,0.3689 0.34239,0.38039 0.32976,0.3914 0.31692,0.40185 0.30411,0.41164 0.29108,0.42094 0.27836,0.42947 0.26556,0.43751 0.25317,0.44478 0.24094,0.45154 0.22914,0.45762 0.21761,0.46323 0.20662,0.46824 0.19591,0.47282 0.18579,0.47688 0.17609,0.48056 0.16686,0.48385 0.15831,0.4867 0.14877,0.48971 0.13588,0.49341 0.1179,0.49802 0.0906,0.50361 0.0427,0.50967 -0.0661,0.50499 -0.3537,0.33551 -0.50419,-0.0499 -0.47656,-0.18557 -0.46266,-0.21883 -0.44783,-0.24674 -0.41311,-0.30185 -0.40356,-0.31479 -0.42222,-0.28888 -0.45333,-0.23675 -0.48055,-0.17511 -0.49792,-0.11735 -0.50695,-0.0691 -0.5108,-0.0307 -0.51175,-4.3e-4 -0.51173,0.008 -0.51181,7.1e-4 -0.51173,-0.01 -0.51125,-0.0234 -0.51008,-0.0416 -0.50766,-0.0646 -0.50329,-0.0926 -0.49625,-0.12477 -0.48619,-0.15957 -0.47317,-0.19476 -0.4581,-0.22802 -0.44212,-0.25765 -0.42638,-0.28298 -0.4118,-0.30386 -0.3973,-0.32254 -0.37599,-0.34716 -0.35849,-0.36522 -0.34853,-0.3748 -0.424555,-0.2813 -0.496912,-0.0637 -0.382817,0.32166 -0.195803,0.47109 -0.10237,0.50109 -0.05007,0.5092 -0.01477,0.51152 0.01265,0.51161 0.0367,0.51045 0.06123,0.50807 0.09243,0.50327 0.161642,0.48404 0.2418,0.451 0.274161,0.43197 0.319346,0.39953 0.371625,0.35123 0.41709,0.29601 0.44665,0.24957 0.46243,0.21922 0.47007,0.20243 0.47339,0.19457 0.47439,0.19209 0.47414,0.19271 0.47332,0.19473 0.47196,0.198 0.47041,0.20164 0.46874,0.2055 0.46705,0.20929 0.46536,0.21305 0.46355,0.21698 0.462,0.22023 0.46027,0.22386 0.45867,0.22711 0.45712,0.23017 0.45558,0.23324 0.45415,0.23599 0.45271,0.23874 0.44976,0.24422 0.44129,0.2592 0.43128,0.27552 0.42013,0.29225 0.40773,0.30929 0.3939,0.32672 0.37862,0.34433 0.36187,0.36185 0.34368,0.37917 0.32405,0.39609 0.30313,0.41232 0.28095,0.42773 0.25792,0.44199 0.23448,0.45488 0.2112,0.46613 0.18963,0.47535 0.17345,0.48151 0.17307,0.48166 0.17096,0.48239 0.11155,0.49815 -0.18228,0.45381 -0.47663,0.1728 -0.50968,0.042 -0.51169,-0.005 -0.51095,-0.0292 -0.50997,-0.0434 -0.50911,-0.0524 -0.50844,-0.0587 -0.50786,-0.0634 -0.50741,-0.0668 -0.50708,-0.0696 -0.5052,-0.0815 -0.5011,-0.10402 -0.49737,-0.12064 -0.49397,-0.13388 -0.49079,-0.14514 -0.48768,-0.15527 -0.48459,-0.16467 -0.48141,-0.17374 -0.47799,-0.18294 -0.47424,-0.19245 -0.46998,-0.20263 -0.46496,-0.2139 -0.45871,-0.22694 -0.45053,-0.24279 -0.43885,-0.26323 -0.43485,-0.26922 -0.47531,-0.18781 -0.50067,-0.10354 -0.51064,-0.0272 -0.50952,0.044 -0.4987,0.11324 -0.47723,0.18359 -0.441815,0.25711 -0.386919,0.33374 -0.306669,0.40835 -0.200912,0.46931 -0.08237,0.50395 0.05233,0.50379 0.211972,0.46578 0.237539,0.45325 0.262095,0.43954 0.285349,0.42479 0.307142,0.40934 0.32772,0.39305 0.34669,0.37642 0.36453,0.35921 0.3808,0.3419 0.39606,0.32409 0.40993,0.30638 0.42283,0.28831 0.43457,0.27028 0.44544,0.25198 0.45532,0.23367 0.46437,0.21507 0.47261,0.19637 0.48006,0.17732 0.48678,0.15802 0.49276,0.13822 0.49796,0.11808 0.50247,0.0972 0.50612,0.0757 0.5072,0.0685 0.50586,0.0778 0.50414,0.0882 0.50186,0.1004 0.49876,0.11469 0.49446,0.13198 0.48839,0.15292 0.47928,0.17926 0.4651,0.21331 0.44138,0.2585 0.39898,0.31949 0.33039,0.38999 0.23896,0.45113 0.11937,0.4963 9e-5,0.5108 -0.0982,0.50168 -0.17161,0.48178 -0.22516,0.45939 -0.26507,0.43766 -0.29591,0.41749 -0.32079,0.39871 -0.34204,0.38065 -0.36174,0.36182 -0.29947,0.41434 -0.21999,0.46121 -0.12192,0.49609 -0.0162,0.51065 0.0828,0.50435 0.16651,0.48342 0.2339,0.4548 0.28818,0.4226 0.3334,0.388 0.37365,0.34939 0.41298,0.30161 0.45009,0.24329 0.45054,0.24278 0.44539,0.25215 0.43982,0.26174 0.43399,0.27127 0.42753,0.28131 0.42067,0.29151 0.41311,0.30211 0.40464,0.31334 0.39533,0.32505 0.38488,0.33733 0.37318,0.35022 0.35997,0.36378 0.34506,0.37797 0.32811,0.3927 0.30886,0.40805 0.28698,0.42373 0.26207,0.4395 0.23397,0.45511 0.20245,0.46992 0.18432,0.47747 0.18219,0.47828 0.17999,0.47913 0.17764,0.47996 0.17489,0.48104 0.17199,0.48202 0.16915,0.48306 0.16545,0.48435 0.16207,0.48544 0.15771,0.48693 0.15348,0.48824 0.14841,0.48982 0.14272,0.49149 0.13636,0.49333 0.12897,0.49527 0.1204,0.49747 0.11037,0.49974 0.0983,0.50226 0.0835,0.50493 0.0647,0.50768 0.0403,0.51015 0.007,0.51163 -0.0419,0.50978 -0.11788,0.49724 -0.24042,0.44908 -0.40031,0.3108 -0.49771,0.10456 -0.50839,-0.0487 -0.49314,-0.13563 -0.47648,-0.18642 -0.4627,-0.21863 -0.45196,-0.2401 -0.44373,-0.25497 -0.43772,-0.26527 -0.43379,-0.27161 -0.43197,-0.27449 -0.43257,-0.27354 -0.43229,-0.27402 -0.42765,-0.28113 -0.42464,-0.28575 -0.42295,-0.28816 -0.42239,-0.28907 -0.42243,-0.28894 -0.42315,-0.28795 -0.42434,-0.28614 -0.426,-0.28366 -0.42805,-0.28061 -0.43039,-0.27696 -0.43309,-0.27274 -0.4359,-0.26818 -0.43927,-0.26266 -0.44273,-0.25677 -0.44648,-0.25021 -0.45049,-0.2429 -0.45466,-0.23504 -0.45912,-0.22616 -0.4637,-0.21659 -0.46848,-0.20608 -0.47344,-0.19433 -0.47848,-0.18173 -0.48353,-0.16764 -0.48864,-0.15218 -0.49351,-0.13544 -0.49829,-0.11683 -0.50261,-0.0964 -0.50635,-0.0742 -0.50929,-0.05 -0.51123,-0.0238 -0.51172,0.004 -0.51068,0.0329 -0.5102,0.0407 -0.51018,0.0407 -0.51021,0.0403 -0.51031,0.0389 -0.510526,0.0365 -0.510779,0.0324 -0.511146,0.0263 -0.511462,0.0178 -0.511774,0.007 -0.511713,-0.009 -0.510987,-0.0283 -0.509058,-0.0525 -0.505194,-0.0813 -0.498889,-0.11384 -0.48971,-0.14834 -0.478021,-0.18262 -0.464569,-0.21453 -0.450573,-0.24261 -0.436858,-0.26653 -0.424359,-0.2861 -0.413121,-0.30208 -0.403924,-0.31428 -0.414617,-0.29989 -0.440954,-0.25921 -0.474969,-0.18842 -0.506314,-0.0494 -0.467047,0.19179 -0.314729,0.39882 -0.177715,0.47881 -0.0919,0.5031 -0.03413,0.51045 0.0073,0.51163 v 0.51182 0.51183 0.51179 0.51183 0.5118 0.51182 0.5118 0.51182 0.5118 0.51182 0.5118 0.51182 0.51183 0.51179 0.51183 0.51179 0.51183 0.5118 0.51182 0.5118 0.51182 0.5118 0.51182 0.5118 0.51182 0.51183 0.51179 0.51183 0.51179 0.51183 0.5118 0.51182 0.5118 0.51182 0.5118 0.51182 0.51182 0.5118 0.51183 0.51179 l 0.0028,0.51177 0.02523,0.51116 0.0312,0.51087 0.03819,0.51037 0.04564,0.50977 0.05366,0.50899 0.06276,0.50794 0.07238,0.50663 0.08271,0.50508 0.09384,0.50313 0.105593,0.50079 0.117964,0.49803 0.130949,0.49473 0.144613,0.49097 0.15869,0.48653 0.173192,0.4816 0.187982,0.47603 0.203231,0.46971 0.218411,0.46282 0.233618,0.45536 0.248999,0.44714 0.263862,0.43849 0.27872,0.42925 0.292966,0.41963 0.306999,0.40951 0.320274,0.39915 0.333012,0.38865 0.345286,0.37774 0.356383,0.36736 0.368394,0.35521 0.382427,0.34011 0.396166,0.32396 0.409227,0.30735 0.4208,0.29129 0.430267,0.2771 0.437114,0.26624 0.441254,0.25926 0.442504,0.2572 0.44118,0.25943 0.437438,0.2657 0.431713,0.27483 0.424328,0.28619 0.415746,0.29846 0.406495,0.31097 0.39679,0.32324 0.38707,0.33482 0.37758,0.34549 0.36831,0.35538 0.3595,0.36428 0.3511,0.37235 0.34327,0.37964 0.33596,0.38606 0.32904,0.39205 0.33618,0.3857 0.36858,0.35491 0.39189,0.32906 0.40909,0.30747 0.42215,0.28936 0.43254,0.27351 0.44109,0.25955 0.44829,0.24691 0.45454,0.23528 0.4599,0.22449 0.46478,0.21433 0.46919,0.20442 0.47318,0.1951 0.47686,0.18582 0.48035,0.17671 0.48361,0.16755 0.48669,0.15828 0.48968,0.1489 0.49248,0.13922 0.49524,0.12922 0.49785,0.11863 0.50042,0.10733 0.50283,0.0953 0.50514,0.0823 0.50728,0.0678 0.50916,0.0519 0.51067,0.0337 0.51161,0.0124 0.51182,9.8e-4 0.5118,0.001 0.51182,9.7e-4 0.5118,9.8e-4 0.51182,9.8e-4 0.5118,0.001 0.51182,9.7e-4 0.51179,9.8e-4 0.51183,9.8e-4 0.5118,9.7e-4 0.51182,0.001 0.51182,9.8e-4 0.51179,9.8e-4 0.51183,9.7e-4 0.51179,9.8e-4 0.51183,0.001 0.3812,-0.31951 0.3654,-0.3584 0.36539,-0.35838 0.36539,-0.3584 0.36538,-0.35838 0.3654,-0.35838 0.3654,-0.3584 0.36538,-0.35838 0.3654,-0.3584 0.36537,-0.35838 0.3654,-0.35838 0.36538,-0.35838 0.3654,-0.3584 0.36538,-0.35838 0.3654,-0.3584 0.36538,-0.35838 0.36539,-0.35838 0.36539,-0.35838 0.3654,-0.3584 0.36539,-0.35841 0.36538,-0.35837 0.3654,-0.35838 0.36538,-0.35841 0.3654,-0.35837 0.36538,-0.35838 0.36539,-0.35841 0.36538,-0.35837 0.3654,-0.35838 0.36538,-0.35841 0.3654,-0.35837 0.3654,-0.35841 0.36538,-0.35838 0.36539,-0.3584 0.36539,-0.35838 0.3654,-0.35838 0.36538,-0.35837 0.36539,-0.35841 0.36538,-0.35837 0.3654,-0.35841 0.36538,-0.35838 0.3654,-0.35837 0.36538,-0.35838 0.36539,-0.35841 0.3654,-0.3584 0.36538,-0.35838 0.3654,-0.35838 0.36538,-0.35837 0.3654,-0.35841 0.36538,-0.35838 0.3654,-0.3584 0.36537,-0.35838 0.3654,-0.35838 0.36539,-0.35837 0.36539,-0.35841 0.3654,-0.3584 0.36537,-0.35838 0.3654,-0.35838 0.36539,-0.35838 0.36539,-0.3584 0.36538,-0.35838 0.36541,-0.3584 0.36537,-0.35838 0.3654,-0.35838 0.36538,-0.35838 0.3654,-0.3584 0.36537,-0.35838 0.3654,-0.3584 0.3654,-0.35838 0.36539,-0.35839 0.36539,-0.35839 0.36538,-0.35838 0.36539,-0.3584 0.36539,-0.35838 0.3654,-0.35839 0.36537,-0.35838 0.3654,-0.35839 0.36538,-0.35838 0.3654,-0.3584 0.3654,-0.35839 0.36538,-0.35838 0.3654,-0.35839 0.0833,-0.47684 v -0.51182 -0.5118 -0.51182 -0.5118 -0.51182 -0.5118 -0.51182 -0.5118 -0.51183 -0.51182 -0.5118 -0.51182 -0.5118 -0.51182 -0.5118 -0.51182 -0.5118 -0.51182 -0.5118 -0.51182 -0.51183 -0.5118 -0.51182 -0.5118 -0.51182 -0.5118 -0.51182 -0.5118 -0.51182 -0.5118 -0.51182 -0.51183 -0.51179 -0.51183 -0.5118 -0.51182 -0.5118 -0.51182 -0.5118 -0.51182 -0.5118 -0.51182 -0.5118 -0.51182 -0.51183 -0.51179 -0.51183 -0.5118 -0.51182 -0.5118 -0.51182 -0.5118 -0.51182 -0.5118 -0.51182 -0.51182 -0.5118 -0.51183 -0.51182 -0.51177 -0.51183 -0.51182 -0.51182 -0.51178 -0.51182 -0.51182 -0.51182 -0.51183 -0.51177 -0.51182 -0.51183 -0.51182 -0.51177 -0.51183 -0.51182 -0.51182 -0.51178 -0.51182 -0.51182 -0.51182 -0.51183 -0.51177 -0.51182 -0.51183 -0.51182 -0.51177 -0.51183 -0.51182 -0.51182 -0.51178 -0.51182 -0.51182 -0.51182 -0.51183 -0.51177 -0.51182 -0.51183 -0.51182 -0.51177 -0.51183 -0.51182 -0.51182 -0.51178 -0.51182 -0.51182 -0.51182 -0.51183 -0.51177 -0.51182 -0.51183 -0.51182 -0.51177 -0.51183 -0.51182 -0.51182 -0.51182 -0.51178 -0.51182 -0.51182 -0.51183 -0.51177 -0.51182 -0.51183 -0.51182 -0.51177 -0.51183 -0.51182 -0.51182 -0.51182 -0.51178 -0.51182 -0.51182 -0.51183 -0.51177 -0.51182 -0.51183 -0.51182 -0.51177 -0.51183 -0.51182 -0.51182 -0.51182 -0.51178 -0.51182 -0.51182 -0.51183 -0.51177 -0.51182 -0.51183 -0.51182 -0.51182 -0.51178 -0.51182 -0.51182 -0.51182 l -0.14338,-0.45315 -0.35855,-0.36525 -0.35853,-0.36526 -0.35854,-0.36525 -0.35851,-0.36523 -0.35854,-0.36525 -0.35855,-0.36525 -0.35854,-0.36525 -0.35853,-0.36525 -0.35852,-0.36523 -0.35853,-0.36525 -0.35854,-0.36526 -0.35855,-0.36526 -0.3585,-0.36521 -0.35854,-0.36525 -0.35855,-0.36527 -0.35853,-0.36525 -0.35852,-0.36522 -0.35853,-0.36525 -0.35854,-0.36526 -0.35855,-0.36525 -0.35854,-0.36525 -0.35851,-0.36522 -0.35854,-0.36526 -0.35854,-0.36526 -0.35853,-0.36525 -0.35852,-0.36521 -0.35853,-0.36526 -0.35855,-0.36526 -0.35854,-0.36525 -0.3585,-0.36523 -0.35855,-0.36525 -0.35854,-0.36525 -0.35854,-0.36525 -0.35854,-0.36525 -0.3585,-0.36523 -0.35855,-0.36525 -0.35854,-0.36526 -0.35854,-0.36525 -0.3585,-0.36522 -0.35855,-0.36525 -0.35854,-0.36526 -0.35854,-0.36525 -0.35854,-0.36526 -0.35851,-0.36522 -0.35854,-0.36525 -0.35854,-0.36525 -0.35854,-0.36527 -0.35851,-0.36521 -0.35854,-0.36525 -0.35854,-0.36526 -0.35854,-0.36526 -0.35851,-0.36521 -0.35854,-0.36526 -0.35854,-0.36526 -0.35854,-0.36525 -0.35855,-0.36526 -0.3585,-0.36522 -0.35854,-0.36525 -0.35854,-0.36525 -0.35854,-0.36526 -0.35851,-0.36522 -0.35854,-0.36525 -0.35854,-0.36525 -0.35854,-0.36526 -0.35851,-0.36522 -0.35854,-0.36525 -0.35854,-0.36526 -0.35854,-0.36525 -0.35854,-0.36526 -0.37238,-0.33222 h -0.51183 -0.51182 -0.51182 -0.51178 -0.51182 -0.51182 -0.51183 -0.51177 -0.51182 -0.51182 -0.51183 -0.51182 -0.51177 -0.51183 -0.51182 -0.51182 -0.51178 -0.51182 -0.51182 -0.51183 -0.51182 -0.51177 -0.51182 -0.51183 -0.51182 -0.51177 -0.51183 -0.51182 -0.51182 -0.51178 -0.51182 z"
   id="polygon6" />
<path
   style="fill:#8c1515;stroke:#8c1515;stroke-miterlimit:10"
   d="m 39.190889,9.5113188 -0.579136,0.5673622 -0.579133,0.567363 -0.579137,0.567365 -0.579133,0.567363 -0.579133,0.567362 -0.579133,0.567366 -0.579134,0.567362 -0.579133,0.567366 -0.579136,0.567363 -0.579133,0.567363 -0.579137,0.567364 -0.57913,0.567362 -0.579136,0.567366 -0.579133,0.567364 -0.579133,0.567364 -0.579134,0.567362 -0.579133,0.567363 -0.579133,0.567365 -0.579136,0.567364 -0.579137,0.567364 -0.579133,0.567364 -0.579133,0.567364 -0.579133,0.567364 -0.579133,0.567362 -0.579135,0.567366 -0.579135,0.567362 -0.579133,0.567364 -0.579133,0.567364 -0.579135,0.567364 -0.579135,0.567363 -0.579133,0.567365 -0.579133,0.567363 -0.579133,0.567365 -0.579134,0.567362 -0.579134,0.567366 -0.579135,0.567362 -0.579133,0.567363 -0.579134,0.567365 -0.579136,0.567366 -0.579132,0.567359 -0.579134,0.567366 -0.579135,0.567365 -0.579133,0.567363 -0.579135,0.567362 -0.579132,0.567366 -0.579134,0.567362 -0.579135,0.567365 -0.579133,0.567363 -0.579134,0.567365 -0.579135,0.567363 -0.5791326,0.567362 -0.1045354,0.766807 v 0.81074 0.81074 0.81074 0.81074 0.81074 l -8e-7,0.81074 v 0.810734 0.810741 0.81074 0.810734 0.81074 0.81074 0.81074 0.81074 0.81074 0.810734 0.81074 0.810741 0.81074 0.81074 0.81074 0.810734 0.81074 0.81074 0.81074 0.81074 0.810734 l -8e-7,0.81074 v 0.810741 0.81074 0.81074 0.81074 0.810734 0.81074 0.81074 0.81074 0.81074 0.810734 0.810741 0.81074 0.81074 0.81074 0.81074 0.810734 0.81074 0.81074 0.81074 0.81074 l -7e-7,0.810734 v 0.810741 0.81074 0.81074 0.81074 0.810734 0.81074 0.81074 0.81074 0.81074 0.81074 0.810734 0.810741 0.81074 0.81074 0.81074 0.810734 0.81074 0.81074 0.81074 0.81074 0.810741 l -8e-7,0.810734 v 0.81074 0.81074 0.81074 0.810737 0.81074 0.81074 0.81074 0.81074 0.81074 0.81074 0.81074 0.81074 0.81073 0.81074 0.81074 0.81074 0.81074 0.81074 0.81074 0.81074 l -7e-7,0.81074 v 0.81074 0.81074 0.81072 0.81074 0.81075 0.81074 0.81074 0.81074 0.81074 0.81074 l 0.2362456,0.71426 0.5675562,0.57895 0.567556,0.57894 0.567547,0.57894 0.567555,0.57895 0.567556,0.57895 0.567556,0.57895 0.567555,0.57894 0.567556,0.57895 0.567557,0.57895 0.567554,0.57895 0.567557,0.57893 0.567554,0.57895 0.567556,0.57895 0.567548,0.57894 0.567556,0.57895 0.567554,0.57895 0.567557,0.57894 0.567556,0.57895 0.567555,0.57895 0.567556,0.57895 0.567556,0.57895 0.567555,0.57894 0.567556,0.57895 0.567555,0.57895 0.567548,0.57894 0.567555,0.57895 0.567555,0.57895 0.567557,0.57894 0.567555,0.57895 0.567555,0.57895 0.567558,0.57895 0.567554,0.57893 0.567555,0.57895 0.567558,0.57895 0.567555,0.57895 0.567545,0.57894 0.567558,0.57895 0.567555,0.57894 0.567554,0.57895 0.567558,0.57895 0.567555,0.57895 0.567554,0.57894 0.567558,0.57895 0.567555,0.57895 0.801639,0.0217 h 0.810741 0.810728 0.81074 0.81074 0.81074 0.81074 0.81074 0.81074 0.81074 0.81074 0.810741 0.810727 0.810741 0.81074 0.81074 0.81074 0.81074 0.81074 0.81074 0.81074 0.81074 0.810741 0.810727 0.810741 0.81074 0.81074 0.81074 0.81074 l 0.760776,-0.24095 0.747397,-0.31411 0.750357,-0.30703 0.750889,-0.30574 0.745138,-0.31935 0.72211,-0.36773 0.656191,-0.47371 0.536274,-0.60589 0.422564,-0.69121 0.282584,-0.75555 0.128615,-0.80014 0.06548,-0.80794 0.07977,-0.80556 0.05331,-0.80862 -0.07191,-0.80568 -0.469342,-0.60314 -0.767075,0.22073 -0.791252,0.16607 -0.809946,0.005 -0.805705,-0.088 -0.798685,-0.13884 -0.794139,-0.16312 -0.792905,-0.16918 -0.794566,-0.16107 -0.798581,-0.13955 -0.80388,-0.10453 -0.808726,-0.0547 -0.810331,0.0119 -0.804539,0.0963 -0.785661,0.19745 -0.748666,0.30908 -0.735318,0.34046 -0.785423,0.18183 -0.519894,-0.49626 0.139445,-0.79408 0.302394,-0.75174 0.366652,-0.7229 0.406297,-0.70151 0.462439,-0.66454 0.531031,-0.61254 0.55666,-0.58933 0.579163,-0.56726 0.600905,-0.54417 0.622426,-0.51938 0.644277,-0.49206 0.66636,-0.46163 0.688833,-0.42743 0.696358,-0.41199 0.729563,-0.3536 0.7186,-0.37515 0.705539,-0.39938 0.697317,-0.41353 0.691299,-0.42355 0.686349,-0.43154 0.682015,-0.43831 0.677938,-0.44466 0.673873,-0.45073 0.669729,-0.45692 0.665017,-0.46373 0.659664,-0.4713 0.652907,-0.48063 0.64341,-0.49323 0.628158,-0.51245 0.592115,-0.55319 0.516846,-0.62432 0.472388,-0.65871 0.430987,-0.68655 0.375004,-0.71842 0.269797,-0.76302 0.14584,-0.79664 0.07258,-0.80656 -0.108851,-0.80022 -0.436584,-0.66893 -0.739853,-0.30127 -0.782798,0.1746 -0.697866,0.41097 -0.666964,0.46091 -0.679501,0.44202 -0.713375,0.38446 -0.744004,0.32194 -0.756558,0.29115 -0.770066,0.25332 -0.783768,0.20673 -0.795854,0.15391 -0.804465,0.0993 -0.80919,0.0481 -0.809825,-0.0284 -0.804343,-0.10018 -0.798753,-0.13888 -0.798869,-0.1379 -0.80709,-0.0669 -0.806388,0.0177 -0.454132,-0.5813 0.272037,-0.75544 0.477191,-0.65431 0.552772,-0.59271 0.573237,-0.57334 0.586134,-0.55997 0.652187,-0.479 0.697232,-0.41363 0.711575,-0.38841 0.722971,-0.36691 0.73099,-0.35054 0.735507,-0.34113 0.735972,-0.34003 0.731991,-0.34855 0.722311,-0.36807 0.70571,-0.3989 0.680593,-0.44024 0.645663,-0.48993 0.601075,-0.54368 0.548451,-0.59664 0.491449,-0.64449 0.433831,-0.68459 0.378978,-0.71653 0.303159,-0.75069 0.210159,-0.78271 0.112105,-0.802 -0.123122,-0.79275 -0.674276,-0.35141 -0.775602,0.22083 -0.712448,0.38571 -0.676296,0.44694 -0.670949,0.45513 -0.694168,0.41839 -0.729727,0.35247 -0.761515,0.27724 -0.783664,0.20686 -0.797105,0.14709 -0.804679,0.0982 -0.808555,0.0585 -0.810246,0.0263 -0.810685,0.008 -0.809489,0.0429 -0.805693,0.0891 -0.798276,0.14061 -0.786295,0.19687 -0.768467,0.25763 -0.743662,0.32225 -0.711056,0.38879 -0.67051,0.45522 -0.62278,0.51854 -0.571199,0.57497 -0.524576,0.61795 -0.510391,0.62956 -0.571602,0.57418 -0.673668,0.44443 -0.735987,-0.14112 -0.277313,-0.75261 -0.05894,-0.80786 0.02573,-0.81013 0.0723,-0.80743 0.101539,-0.80432 0.112737,-0.80288 0.122725,-0.80137 0.13434,-0.79952 0.147853,-0.79715 0.163732,-0.794 0.182336,-0.78998 0.203991,-0.78458 0.229303,-0.77761 0.258521,-0.76834 0.292004,-0.75627 0.329506,-0.74065 0.370863,-0.720766 0.415032,-0.696303 0.460312,-0.667166 0.505078,-0.633998 0.54701,-0.598164 0.584755,-0.56139 0.618306,-0.52414 0.650655,-0.48357 0.670223,-0.456084 0.681656,-0.438891 0.68854,-0.42799 0.692525,-0.421527 0.694351,-0.418566 0.694626,-0.418083 0.693496,-0.419964 0.690987,-0.424066 0.687137,-0.430266 0.681814,-0.438635 0.67477,-0.449419 0.665615,-0.462854 0.653744,-0.47945 0.638417,-0.499664 0.618037,-0.524573 0.590779,-0.555061 0.552632,-0.592933 0.520587,-0.620229 0.553505,-0.592238 0.522211,-0.62007 0.48706,-0.647951 0.445526,-0.677193 0.394261,-0.708145 0.32971,-0.74028 0.246494,-0.771848 0.139412,-0.797868 0.0056,-0.809617 -0.148879,-0.79553 -0.306065,-0.749271 -0.574476,-0.506708 -0.734927,0.311546 -0.627938,0.512213 -0.602229,0.542799 -0.612612,0.530927 -0.649471,0.484637 -0.712838,0.383324 -0.778391,0.224142 -0.785478,0.200839 -0.788199,0.189791 -0.792106,0.172738 -0.796738,0.149788 -0.801805,0.119655 -0.806596,0.0807 -0.810007,0.03037 -0.809685,-0.03518 -0.801401,-0.119545 -0.80269,-0.111641 -0.809849,-0.02792 -0.807938,0.06209 -0.795658,0.153206 -0.774571,0.23837 -0.749655,0.308146 -0.733948,0.344401 -0.789307,0.06558 -0.670492,-0.433886 -0.321442,-0.732913 0.05442,-0.803593 0.30116,-0.750601 0.441284,-0.679135 0.52323,-0.618928 0.561638,-0.584572 0.585316,-0.560908 0.603175,-0.541681 0.617275,-0.525611 0.628676,-0.511884 0.638161,-0.500055 0.646144,-0.489649 0.653048,-0.480389 0.659133,-0.472088 0.664455,-0.46452 0.669278,-0.457568 0.673629,-0.451129 0.677474,-0.445324 0.681197,-0.439605 0.684555,-0.434387 0.687649,-0.429448 0.690737,-0.424481 0.693484,-0.419976 0.696237,-0.415343 0.698867,-0.410998 0.70145,-0.406505 0.703957,-0.402184 0.70657,-0.397533 0.709177,-0.3929 0.738858,-0.332481 0.736575,-0.33875 0.727732,-0.357267 0.71769,-0.377123 0.705399,-0.399492 0.700088,-0.40512 0.697482,-0.41112 0.585584,-0.556318 0.596925,-0.548041 0.530732,-0.611928 0.408843,-0.697958 0.180569,-0.785429 -0.142842,-0.793369 -0.445123,-0.66487 -0.727927,-0.343571 -0.796281,-0.14891 -0.8059,0.01642 -0.780368,0.217483 -0.761924,0.276914 -0.762314,0.27598 -0.776829,0.231076 -0.798899,0.132497 -0.80944,-0.02221 -0.810117,-0.02923 -0.810722,-0.0083 -0.810734,-0.0055 -0.810356,-0.02227 -0.807072,-0.07354 -0.772159,-0.231357 -0.244278,-0.693441 0.423577,-0.68735 0.525434,-0.617012 0.579298,-0.566902 0.621279,-0.520581 0.655092,-0.47735 0.683657,-0.435583 0.71976,-0.371202 0.739713,-0.331694 0.740286,-0.330607 0.740354,-0.330485 0.740329,-0.330564 0.739938,-0.331193 0.738907,-0.333635 0.699264,-0.408513 0.617196,-0.523914 0.504193,-0.633041 0.364415,-0.722604 0.205038,-0.78281 0.02779,-0.808357 -0.185146,-0.785987 -0.498261,-0.621684 -0.793564,-0.109901 -0.809398,0.04338 -0.807773,0.06939 -0.808598,0.05841 -0.810374,0.005 -0.791215,-0.156185 -0.409984,-0.633962 0.260953,-0.760797 0.444213,-0.677395 0.508344,-0.631389 0.571473,-0.574345 0.59698,-0.5485 0.611159,-0.532614 0.626497,-0.514555 0.64407,-0.492385 0.665254,-0.463254 0.710666,-0.389589 0.735208,-0.341344 0.75308,-0.30018 0.763223,-0.273353 0.765513,-0.267032 0.742557,-0.31977 0.612452,-0.526014 0.259873,-0.740988 -0.517041,-0.589671 -0.758457,-0.280567 -0.795866,-0.152428 -0.806071,-0.08562 -0.809592,-0.03786 -0.808879,-0.04874 -0.793985,-0.158129 -0.693661,-0.398699 -0.05909,-0.761887 0.516846,-0.621141 0.609468,-0.534232 0.642128,-0.494827 0.660787,-0.469714 0.674655,-0.449524 0.665932,-0.462203 0.655922,-0.476505 0.646468,-0.489316 0.631564,-0.508209 0.600379,-0.544486 0.570851,-0.575566 0.504572,-0.633205 0.286057,-0.750562 -0.249912,-0.742807 -0.586732,-0.557828 -0.638991,-0.498917 -0.641237,-0.496054 -0.612825,-0.530338 -0.52765,-0.613143 -0.105513,-0.758255 0.707498,-0.340608 0.808763,-0.04756 0.778659,-0.209213 0.645272,-0.483311 0.4776,-0.65299 0.360472,-0.725607 0.290153,-0.756884 0.247537,-0.771924 0.220724,-0.780082 0.203531,-0.784775 0.192287,-0.787591 0.185195,-0.789327 0.180636,-0.790335 0.176687,-0.791285 0.1756,-0.791448 0.242911,-0.771486 0.639064,-0.221353 0.15538,0.795753 0.161067,0.794533 0.165646,0.793629 0.170339,0.792669 0.174983,0.791589 0.179849,0.790546 0.185018,0.789374 0.208059,0.78251 0.324834,0.742487 0.41378,0.696172 0.558729,0.583256 0.726041,0.34865 0.804441,0.07784 0.793858,0.137602 0.354154,0.644672 -0.424126,0.682306 -0.579402,0.566724 -0.595198,0.550498 -0.556299,0.58889 -0.311772,0.733701 0.05762,0.801807 0.436218,0.672989 0.677395,0.438982 0.766629,0.259909 0.797648,0.14248 0.806028,0.08535 0.751859,0.280604 0.179659,0.732681 -0.410424,0.694525 -0.548725,0.596073 -0.60157,0.543226 -0.630483,0.509659 -0.634975,0.503034 -0.370994,0.705538 0.09681,0.796394 0.372008,0.71817 0.493951,0.642171 0.557753,0.588032 0.597004,0.548381 0.623952,0.517566 0.64443,0.491898 0.661128,0.469164 0.672378,0.452386 0.621547,0.520356 0.573732,0.572212 0.477166,0.653429 0.223654,0.769611 -0.316025,0.725793 -0.65469,0.47219 -0.726364,0.359867 -0.693057,0.419775 -0.617732,0.522571 -0.339592,0.714276 0.448938,0.63618 0.733285,0.342796 0.719571,0.372716 0.685641,0.432299 0.660097,0.470575 0.639974,0.497711 0.622982,0.51872 0.608247,0.536012 0.593916,0.551847 0.55536,0.58946 0.494903,0.64183 0.41513,0.695211 0.150112,0.782316 -0.583265,0.502655 -0.802611,0.09777 -0.810209,-0.0234 -0.808128,-0.06486 -0.807749,-0.06862 -0.80991,-0.03081 -0.75242,0.230783 -0.403393,0.693185 -0.125313,0.798288 0.07434,0.805638 0.246164,0.770859 0.401354,0.70278 0.535596,0.606746 0.641555,0.493829 0.716189,0.378337 0.739054,0.333232 0.739627,0.332042 0.739969,0.331339 0.74003,0.331169 0.739395,0.332426 0.737558,0.336668 0.733322,0.345695 0.724533,0.363756 0.708438,0.39392 0.684788,0.433819 0.65951,0.471459 0.62635,0.514161 0.5559,0.588966 0.42166,0.689541 0.12699,0.791129 -0.36326,0.707852 -0.68299,0.426904 -0.78164,0.209097 -0.807074,0.0694 -0.809867,-0.02788 -0.804161,-0.101374 -0.793857,-0.163955 -0.799919,-0.131392 -0.805473,-0.09149 -0.80947,-0.04278 -0.81013,0.02262 -0.801859,0.115529 -0.79141,0.175423 -0.777915,0.227664 -0.749796,0.306822 -0.24144,0.734829 0.301908,0.742002 0.56219,0.581037 0.66354,0.464563 0.711184,0.388805 0.737583,0.33621 0.754166,0.29741 0.765298,0.267429 0.772166,0.247061 0.762418,0.275437 0.748807,0.310679 0.736166,0.339445 0.724631,0.363475 0.713955,0.38416 0.703889,0.402166 0.69454,0.418248 0.68539,0.432983 0.67685,0.446301 0.66831,0.458929 0.66012,0.470648 0.65185,0.482116 0.64361,0.493006 0.80284,0.02204 0.81075,-8.42e-4 0.81076,-8.43e-4 0.8107,-8.36e-4 0.81075,-8.42e-4 0.81075,-8.42e-4 0.81076,-8.37e-4 0.8107,-8.42e-4 0.81075,-8.42e-4 0.81075,-8.43e-4 0.81076,-8.36e-4 0.8107,-8.42e-4 0.81075,-8.42e-4 0.81074,-8.36e-4 0.81071,-8.43e-4 0.81075,-8.42e-4 0.81075,-8.36e-4 0.81075,-8.43e-4 0.81071,-8.42e-4 0.81075,-8.36e-4 0.81075,-8.42e-4 0.81075,-8.43e-4 0.81071,-8.36e-4 0.81075,-8.42e-4 0.81075,-8.42e-4 0.81071,-8.37e-4 0.81075,-8.42e-4 0.81075,-8.42e-4 0.81075,-8.42e-4 0.81071,-8.37e-4 0.81075,-8.42e-4 0.81075,-8.42e-4 0.81075,-8.36e-4 0.81071,-8.43e-4 0.81075,-8.42e-4 0.81075,-8.36e-4 0.8107,-8.43e-4 0.81076,-8.42e-4 0.81075,-8.36e-4 0.81075,-8.42e-4 0.81071,-8.43e-4 0.81075,-8.36e-4 0.81075,-8.42e-4 0.81075,-8.42e-4 0.81071,-8.43e-4 0.81074,-8.36e-4 0.81075,-8.42e-4 0.8107,-8.42e-4 0.81075,-8.37e-4 0.81076,-8.42e-4 0.81075,-8.42e-4 0.8107,-8.36e-4 0.81075,-8.43e-4 0.81076,-8.42e-4 0.81075,-8.36e-4 0.8107,-8.43e-4 0.81075,-8.42e-4 0.81076,-8.36e-4 0.8107,-8.42e-4 0.0521,-0.758536 -1.6e-4,-0.810753 -1.7e-4,-0.810752 -1.7e-4,-0.810704 -1.7e-4,-0.810752 -1.6e-4,-0.810752 -1.7e-4,-0.810753 -1.7e-4,-0.810703 -1.6e-4,-0.810752 -1.7e-4,-0.810753 -1.7e-4,-0.810703 -1.6e-4,-0.810752 -1.7e-4,-0.810753 -1.8e-4,-0.810752 -1.7e-4,-0.810704 -1.5e-4,-0.810752 -1.8e-4,-0.810752 -1.7e-4,-0.810753 -1.6e-4,-0.810703 -1.7e-4,-0.810752 -1.7e-4,-0.810753 -1.6e-4,-0.810703 -1.7e-4,-0.810753 -1.7e-4,-0.810752 -1.7e-4,-0.810752 -1.6e-4,-0.810704 -1.7e-4,-0.810752 -1.7e-4,-0.810752 -1.6e-4,-0.810753 -1.7e-4,-0.810703 -1.7e-4,-0.810752 -1.6e-4,-0.810753 -1.7e-4,-0.810703 -1.7e-4,-0.810753 -1.7e-4,-0.810752 -1.6e-4,-0.810752 -1.7e-4,-0.810704 -1.7e-4,-0.810752 -1.6e-4,-0.810752 -1.7e-4,-0.810704 -1.7e-4,-0.810752 -1.6e-4,-0.810753 -1.7e-4,-0.810752 -1.7e-4,-0.810703 -1.7e-4,-0.810753 -1.6e-4,-0.810752 -1.7e-4,-0.810752 -0.0695,-0.781568 -0.57882,-0.567701 -0.57883,-0.567699 -0.57879,-0.567664 -0.57882,-0.567701 -0.57882,-0.567702 -0.57883,-0.567698 -0.57878,-0.567667 -0.57883,-0.567698 -0.57881,-0.567699 -0.57883,-0.567701 -0.57879,-0.567664 -0.57882,-0.567702 -0.57883,-0.567701 -0.57879,-0.567664 -0.57881,-0.567701 -0.57883,-0.567699 -0.57883,-0.567698 -0.57878,-0.567667 -0.57883,-0.567698 -0.57881,-0.567702 -0.57883,-0.567701 -0.57879,-0.567664 -0.57882,-0.5677 -0.57883,-0.5677 -0.57879,-0.567666 -0.57881,-0.5677 -0.57883,-0.567699 -0.57883,-0.5677 -0.57878,-0.567664 -0.57883,-0.567702 -0.57881,-0.567699 -0.57883,-0.5677 -0.57879,-0.567664 -0.57882,-0.567702 -0.57883,-0.567699 -0.57879,-0.567666 -0.57881,-0.567699 -0.57883,-0.567701 -0.57883,-0.567698 -0.57878,-0.567667 -0.57883,-0.567699 -0.57883,-0.567701 -0.57881,-0.567699 -0.57879,-0.567667 -0.57882,-0.567698 -0.57883,-0.5677 -0.57879,-0.567665 -0.57881,-0.567701 -0.57883,-0.5677 -0.57883,-0.567699 -0.57878,-0.5676663 -0.79011,-0.05056 -0.81075,-7e-7 h -0.81075 -0.81071 -0.81075 -0.81075 -0.81071 -0.81075 -0.81075 -0.81075 -0.81071 -0.81075 l -0.81075,-8e-7 h -0.81075 -0.81071 -0.81075 -0.81075 -0.8107 -0.81076 -0.81075 -0.81075 -0.81071 -0.81075 l -0.81075,-8e-7 h -0.81075 -0.81071 -0.81075 -0.81075 -0.810704 -0.810752 -0.810752 -0.810753 -0.810703 -0.810752 l -0.810753,-7e-7 H 94.319099 93.508395 92.697643 91.886891 91.076187 90.265435 89.454683 88.64393 87.833227 l -0.810753,-8e-7 H 86.211722 85.40097 84.590266 83.779514 82.968762 82.158058 81.347306 80.536554 79.725801 78.915098 l -0.810753,-8e-7 h -0.810752 -0.810752 -0.810704 -0.810752 -0.810752 -0.810704 -0.810752 -0.810752 -0.810753 -0.810703 l -0.810753,-7e-7 H 68.375464 67.564712 66.754008 65.943256 65.132504 64.3218 63.511048 62.700295 61.889543 61.07884 l -0.810753,-8e-7 h -0.810752 -0.810752 -0.810704 -0.810752 -0.810752 -0.810704 -0.810752 -0.810753 -0.810752 l -0.810703,-7e-7 H 51.349958 50.539206 49.728454 48.91775 48.106998 47.296245 46.485542 45.67479 44.864037 44.053285 l -0.810703,-8e-7 h -0.810753 -0.810752 -0.810752 -0.810704 z"
   id="polygon8" />
<path
   style="fill:#8c1515;stroke:#8c1515;stroke-miterlimit:10"
   d="m 10.62673,175.17689 -1.29e-4,0.26348 -1.28e-4,0.26348 -1.28e-4,0.26348 -1.28e-4,0.26348 -1.28e-4,0.26348 -1.29e-4,0.26348 -1.28e-4,0.26348 -1.28e-4,0.26348 -1.28e-4,0.26348 -1.28e-4,0.26348 -1.28e-4,0.26349 -1.29e-4,0.26348 -1.28e-4,0.26347 -1.28e-4,0.26348 -1.28e-4,0.26349 -1.28e-4,0.26348 -1.28e-4,0.26348 -1.29e-4,0.26348 -1.34e-4,0.26348 -1.28e-4,0.26348 -1.28e-4,0.26348 -1.28e-4,0.26348 -1.29e-4,0.26348 -1.28e-4,0.26348 -1.28e-4,0.26348 -1.28e-4,0.26348 -1.28e-4,0.26348 -1.28e-4,0.26348 -1.29e-4,0.26348 -1.28e-4,0.26348 -1.28e-4,0.26349 -1.28e-4,0.26348 -1.28e-4,0.26348 -1.29e-4,0.26348 -1.28e-4,0.26348 -1.28e-4,0.26348 -1.28e-4,0.26348 -1.28e-4,0.26348 -1.28e-4,0.26348 -1.29e-4,0.26348 -1.34e-4,0.26348 -1.28e-4,0.26348 -1.28e-4,0.26348 -1.28e-4,0.26348 -1.29e-4,0.26348 -1.28e-4,0.26348 -1.28e-4,0.26348 -1.28e-4,0.26348 -1.28e-4,0.26349 -1.28e-4,0.26348 -1.29e-4,0.26348 -1.28e-4,0.26348 -1.28e-4,0.26348 -1.28e-4,0.26348 -1.28e-4,0.26348 -1.29e-4,0.26348 -1.28e-4,0.26348 -1.28e-4,0.26348 -1.28e-4,0.26348 -1.28e-4,0.26348 -1.28e-4,0.26348 -1.29e-4,0.26348 -1.28e-4,0.26348 -1.34e-4,0.26348 -1.28e-4,0.26348 -1.28e-4,0.26348 -1.29e-4,0.26348 -1.28e-4,0.26349 -1.28e-4,0.26348 -1.28e-4,0.26348 -1.28e-4,0.26348 -1.28e-4,0.26348 -1.29e-4,0.26348 -1.28e-4,0.26348 -1.28e-4,0.26348 -1.28e-4,0.26348 -1.28e-4,0.26348 -1.28e-4,0.26348 -1.29e-4,0.26348 -1.28e-4,0.26348 -1.28e-4,0.26348 -1.28e-4,0.26348 -1.28e-4,0.26348 -1.29e-4,0.26348 -1.28e-4,0.26349 -1.28e-4,0.26348 -1.34e-4,0.26348 -1.28e-4,0.26348 -1.28e-4,0.26348 -1.29e-4,0.26348 -1.28e-4,0.26348 -1.28e-4,0.26348 -1.28e-4,0.26348 -1.28e-4,0.26348 -1.29e-4,0.26348 -1.28e-4,0.26348 -1.28e-4,0.26348 -1.28e-4,0.26348 -1.28e-4,0.26348 -1.28e-4,0.26348 -1.29e-4,0.26348 -1.28e-4,0.26348 -1.28e-4,0.26349 -1.28e-4,0.26348 -1.28e-4,0.26348 -1.28e-4,0.26348 -1.29e-4,0.26348 -1.28e-4,0.26348 -1.34e-4,0.26348 -1.28e-4,0.26348 -1.28e-4,0.26348 -1.29e-4,0.26348 -1.28e-4,0.26348 -1.28e-4,0.26348 -1.28e-4,0.26348 -1.28e-4,0.26348 -1.29e-4,0.26348 -1.28e-4,0.26348 -1.28e-4,0.26349 -1.28e-4,0.26348 -1.28e-4,0.26348 -1.28e-4,0.26348 -1.29e-4,0.26348 -1.28e-4,0.26348 -1.28e-4,0.26348 -1.28e-4,0.26348 -1.28e-4,0.26348 -1.28e-4,0.26348 -1.29e-4,0.26348 -1.28e-4,0.26348 0.03095,0.25044 0.188051,0.18455 0.188052,0.18455 0.188052,0.18454 0.188051,0.18457 0.188052,0.18454 0.188052,0.18455 0.188051,0.18455 0.188052,0.18455 0.188052,0.18455 0.188051,0.18454 0.188052,0.18455 0.188052,0.18455 0.188051,0.18456 0.188052,0.18455 0.188052,0.18455 0.188051,0.18455 0.188052,0.18454 0.188052,0.18455 0.188051,0.18455 0.188052,0.18455 0.188052,0.18455 0.188051,0.18456 0.188052,0.18455 0.188052,0.18454 0.188051,0.18455 0.188052,0.18455 0.188052,0.18455 0.188051,0.18455 0.188052,0.18454 0.188052,0.18456 0.188051,0.18455 0.188052,0.18455 0.188052,0.18455 0.188051,0.18455 0.188052,0.18455 0.188052,0.18454 0.188051,0.18455 0.188052,0.18456 0.188052,0.18455 0.188051,0.18455 0.188052,0.18455 0.188058,0.18455 0.188045,0.18454 0.188052,0.18455 0.188052,0.18455 0.188051,0.18455 0.188058,0.18455 0.188046,0.18456 0.188051,0.18455 0.188052,0.18454 0.188058,0.18455 0.188051,0.18455 0.188046,0.18455 0.188052,0.18455 0.188057,0.18456 0.188052,0.18454 0.188052,0.18455 0.188045,0.18455 0.188058,0.18455 0.188052,0.18455 0.188051,0.18455 0.188052,0.18454 0.188052,0.18455 0.188045,0.18455 0.188058,0.18456 0.188052,0.18455 0.188051,0.18455 0.188052,0.18455 0.188052,0.18454 0.188051,0.18455 0.188052,0.18455 0.188052,0.18455 0.188045,0.18455 0.188058,0.18456 0.188052,0.18455 0.188051,0.18454 0.188052,0.18455 0.188052,0.18455 0.188051,0.18455 0.188052,0.18455 0.188052,0.18454 0.188057,0.18456 0.188046,0.18455 0.188052,0.18455 0.188051,0.18455 0.188052,0.18455 0.188052,0.18455 0.188051,0.18454 0.188052,0.18455 0.188058,0.18456 0.188051,0.18455 0.188046,0.18455 0.188052,0.18455 0.188051,0.18455 0.188052,0.18454 0.188052,0.18455 0.188051,0.18455 0.188052,0.18455 0.188058,0.18456 0.188051,0.18455 0.188052,0.18455 0.188052,0.18454 0.188045,0.18455 0.188052,0.18455 0.188052,0.18455 0.188051,0.18455 0.188058,0.18456 0.188052,0.18454 0.188051,0.18455 0.188052,0.18455 0.188052,0.18455 0.188051,0.18455 0.188046,0.18455 0.188052,0.18454 0.188057,0.18455 0.188052,0.18455 0.188052,0.18456 0.188051,0.18455 0.188052,0.18455 0.188052,0.18455 0.188051,0.18454 0.188052,0.18455 0.188046,0.18455 0.188057,0.18455 0.188052,0.18456 0.188052,0.18455 0.188051,0.18455 0.188052,0.18454 0.188052,0.18455 0.188051,0.18455 0.188052,0.18455 0.188052,0.18455 0.188051,0.18454 0.188052,0.18456 0.188052,0.18455 0.188051,0.18455 0.188052,0.18455 0.188052,0.18455 0.188051,0.18455 0.188052,0.18454 0.188052,0.18455 0.188051,0.18455 0.188052,0.18456 0.188052,0.18455 0.188051,0.18455 0.188052,0.18455 0.188052,0.18454 0.188051,0.18455 0.188052,0.18455 0.188052,0.18455 0.188051,0.18455 0.188052,0.18456 0.188052,0.18455 0.188051,0.18454 0.188052,0.18455 0.188052,0.18455 0.188058,0.18455 0.229312,0.0836 h 0.263479 0.26348 0.26348 0.26348 0.26348 0.26348 0.263486 0.263479 0.26348 0.26348 0.26348 0.26348 0.26348 0.26348 0.263479 0.263486 0.26348 0.26348 0.26348 0.26348 0.26348 0.26348 0.263479 0.263486 0.26348 0.26348 0.26348 0.26348 0.26348 0.263479 0.26348 0.263486 0.26348 0.26348 0.26348 l 0.263345,-0.005 0.262962,-0.0165 0.262686,-0.0203 0.262332,-0.0245 0.261918,-0.0286 0.261429,-0.0328 0.260837,-0.0372 0.260196,-0.0415 0.259451,-0.0459 0.258603,-0.0504 0.257694,-0.0549 0.256668,-0.0595 0.255552,-0.0641 0.254355,-0.0688 0.25303,-0.0734 0.251615,-0.0782 0.2501,-0.0829 0.248478,-0.0876 0.246756,-0.0924 0.244937,-0.0971 0.243008,-0.10182 0.241,-0.1065 0.238889,-0.11113 0.236703,-0.11572 0.234403,-0.12031 0.232064,-0.12477 0.229617,-0.1292 0.227078,-0.13363 0.224503,-0.13789 0.221884,-0.14208 0.219235,-0.14616 0.216433,-0.15024 0.213699,-0.15413 0.210916,-0.15789 0.208059,-0.16165 0.205233,-0.16522 0.202426,-0.16867 0.199508,-0.17208 0.196694,-0.17531 0.193869,-0.17842 0.191024,-0.18147 0.188265,-0.18433 0.185458,-0.18715 0.18276,-0.18978 0.180055,-0.19236 0.177414,-0.19479 0.174733,-0.19721 0.17228,-0.19936 0.169845,-0.20142 0.167379,-0.20348 0.164974,-0.20543 0.16274,-0.20722 0.160564,-0.20889 0.158449,-0.21051 0.156307,-0.21211 0.154375,-0.21353 0.152517,-0.21485 0.15074,-0.21609 0.149056,-0.21726 0.147463,-0.21835 0.145927,-0.21938 0.14457,-0.22028 0.143212,-0.22115 0.142177,-0.22184 0.141133,-0.22248 0.14023,-0.22306 0.139455,-0.22354 0.138835,-0.22395 0.138338,-0.22426 0.137954,-0.22448 0.137956,-0.22447 0.137981,-0.22446 0.138069,-0.22441 0.138607,-0.22407 0.139284,-0.22366 0.140221,-0.22306 0.141301,-0.22238 0.144682,-0.22021 0.148556,-0.21759 0.152181,-0.21509 0.155574,-0.21264 0.158806,-0.21024 0.161776,-0.20795 0.164583,-0.20576 0.167193,-0.20366 0.16964,-0.20159 0.171911,-0.19966 0.174108,-0.19777 0.176101,-0.19598 0.177956,-0.19429 0.179778,-0.19262 0.181231,-0.19125 0.18294,-0.18961 0.184228,-0.18837 0.185534,-0.18708 0.186782,-0.18584 0.187783,-0.18482 0.188906,-0.18367 0.189755,-0.18279 0.190591,-0.18193 0.191366,-0.18113 0.191948,-0.18048 0.192648,-0.17974 0.193026,-0.17935 0.193386,-0.17893 0.193872,-0.17844 0.193871,-0.17842 0.193945,-0.17834 0.194054,-0.17823 0.194055,-0.17824 0.193838,-0.17846 0.193551,-0.17875 0.193218,-0.17913 0.192553,-0.17985 0.192022,-0.18042 0.191119,-0.18138 0.190118,-0.18241 0.188991,-0.1836 0.187503,-0.18512 0.185924,-0.18667 0.1833,-0.18926 0.174484,-0.19738 0.164693,-0.20563 0.155269,-0.21284 0.146203,-0.21917 0.137572,-0.22469 0.129396,-0.2295 0.121675,-0.23369 0.114433,-0.23733 0.107573,-0.2405 0.101209,-0.24326 0.09519,-0.24568 0.08953,-0.2478 0.08429,-0.24962 0.07944,-0.25123 0.07468,-0.25267 0.07045,-0.25388 0.06628,-0.255 0.06248,-0.25596 0.0589,-0.2568 0.05542,-0.25758 0.05228,-0.25825 0.04928,-0.25883 0.04633,-0.25937 0.04367,-0.25985 0.04114,-0.26023 0.03874,-0.26062 0.03643,-0.26094 0.03423,-0.26126 0.03218,-0.26149 0.03024,-0.26174 0.02839,-0.26196 0.02663,-0.26213 0.02496,-0.26229 0.02337,-0.26244 0.02186,-0.26257 0.02042,-0.2627 0.01894,-0.26278 0.01775,-0.26288 0.01652,-0.26297 0.01534,-0.26304 0.01422,-0.26309 0.01315,-0.26315 0.01214,-0.2632 0.01118,-0.26325 0.01027,-0.26327 0.0094,-0.26331 0.0086,-0.26336 0.0078,-0.26335 0.007,-0.2634 0.0063,-0.26339 0.0057,-0.26342 0.005,-0.26343 0.0045,-0.26345 0.0039,-0.26345 0.0034,-0.26346 0.0018,-0.26348 v -0.26348 -0.26348 -0.26348 -0.26348 -0.26348 -0.26348 -0.26348 -0.26349 -0.26348 -0.26348 -0.26348 -0.26348 -0.26348 -0.26348 -0.26348 -0.26348 -0.26348 -0.26348 -0.26348 -0.26348 -0.26348 -0.26348 -0.26348 -0.26349 -0.26348 -0.26348 -0.26348 -0.26348 -0.26348 -0.26348 -0.26348 -0.26348 -0.26348 -0.26348 -0.26348 -0.26348 -0.26348 -0.26348 -0.26348 -0.26348 -0.26349 -0.26348 -0.26348 -0.26348 -0.26348 -0.26348 -0.26348 l 0.002,-0.23483 0.01564,-0.0349 v -0.26348 -0.26348 -0.26348 -0.26348 -0.26348 -0.26348 -0.26348 -0.26348 -0.26349 -0.26348 -0.26348 l 0.0168,-0.24669 v -0.26348 -0.26348 -0.26348 -0.26348 -0.26348 -0.26348 l 0.0016,-0.26188 v -0.26348 -0.26347 -0.26348 -0.26348 -0.26348 -0.26348 -0.26349 -0.26348 -0.26348 -0.26348 -0.26348 -0.26348 -0.26348 -0.26348 -0.26348 -0.26348 -0.26348 -0.26348 -0.26348 -0.26348 -0.26348 -0.26348 l -0.0071,-0.26325 -0.05679,-0.25656 -0.135048,-0.22419 -0.218369,-0.14305 -0.25859,-0.0431 -0.261472,0.0282 -0.253314,0.0718 -0.243906,0.0994 -0.235355,0.11833 -0.227947,0.13209 -0.221533,0.14259 -0.216019,0.15084 -0.21112,0.15763 -0.206771,0.16327 -0.202957,0.16802 -0.199441,0.17217 -0.196297,0.17574 -0.19342,0.17893 -0.19075,0.18175 -0.188302,0.1843 -0.18604,0.18656 -0.183856,0.18872 -0.181935,0.19059 -0.180005,0.1924 -0.181447,0.19103 -0.187487,0.1851 -0.193362,0.17895 -0.199023,0.17266 -0.204409,0.16622 -0.209533,0.15972 -0.214395,0.15315 -0.218939,0.14657 -0.223193,0.13998 -0.227167,0.13349 -0.230838,0.12702 -0.234216,0.12064 -0.237347,0.11442 -0.240192,0.10828 -0.242788,0.10231 -0.245163,0.0965 -0.24729,0.0909 -0.249235,0.0855 -0.250967,0.0802 -0.252524,0.0752 -0.253946,0.0703 -0.255158,0.0656 -0.256265,0.0612 -0.257263,0.0569 -0.258109,0.0529 -0.258884,0.049 -0.259546,0.0454 -0.260129,0.0419 -0.260626,0.0386 -0.26106,0.0356 -0.261448,0.0327 -0.261767,0.0301 -0.262028,0.0275 -0.262274,0.0252 -0.26246,0.0232 -0.262617,0.0212 -0.262738,0.0197 -0.262851,0.0182 -0.262921,0.0171 -0.262998,0.016 -0.26301,0.0156 -0.263053,0.0152 -0.263046,0.0151 -0.263028,0.0155 -0.262986,0.0161 -0.2629,0.0175 -0.262759,0.0193 -0.262559,0.0221 -0.261771,0.0296 -0.259927,0.043 -0.258023,0.0532 -0.256247,0.0613 -0.254593,0.0678 -0.253086,0.0733 -0.251681,0.078 -0.250376,0.082 -0.249185,0.0856 -0.248056,0.0888 -0.247007,0.0917 -0.245993,0.0944 -0.245047,0.0969 -0.244119,0.0991 -0.24324,0.10125 -0.24241,0.10326 -0.241593,0.10511 -0.240811,0.10692 -0.24006,0.10862 -0.239279,0.1103 -0.238535,0.11192 -0.23782,0.1134 -0.237107,0.11487 -0.236392,0.11638 -0.235684,0.1178 -0.234988,0.11915 -0.234311,0.12051 -0.233572,0.12193 -0.232895,0.12321 -0.232205,0.12452 -0.231448,0.1259 -0.230765,0.12716 -0.23005,0.12847 -0.229263,0.12984 -0.228549,0.13109 -0.227768,0.13245 -0.226956,0.13382 -0.226205,0.13512 -0.225351,0.13652 -0.224484,0.13794 -0.223623,0.13933 -0.222714,0.14079 -0.221725,0.14233 -0.22078,0.1438 -0.219753,0.14535 -0.218631,0.14708 -0.217501,0.1487 -0.216324,0.1504 -0.215066,0.15221 -0.213662,0.15418 -0.212247,0.15612 -0.210714,0.15817 -0.209073,0.16034 -0.20729,0.16265 -0.205361,0.16507 -0.203219,0.16768 -0.200894,0.17049 -0.198306,0.17348 -0.195431,0.17671 -0.192208,0.1802 -0.188601,0.18398 -0.184377,0.18824 -0.179568,0.19281 -0.173885,0.19792 -0.167092,0.2037 -0.163674,0.20645 -0.178042,0.1941 -0.195693,0.17624 -0.214486,0.15273 -0.233365,0.12177 -0.250143,0.0816 -0.261076,0.0318 -0.26177,-0.0247 -0.250022,-0.0814 -0.227957,-0.13125 -0.200436,-0.17052 -0.171761,-0.19952 -0.144557,-0.22009 -0.119783,-0.23456 -0.09761,-0.24465 -0.07781,-0.25165 -0.06014,-0.25648 -0.04435,-0.25969 -0.03011,-0.26172 -0.01718,-0.2629 -0.0054,-0.2634 0.0054,-0.26341 0.01524,-0.26301 0.02443,-0.26233 0.0329,-0.26141 0.0408,-0.2603 0.04818,-0.25902 0.01411,-0.22488 0.06157,-0.25618 0.06398,-0.25559 0.06618,-0.25505 0.06818,-0.2545 0.07019,-0.25396 0.07184,-0.2535 0.07361,-0.25298 0.07512,-0.25254 0.07655,-0.25213 0.07789,-0.25169 0.07919,-0.25129 0.08043,-0.25091 0.08163,-0.25052 0.08276,-0.25014 0.0838,-0.24979 0.08481,-0.24947 0.08576,-0.24913 0.08668,-0.24881 0.08757,-0.2485 0.08845,-0.24821 0.08925,-0.24789 0.09002,-0.24761 0.09077,-0.24737 0.09148,-0.24708 0.09216,-0.24684 0.09282,-0.24659 0.09343,-0.24636 0.09416,-0.24611 0.09476,-0.24583 0.09533,-0.24565 0.09596,-0.24537 0.102583,-0.24267 0.111269,-0.23883 0.119447,-0.23483 0.127156,-0.23074 0.134438,-0.22661 0.141225,-0.22241 0.147634,-0.21823 0.15359,-0.21407 0.159213,-0.20993 0.16443,-0.20586 0.169332,-0.20183 0.17394,-0.19792 0.178231,-0.19404 0.18226,-0.19026 0.186019,-0.18658 0.189608,-0.18296 0.192892,-0.17946 0.196072,-0.17601 0.199038,-0.17261 0.201754,-0.16946 0.204428,-0.16625 0.206911,-0.16309 0.209238,-0.16013 0.211459,-0.15717 0.213631,-0.15421 0.215591,-0.15147 0.217551,-0.14863 0.219363,-0.14595 0.221133,-0.14327 0.222793,-0.14068 0.224423,-0.13803 0.225955,-0.13553 0.227463,-0.13299 0.228909,-0.13044 0.230325,-0.12795 0.231686,-0.12546 0.233078,-0.12289 0.234409,-0.12031 0.235726,-0.11768 0.237082,-0.11498 0.23848,-0.11196 0.240036,-0.10867 0.241934,-0.10432 0.235928,-0.11708 0.228305,-0.13145 0.221469,-0.14271 0.213967,-0.15366 0.205508,-0.16486 0.195547,-0.17653 -0.240304,-0.009 h -0.26348 -0.26348 -0.26348 -0.26348 -0.26348 -0.263479 -0.26348 -0.26348 -0.26348 -0.26348 -0.26348 -0.26348 -0.263504 -0.26348 -0.26348 -0.263479 -0.26348 -0.26348 -0.26348 -0.26348 -0.26348 -0.26348 -0.263479 -0.26348 -0.26348 -0.26348 -0.26348 -0.26348 -0.26348 -0.263479 l -0.26348,-1e-5 h -0.26348 -0.26348 -0.26348 -0.26348 -0.26348 -0.263479 -0.26348 -0.26348 -0.26348 -0.26348 -0.26348 -0.26348 -0.263479 -0.26348 -0.26348 -0.263504 -0.26348 -0.26348 -0.26348 -0.26348 -0.26348 -0.263479 -0.26348 -0.26348 -0.26348 -0.26348 -0.26348 -0.26348 -0.263479 -0.26348 -0.26348 -0.26348 -0.26348 -0.26348 -0.26348 -0.263479 -0.26348 -0.26348 -0.26348 -0.26348 -0.26348 -0.26348 -0.263479 -0.26348 -0.26348 -0.26348 -0.26348 -0.26348 -0.263504 -0.26348 -0.26348 -0.26348 -0.263479 -0.26348 -0.26348 -0.26348 -0.26348 -0.26348 -0.26348 -0.263479 -0.26348 -0.26348 -0.26348 -0.26348 -0.26348 -0.26348 -0.263479 -0.26348 -0.26348 -0.26348 -0.26348 -0.26348 -0.26348 -0.263479 -0.26348 -0.26348 -0.26348 -0.26348 -0.26348 -0.26348 -0.263479 -0.26348 -0.263505 -0.263479 -0.26348 -0.26348 -0.26348 -0.26348 -0.26348 -0.26348 -0.263479 -0.26348 -0.26348 -0.26348 -0.26348 -0.26348 -0.26348 -0.263479 -0.26348 -0.26348 -0.26348 -0.26348 -0.26348 -0.26348 -0.263479 -0.26348 -0.26348 -0.26348 -0.26348 -0.26348 -0.263479 -0.26348 -0.26348 -0.26348 -0.26348 -0.263504 -0.26348 -0.26348 -0.26348 -0.26348 -0.263479 -0.26348 -0.26348 -0.26348 -0.26348 -0.26348 -0.26348 -0.263479 -0.26348 -0.26348 -0.26348 z"
   id="polygon10" />
</svg>