<?xml version="1.0" standalone="no"?>
<!DOCTYPE svg PUBLIC "-//W3C//DTD SVG 1.1//EN" "http://www.w3.org/Graphics/SVG/1.1/DTD/svg11.dtd">
<svg width="190" height="190" viewBox="-95 -95 190 190" xmlns="http://www.w3.org/2000/svg" version="1.1">
<title>OpenSCAD Model</title>
<path d="
M 24.5128,91.4829 L 47.355,82.0213 L 66.9702,66.9702 L 82.0213,47.355 L 91.4829,24.5128 L 94.7101,-0
 L 91.4829,-24.5128 L 82.0213,-47.355 L 66.9702,-66.9702 L 47.355,-82.0213 L 24.5128,-91.4829 L 0,-94.7101
 L -24.5128,-91.4829 L -47.355,-82.0213 L -66.9702,-66.9702 L -82.0213,-47.355 L -91.4829,-24.5128 L -94.7101,-0
 L -91.4829,24.5128 L -82.0213,47.355 L -66.9702,66.9702 L -47.355,82.0213 L -24.5128,91.4829 L 0,94.7101
 z
M -23.5857,88.6298 L -46.2547,79.2399 L -64.5431,65.2068 L -79.5943,45.5917 L -88.5563,23.9555 L -91.7101,-0
 L -88.5563,-23.9555 L -79.5943,-45.5917 L -64.5431,-65.2068 L -46.2547,-79.2399 L -23.5857,-88.6298 L 0,-91.7349
 L 23.5857,-88.6298 L 46.2547,-79.2399 L 64.5431,-65.2068 L 79.5943,-45.5917 L 88.5563,-23.9555 L 91.7101,-0
 L 88.5563,23.9555 L 79.5943,45.5917 L 64.5431,65.2068 L 46.2547,79.2399 L 23.5857,88.6298 L 0,91.7349
 z
M 10.6542,-60.6133 L 11.0637,-61.0802 L 11.9488,-61.8564 L 12.3843,-62.1806 L 13.0107,-62.5992 L 14.0666,-63.1199
 L 15.8787,-63.9016 L 16.9935,-64.28 L 18.1481,-64.5096 L 20.0918,-64.8524 L 20.3941,-64.8722 L 20.5486,-64.8632
 L 22.4027,-64.8632 L 23.9027,-65.953 L 24.4756,-67.7163 L 23.9027,-69.4797 L 22.4027,-70.5695 L 22.3174,-70.6063
 L 22.1484,-70.7321 L 20.8798,-72.2439 L 20.2876,-73.423 L 20.1119,-74.1646 L 20.1119,-76.1382 L 20.3564,-77.1701
 L 22.2676,-81.784 L 22.8406,-83.5474 L 22.2676,-85.3107 L 20.7676,-86.4005 L 3.34932,-88.6937 L 1.49522,-88.6937
 L -0.004776,-87.6039 L -0.577728,-85.8405 L 0.0378265,-81.1649 L 0.266953,-79.2047 L 0.0704041,-77.5231 L -0.0642242,-77.1532
 L -1.14873,-75.5043 L -1.97298,-74.7267 L -2.79343,-74.253 L -4.11243,-73.8581 L -5.61243,-72.7683 L -6.18538,-71.0049
 L -5.61243,-69.2416 L -4.11243,-68.1518 L -2.33698,-67.6202 L -1.2222,-67.2418 L -0.166367,-66.7211 L 1.47183,-65.7753
 L 1.90677,-65.3939 L 3.3423,-64.0395 L 4.11852,-63.1544 L 4.77257,-62.1756 L 5.80013,-60.6133 L 7.30013,-59.5234
 L 9.15422,-59.5234 z
M 19.1647,-67.7055 L 17.2211,-67.3628 L 16.0665,-67.1331 L 14.9517,-66.7547 L 13.1395,-65.973 L 12.0837,-65.4523
 L 11.1048,-64.7983 L 9.52176,-63.6198 L 8.63664,-62.8435 L 8.22717,-62.3766 L 7.19962,-63.9389 L 6.54556,-64.9178
 L 5.76935,-65.8029 L 4.33382,-67.1572 L 3.44872,-67.9335 L 2.46985,-68.5875 L 0.760681,-69.5743 L -0.295151,-70.095
 L -1.40993,-70.4734 L -3.18538,-71.0049 L -1.86638,-71.3998 L -0.157211,-72.3866 L 1.27832,-73.741 L 2.36282,-75.3899
 L 3.03783,-77.2444 L 3.26695,-79.2047 L 3.03783,-81.1649 L 2.42227,-85.8405 L 19.8406,-83.5474 L 17.567,-78.0586
 L 17.1119,-76.1382 L 17.1119,-74.1646 L 17.567,-72.2442 L 18.4528,-70.4806 L 19.7214,-68.9687 L 21.3044,-67.7902
 L 21.4756,-67.7163 L 20.3394,-67.7825 z
M -4.306,-76.3515 L -2.806,-77.4413 L -2.23305,-79.2047 L -3.10104,-85.7978 L -3.674,-87.5611 L -5.174,-88.6509
 L -7.02809,-88.6509 L -17.24,-87.3065 L -18.74,-86.2167 L -19.3129,-84.4533 L -18.4449,-77.8602 L -17.872,-76.0969
 L -16.372,-75.0071 L -14.5179,-75.0071 z
M -16.3129,-84.4533 L -6.10104,-85.7978 L -5.23305,-79.2047 L -15.4449,-77.8602 z
M -21.6267,-56.3216 L -21.0537,-58.085 L -20.9026,-58.7225 L -20.4605,-59.619 L -19.5748,-61.3827 L -18.9207,-62.3616
 L -17.6521,-63.8734 L -16.8759,-64.7585 L -15.9908,-65.5347 L -15.5553,-65.859 L -14.9289,-66.2775 L -14.3568,-66.5596
 L -12.8568,-67.6494 L -12.2839,-69.4128 L -12.8568,-71.1761 L -14.3568,-72.2659 L -15.2285,-72.2659 L -16.9557,-72.5705
 L -18.682,-73.3151 L -18.8509,-73.4409 L -20.1195,-74.9528 L -20.7117,-76.1319 L -20.8874,-76.8734 L -21.5952,-82.2495
 L -22.1682,-84.0128 L -23.6682,-85.1026 L -25.5223,-85.1026 L -41.7016,-78.4009 L -43.2016,-77.3111 L -43.7746,-75.5477
 L -43.2016,-73.7844 L -40.05,-69.677 L -38.9655,-68.0281 L -38.8308,-67.6583 L -38.6343,-65.9767 L -38.8308,-64.2951
 L -38.9655,-63.9253 L -40.05,-62.2764 L -40.6937,-61.669 L -41.2667,-59.9057 L -40.6937,-58.1423 L -39.1937,-57.0525
 L -37.3396,-57.0525 L -36.9817,-57.174 L -35.8271,-57.4037 L -33.8835,-57.7464 L -33.5812,-57.7662 L -32.5926,-57.7086
 L -31.4179,-57.6316 L -30.2632,-57.4019 L -28.3726,-56.8359 L -27.2578,-56.4575 L -26.202,-55.9368 L -24.9808,-55.2318
 L -23.1267,-55.2318 z
M -36.5384,-62.1619 L -35.8634,-64.0165 L -35.6343,-65.9767 L -35.8634,-67.9369 L -36.5384,-69.7915 L -37.6229,-71.4404
 L -40.7746,-75.5477 L -24.5952,-82.2495 L -23.8874,-76.8734 L -23.4323,-74.9531 L -22.5466,-73.1894 L -21.278,-71.6776
 L -19.6949,-70.499 L -17.8827,-69.7173 L -15.9391,-69.3746 L -15.2839,-69.4128 L -15.856,-69.1307 L -16.8348,-68.4766
 L -18.4179,-67.2981 L -19.303,-66.5219 L -20.0792,-65.6368 L -21.3478,-64.1249 L -22.0018,-63.146 L -22.8876,-61.3824
 L -23.4082,-60.3266 L -23.7867,-59.2118 L -24.0537,-58.085 L -25.2749,-58.79 L -26.3307,-59.3107 L -27.4455,-59.6891
 L -29.3362,-60.2551 L -30.4908,-60.4848 L -31.6656,-60.5618 L -33.6358,-60.6765 L -34.8105,-60.5995 L -36.7541,-60.2568
 L -37.9088,-60.0272 L -38.2667,-59.9057 L -37.6229,-60.513 z
M 37.4974,-69.4464 L 40.0423,-75.5902 L 40.6152,-77.3536 L 40.0423,-79.1169 L 38.5423,-80.2067 L 29.0263,-84.1484
 L 27.1722,-84.1484 L 25.6722,-83.0586 L 23.1274,-76.9147 L 22.5544,-75.1514 L 23.1274,-73.388 L 24.6274,-72.2982
 L 34.1433,-68.3566 L 35.9974,-68.3566 z
M 25.5544,-75.1514 L 28.0993,-81.2952 L 37.6152,-77.3536 L 35.0704,-71.2098 z
M 54.8817,-46.1707 L 55.4547,-47.934 L 54.8817,-49.6974 L 54.4397,-50.5775 L 54.2639,-51.319 L 54.2639,-53.2926
 L 54.4397,-54.0342 L 55.0319,-55.2133 L 56.3005,-56.7251 L 61.4304,-60.6614 L 62.0033,-62.4248 L 61.4304,-64.1881
 L 47.4713,-74.8993 L 45.9713,-75.9891 L 44.1172,-75.9891 L 42.6172,-74.8993 L 40.2392,-69.1583 L 39.1547,-67.5094
 L 38.3304,-66.7318 L 37.51,-66.2581 L 35.6193,-65.6921 L 35.0428,-65.6585 L 33.6551,-65.9032 L 31.801,-65.9032
 L 30.301,-64.8134 L 29.728,-63.05 L 30.301,-61.2867 L 31.2819,-60.3612 L 32.0582,-59.4761 L 32.7122,-58.4972
 L 33.7967,-56.8483 L 34.3174,-55.7925 L 34.8479,-54.3351 L 35.0275,-53.4319 L 35.2567,-51.4716 L 35.3336,-50.2969
 L 35.3102,-49.9393 L 35.8832,-48.1759 L 37.3832,-47.0861 L 39.2373,-47.0861 L 39.3508,-47.1246 L 40.5054,-47.3543
 L 42.449,-47.697 L 42.7514,-47.7168 L 43.7399,-47.6593 L 44.9146,-47.5823 L 46.0693,-47.3526 L 47.9599,-46.7865
 L 49.0747,-46.4081 L 50.1306,-45.8875 L 51.5276,-45.0809 L 53.3817,-45.0809 z
M 38.2567,-51.4716 L 38.0275,-53.4319 L 37.7979,-54.5865 L 37.4194,-55.7013 L 36.7444,-57.5559 L 36.2237,-58.6117
 L 35.1392,-60.2606 L 34.4852,-61.2394 L 33.709,-62.1246 L 32.728,-63.05 L 34.5761,-62.7242 L 36.5464,-62.8389
 L 38.437,-63.4049 L 40.1462,-64.3917 L 41.5817,-65.7461 L 42.6662,-67.395 L 45.0442,-73.136 L 59.0033,-62.4248
 L 53.8734,-58.4885 L 52.6048,-56.9766 L 51.7191,-55.213 L 51.2639,-53.2926 L 51.2639,-51.319 L 51.7191,-49.3987
 L 52.4547,-47.934 L 51.0576,-48.7406 L 50.0018,-49.2613 L 48.887,-49.6397 L 46.9963,-50.2057 L 45.8417,-50.4354
 L 44.6669,-50.5124 L 42.6967,-50.6272 L 41.522,-50.5502 L 39.5784,-50.2075 L 38.4238,-49.9778 L 38.3102,-49.9393
 L 38.3336,-50.2969 z
M -49.8788,-57.9431 L -41.7072,-64.2133 L -41.1343,-65.9767 L -41.7072,-67.7401 L -45.7555,-73.0159 L -47.2555,-74.1057
 L -49.1096,-74.1057 L -50.6096,-73.0159 L -58.7811,-66.7456 L -59.3541,-64.9823 L -58.7811,-63.2189 L -54.7329,-57.9431
 L -53.2329,-56.8533 L -51.3788,-56.8533 z
M -56.3541,-64.9823 L -48.1826,-71.2525 L -44.1343,-65.9767 L -52.3058,-59.7065 z
M -3.01759,-39.5928 L 2.46124,-46.733 L 3.11528,-47.7119 L 3.63597,-48.7677 L 4.01439,-49.8825 L 4.58734,-51.6458
 L 4.81702,-52.8005 L 4.89401,-53.9752 L 4.817,-55.1499 L 4.58736,-56.3046 L 4.0144,-58.0679 L 3.63597,-59.1827
 L 3.1153,-60.2386 L 2.46124,-61.2174 L 1.68503,-62.1025 L 0.799927,-62.8788 L -0.700073,-63.9686 L -1.67894,-64.6226
 L -2.73477,-65.1433 L -3.84955,-65.5217 L -5.0042,-65.7514 L -6.17894,-65.8284 L -8.03304,-65.8284 L -9.20775,-65.7514
 L -10.3624,-65.5217 L -11.4772,-65.1433 L -12.533,-64.6226 L -13.5119,-63.9686 L -15.0119,-62.8788 L -15.897,-62.1025
 L -16.6732,-61.2175 L -17.3272,-60.2386 L -17.8479,-59.1827 L -18.2263,-58.068 L -18.7993,-56.3046 L -19.0289,-55.15
 L -19.106,-53.9752 L -19.029,-52.8005 L -18.7993,-51.6459 L -18.2263,-49.8825 L -17.8479,-48.7677 L -17.3272,-47.7119
 L -16.6732,-46.733 L -15.897,-45.8479 L -15.0119,-45.0717 L -7.87169,-39.5928 L -6.37169,-38.503 L -4.51759,-38.503
 z
M -12.5848,-46.8351 L -13.4699,-47.6113 L -14.2461,-48.4964 L -14.9002,-49.4752 L -15.4209,-50.5311 L -15.7993,-51.6459
 L -16.029,-52.8005 L -16.106,-53.9752 L -16.0289,-55.15 L -15.7993,-56.3046 L -15.4209,-57.4194 L -14.9002,-58.4752
 L -14.2461,-59.4541 L -13.4699,-60.3392 L -12.5848,-61.1154 L -11.606,-61.7695 L -10.5501,-62.2901 L -9.43532,-62.6686
 L -8.2807,-62.8982 L -7.10599,-62.9752 L -5.93124,-62.8982 L -4.7766,-62.6686 L -3.66182,-62.2901 L -2.60599,-61.7695
 L -1.62712,-61.1154 L -0.74202,-60.3392 L 0.0341949,-59.4541 L 0.688248,-58.4752 L 1.20892,-57.4194 L 1.58736,-56.3046
 L 1.817,-55.1499 L 1.89401,-53.9752 L 1.81702,-52.8005 L 1.58734,-51.6458 L 1.20892,-50.5311 L 0.688232,-49.4752
 L 0.0341949,-48.4964 L -5.44464,-41.3562 z
M 25.2048,-39.1288 L 26.2607,-39.6495 L 27.2395,-40.3036 L 28.7395,-41.3934 L 29.6246,-42.1696 L 30.4009,-43.0547
 L 31.0549,-44.0336 L 31.5756,-45.0894 L 31.954,-46.2042 L 32.527,-47.9675 L 32.7567,-49.1222 L 32.8336,-50.2969
 L 32.7567,-51.4716 L 32.527,-52.6263 L 31.954,-54.3896 L 31.5756,-55.5044 L 31.0549,-56.5603 L 30.4009,-57.5391
 L 29.6247,-58.4242 L 28.7395,-59.2004 L 27.2395,-60.2903 L 26.2607,-60.9443 L 25.2048,-61.465 L 24.0901,-61.8434
 L 22.9355,-62.0731 L 21.7607,-62.1501 L 19.9066,-62.1501 L 18.7319,-62.0731 L 17.5773,-61.8434 L 16.4625,-61.465
 L 15.4066,-60.9443 L 14.4278,-60.2903 L 12.9278,-59.2004 L 12.0426,-58.4242 L 11.2664,-57.5391 L 10.6124,-56.5602
 L 10.0917,-55.5044 L 9.71327,-54.3896 L 9.14032,-52.6263 L 8.91066,-51.4716 L 8.83366,-50.2969 L 8.91066,-49.1222
 L 9.14034,-47.9675 L 9.71329,-46.2042 L 10.0917,-45.0894 L 13.5358,-36.7745 L 15.0358,-35.6847 L 16.8899,-35.6847
 z
M 12.5188,-46.8528 L 12.1403,-47.9675 L 11.9107,-49.1222 L 11.8337,-50.2969 L 11.9107,-51.4716 L 12.1403,-52.6263
 L 12.5188,-53.741 L 13.0394,-54.7969 L 13.6935,-55.7757 L 14.4697,-56.6609 L 15.3548,-57.4371 L 16.3337,-58.0911
 L 17.3895,-58.6118 L 18.5043,-58.9902 L 19.6589,-59.2199 L 20.8336,-59.2969 L 22.0084,-59.2199 L 23.163,-58.9902
 L 24.2778,-58.6118 L 25.3336,-58.0911 L 26.3125,-57.4371 L 27.1976,-56.6609 L 27.9738,-55.7758 L 28.6279,-54.7969
 L 29.1486,-53.7411 L 29.527,-52.6263 L 29.7567,-51.4716 L 29.8336,-50.2969 L 29.7567,-49.1222 L 29.527,-47.9675
 L 29.1486,-46.8528 L 28.6279,-45.7969 L 27.9738,-44.8181 L 27.1976,-43.9329 L 26.3125,-43.1567 L 25.3336,-42.5027
 L 24.2778,-41.982 L 15.9629,-38.5378 z
M -60.6595,-30.9412 L -60.0669,-31.6169 L -59.1818,-32.3931 L -58.7463,-32.7173 L -58.1198,-33.1359 L -57.064,-33.6566
 L -55.2518,-34.4383 L -54.137,-34.8167 L -52.9824,-35.0464 L -51.0388,-35.3891 L -50.6591,-35.414 L -48.9694,-35.414
 L -47.4694,-36.5038 L -46.8964,-38.2672 L -47.2774,-39.8748 L -47.5071,-41.0294 L -47.5841,-42.2041 L -47.5841,-44.1777
 L -47.5071,-45.3525 L -47.2774,-46.5071 L -46.9382,-47.9383 L -46.4961,-48.8347 L -45.6104,-50.5984 L -45.5446,-50.6969
 L -44.9716,-52.4602 L -45.5446,-54.2236 L -47.0446,-55.3134 L -48.8987,-55.3134 L -49.8662,-54.7548 L -51.7569,-54.1888
 L -52.3333,-54.1552 L -53.8166,-54.4167 L -55.5429,-55.1614 L -55.7118,-55.2872 L -56.9804,-56.799 L -59.9887,-60.7195
 L -61.4887,-61.8093 L -63.3428,-61.8093 L -64.8428,-60.7195 L -75.5151,-46.8111 L -76.088,-45.0477 L -75.5151,-43.2843
 L -74.0151,-42.1945 L -68.7701,-40.022 L -67.9497,-39.5483 L -67.1254,-38.7707 L -66.0409,-37.1218 L -65.9063,-36.7519
 L -65.7098,-35.0704 L -65.93,-33.1862 L -66.0865,-32.7046 L -65.5135,-30.9412 L -64.0135,-29.8514 L -62.1595,-29.8514
 z
M -62.9389,-33.1101 L -62.7098,-35.0704 L -62.9389,-37.0306 L -63.6139,-38.8851 L -64.6984,-40.534 L -66.1339,-41.8884
 L -67.8431,-42.8752 L -73.088,-45.0477 L -62.4157,-58.9561 L -59.4075,-55.0356 L -58.1389,-53.5238 L -56.5558,-52.3453
 L -54.7436,-51.5636 L -52.8,-51.2209 L -50.8298,-51.3356 L -48.9391,-51.9016 L -47.9716,-52.4602 L -48.0374,-52.3618
 L -48.9232,-50.5981 L -49.4439,-49.5423 L -49.8223,-48.4275 L -50.2774,-46.5071 L -50.5071,-45.3525 L -50.5841,-44.1777
 L -50.5841,-42.2041 L -50.5071,-41.0294 L -50.2774,-39.8748 L -49.8964,-38.2672 L -50.7911,-38.3193 L -51.9659,-38.2423
 L -53.9095,-37.8996 L -55.0641,-37.6699 L -56.1789,-37.2915 L -57.9911,-36.5098 L -59.0469,-35.9891 L -60.0257,-35.335
 L -61.6088,-34.1565 L -62.4939,-33.3803 L -63.0865,-32.7046 z
M 68.4037,-42.3709 L 73.6796,-46.4192 L 74.2525,-48.1826 L 73.6796,-49.9459 L 67.4093,-58.1174 L 65.9093,-59.2072
 L 64.0552,-59.2072 L 62.5552,-58.1174 L 57.2794,-54.0692 L 56.7065,-52.3058 L 57.2794,-50.5425 L 63.5497,-42.3709
 L 65.0497,-41.2811 L 66.9037,-41.2811 z
M 59.7065,-52.3058 L 64.9823,-56.3541 L 71.2525,-48.1826 L 65.9767,-44.1343 z
M -22.9662,-31.3298 L -22.3933,-33.0932 L -21.2186,-42.0162 L -21.1416,-43.1909 L -21.2186,-44.3657 L -21.4482,-45.5203
 L -22.0212,-47.2836 L -22.3996,-48.3984 L -22.9203,-49.4543 L -23.5743,-50.4331 L -24.3505,-51.3182 L -25.2357,-52.0945
 L -26.7357,-53.1843 L -27.7145,-53.8383 L -28.7704,-54.359 L -29.8851,-54.7374 L -31.0398,-54.9671 L -32.2145,-55.0441
 L -34.0686,-55.0441 L -35.2433,-54.9671 L -36.398,-54.7374 L -37.5128,-54.359 L -38.5686,-53.8383 L -39.5475,-53.1843
 L -41.0475,-52.0945 L -41.9326,-51.3183 L -42.7088,-50.4332 L -43.3628,-49.4543 L -43.8835,-48.3984 L -44.2619,-47.2837
 L -44.8349,-45.5203 L -45.0646,-44.3657 L -45.1416,-43.1909 L -45.0646,-42.0162 L -44.8349,-40.8616 L -44.2619,-39.0982
 L -43.8835,-37.9834 L -43.3628,-36.9276 L -42.7088,-35.9487 L -41.9326,-35.0636 L -41.0475,-34.2874 L -39.5475,-33.1976
 L -38.5686,-32.5435 L -37.5128,-32.0228 L -36.398,-31.6445 L -35.2433,-31.4148 L -26.3203,-30.24 L -24.4662,-30.24
 z
M -34.3163,-34.2679 L -35.4709,-34.4976 L -36.5857,-34.876 L -37.6416,-35.3967 L -38.6204,-36.0508 L -39.5055,-36.827
 L -40.2817,-37.7121 L -40.9358,-38.6909 L -41.4565,-39.7468 L -41.8349,-40.8616 L -42.0646,-42.0162 L -42.1416,-43.1909
 L -42.0646,-44.3657 L -41.8349,-45.5203 L -41.4565,-46.6351 L -40.9358,-47.6909 L -40.2817,-48.6698 L -39.5055,-49.5549
 L -38.6204,-50.3311 L -37.6416,-50.9851 L -36.5857,-51.5058 L -35.4709,-51.8843 L -34.3163,-52.1139 L -33.1416,-52.1909
 L -31.9668,-52.1139 L -30.8122,-51.8842 L -29.6974,-51.5058 L -28.6416,-50.9852 L -27.6627,-50.3311 L -26.7776,-49.5549
 L -26.0014,-48.6698 L -25.3473,-47.6909 L -24.8267,-46.6351 L -24.4482,-45.5203 L -24.2186,-44.3657 L -24.1416,-43.1909
 L -24.2186,-42.0162 L -25.3933,-33.0932 z
M 45.2927,-21.3654 L 46.4473,-21.5951 L 47.5621,-21.9735 L 48.618,-22.4942 L 49.5968,-23.1482 L 51.0968,-24.238
 L 51.9819,-25.0142 L 52.7581,-25.8994 L 53.4122,-26.8782 L 53.9329,-27.9341 L 54.3113,-29.0488 L 54.8842,-30.8122
 L 55.1139,-31.9668 L 55.1909,-33.1416 L 55.1139,-34.3163 L 54.8843,-35.4709 L 54.3113,-37.2343 L 53.9329,-38.3491
 L 53.4122,-39.4049 L 52.7581,-40.3838 L 51.9819,-41.2689 L 51.0968,-42.0451 L 49.5968,-43.1349 L 48.618,-43.789
 L 47.5621,-44.3096 L 46.4474,-44.688 L 45.2927,-44.9177 L 44.118,-44.9947 L 42.2639,-44.9947 L 41.0892,-44.9177
 L 39.9345,-44.6881 L 38.8197,-44.3096 L 37.7639,-43.789 L 36.785,-43.1349 L 35.285,-42.0451 L 34.3999,-41.2689
 L 33.6237,-40.3838 L 32.9697,-39.4049 L 32.449,-38.3491 L 32.0706,-37.2343 L 31.4976,-35.4709 L 31.2679,-34.3163
 L 30.0932,-25.3933 L 30.6662,-23.6299 L 32.1662,-22.5401 L 41.0891,-21.3654 L 42.2639,-21.2884 L 44.118,-21.2884
 z
M 42.0162,-24.2186 L 33.0932,-25.3933 L 34.2679,-34.3163 L 34.4976,-35.4709 L 34.876,-36.5857 L 35.3967,-37.6416
 L 36.0508,-38.6204 L 36.827,-39.5055 L 37.7121,-40.2817 L 38.6909,-40.9358 L 39.7468,-41.4565 L 40.8616,-41.8349
 L 42.0162,-42.0646 L 43.1909,-42.1416 L 44.3657,-42.0646 L 45.5203,-41.8349 L 46.6351,-41.4565 L 47.6909,-40.9358
 L 48.6698,-40.2817 L 49.5549,-39.5055 L 50.3311,-38.6204 L 50.9851,-37.6416 L 51.5058,-36.5857 L 51.8843,-35.4709
 L 52.1139,-34.3163 L 52.1909,-33.1416 L 52.1139,-31.9668 L 51.8842,-30.8122 L 51.5058,-29.6974 L 50.9852,-28.6416
 L 50.3311,-27.6627 L 49.5549,-26.7776 L 48.6698,-26.0014 L 47.6909,-25.3473 L 46.6351,-24.8267 L 45.5203,-24.4482
 L 44.3657,-24.2186 L 43.1909,-24.1416 z
M 10.427,-13.2478 L 11,-15.0111 L 11,-35.5819 L 10.427,-37.3453 L 10.4026,-37.394 L 7.91011,-43.4113
 L 6.41011,-44.5012 L 4.55602,-44.5012 L 3.05602,-43.4113 L -1.36032,-37.6559 L -2.18457,-36.8782 L -3.00502,-36.4045
 L -4.89569,-35.8385 L -5.47215,-35.8049 L -6.95541,-36.0665 L -8.68169,-36.8111 L -8.85065,-36.9369 L -13.676,-40.6395
 L -15.176,-41.7293 L -17.0301,-41.7293 L -18.5301,-40.6395 L -19.103,-38.8761 L -20.0869,-31.403 L -20.6089,-29.7964
 L -20.0359,-28.0331 L -18.5359,-26.9432 L 7.07294,-12.1579 L 8.92703,-12.1579 z
M -17.6089,-29.7964 L -17.1224,-31.133 L -16.103,-38.8761 L -11.2777,-35.1735 L -9.69464,-33.995 L -7.88246,-33.2133
 L -5.93886,-32.8706 L -3.96864,-32.9853 L -2.07797,-33.5514 L -0.368805,-34.5382 L 1.06673,-35.8925 L 5.48306,-41.648
 L 7.97551,-35.6307 L 8,-35.5819 L 7.99998,-15.0111 z
M 71.8448,-13.5512 L 72.4177,-15.3145 L 72.4177,-16.4317 L 72.5935,-17.1733 L 73.1856,-18.3524 L 74.4542,-19.8642
 L 74.6232,-19.99 L 76.3495,-20.7346 L 78.2931,-21.0774 L 83.1924,-21.7224 L 84.6924,-22.8122 L 85.2654,-24.5755
 L 84.6924,-26.3389 L 77.9835,-42.5356 L 76.4835,-43.6254 L 74.6294,-43.6254 L 73.1294,-42.5356 L 69.8035,-39.9835
 L 68.4163,-39.1826 L 66.5257,-38.6166 L 65.9492,-38.583 L 64.4659,-38.8445 L 62.7397,-39.5892 L 62.5707,-39.715
 L 62.2933,-40.0456 L 60.7933,-41.1354 L 58.9392,-41.1354 L 57.4392,-40.0456 L 56.8662,-38.2822 L 57.1747,-37.333
 L 57.3848,-36.2765 L 57.6139,-34.3163 L 57.6909,-33.1416 L 57.6139,-31.9668 L 57.3848,-30.0066 L 57.2052,-29.1035
 L 56.6747,-27.646 L 56.154,-26.5901 L 55.6615,-25.8413 L 55.0885,-24.078 L 55.6615,-22.3146 L 57.1615,-21.2248
 L 58.7442,-20.751 L 59.859,-20.3725 L 60.9148,-19.8518 L 62.5531,-18.906 L 62.988,-18.5246 L 64.4235,-17.1702
 L 65.1997,-16.2852 L 65.8538,-15.3063 L 66.9383,-13.6574 L 66.9907,-13.5512 L 68.4907,-12.4614 L 70.3448,-12.4614
 z
M 68.2808,-17.0697 L 67.6268,-18.0485 L 66.8506,-18.9336 L 65.415,-20.2879 L 64.5299,-21.0642 L 63.5511,-21.7182
 L 61.8419,-22.705 L 60.7861,-23.2257 L 59.6713,-23.6041 L 58.0885,-24.078 L 58.581,-24.8268 L 59.1017,-25.8826
 L 59.7767,-27.7372 L 60.1551,-28.852 L 60.3848,-30.0066 L 60.6139,-31.9668 L 60.6909,-33.1416 L 60.6139,-34.3163
 L 60.3848,-36.2765 L 60.1551,-37.4312 L 59.8662,-38.2822 L 60.1436,-37.9516 L 61.7267,-36.7731 L 63.5389,-35.9914
 L 65.4825,-35.6487 L 67.4527,-35.7634 L 69.3434,-36.3295 L 71.0525,-37.3162 L 75.5565,-40.7722 L 82.2654,-24.5755
 L 77.366,-23.9305 L 75.4224,-23.5878 L 73.6102,-22.8061 L 72.0272,-21.6276 L 70.7586,-20.1157 L 69.8728,-18.3521
 L 69.4177,-16.4317 L 69.4177,-15.3145 L 69.3653,-15.4208 z
M -72.7243,-23.7911 L -68.7827,-33.307 L -68.2098,-35.0704 L -68.7827,-36.8337 L -70.2827,-37.9235 L -76.4265,-40.4684
 L -78.2806,-40.4684 L -79.7806,-39.3786 L -83.7223,-29.8626 L -84.2952,-28.0993 L -83.7223,-26.3359 L -82.2223,-25.2461
 L -76.0784,-22.7012 L -74.2243,-22.7012 z
M -81.2952,-28.0993 L -77.3536,-37.6152 L -71.2098,-35.0704 L -75.1514,-25.5544 z
M 35.7655,-8.02321 L 37.2655,-9.11302 L 41.2634,-14.3232 L 41.8363,-16.0865 L 41.2634,-17.8499 L 39.7634,-18.9397
 L 33.526,-19.7608 L 31.5824,-20.1036 L 29.8562,-20.8482 L 29.6872,-20.974 L 28.4186,-22.4858 L 27.8264,-23.6649
 L 27.6507,-24.4065 L 27.6507,-26.3801 L 28.5637,-33.3153 L 27.9908,-35.0786 L 26.4908,-36.1685 L 24.6367,-36.1685
 L 18.4025,-33.5862 L 16.5118,-33.0201 L 16.073,-32.9946 L 14.573,-31.9048 L 14,-30.1414 L 14,-0.577362
 L 14.573,1.18599 L 16.073,2.2758 L 17.927,2.2758 z
M 17,-30.1414 L 17.4389,-30.167 L 19.3296,-30.733 L 25.5637,-33.3153 L 24.6507,-26.3801 L 24.6507,-24.4065
 L 25.1058,-22.4861 L 25.9916,-20.7225 L 27.2601,-19.2106 L 28.8432,-18.0321 L 30.6554,-17.2504 L 32.599,-16.9077
 L 38.8363,-16.0865 L 34.8384,-10.8764 L 17,-0.577362 z
M -48.1951,-9.0575 L -47.0405,-9.28717 L -45.9257,-9.66559 L -37.6108,-13.1097 L -36.1108,-14.1995 L -35.5378,-15.9629
 L -36.1108,-17.7262 L -39.5549,-26.0412 L -40.0756,-27.097 L -40.7297,-28.0759 L -41.5059,-28.961 L -42.391,-29.7372
 L -43.891,-30.827 L -44.8699,-31.481 L -45.9257,-32.0017 L -47.0405,-32.3801 L -48.1951,-32.6098 L -49.3699,-32.6868
 L -51.224,-32.6868 L -52.3987,-32.6098 L -53.5533,-32.3801 L -54.6681,-32.0017 L -55.724,-31.481 L -56.7028,-30.827
 L -58.2028,-29.7372 L -59.0879,-28.961 L -59.8641,-28.0759 L -60.5182,-27.097 L -61.0389,-26.0412 L -61.4173,-24.9264
 L -61.9902,-23.163 L -62.2199,-22.0084 L -62.2969,-20.8336 L -62.2199,-19.6589 L -61.9902,-18.5043 L -61.4173,-16.741
 L -61.0389,-15.6262 L -60.5182,-14.5703 L -59.8641,-13.5915 L -59.0879,-12.7063 L -58.2028,-11.9301 L -56.7028,-10.8403
 L -55.7239,-10.1863 L -54.6681,-9.66559 L -53.5533,-9.28716 L -52.3987,-9.0575 L -51.2239,-8.9805 L -49.3698,-8.9805
 z
M -51.4716,-11.9107 L -52.6263,-12.1403 L -53.741,-12.5188 L -54.7969,-13.0394 L -55.7757,-13.6935 L -56.6609,-14.4697
 L -57.4371,-15.3548 L -58.0911,-16.3337 L -58.6118,-17.3895 L -58.9902,-18.5043 L -59.2199,-19.6589 L -59.2969,-20.8336
 L -59.2199,-22.0084 L -58.9902,-23.163 L -58.6118,-24.2778 L -58.0911,-25.3336 L -57.4371,-26.3125 L -56.6609,-27.1976
 L -55.7758,-27.9738 L -54.7969,-28.6279 L -53.7411,-29.1486 L -52.6263,-29.527 L -51.4716,-29.7567 L -50.2969,-29.8336
 L -49.1222,-29.7567 L -47.9675,-29.527 L -46.8528,-29.1486 L -45.7969,-28.6279 L -44.8181,-27.9738 L -43.9329,-27.1976
 L -43.1567,-26.3125 L -42.5027,-25.3336 L -41.982,-24.2778 L -38.5378,-15.9629 L -46.8528,-12.5188 L -47.9675,-12.1403
 L -49.1222,-11.9107 L -50.2969,-11.8337 z
M -8.07295,-11.5806 L -6.57295,-12.6704 L -6,-14.4337 L -6.57295,-16.1971 L -8.07295,-17.2869 L -25.9114,-27.586
 L -32.4225,-28.4431 L -34.2766,-28.4431 L -35.7766,-27.3533 L -36.3495,-25.59 L -35.7766,-23.8266 L -33.369,-18.0143
 L -33.2344,-17.6445 L -33.0378,-15.9629 L -33.2344,-14.2813 L -33.369,-13.9115 L -34.4535,-12.2626 L -35.2778,-11.4849
 L -36.0982,-11.0112 L -42.5608,-8.33435 L -44.0608,-7.24454 L -44.6337,-5.48119 L -44.0608,-3.71783 L -38.7074,0.389954
 L -37.2719,1.74431 L -37.0303,2.11163 L -35.5303,3.20145 L -33.6762,3.20145 z
M -34.8448,-0.019043 L -36.2804,-1.3734 L -41.6337,-5.48119 L -35.1712,-8.15807 L -33.462,-9.14485 L -32.0265,-10.4992
 L -30.942,-12.1481 L -30.267,-14.0027 L -30.0378,-15.9629 L -30.267,-17.9231 L -30.942,-19.7777 L -33.3495,-25.59
 L -26.8385,-24.7328 L -9,-14.4337 L -34.6032,0.348282 z
M -68.5399,4.94502 L -67.9669,3.18167 L -67.7719,2.35864 L -67.3298,1.46217 L -66.444,-0.301483 L -65.79,-1.28035
 L -64.5214,-2.79219 L -63.7452,-3.67729 L -62.8601,-4.45351 L -62.4245,-4.77776 L -61.7982,-5.19629 L -61.4767,-5.35481
 L -59.9767,-6.44463 L -59.4038,-8.20798 L -59.9767,-9.97133 L -60.0669,-10.0504 L -60.8431,-10.9355 L -62.1117,-12.4473
 L -62.7657,-13.4262 L -63.6515,-15.1898 L -64.0935,-16.0863 L -64.4328,-17.5175 L -64.6624,-18.6721 L -64.7394,-19.8469
 L -64.7394,-21.46 L -65.3124,-23.2234 L -66.8124,-24.3132 L -68.6665,-24.3132 L -70.1665,-23.2234 L -71.0671,-21.8541
 L -71.8913,-21.0764 L -72.7118,-20.6028 L -74.6024,-20.0367 L -75.1789,-20.0031 L -76.6622,-20.2647 L -82.6361,-22.7392
 L -84.4902,-22.7392 L -85.9902,-21.6493 L -86.5631,-19.886 L -88.8597,-2.44147 L -88.2868,-0.678116 L -86.7868,0.411697
 L -84.9327,0.411697 L -79.3405,-0.324539 L -78.6557,-0.284653 L -76.765,0.281387 L -75.9446,0.755066 L -75.1203,1.53271
 L -74.0358,3.18161 L -73.394,4.94502 L -71.894,6.03484 L -70.0399,6.03484 z
M -77.5892,-17.4115 L -75.6456,-17.0688 L -73.6754,-17.1835 L -71.7847,-17.7496 L -70.0756,-18.7364 L -68.64,-20.0907
 L -67.7394,-21.46 L -67.7394,-19.8469 L -67.6624,-18.6721 L -67.4328,-17.5175 L -66.9776,-15.5971 L -66.5992,-14.4823
 L -66.0785,-13.4265 L -65.1928,-11.6628 L -64.5387,-10.684 L -63.2701,-9.17215 L -62.4939,-8.28703 L -62.4038,-8.20798
 L -62.7252,-8.04945 L -63.7041,-7.3954 L -65.2871,-6.21686 L -66.1722,-5.44064 L -66.9485,-4.55554 L -68.2171,-3.0437
 L -68.8711,-2.06483 L -69.7568,-0.301178 L -70.2775,0.754654 L -70.6559,1.86943 L -70.9669,3.18167 L -71.6088,1.41826
 L -72.6933,-0.230637 L -74.1288,-1.58499 L -75.838,-2.57178 L -77.7287,-3.13782 L -79.6989,-3.25256 L -85.8597,-2.44147
 L -83.5631,-19.886 z
M 86.7248,-3.24788 L 88.2248,-4.33769 L 88.7978,-6.10104 L 87.4533,-16.3129 L 86.8804,-18.0763 L 85.3804,-19.1661
 L 83.5263,-19.1661 L 76.9332,-18.2981 L 75.4332,-17.2083 L 74.8602,-15.4449 L 76.2047,-5.23305 L 76.7776,-3.4697
 L 78.2776,-2.37988 L 80.1317,-2.37988 z
M 77.8602,-15.4449 L 84.4533,-16.3129 L 85.7978,-6.10104 L 79.2047,-5.23305 z
M 56.077,4.67017 L 57.2316,4.44052 L 58.3464,4.06209 L 59.4023,3.54141 L 60.3811,2.88736 L 61.8811,1.79755
 L 62.7662,1.02133 L 63.5425,0.13623 L 64.1965,-0.842636 L 64.7172,-1.89847 L 65.0956,-3.01324 L 65.6686,-4.7766
 L 65.8982,-5.93124 L 65.9752,-7.10599 L 65.8982,-8.2807 L 65.6686,-9.43532 L 65.0956,-11.1987 L 64.7172,-12.3135
 L 64.1965,-13.3693 L 63.5424,-14.3482 L 62.7662,-15.2333 L 61.8811,-16.0095 L 60.3811,-17.0993 L 59.4023,-17.7533
 L 58.3464,-18.274 L 57.2317,-18.6525 L 56.077,-18.8821 L 54.9023,-18.9591 L 53.0482,-18.9591 L 51.8734,-18.8821
 L 50.7188,-18.6525 L 49.604,-18.274 L 48.5482,-17.7534 L 47.5693,-17.0993 L 46.0693,-16.0095 L 45.1842,-15.2333
 L 44.408,-14.3482 L 38.9292,-7.20799 L 38.3562,-5.44464 L 38.9292,-3.68129 L 46.0693,1.79755 L 47.5693,2.88736
 L 48.5482,3.5414 L 49.604,4.06209 L 50.7188,4.44051 L 51.8734,4.67018 L 53.0482,4.74718 L 54.9023,4.74718
 z
M 52.8005,1.81702 L 51.6458,1.58734 L 50.5311,1.20892 L 49.4752,0.688232 L 48.4964,0.0341949 L 41.3562,-5.44464
 L 46.8351,-12.5848 L 47.6113,-13.4699 L 48.4964,-14.2461 L 49.4752,-14.9002 L 50.5311,-15.4209 L 51.6459,-15.7993
 L 52.8005,-16.029 L 53.9752,-16.106 L 55.15,-16.0289 L 56.3046,-15.7993 L 57.4194,-15.4209 L 58.4752,-14.9002
 L 59.4541,-14.2461 L 60.3392,-13.4699 L 61.1154,-12.5848 L 61.7695,-11.606 L 62.2901,-10.5501 L 62.6686,-9.43532
 L 62.8982,-8.2807 L 62.9752,-7.10599 L 62.8982,-5.93124 L 62.6686,-4.7766 L 62.2901,-3.66182 L 61.7695,-2.60599
 L 61.1154,-1.62712 L 60.3392,-0.74202 L 59.4541,0.0341949 L 58.4752,0.688248 L 57.4194,1.20892 L 56.3046,1.58736
 L 55.1499,1.817 L 53.9752,1.89401 z
M 70.1822,23.2335 L 70.4768,22.6469 L 71.7454,21.1351 L 71.9143,21.0093 L 73.6406,20.2647 L 75.1239,20.0031
 L 75.7003,20.0367 L 77.591,20.6028 L 82.6007,22.6778 L 84.4548,22.6778 L 85.9548,21.588 L 86.5277,19.8246
 L 88.8135,2.46207 L 88.2406,0.698715 L 86.7406,-0.391098 L 84.8865,-0.391098 L 79.7536,0.284653 L 79.1771,0.318222
 L 77.6939,0.0566864 L 75.9676,-0.687958 L 75.7986,-0.813736 L 74.5301,-2.32558 L 73.8588,-3.66222 L 73.4402,-4.95039
 L 71.9402,-6.04021 L 70.0861,-6.04021 L 68.5861,-4.95039 L 68.0132,-3.18704 L 67.9895,-3.06796 L 67.459,-1.61038
 L 66.9383,-0.55455 L 65.8538,1.09435 L 65.1997,2.07321 L 64.4235,2.95831 L 62.988,4.31267 L 62.553,4.69412
 L 61.4029,5.35815 L 59.9029,6.44797 L 59.3299,8.21132 L 59.9029,9.97467 L 60.7452,10.7694 L 61.5214,11.6545
 L 62.1754,12.6333 L 63.2599,14.2822 L 63.7807,15.3381 L 64.3111,16.7955 L 64.4908,17.6987 L 64.7199,19.6589
 L 64.7969,20.8336 L 64.7552,21.4701 L 65.3281,23.2335 L 66.8281,24.3233 L 68.6822,24.3233 z
M 76.6274,17.1835 L 74.6572,17.0688 L 72.7136,17.4115 L 70.9014,18.1932 L 69.3183,19.3717 L 68.0498,20.8836
 L 67.7552,21.4701 L 67.7969,20.8336 L 67.7199,19.6589 L 67.4908,17.6987 L 67.2611,16.5441 L 66.8827,15.4293
 L 66.2077,13.5747 L 65.687,12.5189 L 64.6025,10.87 L 63.9485,9.89113 L 63.1722,9.00601 L 62.3299,8.21132
 L 63.5511,7.50629 L 64.5299,6.85223 L 65.415,6.07602 L 66.8505,4.72166 L 67.6268,3.83656 L 68.2808,2.8577
 L 69.3653,1.2088 L 69.886,0.152969 L 70.561,-1.7016 L 70.9394,-2.81638 L 71.0132,-3.18704 L 71.2173,-2.32588
 L 72.103,-0.562225 L 73.3716,0.949615 L 74.9547,2.12816 L 76.7668,2.90985 L 78.7104,3.25256 L 80.6806,3.13782
 L 85.8135,2.46207 L 83.5277,19.8246 L 78.5181,17.7496 z
M 1.57408,5.26797 L 2.17705,5.01822 L 3.67705,3.92841 L 4.19481,3.53111 L 4.5921,3.01335 L 4.84186,2.41039
 L 5.41481,0.647034 L 5.5,-0 L 5.41481,-0.647034 L 4.84186,-2.41039 L 4.5921,-3.01334 L 4.19481,-3.53111
 L 3.67705,-3.92841 L 2.17705,-5.01822 L 1.57408,-5.26797 L 0.927048,-5.35316 L -0.927048,-5.35316 L -1.57408,-5.26797
 L -2.17703,-5.01822 L -3.67703,-3.92841 L -4.19481,-3.53111 L -4.5921,-3.01334 L -4.84186,-2.41039 L -5.41481,-0.647034
 L -5.5,-0 L -5.41481,0.647034 L -4.84186,2.41039 L -4.5921,3.01334 L -4.19481,3.53111 L -3.67705,3.92841
 L -2.17705,5.01822 L -1.57408,5.26797 L -0.927048,5.35316 L 0.927048,5.35316 z
M -0.647034,2.41481 L -1.25,2.16505 L -1.76776,1.76776 L -2.16505,1.24998 L -2.41481,0.647034 L -2.5,-0
 L -2.41481,-0.647034 L -2.16505,-1.24998 L -1.76776,-1.76776 L -1.24998,-2.16505 L -0.647034,-2.41481 L 0,-2.5
 L 0.647034,-2.41481 L 1.25,-2.16505 L 1.76776,-1.76776 L 2.16505,-1.24998 L 2.41481,-0.647034 L 2.5,-0
 L 2.41481,0.647034 L 2.16505,1.25 L 1.76776,1.76776 L 1.25,2.16505 L 0.647034,2.41481 L 0,2.5
 z
M -51.8734,18.8821 L -50.7188,18.6525 L -49.604,18.274 L -48.5482,17.7534 L -47.5693,17.0993 L -46.0693,16.0095
 L -45.1842,15.2333 L -44.408,14.3482 L -38.9292,7.20799 L -38.3562,5.44464 L -38.9292,3.68129 L -46.0693,-1.79755
 L -47.5693,-2.88736 L -48.5482,-3.5414 L -49.604,-4.06209 L -50.7188,-4.44051 L -51.8734,-4.67018 L -53.0482,-4.74718
 L -54.9023,-4.74718 L -56.077,-4.67017 L -57.2316,-4.44052 L -58.3464,-4.06209 L -59.4023,-3.54141 L -60.3811,-2.88736
 L -61.8811,-1.79755 L -62.7662,-1.02133 L -63.5425,-0.13623 L -64.1965,0.842636 L -64.7172,1.89847 L -65.0956,3.01324
 L -65.6686,4.7766 L -65.8982,5.93124 L -65.9752,7.10599 L -65.8982,8.2807 L -65.6686,9.43532 L -65.0956,11.1987
 L -64.7172,12.3135 L -64.1965,13.3693 L -63.5424,14.3482 L -62.7662,15.2333 L -61.8811,16.0095 L -60.3811,17.0993
 L -59.4023,17.7533 L -58.3464,18.274 L -57.2317,18.6525 L -56.0768,18.8821 L -54.9023,18.9591 L -53.0482,18.9591
 z
M -55.1497,16.029 L -56.3046,15.7993 L -57.4194,15.4209 L -58.4752,14.9002 L -59.4541,14.2461 L -60.3392,13.4699
 L -61.1154,12.5848 L -61.7695,11.606 L -62.2901,10.5501 L -62.6686,9.43532 L -62.8982,8.2807 L -62.9752,7.10599
 L -62.8982,5.93124 L -62.6686,4.7766 L -62.2901,3.66182 L -61.7695,2.60599 L -61.1154,1.62712 L -60.3392,0.74202
 L -59.4541,-0.0341949 L -58.4752,-0.688248 L -57.4194,-1.20892 L -56.3046,-1.58736 L -55.1499,-1.817 L -53.9752,-1.89401
 L -52.8005,-1.81702 L -51.6458,-1.58734 L -50.5311,-1.20892 L -49.4752,-0.688232 L -48.4964,-0.0341949 L -41.3562,5.44464
 L -46.8351,12.5848 L -47.6113,13.4699 L -48.4964,14.2461 L -49.4752,14.9002 L -50.5311,15.4209 L -51.6459,15.7993
 L -52.8005,16.029 L -53.9752,16.106 z
M 35.7537,27.3358 L 36.3267,25.5725 L 35.7537,23.8091 L 33.3399,17.9816 L 33.0953,16.9497 L 33.0953,14.9761
 L 33.2711,14.2345 L 33.8633,13.0554 L 35.1318,11.5436 L 35.3008,11.4178 L 37.0271,10.6732 L 42.6463,8.34561
 L 44.1463,7.2558 L 44.7192,5.49245 L 44.1463,3.7291 L 37.9502,-1.02533 L 37.0359,-2.1149 L 35.5359,-3.20471
 L 33.6818,-3.20471 L 8.07295,11.5806 L 6.57295,12.6704 L 6,14.4337 L 6.57295,16.1971 L 8.07295,17.2869
 L 25.8878,27.5723 L 25.9422,27.5755 L 32.3996,28.4256 L 34.2537,28.4256 z
M 26.8693,24.7223 L 26.8149,24.7192 L 9,14.4337 L 34.6089,-0.351547 L 35.5231,0.738022 L 41.7192,5.49245
 L 36.1,7.81999 L 34.2879,8.60168 L 32.7048,9.78023 L 31.4362,11.2921 L 30.5505,13.0557 L 30.0953,14.9761
 L 30.0953,16.9497 L 30.5505,18.8701 L 33.3267,25.5725 z
M -17.4737,33.2481 L -16.073,33.0011 L -14.573,31.9113 L -14,30.148 L -14,0.577362 L -14.573,-1.18599
 L -16.073,-2.2758 L -17.927,-2.2758 L -35.7419,8.00961 L -37.2419,9.09943 L -37.2719,9.14497 L -41.2368,14.3122
 L -41.8098,16.0755 L -41.2368,17.8389 L -39.7368,18.9287 L -32.5443,19.8756 L -30.6536,20.4416 L -29.8331,20.9153
 L -29.0089,21.693 L -27.9244,23.3419 L -27.7897,23.7117 L -27.5932,25.3933 L -27.8223,27.3535 L -28.6162,33.3837
 L -28.0433,35.147 L -26.5433,36.2369 L -24.6892,36.2369 z
M -24.8223,27.3535 L -24.5932,25.3933 L -24.8223,23.4331 L -25.4973,21.5785 L -26.5818,19.9296 L -28.0174,18.5753
 L -29.7265,17.5885 L -31.6172,17.0224 L -38.8098,16.0755 L -34.8448,10.9083 L -34.8149,10.8628 L -17,0.577362
 L -17,30.148 L -18.4007,30.3949 L -25.6162,33.3837 z
M -76.9332,18.2981 L -75.4332,17.2083 L -74.8602,15.4449 L -76.2047,5.23305 L -76.7776,3.4697 L -78.2776,2.37988
 L -80.1317,2.37988 L -86.7248,3.24788 L -88.2248,4.33769 L -88.7978,6.10104 L -87.4533,16.3129 L -86.8804,18.0763
 L -85.3804,19.1661 L -83.5263,19.1661 z
M -85.7978,6.10104 L -79.2047,5.23305 L -77.8602,15.4449 L -84.4533,16.3129 z
M 52.3987,32.6098 L 53.5533,32.3801 L 54.6681,32.0017 L 55.724,31.481 L 56.7028,30.827 L 58.2028,29.7372
 L 59.0879,28.961 L 59.8641,28.0759 L 60.5182,27.097 L 61.0389,26.0412 L 61.4173,24.9264 L 61.9902,23.163
 L 62.2199,22.0084 L 62.2969,20.8336 L 62.2199,19.6589 L 61.9902,18.5043 L 61.4173,16.741 L 61.0389,15.6262
 L 60.5182,14.5703 L 59.8641,13.5915 L 59.0879,12.7063 L 58.2028,11.9301 L 56.7028,10.8403 L 55.7239,10.1863
 L 54.6681,9.66559 L 53.5533,9.28716 L 52.3987,9.0575 L 51.2239,8.9805 L 49.3698,8.9805 L 48.1951,9.0575
 L 47.0405,9.28717 L 45.9257,9.66559 L 37.6108,13.1097 L 36.1108,14.1995 L 35.5378,15.9629 L 36.1108,17.7262
 L 39.5549,26.0412 L 40.0756,27.097 L 40.7297,28.0759 L 41.5059,28.961 L 42.391,29.7372 L 43.891,30.827
 L 44.8699,31.481 L 45.9257,32.0017 L 47.0405,32.3801 L 48.1951,32.6098 L 49.3699,32.6868 L 51.224,32.6868
 z
M 49.1222,29.7567 L 47.9675,29.527 L 46.8528,29.1486 L 45.7969,28.6279 L 44.8181,27.9738 L 43.9329,27.1976
 L 43.1567,26.3125 L 42.5027,25.3336 L 41.982,24.2778 L 38.5378,15.9629 L 46.8528,12.5188 L 47.9675,12.1403
 L 49.1222,11.9107 L 50.2969,11.8337 L 51.4716,11.9107 L 52.6263,12.1403 L 53.741,12.5188 L 54.7969,13.0394
 L 55.7757,13.6935 L 56.6609,14.4697 L 57.4371,15.3548 L 58.0911,16.3337 L 58.6118,17.3895 L 58.9902,18.5043
 L 59.2199,19.6589 L 59.2969,20.8336 L 59.2199,22.0084 L 58.9902,23.163 L 58.6118,24.2778 L 58.0911,25.3336
 L 57.4371,26.3125 L 56.6609,27.1976 L 55.7758,27.9738 L 54.7969,28.6279 L 53.7411,29.1486 L 52.6263,29.527
 L 51.4716,29.7567 L 50.2969,29.8336 z
M -3.05977,43.4398 L 0.77005,38.4487 L 2.03864,36.9369 L 2.20758,36.8111 L 3.93387,36.0665 L 5.41713,35.8049
 L 5.99359,35.8385 L 7.88426,36.4045 L 9.27141,37.2054 L 13.643,40.5598 L 15.143,41.6496 L 16.9971,41.6496
 L 18.4971,40.5598 L 19.07,38.7965 L 19.9508,32.1064 L 20.2181,30.9784 L 20.6032,29.7931 L 20.0303,28.0298
 L 18.5303,26.94 L -7.07294,12.1579 L -8.92703,12.1579 L -10.427,13.2478 L -11,15.0111 L -11,35.6091
 L -10.427,37.3725 L -7.91386,43.4398 L -6.41386,44.5297 L -4.55977,44.5297 z
M 8.81131,33.5514 L 6.92064,32.9853 L 4.95042,32.8706 L 3.00682,33.2133 L 1.19466,33.995 L -0.388412,35.1735
 L -1.657,36.6854 L -5.48682,41.6765 L -8,35.6091 L -7.99998,15.0111 L 17.6032,29.7931 L 17.4059,30.186
 L 16.9508,32.1064 L 16.07,38.7965 L 10.5205,34.5382 z
M -73.1241,42.5859 L -69.3827,39.715 L -69.2138,39.5892 L -67.4875,38.8445 L -66.0042,38.583 L -65.4277,38.6166
 L -63.5371,39.1826 L -62.7166,39.6563 L -62.3264,40.0244 L -60.8264,41.1143 L -58.9723,41.1143 L -57.4723,40.0244
 L -56.8994,38.2611 L -57.3268,36.4577 L -57.5565,35.3031 L -57.6334,34.1284 L -57.6334,32.1548 L -57.5565,30.9801
 L -57.3268,29.8254 L -56.9876,28.3942 L -56.5455,27.4978 L -55.7063,25.8267 L -55.1333,24.0633 L -55.7063,22.3
 L -57.2063,21.2102 L -57.8154,21.089 L -58.9302,20.7106 L -60.7423,19.9289 L -61.7982,19.4082 L -62.4246,18.9896
 L -62.8601,18.6655 L -63.7452,17.8892 L -64.5214,17.0041 L -65.79,15.4923 L -66.444,14.5134 L -66.9548,13.4964
 L -68.4548,12.4066 L -70.3089,12.4066 L -71.8089,13.4964 L -72.3819,15.2598 L -72.3602,15.4449 L -72.5568,17.1265
 L -72.6914,17.4964 L -73.7759,19.1452 L -74.6002,19.9229 L -75.4206,20.3966 L -77.3113,20.9626 L -83.2015,21.7381
 L -84.7015,22.8279 L -85.2744,24.5912 L -84.7015,26.3546 L -77.9782,42.5859 L -76.4782,43.6757 L -74.6241,43.6757
 z
M -62.61,36.3295 L -64.5007,35.7634 L -66.4709,35.6487 L -68.4145,35.9914 L -70.2267,36.7731 L -71.8098,37.9516
 L -75.5512,40.8225 L -82.2744,24.5912 L -76.3842,23.8158 L -74.4936,23.2497 L -72.7844,22.263 L -71.3489,20.9086
 L -70.2644,19.2597 L -69.5894,17.4051 L -69.3602,15.4449 L -69.3819,15.2598 L -68.8711,16.2768 L -68.217,17.2556
 L -66.9485,18.7675 L -66.1722,19.6526 L -65.2872,20.4288 L -63.7041,21.6073 L -62.7252,22.2614 L -61.6694,22.7821
 L -59.8572,23.5638 L -58.7424,23.9422 L -58.1333,24.0633 L -58.9725,25.7344 L -59.4932,26.7903 L -59.8716,27.905
 L -60.3268,29.8254 L -60.5565,30.9801 L -60.6334,32.1548 L -60.6334,34.1284 L -60.5565,35.3031 L -60.3268,36.4577
 L -59.8994,38.2611 L -60.9009,37.3162 z
M -41.0892,44.9177 L -39.9345,44.6881 L -38.8197,44.3096 L -37.7639,43.789 L -36.785,43.1349 L -35.285,42.0451
 L -34.3999,41.2689 L -33.6237,40.3838 L -32.9697,39.4049 L -32.449,38.3491 L -32.0706,37.2343 L -31.4976,35.4709
 L -31.2679,34.3163 L -30.0932,25.3933 L -30.6662,23.6299 L -32.1662,22.5401 L -41.0891,21.3654 L -42.2639,21.2884
 L -44.118,21.2884 L -45.2927,21.3654 L -46.4473,21.5951 L -47.5621,21.9735 L -48.618,22.4942 L -49.5968,23.1482
 L -51.0968,24.238 L -51.9819,25.0142 L -52.7581,25.8994 L -53.4122,26.8782 L -53.9329,27.9341 L -54.3113,29.0488
 L -54.8842,30.8122 L -55.1139,31.9668 L -55.1909,33.1416 L -55.1139,34.3163 L -54.8843,35.4709 L -54.3113,37.2343
 L -53.9329,38.3491 L -53.4122,39.4049 L -52.7581,40.3838 L -51.9819,41.2689 L -51.0968,42.0451 L -49.5968,43.1349
 L -48.618,43.789 L -47.5621,44.3096 L -46.4474,44.688 L -45.2927,44.9177 L -44.118,44.9947 L -42.2639,44.9947
 z
M -44.3657,42.0646 L -45.5203,41.8349 L -46.6351,41.4565 L -47.6909,40.9358 L -48.6698,40.2817 L -49.5549,39.5055
 L -50.3311,38.6204 L -50.9851,37.6416 L -51.5058,36.5857 L -51.8843,35.4709 L -52.1139,34.3163 L -52.1909,33.1416
 L -52.1139,31.9668 L -51.8842,30.8122 L -51.5058,29.6974 L -50.9852,28.6416 L -50.3311,27.6627 L -49.5549,26.7776
 L -48.6698,26.0014 L -47.6909,25.3473 L -46.6351,24.8267 L -45.5203,24.4482 L -44.3657,24.2186 L -43.1909,24.1416
 L -42.0162,24.2186 L -33.0932,25.3933 L -34.2679,34.3163 L -34.4976,35.4709 L -34.876,36.5857 L -35.3967,37.6416
 L -36.0508,38.6204 L -36.827,39.5055 L -37.7121,40.2817 L -38.6909,40.9358 L -39.7468,41.4565 L -40.8616,41.8349
 L -42.0162,42.0646 L -43.1909,42.1416 z
M 79.7806,39.3786 L 83.7223,29.8626 L 84.2952,28.0993 L 83.7223,26.3359 L 82.2223,25.2461 L 76.0784,22.7012
 L 74.2243,22.7012 L 72.7243,23.7911 L 68.7827,33.307 L 68.2098,35.0704 L 68.7827,36.8337 L 70.2827,37.9235
 L 76.4265,40.4684 L 78.2806,40.4684 z
M 71.2098,35.0704 L 75.1514,25.5544 L 81.2952,28.0993 L 77.3536,37.6152 z
M 64.8609,60.7195 L 75.556,46.7813 L 76.129,45.018 L 75.556,43.2546 L 74.056,42.1648 L 69.699,40.3601
 L 67.9727,39.6154 L 67.8038,39.4897 L 66.5352,37.9778 L 65.943,36.7987 L 65.7672,36.0571 L 65.7672,34.0836
 L 66.0848,32.7438 L 65.5118,30.9805 L 64.0118,29.8907 L 62.1577,29.8907 L 60.6577,30.9805 L 59.3097,32.2523
 L 58.8748,32.6337 L 57.2365,33.5795 L 56.1807,34.1002 L 55.0659,34.4786 L 53.1752,35.0447 L 52.0206,35.2744
 L 50.8459,35.3513 L 48.9791,35.4601 L 47.4791,36.5499 L 46.9061,38.3132 L 47.1193,38.9692 L 47.3354,40.056
 L 47.5646,42.0162 L 47.6416,43.1909 L 47.5646,44.3657 L 47.3354,46.3259 L 47.1558,47.229 L 46.6253,48.6865
 L 46.1046,49.7424 L 45.4792,50.6933 L 44.9062,52.4566 L 45.4792,54.22 L 46.9792,55.3098 L 48.8333,55.3098
 L 48.992,55.1945 L 50.795,54.4167 L 52.2783,54.1552 L 52.8548,54.1888 L 54.7454,54.7548 L 55.5659,55.2285
 L 56.3901,56.0061 L 60.0068,60.7195 L 61.5068,61.8093 L 63.3609,61.8093 z
M 58.8172,54.2428 L 57.3817,52.8884 L 55.6725,51.9016 L 53.7818,51.3356 L 51.8116,51.2209 L 49.868,51.5636
 L 48.0558,52.3453 L 47.9062,52.4566 L 48.5317,51.5057 L 49.0524,50.4499 L 49.7274,48.5953 L 50.1058,47.4805
 L 50.3354,46.3259 L 50.5646,44.3657 L 50.6416,43.1909 L 50.5646,42.0162 L 50.3354,40.056 L 50.1058,38.9014
 L 49.9061,38.3132 L 51.7729,38.2045 L 52.9476,38.1275 L 54.1023,37.8978 L 55.9929,37.3318 L 57.1077,36.9534
 L 58.1636,36.4327 L 59.8727,35.4459 L 60.8516,34.7919 L 61.7367,34.0157 L 63.0848,32.7438 L 62.7672,34.0836
 L 62.7672,36.0571 L 63.2224,37.9775 L 64.1081,39.7412 L 65.3767,41.253 L 66.9598,42.4316 L 68.7719,43.2133
 L 73.129,45.018 L 62.4339,58.9561 z
M 35.2433,54.9671 L 36.398,54.7374 L 37.5128,54.359 L 38.5686,53.8383 L 39.5475,53.1843 L 41.0475,52.0945
 L 41.9326,51.3183 L 42.7088,50.4332 L 43.3628,49.4543 L 43.8835,48.3984 L 44.2619,47.2837 L 44.8349,45.5203
 L 45.0646,44.3657 L 45.1416,43.1909 L 45.0646,42.0162 L 44.8349,40.8616 L 44.2619,39.0982 L 43.8835,37.9834
 L 43.3628,36.9276 L 42.7088,35.9487 L 41.9326,35.0636 L 41.0475,34.2874 L 39.5475,33.1976 L 38.5686,32.5435
 L 37.5128,32.0228 L 36.398,31.6445 L 35.2433,31.4148 L 26.3203,30.24 L 24.4662,30.24 L 22.9662,31.3298
 L 22.3933,33.0932 L 21.2186,42.0162 L 21.1416,43.1909 L 21.2186,44.3657 L 21.4482,45.5203 L 22.0212,47.2836
 L 22.3996,48.3984 L 22.9203,49.4543 L 23.5743,50.4331 L 24.3505,51.3182 L 25.2357,52.0945 L 26.7357,53.1843
 L 27.7145,53.8383 L 28.7704,54.359 L 29.8851,54.7374 L 31.0398,54.9671 L 32.2145,55.0441 L 34.0686,55.0441
 z
M 31.9668,52.1139 L 30.8122,51.8842 L 29.6974,51.5058 L 28.6416,50.9852 L 27.6627,50.3311 L 26.7776,49.5549
 L 26.0014,48.6698 L 25.3473,47.6909 L 24.8267,46.6351 L 24.4482,45.5203 L 24.2186,44.3657 L 24.1416,43.1909
 L 24.2186,42.0162 L 25.3933,33.0932 L 34.3163,34.2679 L 35.4709,34.4976 L 36.5857,34.876 L 37.6416,35.3967
 L 38.6204,36.0508 L 39.5055,36.827 L 40.2817,37.7121 L 40.9358,38.6909 L 41.4565,39.7468 L 41.8349,40.8616
 L 42.0646,42.0162 L 42.1416,43.1909 L 42.0646,44.3657 L 41.8349,45.5203 L 41.4565,46.6351 L 40.9358,47.6909
 L 40.2817,48.6698 L 39.5055,49.5549 L 38.6204,50.3311 L 37.6416,50.9851 L 36.5857,51.5058 L 35.4709,51.8843
 L 34.3163,52.1139 L 33.1416,52.1909 z
M -18.7319,62.0731 L -17.5773,61.8434 L -16.4625,61.465 L -15.4066,60.9443 L -14.4278,60.2903 L -12.9278,59.2004
 L -12.0426,58.4242 L -11.2664,57.5391 L -10.6124,56.5602 L -10.0917,55.5044 L -9.71327,54.3896 L -9.14032,52.6263
 L -8.91066,51.4716 L -8.83366,50.2969 L -8.91066,49.1222 L -9.14034,47.9675 L -9.71329,46.2042 L -10.0917,45.0894
 L -13.5358,36.7745 L -15.0358,35.6847 L -16.8899,35.6847 L -25.2048,39.1288 L -26.2607,39.6495 L -27.2395,40.3036
 L -28.7395,41.3934 L -29.6246,42.1696 L -30.4009,43.0547 L -31.0549,44.0336 L -31.5756,45.0894 L -31.954,46.2042
 L -32.527,47.9675 L -32.7567,49.1222 L -32.8336,50.2969 L -32.7567,51.4716 L -32.527,52.6263 L -31.954,54.3896
 L -31.5756,55.5044 L -31.0549,56.5603 L -30.4009,57.5391 L -29.6247,58.4242 L -28.7395,59.2004 L -27.2395,60.2903
 L -26.2607,60.9443 L -25.2048,61.465 L -24.0901,61.8434 L -22.9355,62.0731 L -21.7607,62.1501 L -19.9066,62.1501
 z
M -22.0084,59.2199 L -23.163,58.9902 L -24.2778,58.6118 L -25.3336,58.0911 L -26.3125,57.4371 L -27.1976,56.6609
 L -27.9738,55.7758 L -28.6279,54.7969 L -29.1486,53.7411 L -29.527,52.6263 L -29.7567,51.4716 L -29.8336,50.2969
 L -29.7567,49.1222 L -29.527,47.9675 L -29.1486,46.8528 L -28.6279,45.7969 L -27.9738,44.8181 L -27.1976,43.9329
 L -26.3125,43.1567 L -25.3336,42.5027 L -24.2778,41.982 L -15.9629,38.5378 L -12.5188,46.8528 L -12.1403,47.9675
 L -11.9107,49.1222 L -11.8337,50.2969 L -11.9107,51.4716 L -12.1403,52.6263 L -12.5188,53.741 L -13.0394,54.7969
 L -13.6935,55.7757 L -14.4697,56.6609 L -15.3548,57.4371 L -16.3337,58.0911 L -17.3895,58.6118 L -18.5043,58.9902
 L -19.6589,59.2199 L -20.8336,59.2969 z
M 9.20775,65.7514 L 10.3624,65.5217 L 11.4772,65.1433 L 12.533,64.6226 L 13.5119,63.9686 L 15.0119,62.8788
 L 15.897,62.1025 L 16.6732,61.2175 L 17.3272,60.2386 L 17.8479,59.1827 L 18.2263,58.068 L 18.7993,56.3046
 L 19.0289,55.15 L 19.106,53.9752 L 19.029,52.8005 L 18.7993,51.6459 L 18.2263,49.8825 L 17.8479,48.7677
 L 17.3272,47.7119 L 16.6732,46.733 L 15.897,45.8479 L 15.0119,45.0717 L 7.87169,39.5928 L 6.37169,38.503
 L 4.51759,38.503 L 3.01759,39.5928 L -2.46124,46.733 L -3.11528,47.7119 L -3.63597,48.7677 L -4.01439,49.8825
 L -4.58734,51.6458 L -4.81702,52.8005 L -4.89401,53.9752 L -4.817,55.1499 L -4.58736,56.3046 L -4.0144,58.0679
 L -3.63597,59.1827 L -3.1153,60.2386 L -2.46124,61.2174 L -1.68503,62.1025 L -0.799927,62.8788 L 0.700073,63.9686
 L 1.67894,64.6226 L 2.73477,65.1433 L 3.84955,65.5217 L 5.0042,65.7514 L 6.17894,65.8284 L 8.03304,65.8284
 z
M 5.93124,62.8982 L 4.7766,62.6686 L 3.66182,62.2901 L 2.60599,61.7695 L 1.62712,61.1154 L 0.74202,60.3392
 L -0.0341949,59.4541 L -0.688248,58.4752 L -1.20892,57.4194 L -1.58736,56.3046 L -1.817,55.1499 L -1.89401,53.9752
 L -1.81702,52.8005 L -1.58734,51.6458 L -1.20892,50.5311 L -0.688232,49.4752 L -0.0341949,48.4964 L 5.44464,41.3562
 L 12.5848,46.8351 L 13.4699,47.6113 L 14.2461,48.4964 L 14.9002,49.4752 L 15.4209,50.5311 L 15.7993,51.6459
 L 16.029,52.8005 L 16.106,53.9752 L 16.0289,55.15 L 15.7993,56.3046 L 15.4209,57.4194 L 14.9002,58.4752
 L 14.2461,59.4541 L 13.4699,60.3392 L 12.5848,61.1154 L 11.606,61.7695 L 10.5501,62.2901 L 9.43532,62.6686
 L 8.2807,62.8982 L 7.10599,62.9752 z
M -62.5552,58.1174 L -57.2794,54.0692 L -56.7065,52.3058 L -57.2794,50.5425 L -63.5497,42.3709 L -65.0497,41.2811
 L -66.9037,41.2811 L -68.4037,42.3709 L -73.6796,46.4192 L -74.2525,48.1826 L -73.6796,49.9459 L -67.4093,58.1174
 L -65.9093,59.2072 L -64.0552,59.2072 z
M -71.2525,48.1826 L -65.9767,44.1343 L -59.7065,52.3058 L -64.9823,56.3541 z
M -42.6119,74.849 L -40.6307,70.0659 L -39.7449,68.3023 L -38.4764,66.7905 L -38.3074,66.6647 L -36.5811,65.92
 L -35.0979,65.6585 L -34.5214,65.6921 L -33.6736,65.9459 L -31.8195,65.9459 L -30.3195,64.8561 L -29.7465,63.0927
 L -30.3195,61.3294 L -30.6036,61.0802 L -31.3798,60.1951 L -32.6484,58.6832 L -33.3025,57.7044 L -34.1882,55.9407
 L -34.6303,55.0443 L -34.9695,53.6131 L -35.1992,52.4584 L -35.2762,51.2837 L -35.2762,49.8736 L -35.8491,48.1103
 L -37.3491,47.0205 L -39.2032,47.0205 L -40.3126,47.3526 L -41.4673,47.5823 L -42.642,47.6593 L -43.6306,47.7168
 L -43.9328,47.697 L -45.8764,47.3543 L -47.0311,47.1246 L -48.1459,46.7462 L -49.958,45.9645 L -51.0139,45.4438
 L -51.5442,45.0895 L -53.3983,45.0895 L -54.8983,46.1793 L -55.4713,47.9426 L -54.8983,49.706 L -54.5376,50.2544
 L -54.403,50.6243 L -54.2065,52.3058 L -54.403,53.9874 L -54.5376,54.3573 L -55.6221,56.0061 L -57.0577,57.3605
 L -61.3596,60.6614 L -61.9325,62.4248 L -61.3596,64.1881 L -47.466,74.849 L -45.966,75.9388 L -44.1119,75.9388
 z
M -58.9325,62.4248 L -54.6306,59.1239 L -53.1951,57.7695 L -52.1106,56.1206 L -51.4356,54.266 L -51.2065,52.3058
 L -51.4356,50.3456 L -52.1106,48.491 L -52.4713,47.9426 L -51.9409,48.297 L -50.8851,48.8177 L -49.0729,49.5994
 L -47.9581,49.9778 L -46.8035,50.2075 L -44.8599,50.5502 L -43.6852,50.6272 L -41.7149,50.5124 L -40.5402,50.4354
 L -39.3856,50.2058 L -38.2762,49.8736 L -38.2762,51.2837 L -38.1992,52.4584 L -37.9695,53.6131 L -37.5144,55.5334
 L -37.136,56.6482 L -36.6152,57.7041 L -35.7295,59.4677 L -35.0755,60.4466 L -33.8069,61.9584 L -33.0307,62.8435
 L -32.7465,63.0927 L -33.5944,62.8389 L -35.5646,62.7242 L -37.5082,63.0669 L -39.3203,63.8486 L -40.9034,65.0271
 L -42.172,66.5389 L -43.0577,68.3026 L -45.039,73.0857 z
M 41.7426,78.4306 L 43.2426,77.3408 L 43.8155,75.5774 L 43.2426,73.8141 L 39.4597,68.8842 L 38.8675,67.7051
 L 38.6918,66.9635 L 38.6918,64.9899 L 38.8675,64.2483 L 39.4597,63.0692 L 40.6659,61.6317 L 41.2389,59.8683
 L 40.6659,58.105 L 39.1659,57.0152 L 37.3118,57.0152 L 36.0199,57.402 L 34.8652,57.6316 L 33.6905,57.7086
 L 32.702,57.7662 L 32.3997,57.7464 L 30.4561,57.4037 L 29.3014,57.174 L 28.1866,56.7956 L 26.3745,56.0139
 L 25.3186,55.4932 L 25.0206,55.2941 L 23.1665,55.2941 L 21.6665,56.3839 L 21.2974,57.5198 L 21.2647,57.6163
 L 20.5897,59.4708 L 20.069,60.5267 L 18.9845,62.1756 L 18.3305,63.1544 L 17.5542,64.0395 L 16.1187,65.3939
 L 15.6837,65.7753 L 14.3577,66.5409 L 12.8577,67.6307 L 12.2848,69.3941 L 12.8577,71.1574 L 14.3577,72.2472
 L 15.9939,72.3425 L 17.8845,72.9086 L 18.705,73.3822 L 19.5292,74.1599 L 20.6137,75.8088 L 20.7548,76.1964
 L 21.5598,82.3108 L 22.1328,84.0741 L 23.6328,85.164 L 25.4868,85.164 z
M 23.7158,75.9 L 23.0408,74.0454 L 21.9563,72.3965 L 20.5208,71.0422 L 18.8116,70.0554 L 16.9209,69.4894
 L 15.2848,69.3941 L 16.6818,68.5875 L 17.6607,67.9334 L 18.5457,67.1572 L 19.9813,65.8029 L 20.7575,64.9178
 L 21.4115,63.9389 L 22.496,62.29 L 23.0167,61.2342 L 23.6917,59.3796 L 24.0702,58.2648 L 24.0936,58.1472
 L 24.3916,58.3464 L 25.4474,58.8671 L 27.2596,59.6487 L 28.3744,60.0271 L 29.529,60.2568 L 31.4726,60.5995
 L 32.6474,60.6765 L 34.6176,60.5618 L 35.7923,60.4848 L 36.9469,60.2551 L 38.2389,59.8683 L 37.0326,61.3059
 L 36.1469,63.0695 L 35.6918,64.9899 L 35.6918,66.9635 L 36.1469,68.8839 L 37.0326,70.6475 L 40.8155,75.5774
 L 24.5598,82.3108 z
M 50.6096,73.0159 L 58.7811,66.7456 L 59.3541,64.9823 L 58.7811,63.2189 L 54.7329,57.9431 L 53.2329,56.8533
 L 51.3788,56.8533 L 49.8788,57.9431 L 41.7072,64.2133 L 41.1343,65.9767 L 41.7072,67.7401 L 45.7555,73.0159
 L 47.2555,74.1057 L 49.1096,74.1057 z
M 44.1343,65.9767 L 52.3058,59.7065 L 56.3541,64.9823 L 48.1826,71.2525 z
M -0.0414276,87.5833 L 0.531525,85.8199 L -0.209473,80.1914 L -0.209473,78.2179 L -0.0337219,77.4763 L 0.558456,76.2972
 L 1.82704,74.7853 L 1.99599,74.6596 L 3.72227,73.9149 L 4.14732,73.84 L 5.64732,72.7502 L 6.22028,70.9868
 L 5.64732,69.2234 L 4.14732,68.1336 L 3.26582,67.9583 L 2.15105,67.5799 L 0.338867,66.7982 L -0.716965,66.2775
 L -1.34337,65.859 L -1.77888,65.5347 L -2.66399,64.7585 L -3.4402,63.8734 L -4.70879,62.3616 L -5.36284,61.3827
 L -5.76508,60.5818 L -7.26508,59.492 L -9.11917,59.492 L -10.6192,60.5818 L -11.8209,61.7156 L -12.2558,62.097
 L -13.894,63.0428 L -14.9499,63.5635 L -16.0647,63.9419 L -17.9554,64.5079 L -19.11,64.7376 L -20.2847,64.8146
 L -22.1218,64.9216 L -22.3731,64.9216 L -23.8731,66.0114 L -24.4461,67.7748 L -23.8731,69.5381 L -22.3731,70.6279
 L -22.2944,70.6734 L -21.4701,71.4511 L -20.3856,73.1 L -20.251,73.4698 L -20.0544,75.1514 L -20.251,76.833
 L -20.3856,77.2028 L -22.2767,81.7683 L -22.8496,83.5317 L -22.2767,85.295 L -20.7767,86.3848 L -3.39552,88.6731
 L -1.54143,88.6731 z
M -17.9585,78.9662 L -17.2835,77.1116 L -17.0544,75.1514 L -17.2835,73.1912 L -17.9585,71.3366 L -19.043,69.6877
 L -20.4786,68.3334 L -21.4461,67.7748 L -21.3279,67.7825 L -19.3577,67.6678 L -18.1829,67.5908 L -17.0283,67.3611
 L -15.1376,66.7951 L -14.0228,66.4167 L -12.967,65.896 L -11.2578,64.9092 L -10.279,64.2551 L -9.39386,63.4789
 L -8.19212,62.3451 L -7.78989,63.1461 L -7.13583,64.1249 L -5.86725,65.6367 L -5.09103,66.5218 L -4.20593,67.2981
 L -2.62288,68.4766 L -1.64401,69.1307 L -0.588181,69.6514 L 1.224,70.433 L 2.33878,70.8115 L 3.22028,70.9868
 L 2.79523,71.0618 L 0.983063,71.8434 L -0.600006,73.022 L -1.86859,74.5338 L -2.75433,76.2975 L -3.20947,78.2179
 L -3.20947,80.1914 L -2.46848,85.8199 L -19.8496,83.5317 z
M -25.6722,83.0586 L -23.1274,76.9147 L -22.5544,75.1514 L -23.1274,73.388 L -24.6274,72.2982 L -34.1433,68.3566
 L -35.9974,68.3566 L -37.4974,69.4464 L -40.0423,75.5902 L -40.6152,77.3536 L -40.0423,79.1169 L -38.5423,80.2067
 L -29.0263,84.1484 L -27.1722,84.1484 z
M -37.6152,77.3536 L -35.0704,71.2098 L -25.5544,75.1514 L -28.0993,81.2952 z
M 17.24,87.3065 L 18.74,86.2167 L 19.3129,84.4533 L 18.4449,77.8602 L 17.872,76.0969 L 16.372,75.0071
 L 14.5179,75.0071 L 4.306,76.3515 L 2.806,77.4413 L 2.23305,79.2047 L 3.10104,85.7978 L 3.674,87.5611
 L 5.174,88.6509 L 7.02809,88.6509 z
M 5.23305,79.2047 L 15.4449,77.8602 L 16.3129,84.4533 L 6.10104,85.7978 z
" stroke="black" fill="lightgray" stroke-width="0.5"/></svg>
