<?xml version="1.0" standalone="no"?>
<!DOCTYPE svg PUBLIC "-//W3C//DTD SVG 1.1//EN" "http://www.w3.org/Graphics/SVG/1.1/DTD/svg11.dtd">
<svg width="235" height="130" viewBox="0 0 235 130" xmlns="http://www.w3.org/2000/svg" version="1.1">
<title>OpenSCAD Model</title>
<path d="
M 86,44.7846 L 90.0591,41.8355 L 93.4164,38.1068 L 95.9251,33.7617 L 97.4755,28.9899 L 98,24
 L 97.4755,19.0101 L 95.9251,14.2383 L 93.4164,9.89316 L 90.0591,6.16454 L 86,3.21539 L 81.4164,1.17465
 L 76.5087,0.131485 L 71.4913,0.131485 L 66.5836,1.17465 L 62,3.21539 L 57.9409,6.16454 L 54.5836,9.89316
 L 52.0749,14.2383 L 50.5245,19.0101 L 50,24 L 50.5245,28.9899 L 52.0749,33.7617 L 54.5836,38.1068
 L 57.9409,41.8355 L 62,44.7846 L 64.75,46.009 L 64.75,36.5 L 64.9791,36.5 L 63.6285,35.5187
 L 61.4603,33.1107 L 59.8401,30.3044 L 58.8387,27.2226 L 58.5,24 L 58.8387,20.7774 L 59.8401,17.6956
 L 61.4603,14.8893 L 63.6285,12.4813 L 66.25,10.5766 L 69.2103,9.25864 L 72.3798,8.58492 L 75.6202,8.58492
 L 78.7897,9.25864 L 81.75,10.5766 L 84.3715,12.4813 L 86.5397,14.8893 L 88.1599,17.6956 L 89.1613,20.7774
 L 89.5,24 L 89.1613,27.2226 L 88.1599,30.3044 L 86.5397,33.1107 L 84.3715,35.5187 L 83.0209,36.5
 L 83.25,36.5 L 83.25,46.009 z
M 91.0729,25.5938 L 90.675,25.4289 L 90.3333,25.1667 L 90.071,24.825 L 89.9062,24.427 L 89.85,24
 L 89.9062,23.5729 L 90.071,23.175 L 90.3333,22.8333 L 90.675,22.571 L 91.0729,22.4062 L 91.5,22.35
 L 91.927,22.4062 L 92.325,22.571 L 92.6667,22.8333 L 92.9289,23.175 L 93.0938,23.5729 L 93.15,24
 L 93.0938,24.427 L 92.9289,24.825 L 92.6667,25.1667 L 92.325,25.4289 L 91.927,25.5938 L 91.5,25.65
 z
M 56.073,25.5938 L 55.675,25.4289 L 55.3333,25.1667 L 55.0711,24.825 L 54.9062,24.427 L 54.85,24
 L 54.9062,23.5729 L 55.0711,23.175 L 55.3333,22.8333 L 55.675,22.571 L 56.073,22.4062 L 56.5,22.35
 L 56.9271,22.4062 L 57.325,22.571 L 57.6667,22.8333 L 57.929,23.175 L 58.0938,23.5729 L 58.15,24
 L 58.0938,24.427 L 57.929,24.825 L 57.6667,25.1667 L 57.325,25.4289 L 56.9271,25.5938 L 56.5,25.65
 z
M 36,44.7846 L 40.0591,41.8355 L 43.4164,38.1068 L 45.9251,33.7617 L 47.4755,28.9899 L 48,24
 L 47.4755,19.0101 L 45.9251,14.2383 L 43.4164,9.89316 L 40.0591,6.16454 L 36,3.21539 L 31.4164,1.17465
 L 26.5087,0.131485 L 21.4913,0.131485 L 16.5836,1.17465 L 12,3.21539 L 7.94087,6.16454 L 4.5836,9.89316
 L 2.07492,14.2383 L 0.52446,19.0101 L 0,24 L 0.52446,28.9899 L 2.07492,33.7617 L 4.5836,38.1068
 L 7.94087,41.8355 L 12,44.7846 L 14.75,46.009 L 14.75,36.5 L 14.9791,36.5 L 13.6285,35.5187
 L 11.4603,33.1107 L 9.84006,30.3044 L 8.83871,27.2226 L 8.5,24 L 8.83871,20.7774 L 9.84006,17.6956
 L 11.4603,14.8893 L 13.6285,12.4813 L 16.25,10.5766 L 19.2103,9.25864 L 22.3798,8.58492 L 25.6202,8.58492
 L 28.7897,9.25864 L 31.75,10.5766 L 34.3715,12.4813 L 36.5397,14.8893 L 38.1599,17.6956 L 39.1613,20.7774
 L 39.5,24 L 39.1613,27.2226 L 38.1599,30.3044 L 36.5397,33.1107 L 34.3715,35.5187 L 33.0209,36.5
 L 33.25,36.5 L 33.25,46.009 z
M 6.07295,25.5938 L 5.675,25.4289 L 5.33328,25.1667 L 5.07106,24.825 L 4.90623,24.427 L 4.85001,24
 L 4.90623,23.5729 L 5.07106,23.175 L 5.33328,22.8333 L 5.675,22.571 L 6.07295,22.4062 L 6.5,22.35
 L 6.92706,22.4062 L 7.32501,22.571 L 7.66673,22.8333 L 7.92896,23.175 L 8.09378,23.5729 L 8.15001,24
 L 8.09378,24.427 L 7.92896,24.825 L 7.66673,25.1667 L 7.32501,25.4289 L 6.92706,25.5938 L 6.5,25.65
 z
M 41.0729,25.5938 L 40.675,25.4289 L 40.3333,25.1667 L 40.071,24.825 L 39.9062,24.427 L 39.85,24
 L 39.9062,23.5729 L 40.071,23.175 L 40.3333,22.8333 L 40.675,22.571 L 41.0729,22.4062 L 41.5,22.35
 L 41.927,22.4062 L 42.325,22.571 L 42.6667,22.8333 L 42.9289,23.175 L 43.0938,23.5729 L 43.15,24
 L 43.0938,24.427 L 42.9289,24.825 L 42.6667,25.1667 L 42.325,25.4289 L 41.927,25.5938 L 41.5,25.65
 z
M 136,44.7846 L 140.059,41.8355 L 143.416,38.1068 L 145.925,33.7617 L 147.476,28.9899 L 148,24
 L 147.476,19.0101 L 145.925,14.2383 L 143.416,9.89316 L 140.059,6.16454 L 136,3.21539 L 131.416,1.17465
 L 126.509,0.131485 L 121.491,0.131485 L 116.584,1.17465 L 112,3.21539 L 107.941,6.16454 L 104.584,9.89316
 L 102.075,14.2383 L 100.524,19.0101 L 100,24 L 100.524,28.9899 L 102.075,33.7617 L 104.584,38.1068
 L 107.941,41.8355 L 112,44.7846 L 114.75,46.009 L 114.75,36.5 L 114.979,36.5 L 113.628,35.5187
 L 111.46,33.1107 L 109.84,30.3044 L 108.839,27.2226 L 108.5,24 L 108.839,20.7774 L 109.84,17.6956
 L 111.46,14.8893 L 113.628,12.4813 L 116.25,10.5766 L 119.21,9.25864 L 122.38,8.58492 L 125.62,8.58492
 L 128.79,9.25864 L 131.75,10.5766 L 134.372,12.4813 L 136.54,14.8893 L 138.16,17.6956 L 139.161,20.7774
 L 139.5,24 L 139.161,27.2226 L 138.16,30.3044 L 136.54,33.1107 L 134.372,35.5187 L 133.021,36.5
 L 133.25,36.5 L 133.25,46.009 z
M 141.073,25.5938 L 140.675,25.4289 L 140.333,25.1667 L 140.071,24.825 L 139.906,24.427 L 139.85,24
 L 139.906,23.5729 L 140.071,23.175 L 140.333,22.8333 L 140.675,22.571 L 141.073,22.4062 L 141.5,22.35
 L 141.927,22.4062 L 142.325,22.571 L 142.667,22.8333 L 142.929,23.175 L 143.094,23.5729 L 143.15,24
 L 143.094,24.427 L 142.929,24.825 L 142.667,25.1667 L 142.325,25.4289 L 141.927,25.5938 L 141.5,25.65
 z
M 106.073,25.5938 L 105.675,25.4289 L 105.333,25.1667 L 105.071,24.825 L 104.906,24.427 L 104.85,24
 L 104.906,23.5729 L 105.071,23.175 L 105.333,22.8333 L 105.675,22.571 L 106.073,22.4062 L 106.5,22.35
 L 106.927,22.4062 L 107.325,22.571 L 107.667,22.8333 L 107.929,23.175 L 108.094,23.5729 L 108.15,24
 L 108.094,24.427 L 107.929,24.825 L 107.667,25.1667 L 107.325,25.4289 L 106.927,25.5938 L 106.5,25.65
 z
M 186,44.7846 L 190.059,41.8355 L 193.416,38.1068 L 195.925,33.7617 L 197.476,28.9899 L 198,24
 L 197.476,19.0101 L 195.925,14.2383 L 193.416,9.89316 L 190.059,6.16454 L 186,3.21539 L 181.416,1.17465
 L 176.509,0.131485 L 171.491,0.131485 L 166.584,1.17465 L 162,3.21539 L 157.941,6.16454 L 154.584,9.89316
 L 152.075,14.2383 L 150.524,19.0101 L 150,24 L 150.524,28.9899 L 152.075,33.7617 L 154.584,38.1068
 L 157.941,41.8355 L 162,44.7846 L 164.75,46.009 L 164.75,36.5 L 164.979,36.5 L 163.628,35.5187
 L 161.46,33.1107 L 159.84,30.3044 L 158.839,27.2226 L 158.5,24 L 158.839,20.7774 L 159.84,17.6956
 L 161.46,14.8893 L 163.628,12.4813 L 166.25,10.5766 L 169.21,9.25864 L 172.38,8.58492 L 175.62,8.58492
 L 178.79,9.25864 L 181.75,10.5766 L 184.372,12.4813 L 186.54,14.8893 L 188.16,17.6956 L 189.161,20.7774
 L 189.5,24 L 189.161,27.2226 L 188.16,30.3044 L 186.54,33.1107 L 184.372,35.5187 L 183.021,36.5
 L 183.25,36.5 L 183.25,46.009 z
M 156.073,25.5938 L 155.675,25.4289 L 155.333,25.1667 L 155.071,24.825 L 154.906,24.427 L 154.85,24
 L 154.906,23.5729 L 155.071,23.175 L 155.333,22.8333 L 155.675,22.571 L 156.073,22.4062 L 156.5,22.35
 L 156.927,22.4062 L 157.325,22.571 L 157.667,22.8333 L 157.929,23.175 L 158.094,23.5729 L 158.15,24
 L 158.094,24.427 L 157.929,24.825 L 157.667,25.1667 L 157.325,25.4289 L 156.927,25.5938 L 156.5,25.65
 z
M 191.073,25.5938 L 190.675,25.4289 L 190.333,25.1667 L 190.071,24.825 L 189.906,24.427 L 189.85,24
 L 189.906,23.5729 L 190.071,23.175 L 190.333,22.8333 L 190.675,22.571 L 191.073,22.4062 L 191.5,22.35
 L 191.927,22.4062 L 192.325,22.571 L 192.667,22.8333 L 192.929,23.175 L 193.094,23.5729 L 193.15,24
 L 193.094,24.427 L 192.929,24.825 L 192.667,25.1667 L 192.325,25.4289 L 191.927,25.5938 L 191.5,25.65
 z
M 132,50 L 111.25,50 L 111.25,56.9126 L 112.372,57.7275 L 114.54,60.1356 L 116.16,62.9418
 L 117.161,66.0236 L 117.5,69.2462 L 117.237,71.7462 L 117.5,74.2462 L 117.237,76.7462 L 117.5,79.2462
 L 117.237,81.7462 L 117.5,84.2462 L 117.237,86.7462 L 117.5,89.2462 L 117.161,92.4689 L 116.16,95.5506
 L 114.54,98.3569 L 112.372,100.765 L 109.75,102.67 L 106.79,103.988 L 103.62,104.661 L 100.38,104.661
 L 97.2103,103.988 L 94.25,102.67 L 91.6285,100.765 L 89.4603,98.3569 L 87.8401,95.5506 L 86.8387,92.4689
 L 86.5,89.2462 L 86.7628,86.7462 L 86.5,84.2462 L 86.7628,81.7462 L 86.5,79.2462 L 86.7628,76.7462
 L 86.5,74.2462 L 86.7628,71.7462 L 86.5,69.2462 L 86.8387,66.0236 L 87.8401,62.9418 L 89.4603,60.1356
 L 91.6285,57.7275 L 92.75,56.9126 L 92.75,50 L 72,50 L 72,124.492 L 132,124.492
 z
M 84.073,70.84 L 83.675,70.6752 L 83.3333,70.4129 L 83.0711,70.0712 L 82.9062,69.6733 L 82.85,69.2462
 L 82.9062,68.8192 L 83.0711,68.4212 L 83.3333,68.0795 L 83.675,67.8173 L 84.073,67.6525 L 84.5,67.5962
 L 84.9271,67.6525 L 85.325,67.8173 L 85.6667,68.0795 L 85.929,68.4212 L 86.0938,68.8192 L 86.15,69.2462
 L 86.0938,69.6733 L 85.929,70.0712 L 85.6667,70.4129 L 85.325,70.6752 L 84.9271,70.84 L 84.5,70.8962
 z
M 119.073,70.84 L 118.675,70.6752 L 118.333,70.4129 L 118.071,70.0712 L 117.906,69.6733 L 117.85,69.2462
 L 117.906,68.8192 L 118.071,68.4212 L 118.333,68.0795 L 118.675,67.8173 L 119.073,67.6525 L 119.5,67.5962
 L 119.927,67.6525 L 120.325,67.8173 L 120.667,68.0795 L 120.929,68.4212 L 121.094,68.8192 L 121.15,69.2462
 L 121.094,69.6733 L 120.929,70.0712 L 120.667,70.4129 L 120.325,70.6752 L 119.927,70.84 L 119.5,70.8962
 z
M 84.073,75.84 L 83.675,75.6752 L 83.3333,75.4129 L 83.0711,75.0712 L 82.9062,74.6733 L 82.85,74.2462
 L 82.9062,73.8192 L 83.0711,73.4212 L 83.3333,73.0795 L 83.675,72.8173 L 84.073,72.6525 L 84.5,72.5962
 L 84.9271,72.6525 L 85.325,72.8173 L 85.6667,73.0795 L 85.929,73.4212 L 86.0938,73.8192 L 86.15,74.2462
 L 86.0938,74.6733 L 85.929,75.0712 L 85.6667,75.4129 L 85.325,75.6752 L 84.9271,75.84 L 84.5,75.8962
 z
M 119.073,75.84 L 118.675,75.6752 L 118.333,75.4129 L 118.071,75.0712 L 117.906,74.6733 L 117.85,74.2462
 L 117.906,73.8192 L 118.071,73.4212 L 118.333,73.0795 L 118.675,72.8173 L 119.073,72.6525 L 119.5,72.5962
 L 119.927,72.6525 L 120.325,72.8173 L 120.667,73.0795 L 120.929,73.4212 L 121.094,73.8192 L 121.15,74.2462
 L 121.094,74.6733 L 120.929,75.0712 L 120.667,75.4129 L 120.325,75.6752 L 119.927,75.84 L 119.5,75.8962
 z
M 84.073,80.84 L 83.675,80.6752 L 83.3333,80.4129 L 83.0711,80.0712 L 82.9062,79.6733 L 82.85,79.2462
 L 82.9062,78.8192 L 83.0711,78.4212 L 83.3333,78.0795 L 83.675,77.8173 L 84.073,77.6525 L 84.5,77.5962
 L 84.9271,77.6525 L 85.325,77.8173 L 85.6667,78.0795 L 85.929,78.4212 L 86.0938,78.8192 L 86.15,79.2462
 L 86.0938,79.6733 L 85.929,80.0712 L 85.6667,80.4129 L 85.325,80.6752 L 84.9271,80.84 L 84.5,80.8962
 z
M 119.073,80.84 L 118.675,80.6752 L 118.333,80.4129 L 118.071,80.0712 L 117.906,79.6733 L 117.85,79.2462
 L 117.906,78.8192 L 118.071,78.4212 L 118.333,78.0795 L 118.675,77.8173 L 119.073,77.6525 L 119.5,77.5962
 L 119.927,77.6525 L 120.325,77.8173 L 120.667,78.0795 L 120.929,78.4212 L 121.094,78.8192 L 121.15,79.2462
 L 121.094,79.6733 L 120.929,80.0712 L 120.667,80.4129 L 120.325,80.6752 L 119.927,80.84 L 119.5,80.8962
 z
M 119.073,85.84 L 118.675,85.6752 L 118.333,85.4129 L 118.071,85.0712 L 117.906,84.6733 L 117.85,84.2462
 L 117.906,83.8192 L 118.071,83.4212 L 118.333,83.0795 L 118.675,82.8173 L 119.073,82.6525 L 119.5,82.5962
 L 119.927,82.6525 L 120.325,82.8173 L 120.667,83.0795 L 120.929,83.4212 L 121.094,83.8192 L 121.15,84.2462
 L 121.094,84.6733 L 120.929,85.0712 L 120.667,85.4129 L 120.325,85.6752 L 119.927,85.84 L 119.5,85.8962
 z
M 84.073,85.84 L 83.675,85.6752 L 83.3333,85.4129 L 83.0711,85.0712 L 82.9062,84.6733 L 82.85,84.2462
 L 82.9062,83.8192 L 83.0711,83.4212 L 83.3333,83.0795 L 83.675,82.8173 L 84.073,82.6525 L 84.5,82.5962
 L 84.9271,82.6525 L 85.325,82.8173 L 85.6667,83.0795 L 85.929,83.4212 L 86.0938,83.8192 L 86.15,84.2462
 L 86.0938,84.6733 L 85.929,85.0712 L 85.6667,85.4129 L 85.325,85.6752 L 84.9271,85.84 L 84.5,85.8962
 z
M 84.073,90.84 L 83.675,90.6752 L 83.3333,90.4129 L 83.0711,90.0712 L 82.9062,89.6733 L 82.85,89.2462
 L 82.9062,88.8192 L 83.0711,88.4212 L 83.3333,88.0795 L 83.675,87.8173 L 84.073,87.6525 L 84.5,87.5962
 L 84.9271,87.6525 L 85.325,87.8173 L 85.6667,88.0795 L 85.929,88.4212 L 86.0938,88.8192 L 86.15,89.2462
 L 86.0938,89.6733 L 85.929,90.0712 L 85.6667,90.4129 L 85.325,90.6752 L 84.9271,90.84 L 84.5,90.8962
 z
M 119.073,90.84 L 118.675,90.6752 L 118.333,90.4129 L 118.071,90.0712 L 117.906,89.6733 L 117.85,89.2462
 L 117.906,88.8192 L 118.071,88.4212 L 118.333,88.0795 L 118.675,87.8173 L 119.073,87.6525 L 119.5,87.5962
 L 119.927,87.6525 L 120.325,87.8173 L 120.667,88.0795 L 120.929,88.4212 L 121.094,88.8192 L 121.15,89.2462
 L 121.094,89.6733 L 120.929,90.0712 L 120.667,90.4129 L 120.325,90.6752 L 119.927,90.84 L 119.5,90.8962
 z
M 145,70 L 175,70 L 175,60 L 181.35,60 L 181.35,50 L 135,50
 L 135,100 L 145,100 z
M 139.34,77.4631 L 138.725,77.2084 L 138.197,76.8031 L 137.792,76.275 L 137.537,75.66 L 137.45,75
 L 137.537,74.34 L 137.792,73.725 L 138.197,73.1969 L 138.725,72.7916 L 139.34,72.5369 L 140,72.45
 L 140.66,72.5369 L 141.275,72.7916 L 141.803,73.1969 L 142.208,73.725 L 142.463,74.34 L 142.55,75
 L 142.463,75.66 L 142.208,76.275 L 141.803,76.8031 L 141.275,77.2084 L 140.66,77.4631 L 140,77.55
 z
M 139.34,97.4631 L 138.725,97.2084 L 138.197,96.8031 L 137.792,96.275 L 137.537,95.66 L 137.45,95
 L 137.537,94.34 L 137.792,93.725 L 138.197,93.1969 L 138.725,92.7916 L 139.34,92.5369 L 140,92.45
 L 140.66,92.5369 L 141.275,92.7916 L 141.803,93.1969 L 142.208,93.725 L 142.463,94.34 L 142.55,95
 L 142.463,95.66 L 142.208,96.275 L 141.803,96.8031 L 141.275,97.2084 L 140.66,97.4631 L 140,97.55
 z
M 215,60 L 235,60 L 235,50 L 185,50 L 185,60 L 205,60
 L 205,90 L 215,90 z
M 228.623,56.5938 L 228.225,56.4289 L 227.883,56.1667 L 227.621,55.825 L 227.456,55.427 L 227.4,55
 L 227.456,54.573 L 227.621,54.175 L 227.883,53.8333 L 228.225,53.5711 L 228.623,53.4062 L 229.05,53.35
 L 229.477,53.4062 L 229.875,53.5711 L 230.217,53.8333 L 230.479,54.175 L 230.644,54.573 L 230.7,55
 L 230.644,55.427 L 230.479,55.825 L 230.217,56.1667 L 229.875,56.4289 L 229.477,56.5938 L 229.05,56.65
 z
M 190.523,56.5938 L 190.125,56.4289 L 189.783,56.1667 L 189.521,55.825 L 189.356,55.427 L 189.3,55
 L 189.356,54.573 L 189.521,54.175 L 189.783,53.8333 L 190.125,53.5711 L 190.523,53.4062 L 190.95,53.35
 L 191.377,53.4062 L 191.775,53.5711 L 192.117,53.8333 L 192.379,54.175 L 192.544,54.573 L 192.6,55
 L 192.544,55.427 L 192.379,55.825 L 192.117,56.1667 L 191.775,56.4289 L 191.377,56.5938 L 190.95,56.65
 z
M 70,57.0145 L 0,57.0145 L 0,77.0145 L 70,102.492 z
M 181.286,128.959 L 183.907,127.054 L 186.075,124.646 L 187.159,123.024 L 188.779,120.218 L 189.402,118.3
 L 189.84,118.213 L 190.238,118.048 L 191.861,116.964 L 192.202,116.702 L 192.464,116.361 L 193.548,114.738
 L 193.713,114.34 L 194.094,112.427 L 194.15,112 L 194.094,111.573 L 193.713,109.66 L 193.548,109.262
 L 192.705,108 L 193.548,106.738 L 193.713,106.34 L 194.094,104.427 L 194.15,104 L 194.094,103.573
 L 193.713,101.66 L 193.548,101.262 L 192.464,99.6395 L 192.202,99.2978 L 191.861,99.0355 L 190.238,97.9517
 L 189.84,97.7868 L 189.402,97.6997 L 188.779,95.7822 L 187.159,92.9759 L 186.075,91.3538 L 184.25,89.3266
 L 184.25,76.5 L 183.869,74.5866 L 182.786,72.9645 L 181.342,72 L 158.658,72 L 157.214,72.9645
 L 156.131,74.5866 L 155.75,76.5 L 155.75,89.3266 L 153.925,91.3538 L 152.841,92.9759 L 151.221,95.7822
 L 150.598,97.6997 L 150.16,97.7868 L 149.762,97.9517 L 148.139,99.0355 L 147.798,99.2978 L 147.536,99.6395
 L 146.452,101.262 L 146.287,101.66 L 145.906,103.573 L 145.85,104 L 145.906,104.427 L 146.287,106.34
 L 146.452,106.738 L 147.295,108 L 146.452,109.262 L 146.287,109.66 L 146.219,110 L 135,110
 L 135,130 L 179.727,130 z
M 168.38,127.415 L 165.21,126.741 L 162.25,125.423 L 159.628,123.519 L 157.46,121.111 L 155.84,118.304
 L 154.839,115.223 L 154.5,112 L 154.839,108.777 L 155.091,108 L 154.839,107.223 L 154.5,104
 L 154.839,100.777 L 155.84,97.6956 L 157.46,94.8893 L 159.628,92.4813 L 160.75,91.6664 L 160.75,76.5
 L 179.25,76.5 L 179.25,91.6664 L 180.372,92.4813 L 182.54,94.8893 L 184.16,97.6956 L 185.161,100.777
 L 185.5,104 L 185.161,107.223 L 184.909,108 L 185.161,108.777 L 185.5,112 L 185.161,115.223
 L 184.16,118.304 L 182.54,121.111 L 180.372,123.519 L 177.75,125.423 L 174.79,126.741 L 171.62,127.415
 z
M 187.073,105.594 L 186.675,105.429 L 186.333,105.167 L 186.071,104.825 L 185.906,104.427 L 185.85,104
 L 185.906,103.573 L 186.071,103.175 L 186.333,102.833 L 186.675,102.571 L 187.073,102.406 L 187.5,102.35
 L 187.927,102.406 L 188.325,102.571 L 188.667,102.833 L 188.929,103.175 L 189.094,103.573 L 189.15,104
 L 189.094,104.427 L 188.929,104.825 L 188.667,105.167 L 188.325,105.429 L 187.927,105.594 L 187.5,105.65
 z
M 152.073,105.594 L 151.675,105.429 L 151.333,105.167 L 151.071,104.825 L 150.906,104.427 L 150.85,104
 L 150.906,103.573 L 151.071,103.175 L 151.333,102.833 L 151.675,102.571 L 152.073,102.406 L 152.5,102.35
 L 152.927,102.406 L 153.325,102.571 L 153.667,102.833 L 153.929,103.175 L 154.094,103.573 L 154.15,104
 L 154.094,104.427 L 153.929,104.825 L 153.667,105.167 L 153.325,105.429 L 152.927,105.594 L 152.5,105.65
 z
M 152.073,113.594 L 151.675,113.429 L 151.333,113.167 L 151.071,112.825 L 150.906,112.427 L 150.85,112
 L 150.906,111.573 L 151.071,111.175 L 151.333,110.833 L 151.675,110.571 L 152.073,110.406 L 152.5,110.35
 L 152.927,110.406 L 153.325,110.571 L 153.667,110.833 L 153.929,111.175 L 154.094,111.573 L 154.15,112
 L 154.094,112.427 L 153.929,112.825 L 153.667,113.167 L 153.325,113.429 L 152.927,113.594 L 152.5,113.65
 z
M 187.073,113.594 L 186.675,113.429 L 186.333,113.167 L 186.071,112.825 L 185.906,112.427 L 185.85,112
 L 185.906,111.573 L 186.071,111.175 L 186.333,110.833 L 186.675,110.571 L 187.073,110.406 L 187.5,110.35
 L 187.927,110.406 L 188.325,110.571 L 188.667,110.833 L 188.929,111.175 L 189.094,111.573 L 189.15,112
 L 189.094,112.427 L 188.929,112.825 L 188.667,113.167 L 188.325,113.429 L 187.927,113.594 L 187.5,113.65
 z
M 141.8,123.85 L 141.8,117.1 L 152.2,117.1 L 152.2,123.85 z
M 70,104.492 L 0,79.0145 L 0,124.492 L 70,124.492 z
M 220,95 L 200,95 L 200,105 L 220,105 z
M 209.674,102.479 L 209.353,102.415 L 209.043,102.31 L 208.75,102.165 L 208.5,101.998 L 208.5,98.002
 L 208.75,97.8349 L 209.043,97.6903 L 209.353,97.5852 L 209.674,97.5214 L 210,97.5 L 210.326,97.5214
 L 210.647,97.5852 L 210.957,97.6903 L 211.25,97.8349 L 211.5,98.002 L 211.5,101.998 L 211.25,102.165
 L 210.957,102.31 L 210.647,102.415 L 210.326,102.479 L 210,102.5 z
M 220,107 L 200,107 L 200,117 L 220,117 z
M 209.661,114.578 L 209.327,114.511 L 209.005,114.402 L 208.7,114.252 L 208.45,114.085 L 208.45,109.915
 L 208.7,109.748 L 209.005,109.598 L 209.327,109.489 L 209.661,109.422 L 210,109.4 L 210.339,109.422
 L 210.673,109.489 L 210.995,109.598 L 211.3,109.748 L 211.55,109.915 L 211.55,114.085 L 211.3,114.252
 L 210.995,114.402 L 210.673,114.511 L 210.339,114.578 L 210,114.6 z
M 220,119 L 200,119 L 200,129 L 220,129 z
M 209.648,126.677 L 209.301,126.608 L 208.967,126.494 L 208.65,126.338 L 208.4,126.171 L 208.4,121.829
 L 208.65,121.662 L 208.967,121.506 L 209.301,121.392 L 209.648,121.323 L 210,121.3 L 210.352,121.323
 L 210.699,121.392 L 211.033,121.506 L 211.35,121.662 L 211.6,121.829 L 211.6,126.171 L 211.35,126.338
 L 211.033,126.494 L 210.699,126.608 L 210.352,126.677 L 210,126.7 z
" stroke="black" fill="lightgray" stroke-width="0.5"/></svg>
