<?xml version="1.0" standalone="no"?>
<!DOCTYPE svg PUBLIC "-//W3C//DTD SVG 1.1//EN" "http://www.w3.org/Graphics/SVG/1.1/DTD/svg11.dtd">
<svg width="210" height="260" viewBox="0 -210 210 260" xmlns="http://www.w3.org/2000/svg" version="1.1">
<title>OpenSCAD Model</title>
<path d="
M 210,50 L 210,-210 L 0,-210 L 0,50 z
M 203.073,-203.906 L 202.675,-204.071 L 202.333,-204.333 L 202.071,-204.675 L 201.906,-205.073 L 201.85,-205.5
 L 201.906,-205.927 L 202.071,-206.325 L 202.333,-206.667 L 202.675,-206.929 L 203.073,-207.094 L 203.5,-207.15
 L 203.927,-207.094 L 204.325,-206.929 L 204.667,-206.667 L 204.929,-206.325 L 205.094,-205.927 L 205.15,-205.5
 L 205.094,-205.073 L 204.929,-204.675 L 204.667,-204.333 L 204.325,-204.071 L 203.927,-203.906 L 203.5,-203.85
 z
M 6.07295,-203.906 L 5.675,-204.071 L 5.33328,-204.333 L 5.07106,-204.675 L 4.90623,-205.073 L 4.85001,-205.5
 L 4.90623,-205.927 L 5.07106,-206.325 L 5.33328,-206.667 L 5.675,-206.929 L 6.07295,-207.094 L 6.5,-207.15
 L 6.92706,-207.094 L 7.32501,-206.929 L 7.66673,-206.667 L 7.92896,-206.325 L 8.09378,-205.927 L 8.15001,-205.5
 L 8.09378,-205.073 L 7.92896,-204.675 L 7.66673,-204.333 L 7.32501,-204.071 L 6.92706,-203.906 L 6.5,-203.85
 z
M 172.073,-203.906 L 171.675,-204.071 L 171.333,-204.333 L 171.071,-204.675 L 170.906,-205.073 L 170.85,-205.5
 L 170.906,-205.927 L 171.071,-206.325 L 171.333,-206.667 L 171.675,-206.929 L 172.073,-207.094 L 172.5,-207.15
 L 172.927,-207.094 L 173.325,-206.929 L 173.667,-206.667 L 173.929,-206.325 L 174.094,-205.927 L 174.15,-205.5
 L 174.094,-205.073 L 173.929,-204.675 L 173.667,-204.333 L 173.325,-204.071 L 172.927,-203.906 L 172.5,-203.85
 z
M 37.0729,-203.906 L 36.675,-204.071 L 36.3333,-204.333 L 36.071,-204.675 L 35.9062,-205.073 L 35.85,-205.5
 L 35.9062,-205.927 L 36.071,-206.325 L 36.3333,-206.667 L 36.675,-206.929 L 37.0729,-207.094 L 37.5,-207.15
 L 37.927,-207.094 L 38.325,-206.929 L 38.6667,-206.667 L 38.9289,-206.325 L 39.0938,-205.927 L 39.15,-205.5
 L 39.0938,-205.073 L 38.9289,-204.675 L 38.6667,-204.333 L 38.325,-204.071 L 37.927,-203.906 L 37.5,-203.85
 z
M 95.4022,-199.59 L 94.7872,-199.845 L 94.259,-200.25 L 93.8538,-200.778 L 93.5991,-201.393 L 93.5122,-202.053
 L 93.5991,-202.713 L 93.8538,-203.328 L 94.259,-203.856 L 94.7872,-204.262 L 95.4022,-204.516 L 96.0622,-204.603
 L 96.7222,-204.516 L 97.3372,-204.262 L 97.8653,-203.856 L 98.2705,-203.328 L 98.5253,-202.713 L 98.6122,-202.053
 L 98.5253,-201.393 L 98.2705,-200.778 L 97.8653,-200.25 L 97.3372,-199.845 L 96.7222,-199.59 L 96.0622,-199.503
 z
M 113.278,-199.59 L 112.663,-199.845 L 112.135,-200.25 L 111.729,-200.778 L 111.475,-201.393 L 111.388,-202.053
 L 111.475,-202.713 L 111.729,-203.328 L 112.135,-203.856 L 112.663,-204.262 L 113.278,-204.516 L 113.938,-204.603
 L 114.598,-204.516 L 115.213,-204.262 L 115.741,-203.856 L 116.146,-203.328 L 116.401,-202.713 L 116.488,-202.053
 L 116.401,-201.393 L 116.146,-200.778 L 115.741,-200.25 L 115.213,-199.845 L 114.598,-199.59 L 113.938,-199.503
 z
M 54.34,-199.537 L 53.725,-199.792 L 53.1969,-200.197 L 52.7916,-200.725 L 52.5369,-201.34 L 52.45,-202
 L 52.5369,-202.66 L 52.7916,-203.275 L 53.1969,-203.803 L 53.725,-204.208 L 54.34,-204.463 L 55,-204.55
 L 55.66,-204.463 L 56.275,-204.208 L 56.8031,-203.803 L 57.2084,-203.275 L 57.4631,-202.66 L 57.55,-202
 L 57.4631,-201.34 L 57.2084,-200.725 L 56.8031,-200.197 L 56.275,-199.792 L 55.66,-199.537 L 55,-199.45
 z
M 154.34,-199.537 L 153.725,-199.792 L 153.197,-200.197 L 152.792,-200.725 L 152.537,-201.34 L 152.45,-202
 L 152.537,-202.66 L 152.792,-203.275 L 153.197,-203.803 L 153.725,-204.208 L 154.34,-204.463 L 155,-204.55
 L 155.66,-204.463 L 156.275,-204.208 L 156.803,-203.803 L 157.208,-203.275 L 157.463,-202.66 L 157.55,-202
 L 157.463,-201.34 L 157.208,-200.725 L 156.803,-200.197 L 156.275,-199.792 L 155.66,-199.537 L 155,-199.45
 z
M 86.5324,-198.481 L 85.9174,-198.735 L 85.3893,-199.141 L 84.984,-199.669 L 84.7293,-200.284 L 84.6424,-200.944
 L 84.7293,-201.604 L 84.984,-202.219 L 85.3893,-202.747 L 85.9174,-203.152 L 86.5324,-203.407 L 87.1924,-203.494
 L 87.8524,-203.407 L 88.4674,-203.152 L 88.9955,-202.747 L 89.4007,-202.219 L 89.6555,-201.604 L 89.7424,-200.944
 L 89.6555,-200.284 L 89.4007,-199.669 L 88.9955,-199.141 L 88.4674,-198.735 L 87.8524,-198.481 L 87.1924,-198.394
 z
M 122.148,-198.481 L 121.533,-198.735 L 121.004,-199.141 L 120.599,-199.669 L 120.344,-200.284 L 120.258,-200.944
 L 120.344,-201.604 L 120.599,-202.219 L 121.004,-202.747 L 121.533,-203.152 L 122.148,-203.407 L 122.808,-203.494
 L 123.468,-203.407 L 124.083,-203.152 L 124.611,-202.747 L 125.016,-202.219 L 125.271,-201.604 L 125.358,-200.944
 L 125.271,-200.284 L 125.016,-199.669 L 124.611,-199.141 L 124.083,-198.735 L 123.468,-198.481 L 122.808,-198.394
 z
M 12.75,-159.5 L 12.75,-174.5 L 12.9791,-174.5 L 11.6285,-175.481 L 9.46025,-177.889 L 7.84006,-180.696
 L 6.83871,-183.777 L 6.5,-187 L 6.83871,-190.223 L 7.84006,-193.304 L 9.46025,-196.111 L 11.6285,-198.519
 L 14.25,-200.423 L 17.2103,-201.741 L 20.3798,-202.415 L 23.6202,-202.415 L 26.7897,-201.741 L 29.75,-200.423
 L 32.3715,-198.519 L 34.5397,-196.111 L 36.1599,-193.304 L 37.1613,-190.223 L 37.5,-187 L 37.1613,-183.777
 L 36.1599,-180.696 L 34.5397,-177.889 L 32.3715,-175.481 L 31.0209,-174.5 L 31.25,-174.5 L 31.25,-159.5
 z
M 178.75,-159.5 L 178.75,-174.5 L 178.979,-174.5 L 177.628,-175.481 L 175.46,-177.889 L 173.84,-180.696
 L 172.839,-183.777 L 172.5,-187 L 172.839,-190.223 L 173.84,-193.304 L 175.46,-196.111 L 177.628,-198.519
 L 180.25,-200.423 L 183.21,-201.741 L 186.38,-202.415 L 189.62,-202.415 L 192.79,-201.741 L 195.75,-200.423
 L 198.372,-198.519 L 200.54,-196.111 L 202.16,-193.304 L 203.161,-190.223 L 203.5,-187 L 203.161,-183.777
 L 202.16,-180.696 L 200.54,-177.889 L 198.372,-175.481 L 197.021,-174.5 L 197.25,-174.5 L 197.25,-159.5
 z
M 77.7981,-196.641 L 77.1831,-196.896 L 76.655,-197.301 L 76.2497,-197.829 L 75.995,-198.444 L 75.9081,-199.104
 L 75.995,-199.764 L 76.2497,-200.379 L 76.655,-200.907 L 77.1831,-201.313 L 77.7981,-201.567 L 78.4581,-201.654
 L 79.1181,-201.567 L 79.7331,-201.313 L 80.2612,-200.907 L 80.6665,-200.379 L 80.9212,-199.764 L 81.0081,-199.104
 L 80.9212,-198.444 L 80.6665,-197.829 L 80.2612,-197.301 L 79.7331,-196.896 L 79.1181,-196.641 L 78.4581,-196.554
 z
M 130.882,-196.641 L 130.267,-196.896 L 129.739,-197.301 L 129.334,-197.829 L 129.079,-198.444 L 128.992,-199.104
 L 129.079,-199.764 L 129.334,-200.379 L 129.739,-200.907 L 130.267,-201.313 L 130.882,-201.567 L 131.542,-201.654
 L 132.202,-201.567 L 132.817,-201.313 L 133.345,-200.907 L 133.75,-200.379 L 134.005,-199.764 L 134.092,-199.104
 L 134.005,-198.444 L 133.75,-197.829 L 133.345,-197.301 L 132.817,-196.896 L 132.202,-196.641 L 131.542,-196.554
 z
M 69.2658,-194.085 L 68.6508,-194.34 L 68.1227,-194.745 L 67.7175,-195.273 L 67.4627,-195.889 L 67.3758,-196.548
 L 67.4627,-197.208 L 67.7175,-197.823 L 68.1227,-198.352 L 68.6508,-198.757 L 69.2658,-199.012 L 69.9258,-199.098
 L 70.5858,-199.012 L 71.2008,-198.757 L 71.7289,-198.352 L 72.1342,-197.823 L 72.3889,-197.208 L 72.4758,-196.548
 L 72.3889,-195.889 L 72.1342,-195.273 L 71.7289,-194.745 L 71.2008,-194.34 L 70.5858,-194.085 L 69.9258,-193.998
 z
M 139.414,-194.085 L 138.799,-194.34 L 138.271,-194.745 L 137.866,-195.273 L 137.611,-195.889 L 137.524,-196.548
 L 137.611,-197.208 L 137.866,-197.823 L 138.271,-198.352 L 138.799,-198.757 L 139.414,-199.012 L 140.074,-199.098
 L 140.734,-199.012 L 141.349,-198.757 L 141.877,-198.352 L 142.283,-197.823 L 142.537,-197.208 L 142.624,-196.548
 L 142.537,-195.889 L 142.283,-195.273 L 141.877,-194.745 L 141.349,-194.34 L 140.734,-194.085 L 140.074,-193.998
 z
M 96.2737,-189.628 L 95.6587,-189.883 L 95.1306,-190.288 L 94.7254,-190.816 L 94.4706,-191.431 L 94.3837,-192.091
 L 94.4706,-192.751 L 94.7254,-193.366 L 95.1306,-193.894 L 95.6587,-194.3 L 96.2737,-194.554 L 96.9337,-194.641
 L 97.5937,-194.554 L 98.2087,-194.3 L 98.7368,-193.894 L 99.1421,-193.366 L 99.3968,-192.751 L 99.4837,-192.091
 L 99.3968,-191.431 L 99.1421,-190.816 L 98.7368,-190.288 L 98.2087,-189.883 L 97.5937,-189.628 L 96.9337,-189.541
 z
M 112.406,-189.628 L 111.791,-189.883 L 111.263,-190.288 L 110.858,-190.816 L 110.603,-191.431 L 110.516,-192.091
 L 110.603,-192.751 L 110.858,-193.366 L 111.263,-193.894 L 111.791,-194.3 L 112.406,-194.554 L 113.066,-194.641
 L 113.726,-194.554 L 114.341,-194.3 L 114.869,-193.894 L 115.275,-193.366 L 115.529,-192.751 L 115.616,-192.091
 L 115.529,-191.431 L 115.275,-190.816 L 114.869,-190.288 L 114.341,-189.883 L 113.726,-189.628 L 113.066,-189.541
 z
M 88.2689,-188.633 L 87.6539,-188.887 L 87.1257,-189.293 L 86.7205,-189.821 L 86.4657,-190.436 L 86.3789,-191.096
 L 86.4657,-191.756 L 86.7205,-192.371 L 87.1257,-192.899 L 87.6539,-193.304 L 88.2689,-193.559 L 88.9288,-193.646
 L 89.5888,-193.559 L 90.2039,-193.304 L 90.732,-192.899 L 91.1372,-192.371 L 91.392,-191.756 L 91.4789,-191.096
 L 91.392,-190.436 L 91.1372,-189.821 L 90.732,-189.293 L 90.2039,-188.887 L 89.5888,-188.633 L 88.9288,-188.546
 z
M 120.411,-188.633 L 119.796,-188.887 L 119.268,-189.293 L 118.863,-189.821 L 118.608,-190.436 L 118.521,-191.096
 L 118.608,-191.756 L 118.863,-192.371 L 119.268,-192.899 L 119.796,-193.304 L 120.411,-193.559 L 121.071,-193.646
 L 121.731,-193.559 L 122.346,-193.304 L 122.874,-192.899 L 123.279,-192.371 L 123.534,-191.756 L 123.621,-191.096
 L 123.534,-190.436 L 123.279,-189.821 L 122.874,-189.293 L 122.346,-188.887 L 121.731,-188.633 L 121.071,-188.546
 z
M 80.3863,-186.982 L 79.7713,-187.237 L 79.2432,-187.642 L 78.8379,-188.17 L 78.5832,-188.785 L 78.4963,-189.445
 L 78.5832,-190.105 L 78.8379,-190.72 L 79.2432,-191.248 L 79.7713,-191.653 L 80.3863,-191.908 L 81.0463,-191.995
 L 81.7063,-191.908 L 82.3213,-191.653 L 82.8494,-191.248 L 83.2547,-190.72 L 83.5094,-190.105 L 83.5963,-189.445
 L 83.5094,-188.785 L 83.2547,-188.17 L 82.8494,-187.642 L 82.3213,-187.237 L 81.7063,-186.982 L 81.0463,-186.895
 z
M 128.294,-186.982 L 127.679,-187.237 L 127.151,-187.642 L 126.745,-188.17 L 126.491,-188.785 L 126.404,-189.445
 L 126.491,-190.105 L 126.745,-190.72 L 127.151,-191.248 L 127.679,-191.653 L 128.294,-191.908 L 128.954,-191.995
 L 129.614,-191.908 L 130.229,-191.653 L 130.757,-191.248 L 131.162,-190.72 L 131.417,-190.105 L 131.504,-189.445
 L 131.417,-188.785 L 131.162,-188.17 L 130.757,-187.642 L 130.229,-187.237 L 129.614,-186.982 L 128.954,-186.895
 z
M 135.994,-184.688 L 135.379,-184.943 L 134.851,-185.348 L 134.446,-185.877 L 134.191,-186.492 L 134.104,-187.152
 L 134.191,-187.812 L 134.446,-188.427 L 134.851,-188.955 L 135.379,-189.36 L 135.994,-189.615 L 136.654,-189.702
 L 137.314,-189.615 L 137.929,-189.36 L 138.457,-188.955 L 138.862,-188.427 L 139.117,-187.812 L 139.204,-187.152
 L 139.117,-186.492 L 138.862,-185.877 L 138.457,-185.348 L 137.929,-184.943 L 137.314,-184.688 L 136.654,-184.602
 z
M 72.686,-184.688 L 72.071,-184.943 L 71.5429,-185.348 L 71.1377,-185.877 L 70.8829,-186.492 L 70.796,-187.152
 L 70.8829,-187.812 L 71.1377,-188.427 L 71.5429,-188.955 L 72.071,-189.36 L 72.686,-189.615 L 73.346,-189.702
 L 74.006,-189.615 L 74.621,-189.36 L 75.1492,-188.955 L 75.5544,-188.427 L 75.8091,-187.812 L 75.896,-187.152
 L 75.8091,-186.492 L 75.5544,-185.877 L 75.1492,-185.348 L 74.621,-184.943 L 74.006,-184.688 L 73.346,-184.602
 z
M 205.073,-185.406 L 204.675,-185.571 L 204.333,-185.833 L 204.071,-186.175 L 203.906,-186.573 L 203.85,-187
 L 203.906,-187.427 L 204.071,-187.825 L 204.333,-188.167 L 204.675,-188.429 L 205.073,-188.594 L 205.5,-188.65
 L 205.927,-188.594 L 206.325,-188.429 L 206.667,-188.167 L 206.929,-187.825 L 207.094,-187.427 L 207.15,-187
 L 207.094,-186.573 L 206.929,-186.175 L 206.667,-185.833 L 206.325,-185.571 L 205.927,-185.406 L 205.5,-185.35
 z
M 170.073,-185.406 L 169.675,-185.571 L 169.333,-185.833 L 169.071,-186.175 L 168.906,-186.573 L 168.85,-187
 L 168.906,-187.427 L 169.071,-187.825 L 169.333,-188.167 L 169.675,-188.429 L 170.073,-188.594 L 170.5,-188.65
 L 170.927,-188.594 L 171.325,-188.429 L 171.667,-188.167 L 171.929,-187.825 L 172.094,-187.427 L 172.15,-187
 L 172.094,-186.573 L 171.929,-186.175 L 171.667,-185.833 L 171.325,-185.571 L 170.927,-185.406 L 170.5,-185.35
 z
M 39.0729,-185.406 L 38.675,-185.571 L 38.3333,-185.833 L 38.071,-186.175 L 37.9062,-186.573 L 37.85,-187
 L 37.9062,-187.427 L 38.071,-187.825 L 38.3333,-188.167 L 38.675,-188.429 L 39.0729,-188.594 L 39.5,-188.65
 L 39.927,-188.594 L 40.325,-188.429 L 40.6667,-188.167 L 40.9289,-187.825 L 41.0938,-187.427 L 41.15,-187
 L 41.0938,-186.573 L 40.9289,-186.175 L 40.6667,-185.833 L 40.325,-185.571 L 39.927,-185.406 L 39.5,-185.35
 z
M 4.07295,-185.406 L 3.675,-185.571 L 3.33328,-185.833 L 3.07106,-186.175 L 2.90623,-186.573 L 2.85001,-187
 L 2.90623,-187.427 L 3.07106,-187.825 L 3.33328,-188.167 L 3.675,-188.429 L 4.07295,-188.594 L 4.5,-188.65
 L 4.92706,-188.594 L 5.32501,-188.429 L 5.66673,-188.167 L 5.92896,-187.825 L 6.09378,-187.427 L 6.15001,-187
 L 6.09378,-186.573 L 5.92896,-186.175 L 5.66673,-185.833 L 5.32501,-185.571 L 4.92706,-185.406 L 4.5,-185.35
 z
M 20,-85 L 20,-105 L 20.1677,-110.015 L 20.6703,-115.011 L 21.5056,-119.967 L 22.6704,-124.864
 L 24.1602,-129.682 L 25.969,-134.404 L 28.0897,-139.009 L 30.5139,-143.48 L 33.2321,-147.799 L 36.2336,-151.949
 L 39.5064,-155.914 L 43.0377,-159.677 L 46.8135,-163.226 L 50.819,-166.544 L 55.0383,-169.619 L 59.4547,-172.44
 L 64.0509,-174.994 L 68.8088,-177.272 L 73.7094,-179.265 L 78.7336,-180.965 L 83.8614,-182.364 L 89.0726,-183.459
 L 94.3467,-184.244 L 99.6628,-184.716 L 105,-184.874 L 110.337,-184.716 L 115.653,-184.244 L 120.927,-183.459
 L 126.139,-182.364 L 131.266,-180.965 L 136.291,-179.265 L 141.191,-177.272 L 145.949,-174.994 L 150.545,-172.44
 L 154.962,-169.619 L 159.181,-166.544 L 163.186,-163.226 L 166.962,-159.677 L 170.494,-155.914 L 173.766,-151.949
 L 176.768,-147.799 L 179.486,-143.48 L 181.91,-139.009 L 184.031,-134.404 L 185.84,-129.682 L 187.33,-124.864
 L 188.494,-119.967 L 189.33,-115.011 L 189.832,-110.015 L 190,-105 L 190,-85 L 135,-85
 L 135,-140 L 75,-140 L 75,-85 z
M 54.34,-179.537 L 53.725,-179.792 L 53.1969,-180.197 L 52.7916,-180.725 L 52.5369,-181.34 L 52.45,-182
 L 52.5369,-182.66 L 52.7916,-183.275 L 53.1969,-183.803 L 53.725,-184.208 L 54.34,-184.463 L 55,-184.55
 L 55.66,-184.463 L 56.275,-184.208 L 56.8031,-183.803 L 57.2084,-183.275 L 57.4631,-182.66 L 57.55,-182
 L 57.4631,-181.34 L 57.2084,-180.725 L 56.8031,-180.197 L 56.275,-179.792 L 55.66,-179.537 L 55,-179.45
 z
M 154.34,-179.537 L 153.725,-179.792 L 153.197,-180.197 L 152.792,-180.725 L 152.537,-181.34 L 152.45,-182
 L 152.537,-182.66 L 152.792,-183.275 L 153.197,-183.803 L 153.725,-184.208 L 154.34,-184.463 L 155,-184.55
 L 155.66,-184.463 L 156.275,-184.208 L 156.803,-183.803 L 157.208,-183.275 L 157.463,-182.66 L 157.55,-182
 L 157.463,-181.34 L 157.208,-180.725 L 156.803,-180.197 L 156.275,-179.792 L 155.66,-179.537 L 155,-179.45
 z
M 203.073,-172.906 L 202.675,-173.071 L 202.333,-173.333 L 202.071,-173.675 L 201.906,-174.073 L 201.85,-174.5
 L 201.906,-174.927 L 202.071,-175.325 L 202.333,-175.667 L 202.675,-175.929 L 203.073,-176.094 L 203.5,-176.15
 L 203.927,-176.094 L 204.325,-175.929 L 204.667,-175.667 L 204.929,-175.325 L 205.094,-174.927 L 205.15,-174.5
 L 205.094,-174.073 L 204.929,-173.675 L 204.667,-173.333 L 204.325,-173.071 L 203.927,-172.906 L 203.5,-172.85
 z
M 172.073,-172.906 L 171.675,-173.071 L 171.333,-173.333 L 171.071,-173.675 L 170.906,-174.073 L 170.85,-174.5
 L 170.906,-174.927 L 171.071,-175.325 L 171.333,-175.667 L 171.675,-175.929 L 172.073,-176.094 L 172.5,-176.15
 L 172.927,-176.094 L 173.325,-175.929 L 173.667,-175.667 L 173.929,-175.325 L 174.094,-174.927 L 174.15,-174.5
 L 174.094,-174.073 L 173.929,-173.675 L 173.667,-173.333 L 173.325,-173.071 L 172.927,-172.906 L 172.5,-172.85
 z
M 37.0729,-172.906 L 36.675,-173.071 L 36.3333,-173.333 L 36.071,-173.675 L 35.9062,-174.073 L 35.85,-174.5
 L 35.9062,-174.927 L 36.071,-175.325 L 36.3333,-175.667 L 36.675,-175.929 L 37.0729,-176.094 L 37.5,-176.15
 L 37.927,-176.094 L 38.325,-175.929 L 38.6667,-175.667 L 38.9289,-175.325 L 39.0938,-174.927 L 39.15,-174.5
 L 39.0938,-174.073 L 38.9289,-173.675 L 38.6667,-173.333 L 38.325,-173.071 L 37.927,-172.906 L 37.5,-172.85
 z
M 6.07295,-172.906 L 5.675,-173.071 L 5.33328,-173.333 L 5.07106,-173.675 L 4.90623,-174.073 L 4.85001,-174.5
 L 4.90623,-174.927 L 5.07106,-175.325 L 5.33328,-175.667 L 5.675,-175.929 L 6.07295,-176.094 L 6.5,-176.15
 L 6.92706,-176.094 L 7.32501,-175.929 L 7.66673,-175.667 L 7.92896,-175.325 L 8.09378,-174.927 L 8.15001,-174.5
 L 8.09378,-174.073 L 7.92896,-173.675 L 7.66673,-173.333 L 7.32501,-173.071 L 6.92706,-172.906 L 6.5,-172.85
 z
M 179.34,-150.537 L 178.725,-150.792 L 178.197,-151.197 L 177.792,-151.725 L 177.537,-152.34 L 177.45,-153
 L 177.537,-153.66 L 177.792,-154.275 L 178.197,-154.803 L 178.725,-155.208 L 179.34,-155.463 L 180,-155.55
 L 180.66,-155.463 L 181.275,-155.208 L 181.803,-154.803 L 182.208,-154.275 L 182.463,-153.66 L 182.55,-153
 L 182.463,-152.34 L 182.208,-151.725 L 181.803,-151.197 L 181.275,-150.792 L 180.66,-150.537 L 180,-150.45
 z
M 29.34,-150.537 L 28.725,-150.792 L 28.1969,-151.197 L 27.7916,-151.725 L 27.5369,-152.34 L 27.45,-153
 L 27.5369,-153.66 L 27.7916,-154.275 L 28.1969,-154.803 L 28.725,-155.208 L 29.34,-155.463 L 30,-155.55
 L 30.66,-155.463 L 31.275,-155.208 L 31.8031,-154.803 L 32.2084,-154.275 L 32.4631,-153.66 L 32.55,-153
 L 32.4631,-152.34 L 32.2084,-151.725 L 31.8031,-151.197 L 31.275,-150.792 L 30.66,-150.537 L 30,-150.45
 z
M 168.073,-59.2062 L 167.675,-59.371 L 167.333,-59.6333 L 167.071,-59.975 L 166.906,-60.3729 L 166.85,-60.8
 L 166.906,-61.2271 L 167.071,-61.625 L 167.333,-61.9667 L 167.675,-62.2289 L 168.073,-62.3938 L 168.5,-62.45
 L 168.927,-62.3938 L 169.325,-62.2289 L 169.667,-61.9667 L 169.929,-61.625 L 170.094,-61.2271 L 170.15,-60.8
 L 170.094,-60.3729 L 169.929,-59.975 L 169.667,-59.6333 L 169.325,-59.371 L 168.927,-59.2062 L 168.5,-59.15
 z
M 193.473,-59.2062 L 193.075,-59.371 L 192.733,-59.6333 L 192.471,-59.975 L 192.306,-60.3729 L 192.25,-60.8
 L 192.306,-61.2271 L 192.471,-61.625 L 192.733,-61.9667 L 193.075,-62.2289 L 193.473,-62.3938 L 193.9,-62.45
 L 194.327,-62.3938 L 194.725,-62.2289 L 195.067,-61.9667 L 195.329,-61.625 L 195.494,-61.2271 L 195.55,-60.8
 L 195.494,-60.3729 L 195.329,-59.975 L 195.067,-59.6333 L 194.725,-59.371 L 194.327,-59.2062 L 193.9,-59.15
 z
M 28.3729,-59.2062 L 27.975,-59.371 L 27.6333,-59.6333 L 27.371,-59.975 L 27.2062,-60.3729 L 27.15,-60.8
 L 27.2062,-61.2271 L 27.371,-61.625 L 27.6333,-61.9667 L 27.975,-62.2289 L 28.3729,-62.3938 L 28.8,-62.45
 L 29.227,-62.3938 L 29.625,-62.2289 L 29.9667,-61.9667 L 30.2289,-61.625 L 30.3938,-61.2271 L 30.45,-60.8
 L 30.3938,-60.3729 L 30.2289,-59.975 L 29.9667,-59.6333 L 29.625,-59.371 L 29.227,-59.2062 L 28.8,-59.15
 z
M 41.0729,-59.2062 L 40.675,-59.371 L 40.3333,-59.6333 L 40.071,-59.975 L 39.9062,-60.3729 L 39.85,-60.8
 L 39.9062,-61.2271 L 40.071,-61.625 L 40.3333,-61.9667 L 40.675,-62.2289 L 41.0729,-62.3938 L 41.5,-62.45
 L 41.927,-62.3938 L 42.325,-62.2289 L 42.6667,-61.9667 L 42.9289,-61.625 L 43.0938,-61.2271 L 43.15,-60.8
 L 43.0938,-60.3729 L 42.9289,-59.975 L 42.6667,-59.6333 L 42.325,-59.371 L 41.927,-59.2062 L 41.5,-59.15
 z
M 53.7729,-59.2062 L 53.375,-59.371 L 53.0333,-59.6333 L 52.771,-59.975 L 52.6062,-60.3729 L 52.55,-60.8
 L 52.6062,-61.2271 L 52.771,-61.625 L 53.0333,-61.9667 L 53.375,-62.2289 L 53.7729,-62.3938 L 54.2,-62.45
 L 54.627,-62.3938 L 55.025,-62.2289 L 55.3667,-61.9667 L 55.6289,-61.625 L 55.7938,-61.2271 L 55.85,-60.8
 L 55.7938,-60.3729 L 55.6289,-59.975 L 55.3667,-59.6333 L 55.025,-59.371 L 54.627,-59.2062 L 54.2,-59.15
 z
M 66.4729,-59.2062 L 66.075,-59.371 L 65.7333,-59.6333 L 65.471,-59.975 L 65.3062,-60.3729 L 65.25,-60.8
 L 65.3062,-61.2271 L 65.471,-61.625 L 65.7333,-61.9667 L 66.075,-62.2289 L 66.4729,-62.3938 L 66.9,-62.45
 L 67.327,-62.3938 L 67.725,-62.2289 L 68.0667,-61.9667 L 68.3289,-61.625 L 68.4938,-61.2271 L 68.55,-60.8
 L 68.4938,-60.3729 L 68.3289,-59.975 L 68.0667,-59.6333 L 67.725,-59.371 L 67.327,-59.2062 L 66.9,-59.15
 z
M 79.1729,-59.2062 L 78.775,-59.371 L 78.4333,-59.6333 L 78.171,-59.975 L 78.0062,-60.3729 L 77.95,-60.8
 L 78.0062,-61.2271 L 78.171,-61.625 L 78.4333,-61.9667 L 78.775,-62.2289 L 79.1729,-62.3938 L 79.6,-62.45
 L 80.027,-62.3938 L 80.425,-62.2289 L 80.7667,-61.9667 L 81.0289,-61.625 L 81.1938,-61.2271 L 81.25,-60.8
 L 81.1938,-60.3729 L 81.0289,-59.975 L 80.7667,-59.6333 L 80.425,-59.371 L 80.027,-59.2062 L 79.6,-59.15
 z
M 91.8729,-59.2062 L 91.475,-59.371 L 91.1333,-59.6333 L 90.871,-59.975 L 90.7062,-60.3729 L 90.65,-60.8
 L 90.7062,-61.2271 L 90.871,-61.625 L 91.1333,-61.9667 L 91.475,-62.2289 L 91.8729,-62.3938 L 92.3,-62.45
 L 92.727,-62.3938 L 93.125,-62.2289 L 93.4667,-61.9667 L 93.7289,-61.625 L 93.8938,-61.2271 L 93.95,-60.8
 L 93.8938,-60.3729 L 93.7289,-59.975 L 93.4667,-59.6333 L 93.125,-59.371 L 92.727,-59.2062 L 92.3,-59.15
 z
M 104.573,-59.2062 L 104.175,-59.371 L 103.833,-59.6333 L 103.571,-59.975 L 103.406,-60.3729 L 103.35,-60.8
 L 103.406,-61.2271 L 103.571,-61.625 L 103.833,-61.9667 L 104.175,-62.2289 L 104.573,-62.3938 L 105,-62.45
 L 105.427,-62.3938 L 105.825,-62.2289 L 106.167,-61.9667 L 106.429,-61.625 L 106.594,-61.2271 L 106.65,-60.8
 L 106.594,-60.3729 L 106.429,-59.975 L 106.167,-59.6333 L 105.825,-59.371 L 105.427,-59.2062 L 105,-59.15
 z
M 117.273,-59.2062 L 116.875,-59.371 L 116.533,-59.6333 L 116.271,-59.975 L 116.106,-60.3729 L 116.05,-60.8
 L 116.106,-61.2271 L 116.271,-61.625 L 116.533,-61.9667 L 116.875,-62.2289 L 117.273,-62.3938 L 117.7,-62.45
 L 118.127,-62.3938 L 118.525,-62.2289 L 118.867,-61.9667 L 119.129,-61.625 L 119.294,-61.2271 L 119.35,-60.8
 L 119.294,-60.3729 L 119.129,-59.975 L 118.867,-59.6333 L 118.525,-59.371 L 118.127,-59.2062 L 117.7,-59.15
 z
M 129.973,-59.2062 L 129.575,-59.371 L 129.233,-59.6333 L 128.971,-59.975 L 128.806,-60.3729 L 128.75,-60.8
 L 128.806,-61.2271 L 128.971,-61.625 L 129.233,-61.9667 L 129.575,-62.2289 L 129.973,-62.3938 L 130.4,-62.45
 L 130.827,-62.3938 L 131.225,-62.2289 L 131.567,-61.9667 L 131.829,-61.625 L 131.994,-61.2271 L 132.05,-60.8
 L 131.994,-60.3729 L 131.829,-59.975 L 131.567,-59.6333 L 131.225,-59.371 L 130.827,-59.2062 L 130.4,-59.15
 z
M 142.673,-59.2062 L 142.275,-59.371 L 141.933,-59.6333 L 141.671,-59.975 L 141.506,-60.3729 L 141.45,-60.8
 L 141.506,-61.2271 L 141.671,-61.625 L 141.933,-61.9667 L 142.275,-62.2289 L 142.673,-62.3938 L 143.1,-62.45
 L 143.527,-62.3938 L 143.925,-62.2289 L 144.267,-61.9667 L 144.529,-61.625 L 144.694,-61.2271 L 144.75,-60.8
 L 144.694,-60.3729 L 144.529,-59.975 L 144.267,-59.6333 L 143.925,-59.371 L 143.527,-59.2062 L 143.1,-59.15
 z
M 155.373,-59.2062 L 154.975,-59.371 L 154.633,-59.6333 L 154.371,-59.975 L 154.206,-60.3729 L 154.15,-60.8
 L 154.206,-61.2271 L 154.371,-61.625 L 154.633,-61.9667 L 154.975,-62.2289 L 155.373,-62.3938 L 155.8,-62.45
 L 156.227,-62.3938 L 156.625,-62.2289 L 156.967,-61.9667 L 157.229,-61.625 L 157.394,-61.2271 L 157.45,-60.8
 L 157.394,-60.3729 L 157.229,-59.975 L 156.967,-59.6333 L 156.625,-59.371 L 156.227,-59.2062 L 155.8,-59.15
 z
M 180.773,-59.2062 L 180.375,-59.371 L 180.033,-59.6333 L 179.771,-59.975 L 179.606,-60.3729 L 179.55,-60.8
 L 179.606,-61.2271 L 179.771,-61.625 L 180.033,-61.9667 L 180.375,-62.2289 L 180.773,-62.3938 L 181.2,-62.45
 L 181.627,-62.3938 L 182.025,-62.2289 L 182.367,-61.9667 L 182.629,-61.625 L 182.794,-61.2271 L 182.85,-60.8
 L 182.794,-60.3729 L 182.629,-59.975 L 182.367,-59.6333 L 182.025,-59.371 L 181.627,-59.2062 L 181.2,-59.15
 z
M 15.6729,-59.2062 L 15.275,-59.371 L 14.9333,-59.6333 L 14.6711,-59.975 L 14.5062,-60.3729 L 14.45,-60.8
 L 14.5062,-61.2271 L 14.6711,-61.625 L 14.9333,-61.9667 L 15.275,-62.2289 L 15.6729,-62.3938 L 16.1,-62.45
 L 16.527,-62.3938 L 16.925,-62.2289 L 17.2667,-61.9667 L 17.5289,-61.625 L 17.6938,-61.2271 L 17.75,-60.8
 L 17.6938,-60.3729 L 17.5289,-59.975 L 17.2667,-59.6333 L 16.925,-59.371 L 16.527,-59.2062 L 16.1,-59.15
 z
M 129.973,-46.5062 L 129.575,-46.6711 L 129.233,-46.9333 L 128.971,-47.275 L 128.806,-47.6729 L 128.75,-48.1
 L 128.806,-48.527 L 128.971,-48.925 L 129.233,-49.2667 L 129.575,-49.5289 L 129.973,-49.6938 L 130.4,-49.75
 L 130.827,-49.6938 L 131.225,-49.5289 L 131.567,-49.2667 L 131.829,-48.925 L 131.994,-48.527 L 132.05,-48.1
 L 131.994,-47.6729 L 131.829,-47.275 L 131.567,-46.9333 L 131.225,-46.6711 L 130.827,-46.5062 L 130.4,-46.45
 z
M 142.673,-46.5062 L 142.275,-46.6711 L 141.933,-46.9333 L 141.671,-47.275 L 141.506,-47.6729 L 141.45,-48.1
 L 141.506,-48.527 L 141.671,-48.925 L 141.933,-49.2667 L 142.275,-49.5289 L 142.673,-49.6938 L 143.1,-49.75
 L 143.527,-49.6938 L 143.925,-49.5289 L 144.267,-49.2667 L 144.529,-48.925 L 144.694,-48.527 L 144.75,-48.1
 L 144.694,-47.6729 L 144.529,-47.275 L 144.267,-46.9333 L 143.925,-46.6711 L 143.527,-46.5062 L 143.1,-46.45
 z
M 155.373,-46.5062 L 154.975,-46.6711 L 154.633,-46.9333 L 154.371,-47.275 L 154.206,-47.6729 L 154.15,-48.1
 L 154.206,-48.527 L 154.371,-48.925 L 154.633,-49.2667 L 154.975,-49.5289 L 155.373,-49.6938 L 155.8,-49.75
 L 156.227,-49.6938 L 156.625,-49.5289 L 156.967,-49.2667 L 157.229,-48.925 L 157.394,-48.527 L 157.45,-48.1
 L 157.394,-47.6729 L 157.229,-47.275 L 156.967,-46.9333 L 156.625,-46.6711 L 156.227,-46.5062 L 155.8,-46.45
 z
M 168.073,-46.5062 L 167.675,-46.6711 L 167.333,-46.9333 L 167.071,-47.275 L 166.906,-47.6729 L 166.85,-48.1
 L 166.906,-48.527 L 167.071,-48.925 L 167.333,-49.2667 L 167.675,-49.5289 L 168.073,-49.6938 L 168.5,-49.75
 L 168.927,-49.6938 L 169.325,-49.5289 L 169.667,-49.2667 L 169.929,-48.925 L 170.094,-48.527 L 170.15,-48.1
 L 170.094,-47.6729 L 169.929,-47.275 L 169.667,-46.9333 L 169.325,-46.6711 L 168.927,-46.5062 L 168.5,-46.45
 z
M 180.773,-46.5062 L 180.375,-46.6711 L 180.033,-46.9333 L 179.771,-47.275 L 179.606,-47.6729 L 179.55,-48.1
 L 179.606,-48.527 L 179.771,-48.925 L 180.033,-49.2667 L 180.375,-49.5289 L 180.773,-49.6938 L 181.2,-49.75
 L 181.627,-49.6938 L 182.025,-49.5289 L 182.367,-49.2667 L 182.629,-48.925 L 182.794,-48.527 L 182.85,-48.1
 L 182.794,-47.6729 L 182.629,-47.275 L 182.367,-46.9333 L 182.025,-46.6711 L 181.627,-46.5062 L 181.2,-46.45
 z
M 193.473,-46.5062 L 193.075,-46.6711 L 192.733,-46.9333 L 192.471,-47.275 L 192.306,-47.6729 L 192.25,-48.1
 L 192.306,-48.527 L 192.471,-48.925 L 192.733,-49.2667 L 193.075,-49.5289 L 193.473,-49.6938 L 193.9,-49.75
 L 194.327,-49.6938 L 194.725,-49.5289 L 195.067,-49.2667 L 195.329,-48.925 L 195.494,-48.527 L 195.55,-48.1
 L 195.494,-47.6729 L 195.329,-47.275 L 195.067,-46.9333 L 194.725,-46.6711 L 194.327,-46.5062 L 193.9,-46.45
 z
M 15.6729,-46.5062 L 15.275,-46.6711 L 14.9333,-46.9333 L 14.6711,-47.275 L 14.5062,-47.6729 L 14.45,-48.1
 L 14.5062,-48.527 L 14.6711,-48.925 L 14.9333,-49.2667 L 15.275,-49.5289 L 15.6729,-49.6938 L 16.1,-49.75
 L 16.527,-49.6938 L 16.925,-49.5289 L 17.2667,-49.2667 L 17.5289,-48.925 L 17.6938,-48.527 L 17.75,-48.1
 L 17.6938,-47.6729 L 17.5289,-47.275 L 17.2667,-46.9333 L 16.925,-46.6711 L 16.527,-46.5062 L 16.1,-46.45
 z
M 91.8729,-46.5062 L 91.475,-46.6711 L 91.1333,-46.9333 L 90.871,-47.275 L 90.7062,-47.6729 L 90.65,-48.1
 L 90.7062,-48.527 L 90.871,-48.925 L 91.1333,-49.2667 L 91.475,-49.5289 L 91.8729,-49.6938 L 92.3,-49.75
 L 92.727,-49.6938 L 93.125,-49.5289 L 93.4667,-49.2667 L 93.7289,-48.925 L 93.8938,-48.527 L 93.95,-48.1
 L 93.8938,-47.6729 L 93.7289,-47.275 L 93.4667,-46.9333 L 93.125,-46.6711 L 92.727,-46.5062 L 92.3,-46.45
 z
M 66.4729,-46.5062 L 66.075,-46.6711 L 65.7333,-46.9333 L 65.471,-47.275 L 65.3062,-47.6729 L 65.25,-48.1
 L 65.3062,-48.527 L 65.471,-48.925 L 65.7333,-49.2667 L 66.075,-49.5289 L 66.4729,-49.6938 L 66.9,-49.75
 L 67.327,-49.6938 L 67.725,-49.5289 L 68.0667,-49.2667 L 68.3289,-48.925 L 68.4938,-48.527 L 68.55,-48.1
 L 68.4938,-47.6729 L 68.3289,-47.275 L 68.0667,-46.9333 L 67.725,-46.6711 L 67.327,-46.5062 L 66.9,-46.45
 z
M 53.7729,-46.5062 L 53.375,-46.6711 L 53.0333,-46.9333 L 52.771,-47.275 L 52.6062,-47.6729 L 52.55,-48.1
 L 52.6062,-48.527 L 52.771,-48.925 L 53.0333,-49.2667 L 53.375,-49.5289 L 53.7729,-49.6938 L 54.2,-49.75
 L 54.627,-49.6938 L 55.025,-49.5289 L 55.3667,-49.2667 L 55.6289,-48.925 L 55.7938,-48.527 L 55.85,-48.1
 L 55.7938,-47.6729 L 55.6289,-47.275 L 55.3667,-46.9333 L 55.025,-46.6711 L 54.627,-46.5062 L 54.2,-46.45
 z
M 41.0729,-46.5062 L 40.675,-46.6711 L 40.3333,-46.9333 L 40.071,-47.275 L 39.9062,-47.6729 L 39.85,-48.1
 L 39.9062,-48.527 L 40.071,-48.925 L 40.3333,-49.2667 L 40.675,-49.5289 L 41.0729,-49.6938 L 41.5,-49.75
 L 41.927,-49.6938 L 42.325,-49.5289 L 42.6667,-49.2667 L 42.9289,-48.925 L 43.0938,-48.527 L 43.15,-48.1
 L 43.0938,-47.6729 L 42.9289,-47.275 L 42.6667,-46.9333 L 42.325,-46.6711 L 41.927,-46.5062 L 41.5,-46.45
 z
M 28.3729,-46.5062 L 27.975,-46.6711 L 27.6333,-46.9333 L 27.371,-47.275 L 27.2062,-47.6729 L 27.15,-48.1
 L 27.2062,-48.527 L 27.371,-48.925 L 27.6333,-49.2667 L 27.975,-49.5289 L 28.3729,-49.6938 L 28.8,-49.75
 L 29.227,-49.6938 L 29.625,-49.5289 L 29.9667,-49.2667 L 30.2289,-48.925 L 30.3938,-48.527 L 30.45,-48.1
 L 30.3938,-47.6729 L 30.2289,-47.275 L 29.9667,-46.9333 L 29.625,-46.6711 L 29.227,-46.5062 L 28.8,-46.45
 z
M 117.273,-46.5062 L 116.875,-46.6711 L 116.533,-46.9333 L 116.271,-47.275 L 116.106,-47.6729 L 116.05,-48.1
 L 116.106,-48.527 L 116.271,-48.925 L 116.533,-49.2667 L 116.875,-49.5289 L 117.273,-49.6938 L 117.7,-49.75
 L 118.127,-49.6938 L 118.525,-49.5289 L 118.867,-49.2667 L 119.129,-48.925 L 119.294,-48.527 L 119.35,-48.1
 L 119.294,-47.6729 L 119.129,-47.275 L 118.867,-46.9333 L 118.525,-46.6711 L 118.127,-46.5062 L 117.7,-46.45
 z
M 79.1729,-46.5062 L 78.775,-46.6711 L 78.4333,-46.9333 L 78.171,-47.275 L 78.0062,-47.6729 L 77.95,-48.1
 L 78.0062,-48.527 L 78.171,-48.925 L 78.4333,-49.2667 L 78.775,-49.5289 L 79.1729,-49.6938 L 79.6,-49.75
 L 80.027,-49.6938 L 80.425,-49.5289 L 80.7667,-49.2667 L 81.0289,-48.925 L 81.1938,-48.527 L 81.25,-48.1
 L 81.1938,-47.6729 L 81.0289,-47.275 L 80.7667,-46.9333 L 80.425,-46.6711 L 80.027,-46.5062 L 79.6,-46.45
 z
M 104.573,-46.5062 L 104.175,-46.6711 L 103.833,-46.9333 L 103.571,-47.275 L 103.406,-47.6729 L 103.35,-48.1
 L 103.406,-48.527 L 103.571,-48.925 L 103.833,-49.2667 L 104.175,-49.5289 L 104.573,-49.6938 L 105,-49.75
 L 105.427,-49.6938 L 105.825,-49.5289 L 106.167,-49.2667 L 106.429,-48.925 L 106.594,-48.527 L 106.65,-48.1
 L 106.594,-47.6729 L 106.429,-47.275 L 106.167,-46.9333 L 105.825,-46.6711 L 105.427,-46.5062 L 105,-46.45
 z
M 104.573,-33.8062 L 104.175,-33.9711 L 103.833,-34.2333 L 103.571,-34.575 L 103.406,-34.9729 L 103.35,-35.4
 L 103.406,-35.827 L 103.571,-36.225 L 103.833,-36.5667 L 104.175,-36.8289 L 104.573,-36.9938 L 105,-37.05
 L 105.427,-36.9938 L 105.825,-36.8289 L 106.167,-36.5667 L 106.429,-36.225 L 106.594,-35.827 L 106.65,-35.4
 L 106.594,-34.9729 L 106.429,-34.575 L 106.167,-34.2333 L 105.825,-33.9711 L 105.427,-33.8062 L 105,-33.75
 z
M 142.673,-33.8062 L 142.275,-33.9711 L 141.933,-34.2333 L 141.671,-34.575 L 141.506,-34.9729 L 141.45,-35.4
 L 141.506,-35.827 L 141.671,-36.225 L 141.933,-36.5667 L 142.275,-36.8289 L 142.673,-36.9938 L 143.1,-37.05
 L 143.527,-36.9938 L 143.925,-36.8289 L 144.267,-36.5667 L 144.529,-36.225 L 144.694,-35.827 L 144.75,-35.4
 L 144.694,-34.9729 L 144.529,-34.575 L 144.267,-34.2333 L 143.925,-33.9711 L 143.527,-33.8062 L 143.1,-33.75
 z
M 129.973,-33.8062 L 129.575,-33.9711 L 129.233,-34.2333 L 128.971,-34.575 L 128.806,-34.9729 L 128.75,-35.4
 L 128.806,-35.827 L 128.971,-36.225 L 129.233,-36.5667 L 129.575,-36.8289 L 129.973,-36.9938 L 130.4,-37.05
 L 130.827,-36.9938 L 131.225,-36.8289 L 131.567,-36.5667 L 131.829,-36.225 L 131.994,-35.827 L 132.05,-35.4
 L 131.994,-34.9729 L 131.829,-34.575 L 131.567,-34.2333 L 131.225,-33.9711 L 130.827,-33.8062 L 130.4,-33.75
 z
M 117.273,-33.8062 L 116.875,-33.9711 L 116.533,-34.2333 L 116.271,-34.575 L 116.106,-34.9729 L 116.05,-35.4
 L 116.106,-35.827 L 116.271,-36.225 L 116.533,-36.5667 L 116.875,-36.8289 L 117.273,-36.9938 L 117.7,-37.05
 L 118.127,-36.9938 L 118.525,-36.8289 L 118.867,-36.5667 L 119.129,-36.225 L 119.294,-35.827 L 119.35,-35.4
 L 119.294,-34.9729 L 119.129,-34.575 L 118.867,-34.2333 L 118.525,-33.9711 L 118.127,-33.8062 L 117.7,-33.75
 z
M 91.8729,-33.8062 L 91.475,-33.9711 L 91.1333,-34.2333 L 90.871,-34.575 L 90.7062,-34.9729 L 90.65,-35.4
 L 90.7062,-35.827 L 90.871,-36.225 L 91.1333,-36.5667 L 91.475,-36.8289 L 91.8729,-36.9938 L 92.3,-37.05
 L 92.727,-36.9938 L 93.125,-36.8289 L 93.4667,-36.5667 L 93.7289,-36.225 L 93.8938,-35.827 L 93.95,-35.4
 L 93.8938,-34.9729 L 93.7289,-34.575 L 93.4667,-34.2333 L 93.125,-33.9711 L 92.727,-33.8062 L 92.3,-33.75
 z
M 79.1729,-33.8062 L 78.775,-33.9711 L 78.4333,-34.2333 L 78.1711,-34.575 L 78.0062,-34.9729 L 77.95,-35.4
 L 78.0062,-35.827 L 78.1711,-36.225 L 78.4333,-36.5667 L 78.775,-36.8289 L 79.1729,-36.9938 L 79.6,-37.05
 L 80.027,-36.9938 L 80.425,-36.8289 L 80.7667,-36.5667 L 81.0289,-36.225 L 81.1938,-35.827 L 81.25,-35.4
 L 81.1938,-34.9729 L 81.0289,-34.575 L 80.7667,-34.2333 L 80.425,-33.9711 L 80.027,-33.8062 L 79.6,-33.75
 z
M 66.4729,-33.8062 L 66.075,-33.9711 L 65.7333,-34.2333 L 65.4711,-34.575 L 65.3062,-34.9729 L 65.25,-35.4
 L 65.3062,-35.827 L 65.4711,-36.225 L 65.7333,-36.5667 L 66.075,-36.8289 L 66.4729,-36.9938 L 66.9,-37.05
 L 67.327,-36.9938 L 67.725,-36.8289 L 68.0667,-36.5667 L 68.3289,-36.225 L 68.4938,-35.827 L 68.55,-35.4
 L 68.4938,-34.9729 L 68.3289,-34.575 L 68.0667,-34.2333 L 67.725,-33.9711 L 67.327,-33.8062 L 66.9,-33.75
 z
M 33.223,-3.09314 L 29.7467,-3.83205 L 26.5,-5.27757 L 23.6248,-7.36655 L 21.2467,-10.0077 L 19.4697,-13.0855
 L 18.3715,-16.4655 L 18,-20 L 18.3715,-23.5345 L 19.4697,-26.9145 L 21.2467,-29.9923 L 23.6248,-32.6335
 L 26.5,-34.7224 L 29.7467,-36.168 L 33.223,-36.9069 L 36.777,-36.9069 L 40.2533,-36.168 L 43.5,-34.7224
 L 46.3752,-32.6335 L 48.7533,-29.9923 L 50.5303,-26.9145 L 51.6285,-23.5345 L 52,-20 L 51.6285,-16.4655
 L 50.5303,-13.0855 L 48.7533,-10.0077 L 46.3752,-7.36655 L 43.5,-5.27757 L 40.2533,-3.83205 L 36.777,-3.09314
 z
M 173.223,-3.09314 L 169.747,-3.83205 L 166.5,-5.27757 L 163.625,-7.36655 L 161.247,-10.0077 L 159.47,-13.0855
 L 158.372,-16.4655 L 158,-20 L 158.372,-23.5345 L 159.47,-26.9145 L 161.247,-29.9923 L 163.625,-32.6335
 L 166.5,-34.7224 L 169.747,-36.168 L 173.223,-36.9069 L 176.777,-36.9069 L 180.253,-36.168 L 183.5,-34.7224
 L 186.375,-32.6335 L 188.753,-29.9923 L 190.53,-26.9145 L 191.628,-23.5345 L 192,-20 L 191.628,-16.4655
 L 190.53,-13.0855 L 188.753,-10.0077 L 186.375,-7.36655 L 183.5,-5.27757 L 180.253,-3.83205 L 176.777,-3.09314
 z
M 66.4729,-21.1062 L 66.075,-21.2711 L 65.7333,-21.5333 L 65.4711,-21.875 L 65.3062,-22.2729 L 65.25,-22.7
 L 65.3062,-23.127 L 65.4711,-23.525 L 65.7333,-23.8667 L 66.075,-24.1289 L 66.4729,-24.2938 L 66.9,-24.35
 L 67.327,-24.2938 L 67.725,-24.1289 L 68.0667,-23.8667 L 68.3289,-23.525 L 68.4938,-23.127 L 68.55,-22.7
 L 68.4938,-22.2729 L 68.3289,-21.875 L 68.0667,-21.5333 L 67.725,-21.2711 L 67.327,-21.1062 L 66.9,-21.05
 z
M 79.1729,-21.1062 L 78.775,-21.2711 L 78.4333,-21.5333 L 78.1711,-21.875 L 78.0062,-22.2729 L 77.95,-22.7
 L 78.0062,-23.127 L 78.1711,-23.525 L 78.4333,-23.8667 L 78.775,-24.1289 L 79.1729,-24.2938 L 79.6,-24.35
 L 80.027,-24.2938 L 80.425,-24.1289 L 80.7667,-23.8667 L 81.0289,-23.525 L 81.1938,-23.127 L 81.25,-22.7
 L 81.1938,-22.2729 L 81.0289,-21.875 L 80.7667,-21.5333 L 80.425,-21.2711 L 80.027,-21.1062 L 79.6,-21.05
 z
M 104.573,-21.1062 L 104.175,-21.2711 L 103.833,-21.5333 L 103.571,-21.875 L 103.406,-22.2729 L 103.35,-22.7
 L 103.406,-23.127 L 103.571,-23.525 L 103.833,-23.8667 L 104.175,-24.1289 L 104.573,-24.2938 L 105,-24.35
 L 105.427,-24.2938 L 105.825,-24.1289 L 106.167,-23.8667 L 106.429,-23.525 L 106.594,-23.127 L 106.65,-22.7
 L 106.594,-22.2729 L 106.429,-21.875 L 106.167,-21.5333 L 105.825,-21.2711 L 105.427,-21.1062 L 105,-21.05
 z
M 117.273,-21.1062 L 116.875,-21.2711 L 116.533,-21.5333 L 116.271,-21.875 L 116.106,-22.2729 L 116.05,-22.7
 L 116.106,-23.127 L 116.271,-23.525 L 116.533,-23.8667 L 116.875,-24.1289 L 117.273,-24.2938 L 117.7,-24.35
 L 118.127,-24.2938 L 118.525,-24.1289 L 118.867,-23.8667 L 119.129,-23.525 L 119.294,-23.127 L 119.35,-22.7
 L 119.294,-22.2729 L 119.129,-21.875 L 118.867,-21.5333 L 118.525,-21.2711 L 118.127,-21.1062 L 117.7,-21.05
 z
M 129.973,-21.1062 L 129.575,-21.2711 L 129.233,-21.5333 L 128.971,-21.875 L 128.806,-22.2729 L 128.75,-22.7
 L 128.806,-23.127 L 128.971,-23.525 L 129.233,-23.8667 L 129.575,-24.1289 L 129.973,-24.2938 L 130.4,-24.35
 L 130.827,-24.2938 L 131.225,-24.1289 L 131.567,-23.8667 L 131.829,-23.525 L 131.994,-23.127 L 132.05,-22.7
 L 131.994,-22.2729 L 131.829,-21.875 L 131.567,-21.5333 L 131.225,-21.2711 L 130.827,-21.1062 L 130.4,-21.05
 z
M 142.673,-21.1062 L 142.275,-21.2711 L 141.933,-21.5333 L 141.671,-21.875 L 141.506,-22.2729 L 141.45,-22.7
 L 141.506,-23.127 L 141.671,-23.525 L 141.933,-23.8667 L 142.275,-24.1289 L 142.673,-24.2938 L 143.1,-24.35
 L 143.527,-24.2938 L 143.925,-24.1289 L 144.267,-23.8667 L 144.529,-23.525 L 144.694,-23.127 L 144.75,-22.7
 L 144.694,-22.2729 L 144.529,-21.875 L 144.267,-21.5333 L 143.925,-21.2711 L 143.527,-21.1062 L 143.1,-21.05
 z
M 91.8729,-21.1062 L 91.475,-21.2711 L 91.1333,-21.5333 L 90.871,-21.875 L 90.7062,-22.2729 L 90.65,-22.7
 L 90.7062,-23.127 L 90.871,-23.525 L 91.1333,-23.8667 L 91.475,-24.1289 L 91.8729,-24.2938 L 92.3,-24.35
 L 92.727,-24.2938 L 93.125,-24.1289 L 93.4667,-23.8667 L 93.7289,-23.525 L 93.8938,-23.127 L 93.95,-22.7
 L 93.8938,-22.2729 L 93.7289,-21.875 L 93.4667,-21.5333 L 93.125,-21.2711 L 92.727,-21.1062 L 92.3,-21.05
 z
M 15.5229,-18.4062 L 15.125,-18.5711 L 14.7833,-18.8333 L 14.5211,-19.175 L 14.3562,-19.573 L 14.3,-20
 L 14.3562,-20.427 L 14.5211,-20.825 L 14.7833,-21.1667 L 15.125,-21.4289 L 15.5229,-21.5938 L 15.95,-21.65
 L 16.3771,-21.5938 L 16.775,-21.4289 L 17.1167,-21.1667 L 17.379,-20.825 L 17.5438,-20.427 L 17.6,-20
 L 17.5438,-19.573 L 17.379,-19.175 L 17.1167,-18.8333 L 16.775,-18.5711 L 16.3771,-18.4062 L 15.95,-18.35
 z
M 53.6229,-18.4062 L 53.225,-18.5711 L 52.8833,-18.8333 L 52.621,-19.175 L 52.4562,-19.573 L 52.4,-20
 L 52.4562,-20.427 L 52.621,-20.825 L 52.8833,-21.1667 L 53.225,-21.4289 L 53.6229,-21.5938 L 54.05,-21.65
 L 54.4771,-21.5938 L 54.875,-21.4289 L 55.2167,-21.1667 L 55.4789,-20.825 L 55.6438,-20.427 L 55.7,-20
 L 55.6438,-19.573 L 55.4789,-19.175 L 55.2167,-18.8333 L 54.875,-18.5711 L 54.4771,-18.4062 L 54.05,-18.35
 z
M 155.523,-18.4062 L 155.125,-18.5711 L 154.783,-18.8333 L 154.521,-19.175 L 154.356,-19.573 L 154.3,-20
 L 154.356,-20.427 L 154.521,-20.825 L 154.783,-21.1667 L 155.125,-21.4289 L 155.523,-21.5938 L 155.95,-21.65
 L 156.377,-21.5938 L 156.775,-21.4289 L 157.117,-21.1667 L 157.379,-20.825 L 157.544,-20.427 L 157.6,-20
 L 157.544,-19.573 L 157.379,-19.175 L 157.117,-18.8333 L 156.775,-18.5711 L 156.377,-18.4062 L 155.95,-18.35
 z
M 193.623,-18.4062 L 193.225,-18.5711 L 192.883,-18.8333 L 192.621,-19.175 L 192.456,-19.573 L 192.4,-20
 L 192.456,-20.427 L 192.621,-20.825 L 192.883,-21.1667 L 193.225,-21.4289 L 193.623,-21.5938 L 194.05,-21.65
 L 194.477,-21.5938 L 194.875,-21.4289 L 195.217,-21.1667 L 195.479,-20.825 L 195.644,-20.427 L 195.7,-20
 L 195.644,-19.573 L 195.479,-19.175 L 195.217,-18.8333 L 194.875,-18.5711 L 194.477,-18.4062 L 194.05,-18.35
 z
M 66.4729,-8.40623 L 66.075,-8.57106 L 65.7333,-8.83328 L 65.4711,-9.175 L 65.3062,-9.57295 L 65.25,-10
 L 65.3062,-10.427 L 65.4711,-10.825 L 65.7333,-11.1667 L 66.075,-11.4289 L 66.4729,-11.5938 L 66.9,-11.65
 L 67.327,-11.5938 L 67.725,-11.4289 L 68.0667,-11.1667 L 68.3289,-10.825 L 68.4938,-10.427 L 68.55,-10
 L 68.4938,-9.57295 L 68.3289,-9.175 L 68.0667,-8.83328 L 67.725,-8.57106 L 67.327,-8.40623 L 66.9,-8.35001
 z
M 142.673,-8.40623 L 142.275,-8.57106 L 141.933,-8.83328 L 141.671,-9.175 L 141.506,-9.57295 L 141.45,-10
 L 141.506,-10.427 L 141.671,-10.825 L 141.933,-11.1667 L 142.275,-11.4289 L 142.673,-11.5938 L 143.1,-11.65
 L 143.527,-11.5938 L 143.925,-11.4289 L 144.267,-11.1667 L 144.529,-10.825 L 144.694,-10.427 L 144.75,-10
 L 144.694,-9.57295 L 144.529,-9.175 L 144.267,-8.83328 L 143.925,-8.57106 L 143.527,-8.40623 L 143.1,-8.35001
 z
M 129.973,-8.40623 L 129.575,-8.57106 L 129.233,-8.83328 L 128.971,-9.175 L 128.806,-9.57295 L 128.75,-10
 L 128.806,-10.427 L 128.971,-10.825 L 129.233,-11.1667 L 129.575,-11.4289 L 129.973,-11.5938 L 130.4,-11.65
 L 130.827,-11.5938 L 131.225,-11.4289 L 131.567,-11.1667 L 131.829,-10.825 L 131.994,-10.427 L 132.05,-10
 L 131.994,-9.57295 L 131.829,-9.175 L 131.567,-8.83328 L 131.225,-8.57106 L 130.827,-8.40623 L 130.4,-8.35001
 z
M 79.1729,-8.40623 L 78.775,-8.57106 L 78.4333,-8.83328 L 78.1711,-9.175 L 78.0062,-9.57295 L 77.95,-10
 L 78.0062,-10.427 L 78.1711,-10.825 L 78.4333,-11.1667 L 78.775,-11.4289 L 79.1729,-11.5938 L 79.6,-11.65
 L 80.027,-11.5938 L 80.425,-11.4289 L 80.7667,-11.1667 L 81.0289,-10.825 L 81.1938,-10.427 L 81.25,-10
 L 81.1938,-9.57295 L 81.0289,-9.175 L 80.7667,-8.83328 L 80.425,-8.57106 L 80.027,-8.40623 L 79.6,-8.35001
 z
M 117.273,-8.40623 L 116.875,-8.57106 L 116.533,-8.83328 L 116.271,-9.175 L 116.106,-9.57295 L 116.05,-10
 L 116.106,-10.427 L 116.271,-10.825 L 116.533,-11.1667 L 116.875,-11.4289 L 117.273,-11.5938 L 117.7,-11.65
 L 118.127,-11.5938 L 118.525,-11.4289 L 118.867,-11.1667 L 119.129,-10.825 L 119.294,-10.427 L 119.35,-10
 L 119.294,-9.57295 L 119.129,-9.175 L 118.867,-8.83328 L 118.525,-8.57106 L 118.127,-8.40623 L 117.7,-8.35001
 z
M 104.573,-8.40623 L 104.175,-8.57106 L 103.833,-8.83328 L 103.571,-9.175 L 103.406,-9.57295 L 103.35,-10
 L 103.406,-10.427 L 103.571,-10.825 L 103.833,-11.1667 L 104.175,-11.4289 L 104.573,-11.5938 L 105,-11.65
 L 105.427,-11.5938 L 105.825,-11.4289 L 106.167,-11.1667 L 106.429,-10.825 L 106.594,-10.427 L 106.65,-10
 L 106.594,-9.57295 L 106.429,-9.175 L 106.167,-8.83328 L 105.825,-8.57106 L 105.427,-8.40623 L 105,-8.35001
 z
M 91.8729,-8.40623 L 91.475,-8.57106 L 91.1333,-8.83328 L 90.871,-9.175 L 90.7062,-9.57295 L 90.65,-10
 L 90.7062,-10.427 L 90.871,-10.825 L 91.1333,-11.1667 L 91.475,-11.4289 L 91.8729,-11.5938 L 92.3,-11.65
 L 92.727,-11.5938 L 93.125,-11.4289 L 93.4667,-11.1667 L 93.7289,-10.825 L 93.8938,-10.427 L 93.95,-10
 L 93.8938,-9.57295 L 93.7289,-9.175 L 93.4667,-8.83328 L 93.125,-8.57106 L 92.727,-8.40623 L 92.3,-8.35001
 z
M 66.4729,4.29378 L 66.075,4.12894 L 65.7333,3.86673 L 65.4711,3.52499 L 65.3062,3.12706 L 65.25,2.7
 L 65.3062,2.27295 L 65.4711,1.875 L 65.7333,1.53328 L 66.075,1.27106 L 66.4729,1.10622 L 66.9,1.05
 L 67.327,1.10622 L 67.725,1.27106 L 68.0667,1.53328 L 68.3289,1.875 L 68.4938,2.27295 L 68.55,2.7
 L 68.4938,3.12706 L 68.3289,3.52501 L 68.0667,3.86673 L 67.725,4.12894 L 67.327,4.29378 L 66.9,4.35001
 z
M 79.1729,4.29378 L 78.775,4.12894 L 78.4333,3.86673 L 78.1711,3.52499 L 78.0062,3.12706 L 77.95,2.7
 L 78.0062,2.27295 L 78.1711,1.875 L 78.4333,1.53328 L 78.775,1.27106 L 79.1729,1.10622 L 79.6,1.05
 L 80.027,1.10622 L 80.425,1.27106 L 80.7667,1.53328 L 81.0289,1.875 L 81.1938,2.27295 L 81.25,2.7
 L 81.1938,3.12706 L 81.0289,3.52501 L 80.7667,3.86673 L 80.425,4.12894 L 80.027,4.29378 L 79.6,4.35001
 z
M 91.8729,4.29378 L 91.475,4.12894 L 91.1333,3.86673 L 90.871,3.52499 L 90.7062,3.12706 L 90.65,2.7
 L 90.7062,2.27295 L 90.871,1.875 L 91.1333,1.53328 L 91.475,1.27106 L 91.8729,1.10622 L 92.3,1.05
 L 92.727,1.10622 L 93.125,1.27106 L 93.4667,1.53328 L 93.7289,1.875 L 93.8938,2.27295 L 93.95,2.7
 L 93.8938,3.12706 L 93.7289,3.52501 L 93.4667,3.86673 L 93.125,4.12894 L 92.727,4.29378 L 92.3,4.35001
 z
M 117.273,4.29378 L 116.875,4.12894 L 116.533,3.86673 L 116.271,3.52499 L 116.106,3.12706 L 116.05,2.7
 L 116.106,2.27295 L 116.271,1.875 L 116.533,1.53328 L 116.875,1.27106 L 117.273,1.10622 L 117.7,1.05
 L 118.127,1.10622 L 118.525,1.27106 L 118.867,1.53328 L 119.129,1.875 L 119.294,2.27295 L 119.35,2.7
 L 119.294,3.12706 L 119.129,3.52501 L 118.867,3.86673 L 118.525,4.12894 L 118.127,4.29378 L 117.7,4.35001
 z
M 129.973,4.29378 L 129.575,4.12894 L 129.233,3.86673 L 128.971,3.52499 L 128.806,3.12706 L 128.75,2.7
 L 128.806,2.27295 L 128.971,1.875 L 129.233,1.53328 L 129.575,1.27106 L 129.973,1.10622 L 130.4,1.05
 L 130.827,1.10622 L 131.225,1.27106 L 131.567,1.53328 L 131.829,1.875 L 131.994,2.27295 L 132.05,2.7
 L 131.994,3.12706 L 131.829,3.52501 L 131.567,3.86673 L 131.225,4.12894 L 130.827,4.29378 L 130.4,4.35001
 z
M 142.673,4.29378 L 142.275,4.12894 L 141.933,3.86673 L 141.671,3.52499 L 141.506,3.12706 L 141.45,2.7
 L 141.506,2.27295 L 141.671,1.875 L 141.933,1.53328 L 142.275,1.27106 L 142.673,1.10622 L 143.1,1.05
 L 143.527,1.10622 L 143.925,1.27106 L 144.267,1.53328 L 144.529,1.875 L 144.694,2.27295 L 144.75,2.7
 L 144.694,3.12706 L 144.529,3.52501 L 144.267,3.86673 L 143.925,4.12894 L 143.527,4.29378 L 143.1,4.35001
 z
M 104.573,4.29378 L 104.175,4.12894 L 103.833,3.86673 L 103.571,3.52499 L 103.406,3.12706 L 103.35,2.7
 L 103.406,2.27295 L 103.571,1.875 L 103.833,1.53328 L 104.175,1.27106 L 104.573,1.10622 L 105,1.05
 L 105.427,1.10622 L 105.825,1.27106 L 106.167,1.53328 L 106.429,1.875 L 106.594,2.27295 L 106.65,2.7
 L 106.594,3.12706 L 106.429,3.52501 L 106.167,3.86673 L 105.825,4.12894 L 105.427,4.29378 L 105,4.35001
 z
M 33.223,41.9069 L 29.7467,41.168 L 26.5,39.7224 L 23.6248,37.6335 L 21.2467,34.9923 L 19.4697,31.9145
 L 18.3715,28.5345 L 18,25 L 18.3715,21.4655 L 19.4697,18.0855 L 21.2467,15.0077 L 23.6248,12.3665
 L 26.5,10.2776 L 29.7467,8.83205 L 33.223,8.09314 L 36.777,8.09314 L 40.2533,8.83205 L 43.5,10.2776
 L 46.3752,12.3665 L 48.7533,15.0077 L 50.5303,18.0855 L 51.6285,21.4655 L 52,25 L 51.6285,28.5345
 L 50.5303,31.9145 L 48.7533,34.9923 L 46.3752,37.6335 L 43.5,39.7224 L 40.2533,41.168 L 36.777,41.9069
 z
M 173.223,41.9069 L 169.747,41.168 L 166.5,39.7224 L 163.625,37.6335 L 161.247,34.9923 L 159.47,31.9145
 L 158.372,28.5345 L 158,25 L 158.372,21.4655 L 159.47,18.0855 L 161.247,15.0077 L 163.625,12.3665
 L 166.5,10.2776 L 169.747,8.83205 L 173.223,8.09314 L 176.777,8.09314 L 180.253,8.83205 L 183.5,10.2776
 L 186.375,12.3665 L 188.753,15.0077 L 190.53,18.0855 L 191.628,21.4655 L 192,25 L 191.628,28.5345
 L 190.53,31.9145 L 188.753,34.9923 L 186.375,37.6335 L 183.5,39.7224 L 180.253,41.168 L 176.777,41.9069
 z
M 66.4729,16.9938 L 66.075,16.8289 L 65.7333,16.5667 L 65.4711,16.225 L 65.3062,15.827 L 65.25,15.4
 L 65.3062,14.9729 L 65.4711,14.575 L 65.7333,14.2333 L 66.075,13.9711 L 66.4729,13.8062 L 66.9,13.75
 L 67.327,13.8062 L 67.725,13.9711 L 68.0667,14.2333 L 68.3289,14.575 L 68.4938,14.9729 L 68.55,15.4
 L 68.4938,15.827 L 68.3289,16.225 L 68.0667,16.5667 L 67.725,16.8289 L 67.327,16.9938 L 66.9,17.05
 z
M 142.673,16.9938 L 142.275,16.8289 L 141.933,16.5667 L 141.671,16.225 L 141.506,15.827 L 141.45,15.4
 L 141.506,14.9729 L 141.671,14.575 L 141.933,14.2333 L 142.275,13.9711 L 142.673,13.8062 L 143.1,13.75
 L 143.527,13.8062 L 143.925,13.9711 L 144.267,14.2333 L 144.529,14.575 L 144.694,14.9729 L 144.75,15.4
 L 144.694,15.827 L 144.529,16.225 L 144.267,16.5667 L 143.925,16.8289 L 143.527,16.9938 L 143.1,17.05
 z
M 129.973,16.9938 L 129.575,16.8289 L 129.233,16.5667 L 128.971,16.225 L 128.806,15.827 L 128.75,15.4
 L 128.806,14.9729 L 128.971,14.575 L 129.233,14.2333 L 129.575,13.9711 L 129.973,13.8062 L 130.4,13.75
 L 130.827,13.8062 L 131.225,13.9711 L 131.567,14.2333 L 131.829,14.575 L 131.994,14.9729 L 132.05,15.4
 L 131.994,15.827 L 131.829,16.225 L 131.567,16.5667 L 131.225,16.8289 L 130.827,16.9938 L 130.4,17.05
 z
M 104.573,16.9938 L 104.175,16.8289 L 103.833,16.5667 L 103.571,16.225 L 103.406,15.827 L 103.35,15.4
 L 103.406,14.9729 L 103.571,14.575 L 103.833,14.2333 L 104.175,13.9711 L 104.573,13.8062 L 105,13.75
 L 105.427,13.8062 L 105.825,13.9711 L 106.167,14.2333 L 106.429,14.575 L 106.594,14.9729 L 106.65,15.4
 L 106.594,15.827 L 106.429,16.225 L 106.167,16.5667 L 105.825,16.8289 L 105.427,16.9938 L 105,17.05
 z
M 91.8729,16.9938 L 91.475,16.8289 L 91.1333,16.5667 L 90.871,16.225 L 90.7062,15.827 L 90.65,15.4
 L 90.7062,14.9729 L 90.871,14.575 L 91.1333,14.2333 L 91.475,13.9711 L 91.8729,13.8062 L 92.3,13.75
 L 92.727,13.8062 L 93.125,13.9711 L 93.4667,14.2333 L 93.7289,14.575 L 93.8938,14.9729 L 93.95,15.4
 L 93.8938,15.827 L 93.7289,16.225 L 93.4667,16.5667 L 93.125,16.8289 L 92.727,16.9938 L 92.3,17.05
 z
M 79.1729,16.9938 L 78.775,16.8289 L 78.4333,16.5667 L 78.1711,16.225 L 78.0062,15.827 L 77.95,15.4
 L 78.0062,14.9729 L 78.1711,14.575 L 78.4333,14.2333 L 78.775,13.9711 L 79.1729,13.8062 L 79.6,13.75
 L 80.027,13.8062 L 80.425,13.9711 L 80.7667,14.2333 L 81.0289,14.575 L 81.1938,14.9729 L 81.25,15.4
 L 81.1938,15.827 L 81.0289,16.225 L 80.7667,16.5667 L 80.425,16.8289 L 80.027,16.9938 L 79.6,17.05
 z
M 117.273,16.9938 L 116.875,16.8289 L 116.533,16.5667 L 116.271,16.225 L 116.106,15.827 L 116.05,15.4
 L 116.106,14.9729 L 116.271,14.575 L 116.533,14.2333 L 116.875,13.9711 L 117.273,13.8062 L 117.7,13.75
 L 118.127,13.8062 L 118.525,13.9711 L 118.867,14.2333 L 119.129,14.575 L 119.294,14.9729 L 119.35,15.4
 L 119.294,15.827 L 119.129,16.225 L 118.867,16.5667 L 118.525,16.8289 L 118.127,16.9938 L 117.7,17.05
 z
M 193.623,26.5938 L 193.225,26.4289 L 192.883,26.1667 L 192.621,25.825 L 192.456,25.427 L 192.4,25
 L 192.456,24.573 L 192.621,24.175 L 192.883,23.8333 L 193.225,23.5711 L 193.623,23.4062 L 194.05,23.35
 L 194.477,23.4062 L 194.875,23.5711 L 195.217,23.8333 L 195.479,24.175 L 195.644,24.573 L 195.7,25
 L 195.644,25.427 L 195.479,25.825 L 195.217,26.1667 L 194.875,26.4289 L 194.477,26.5938 L 194.05,26.65
 z
M 15.5229,26.5938 L 15.125,26.4289 L 14.7833,26.1667 L 14.5211,25.825 L 14.3562,25.427 L 14.3,25
 L 14.3562,24.573 L 14.5211,24.175 L 14.7833,23.8333 L 15.125,23.5711 L 15.5229,23.4062 L 15.95,23.35
 L 16.3771,23.4062 L 16.775,23.5711 L 17.1167,23.8333 L 17.379,24.175 L 17.5438,24.573 L 17.6,25
 L 17.5438,25.427 L 17.379,25.825 L 17.1167,26.1667 L 16.775,26.4289 L 16.3771,26.5938 L 15.95,26.65
 z
M 53.6229,26.5938 L 53.225,26.4289 L 52.8833,26.1667 L 52.621,25.825 L 52.4562,25.427 L 52.4,25
 L 52.4562,24.573 L 52.621,24.175 L 52.8833,23.8333 L 53.225,23.5711 L 53.6229,23.4062 L 54.05,23.35
 L 54.4771,23.4062 L 54.875,23.5711 L 55.2167,23.8333 L 55.4789,24.175 L 55.6438,24.573 L 55.7,25
 L 55.6438,25.427 L 55.4789,25.825 L 55.2167,26.1667 L 54.875,26.4289 L 54.4771,26.5938 L 54.05,26.65
 z
M 155.523,26.5938 L 155.125,26.4289 L 154.783,26.1667 L 154.521,25.825 L 154.356,25.427 L 154.3,25
 L 154.356,24.573 L 154.521,24.175 L 154.783,23.8333 L 155.125,23.5711 L 155.523,23.4062 L 155.95,23.35
 L 156.377,23.4062 L 156.775,23.5711 L 157.117,23.8333 L 157.379,24.175 L 157.544,24.573 L 157.6,25
 L 157.544,25.427 L 157.379,25.825 L 157.117,26.1667 L 156.775,26.4289 L 156.377,26.5938 L 155.95,26.65
 z
M 118.049,45.7005 L 117.928,45.6899 L 117.811,45.6584 L 117.7,45.607 L 117.601,45.5373 L 117.513,45.4491
 L 117.443,45.3495 L 117.392,45.2393 L 117.36,45.1219 L 117.349,45.0008 L 117.349,30.2006 L 110.299,30.2005
 L 110.178,30.1899 L 110.061,30.1584 L 109.95,30.107 L 109.851,30.0373 L 109.763,29.9491 L 109.693,29.8495
 L 109.642,29.7393 L 109.61,29.6219 L 109.6,29.5008 L 109.61,29.3797 L 109.642,29.2622 L 110.34,26.9342
 L 110.391,26.8241 L 110.461,26.7245 L 110.547,26.6385 L 110.647,26.5688 L 110.757,26.5174 L 110.876,26.485
 L 110.997,26.4744 L 121.847,26.4744 L 121.969,26.485 L 122.086,26.5165 L 122.198,26.5688 L 122.298,26.6385
 L 122.384,26.7245 L 122.454,26.8241 L 122.505,26.9342 L 123.203,29.2592 L 123.235,29.3797 L 123.245,29.5008
 L 123.235,29.6219 L 123.203,29.7393 L 123.152,29.8495 L 123.082,29.9491 L 122.994,30.0373 L 122.895,30.107
 L 122.784,30.1584 L 122.667,30.1899 L 122.546,30.2005 L 120.146,30.2006 L 120.146,45 L 120.135,45.1211
 L 120.104,45.2385 L 120.051,45.3509 L 119.981,45.4505 L 119.896,45.5365 L 119.796,45.6062 L 119.686,45.6576
 L 119.565,45.6899 L 119.444,45.7005 z
M 122.7,45.7006 L 122.579,45.69 L 122.461,45.6585 L 122.349,45.6062 L 122.249,45.5365 L 122.163,45.4505
 L 122.094,45.3509 L 122.042,45.2407 L 122.01,45.1211 L 121.999,45 L 122.01,44.8789 L 122.041,44.7614
 L 127.389,26.9356 L 127.44,26.8254 L 127.51,26.7258 L 127.598,26.6377 L 127.698,26.5679 L 127.808,26.5166
 L 127.926,26.4851 L 128.047,26.4745 L 132.697,26.4744 L 132.819,26.485 L 132.936,26.5165 L 133.048,26.5688
 L 133.148,26.6385 L 133.234,26.7245 L 133.304,26.8241 L 133.355,26.9342 L 134.053,29.2592 L 134.085,29.3797
 L 134.095,29.5008 L 134.085,29.6219 L 134.053,29.7393 L 134.002,29.8495 L 133.932,29.9491 L 133.844,30.0373
 L 133.745,30.107 L 133.634,30.1584 L 133.517,30.1899 L 133.396,30.2005 L 129.265,30.2006 L 128.058,34.2244
 L 130.372,34.2244 L 130.494,34.235 L 130.611,34.2665 L 130.723,34.3188 L 130.823,34.3885 L 130.909,34.4745
 L 130.979,34.5741 L 131.03,34.6842 L 131.728,37.0092 L 131.76,37.1297 L 131.77,37.2508 L 131.76,37.3719
 L 131.728,37.4893 L 131.677,37.5995 L 131.607,37.6991 L 131.519,37.7873 L 131.42,37.857 L 131.309,37.9084
 L 131.192,37.9399 L 131.071,37.9505 L 126.94,37.9506 L 125.733,41.9744 L 128.048,41.9745 L 128.169,41.9851
 L 128.287,42.0166 L 128.397,42.0679 L 128.497,42.1377 L 128.585,42.2258 L 128.655,42.3254 L 128.706,42.4356
 L 129.403,44.7606 L 129.435,44.8781 L 129.445,44.9992 L 129.435,45.1203 L 129.403,45.2407 L 129.351,45.3509
 L 129.281,45.4505 L 129.196,45.5365 L 129.096,45.6062 L 128.986,45.6576 L 128.866,45.69 L 128.745,45.7006
 z
M 74.6508,45.7005 L 74.5297,45.6899 L 74.4092,45.6576 L 74.299,45.6062 L 74.1995,45.5365 L 74.1135,45.4505
 L 74.0437,45.3509 L 73.9924,45.2407 L 69.3416,29.7393 L 69.3101,29.6219 L 69.2995,29.5008 L 69.3101,29.3781
 L 69.3416,29.2606 L 70.0391,26.9356 L 70.0904,26.8254 L 70.1602,26.7258 L 70.2484,26.6377 L 70.3479,26.5679
 L 70.4581,26.5166 L 70.5756,26.4851 L 70.6967,26.4745 L 70.8178,26.4851 L 70.9382,26.5174 L 71.0484,26.5688
 L 71.148,26.6385 L 71.234,26.7245 L 71.3037,26.8241 L 71.3551,26.9342 L 75.5107,40.7849 L 77.8407,36.1247
 L 77.9105,36.0251 L 77.9965,35.9391 L 78.0979,35.868 L 78.2081,35.8166 L 78.3256,35.7851 L 78.4467,35.7745
 L 78.5678,35.7851 L 78.6882,35.8174 L 78.7984,35.8688 L 78.898,35.9385 L 78.984,36.0245 L 79.0537,36.1241
 L 81.3843,40.7849 L 85.539,26.9356 L 85.5904,26.8254 L 85.6602,26.7258 L 85.7483,26.6377 L 85.8479,26.5679
 L 85.9581,26.5166 L 86.0756,26.4851 L 86.1967,26.4745 L 86.3178,26.4851 L 86.4382,26.5174 L 86.5484,26.5688
 L 86.648,26.6385 L 86.734,26.7245 L 86.8037,26.8241 L 86.8551,26.9342 L 87.5535,29.2614 L 87.585,29.3789
 L 87.5956,29.5 L 87.585,29.6211 L 87.5535,29.7385 L 82.9034,45.2393 L 82.852,45.3495 L 82.7815,45.4505
 L 82.6955,45.5365 L 82.5959,45.6062 L 82.4857,45.6576 L 82.3653,45.6899 L 82.2442,45.7005 L 80.8492,45.7005
 L 80.7281,45.6899 L 80.6106,45.6584 L 80.5004,45.607 L 80.3995,45.5365 L 80.3135,45.4505 L 80.2437,45.3509
 L 78.4475,41.7587 L 76.6517,45.3503 L 76.582,45.4499 L 76.496,45.5359 L 76.3945,45.607 L 76.2843,45.6584
 L 76.1669,45.6899 L 76.0458,45.7005 z
M 132.001,45.7005 L 131.88,45.6899 L 131.759,45.6576 L 131.649,45.6062 L 131.549,45.5365 L 131.463,45.4505
 L 131.394,45.3509 L 131.342,45.2407 L 131.31,45.1211 L 131.299,45 L 131.31,44.8789 L 131.341,44.7614
 L 136.689,26.9356 L 136.74,26.8254 L 136.81,26.7258 L 136.898,26.6377 L 136.998,26.5679 L 137.108,26.5166
 L 137.226,26.4851 L 137.347,26.4745 L 137.468,26.4851 L 137.588,26.5174 L 137.698,26.5688 L 137.798,26.6385
 L 137.884,26.7245 L 137.954,26.8241 L 138.005,26.9342 L 141.493,38.5606 L 141.525,38.6781 L 141.535,38.7992
 L 141.525,38.9203 L 141.493,39.0407 L 141.441,39.1509 L 141.371,39.2505 L 141.286,39.3365 L 141.186,39.4062
 L 141.076,39.4576 L 140.956,39.49 L 140.835,39.5006 L 139.283,39.5006 L 142.448,42.1385 L 142.534,42.2245
 L 142.604,42.3241 L 142.656,42.4356 L 143.353,44.7606 L 143.385,44.8781 L 143.395,44.9992 L 143.385,45.1203
 L 143.353,45.2407 L 143.301,45.3509 L 143.231,45.4505 L 143.146,45.5365 L 143.046,45.6062 L 142.936,45.6576
 L 142.815,45.6899 L 142.694,45.7005 L 141.299,45.7005 L 141.178,45.6899 L 141.061,45.6584 L 140.95,45.607
 L 140.851,45.5373 L 135.341,40.9463 L 134.053,45.2393 L 134.002,45.3495 L 133.932,45.4491 L 133.844,45.5373
 L 133.745,45.607 L 133.634,45.6584 L 133.517,45.6899 L 133.396,45.7005 z
M 108.75,45.7006 L 108.629,45.69 L 108.511,45.6585 L 108.399,45.6062 L 108.299,45.5365 L 108.213,45.4505
 L 108.144,45.3509 L 108.092,45.2407 L 103.442,29.7393 L 103.41,29.6219 L 103.4,29.5008 L 103.41,29.3781
 L 103.442,29.2606 L 104.139,26.9356 L 104.19,26.8254 L 104.26,26.7258 L 104.348,26.6377 L 104.448,26.5679
 L 104.558,26.5166 L 104.676,26.4851 L 104.797,26.4745 L 104.918,26.4851 L 105.038,26.5174 L 105.148,26.5688
 L 105.248,26.6385 L 105.334,26.7245 L 105.404,26.8241 L 105.455,26.9342 L 109.968,41.9744 L 114.098,41.9745
 L 114.219,41.9851 L 114.337,42.0166 L 114.447,42.0679 L 114.547,42.1377 L 114.635,42.2258 L 114.705,42.3254
 L 114.756,42.4356 L 115.453,44.7606 L 115.485,44.8781 L 115.495,44.9992 L 115.485,45.1203 L 115.453,45.2407
 L 115.401,45.3509 L 115.331,45.4505 L 115.246,45.5365 L 115.146,45.6062 L 115.036,45.6576 L 114.916,45.69
 L 114.795,45.7006 z
M 99.45,45.7006 L 99.3289,45.69 L 99.2114,45.6585 L 99.099,45.6062 L 98.9995,45.5365 L 98.9135,45.4505
 L 98.8438,45.3509 L 98.7924,45.2407 L 94.1416,29.7393 L 94.1101,29.6219 L 94.0995,29.5008 L 94.1101,29.3781
 L 94.1416,29.2606 L 94.8391,26.9356 L 94.8904,26.8254 L 94.9602,26.7258 L 95.0484,26.6377 L 95.1479,26.5679
 L 95.2581,26.5166 L 95.3756,26.4851 L 95.4967,26.4745 L 95.6178,26.4851 L 95.7382,26.5174 L 95.8484,26.5688
 L 95.948,26.6385 L 96.034,26.7245 L 96.1037,26.8241 L 96.1551,26.9342 L 100.668,41.9744 L 104.798,41.9745
 L 104.919,41.9851 L 105.037,42.0166 L 105.147,42.0679 L 105.247,42.1377 L 105.335,42.2258 L 105.405,42.3254
 L 105.456,42.4356 L 106.153,44.7606 L 106.185,44.8781 L 106.195,44.9992 L 106.185,45.1203 L 106.153,45.2407
 L 106.101,45.3509 L 106.031,45.4505 L 105.946,45.5365 L 105.846,45.6062 L 105.736,45.6576 L 105.616,45.69
 L 105.495,45.7006 z
M 85.5008,45.7005 L 85.3797,45.6899 L 85.2592,45.6576 L 85.149,45.6062 L 85.0495,45.5365 L 84.9635,45.4505
 L 84.8938,45.3509 L 84.8424,45.2407 L 84.81,45.1211 L 84.7994,45 L 84.81,44.8789 L 84.8415,44.7614
 L 90.1891,26.9356 L 90.2404,26.8254 L 90.311,26.7245 L 90.397,26.6385 L 90.4966,26.5688 L 90.6067,26.5174
 L 90.7272,26.4851 L 90.8483,26.4745 L 90.9694,26.4851 L 91.0869,26.5166 L 91.197,26.5679 L 91.2966,26.6377
 L 91.3848,26.7258 L 91.4545,26.8254 L 91.5059,26.9356 L 96.8534,44.7606 L 96.8849,44.8781 L 96.8955,44.9992
 L 96.8849,45.1219 L 96.8534,45.2393 L 96.802,45.3495 L 96.7323,45.4491 L 96.6441,45.5373 L 96.5445,45.607
 L 96.4343,45.6584 L 96.3169,45.6899 L 96.1958,45.7005 L 94.8008,45.7005 L 94.6797,45.6899 L 94.5592,45.6576
 L 94.4491,45.6062 L 94.3495,45.5365 L 94.2635,45.4505 L 94.1937,45.3509 L 94.1424,45.2407 L 92.42,39.5006
 L 89.2751,39.5006 L 87.5534,45.2393 L 87.502,45.3495 L 87.4323,45.4491 L 87.3441,45.5373 L 87.2445,45.607
 L 87.1344,45.6584 L 87.0169,45.6899 L 86.8958,45.7005 z
" stroke="black" fill="lightgray" stroke-width="0.5"/></svg>
