<?xml version="1.0" standalone="no"?>
<!DOCTYPE svg PUBLIC "-//W3C//DTD SVG 1.1//EN" "http://www.w3.org/Graphics/SVG/1.1/DTD/svg11.dtd">
<svg width="123" height="186" viewBox="-23 -186 123 186" xmlns="http://www.w3.org/2000/svg" version="1.1">
<title>OpenSCAD Model</title>
<path d="
M 45,-155.875 L 50,-155.875 L 50,-182.7 L 45,-182.7 L 45,-185.875 L 35,-185.875
 L 35,-182.7 L 30,-182.7 L 30,-155.875 L 35,-155.875 L 35,-152.7 L 45,-152.7
 z
M 39.34,-166.824 L 38.725,-167.079 L 38.1969,-167.484 L 37.7916,-168.012 L 37.5369,-168.628 L 37.45,-169.287
 L 37.5369,-169.947 L 37.7916,-170.562 L 38.1969,-171.091 L 38.725,-171.496 L 39.34,-171.751 L 40,-171.837
 L 40.66,-171.751 L 41.275,-171.496 L 41.8031,-171.091 L 42.2084,-170.562 L 42.4631,-169.947 L 42.55,-169.287
 L 42.4631,-168.628 L 42.2084,-168.012 L 41.8031,-167.484 L 41.275,-167.079 L 40.66,-166.824 L 40,-166.738
 z
M 70,-155.875 L 75,-155.875 L 75,-182.7 L 70,-182.7 L 70,-185.875 L 60,-185.875
 L 60,-182.7 L 55,-182.7 L 55,-155.875 L 60,-155.875 L 60,-152.7 L 70,-152.7
 z
M 64.34,-166.824 L 63.725,-167.079 L 63.1969,-167.484 L 62.7916,-168.012 L 62.5369,-168.628 L 62.45,-169.287
 L 62.5369,-169.947 L 62.7916,-170.562 L 63.1969,-171.091 L 63.725,-171.496 L 64.34,-171.751 L 65,-171.837
 L 65.66,-171.751 L 66.275,-171.496 L 66.8031,-171.091 L 67.2084,-170.562 L 67.4631,-169.947 L 67.55,-169.287
 L 67.4631,-168.628 L 67.2084,-168.012 L 66.8031,-167.484 L 66.275,-167.079 L 65.66,-166.824 L 65,-166.738
 z
M 95,-117.7 L 100,-117.7 L 100,-144.525 L 95,-144.525 L 95,-147.7 L 85,-147.7
 L 85,-144.525 L 80,-144.525 L 80,-117.7 L 85,-117.7 L 85,-114.525 L 95,-114.525
 z
M 89.34,-128.649 L 88.725,-128.904 L 88.1969,-129.309 L 87.7916,-129.837 L 87.5369,-130.452 L 87.45,-131.112
 L 87.5369,-131.772 L 87.7916,-132.387 L 88.1969,-132.916 L 88.725,-133.321 L 89.34,-133.576 L 90,-133.662
 L 90.66,-133.576 L 91.275,-133.321 L 91.8031,-132.916 L 92.2084,-132.387 L 92.4631,-131.772 L 92.55,-131.112
 L 92.4631,-130.452 L 92.2084,-129.837 L 91.8031,-129.309 L 91.275,-128.904 L 90.66,-128.649 L 90,-128.562
 z
M 70,-117.7 L 75,-117.7 L 75,-144.525 L 70,-144.525 L 70,-147.7 L 60,-147.7
 L 60,-144.525 L 55,-144.525 L 55,-117.7 L 60,-117.7 L 60,-114.525 L 70,-114.525
 z
M 64.34,-128.649 L 63.725,-128.904 L 63.1969,-129.309 L 62.7916,-129.837 L 62.5369,-130.452 L 62.45,-131.112
 L 62.5369,-131.772 L 62.7916,-132.387 L 63.1969,-132.916 L 63.725,-133.321 L 64.34,-133.576 L 65,-133.662
 L 65.66,-133.576 L 66.275,-133.321 L 66.8031,-132.916 L 67.2084,-132.387 L 67.4631,-131.772 L 67.55,-131.112
 L 67.4631,-130.452 L 67.2084,-129.837 L 66.8031,-129.309 L 66.275,-128.904 L 65.66,-128.649 L 65,-128.562
 z
M 45,-117.7 L 50,-117.7 L 50,-144.525 L 45,-144.525 L 45,-147.7 L 35,-147.7
 L 35,-144.525 L 30,-144.525 L 30,-117.7 L 35,-117.7 L 35,-114.525 L 45,-114.525
 z
M 39.34,-128.649 L 38.725,-128.904 L 38.1969,-129.309 L 37.7916,-129.837 L 37.5369,-130.452 L 37.45,-131.112
 L 37.5369,-131.772 L 37.7916,-132.387 L 38.1969,-132.916 L 38.725,-133.321 L 39.34,-133.576 L 40,-133.662
 L 40.66,-133.576 L 41.275,-133.321 L 41.8031,-132.916 L 42.2084,-132.387 L 42.4631,-131.772 L 42.55,-131.112
 L 42.4631,-130.452 L 42.2084,-129.837 L 41.8031,-129.309 L 41.275,-128.904 L 40.66,-128.649 L 40,-128.562
 z
M 15.6526,-130.493 L 16.3126,-130.58 L 16.9541,-130.707 L 17.5734,-130.918 L 18.1884,-131.172 L 18.775,-131.462
 L 19.3188,-131.825 L 19.8469,-132.23 L 20.3386,-132.661 L 20.7699,-133.153 L 21.1751,-133.681 L 21.5385,-134.225
 L 21.8277,-134.812 L 22.0825,-135.427 L 22.2927,-136.046 L 22.4203,-136.687 L 22.5072,-137.347 L 22.55,-138
 L 22.5072,-138.653 L 22.4203,-139.313 L 22.2927,-139.954 L 22.0825,-140.573 L 21.8277,-141.188 L 21.5385,-141.775
 L 21.1751,-142.319 L 20.7699,-142.847 L 20.3386,-143.339 L 19.8469,-143.77 L 19.3188,-144.175 L 18.775,-144.538
 L 18.1884,-144.828 L 17.5734,-145.082 L 16.9541,-145.293 L 16.3126,-145.42 L 15.6526,-145.507 L 15,-145.55
 L 14.3474,-145.507 L 14.2927,-145.5 L -14.2927,-145.5 L -14.3474,-145.507 L -15,-145.55 L -15.6526,-145.507
 L -16.3126,-145.42 L -16.9541,-145.293 L -17.5734,-145.082 L -18.1884,-144.828 L -18.775,-144.538 L -19.3188,-144.175
 L -19.8469,-143.77 L -20.3386,-143.339 L -20.7699,-142.847 L -21.1751,-142.319 L -21.5385,-141.775 L -21.8277,-141.188
 L -22.0825,-140.573 L -22.2927,-139.954 L -22.4203,-139.313 L -22.5072,-138.653 L -22.55,-138 L -22.5072,-137.347
 L -22.4203,-136.687 L -22.2927,-136.046 L -22.0825,-135.427 L -21.8277,-134.812 L -21.5385,-134.225 L -21.1751,-133.681
 L -20.7699,-133.153 L -20.3386,-132.661 L -19.8469,-132.23 L -19.3188,-131.825 L -18.775,-131.462 L -18.1884,-131.172
 L -17.5734,-130.918 L -16.9541,-130.707 L -16.3126,-130.58 L -15.6526,-130.493 L -15,-130.45 L -14.3474,-130.493
 L -14.2927,-130.5 L 14.2927,-130.5 L 14.3474,-130.493 L 15,-130.45 z
M -15.66,-135.537 L -16.275,-135.792 L -16.8031,-136.197 L -17.2084,-136.725 L -17.4631,-137.34 L -17.55,-138
 L -17.4631,-138.66 L -17.2084,-139.275 L -16.8031,-139.803 L -16.275,-140.208 L -15.66,-140.463 L -15,-140.55
 L -14.34,-140.463 L -13.725,-140.208 L -13.1969,-139.803 L -12.7916,-139.275 L -12.5369,-138.66 L -12.45,-138
 L -12.5369,-137.34 L -12.7916,-136.725 L -13.1969,-136.197 L -13.725,-135.792 L -14.34,-135.537 L -15,-135.45
 z
M 14.34,-135.537 L 13.725,-135.792 L 13.1969,-136.197 L 12.7916,-136.725 L 12.5369,-137.34 L 12.45,-138
 L 12.5369,-138.66 L 12.7916,-139.275 L 13.1969,-139.803 L 13.725,-140.208 L 14.34,-140.463 L 15,-140.55
 L 15.66,-140.463 L 16.275,-140.208 L 16.8031,-139.803 L 17.2084,-139.275 L 17.4631,-138.66 L 17.55,-138
 L 17.4631,-137.34 L 17.2084,-136.725 L 16.8031,-136.197 L 16.275,-135.792 L 15.66,-135.537 L 15,-135.45
 z
M -2.17122,-136.4 L -2.33826,-136.65 L -2.49446,-136.967 L -2.60799,-137.301 L -2.6769,-137.648 L -2.7,-138
 L -2.6769,-138.352 L -2.60799,-138.699 L -2.49446,-139.033 L -2.33826,-139.35 L -2.17122,-139.6 L 2.17122,-139.6
 L 2.33826,-139.35 L 2.49446,-139.033 L 2.60799,-138.699 L 2.6769,-138.352 L 2.7,-138 L 2.6769,-137.648
 L 2.60799,-137.301 L 2.49446,-136.967 L 2.33826,-136.65 L 2.17122,-136.4 z
M 15.6526,-109.493 L 16.3126,-109.58 L 16.9541,-109.707 L 17.5734,-109.918 L 18.1884,-110.172 L 18.775,-110.462
 L 19.3188,-110.825 L 19.8469,-111.23 L 20.3386,-111.661 L 20.7699,-112.153 L 21.1751,-112.681 L 21.5385,-113.225
 L 21.8277,-113.812 L 22.0825,-114.427 L 22.2927,-115.046 L 22.4203,-115.687 L 22.5072,-116.347 L 22.55,-117
 L 22.5072,-117.653 L 22.4203,-118.313 L 22.2927,-118.954 L 22.0825,-119.573 L 21.8277,-120.188 L 21.5385,-120.775
 L 21.1751,-121.319 L 20.7699,-121.847 L 20.3386,-122.339 L 19.8469,-122.77 L 19.3188,-123.175 L 18.775,-123.538
 L 18.1884,-123.828 L 17.5734,-124.082 L 16.9541,-124.293 L 16.3126,-124.42 L 15.6526,-124.507 L 15,-124.55
 L 14.3474,-124.507 L 14.2927,-124.5 L -14.2927,-124.5 L -14.3474,-124.507 L -15,-124.55 L -15.6526,-124.507
 L -16.3126,-124.42 L -16.9541,-124.293 L -17.5734,-124.082 L -18.1884,-123.828 L -18.775,-123.538 L -19.3188,-123.175
 L -19.8469,-122.77 L -20.3386,-122.339 L -20.7699,-121.847 L -21.1751,-121.319 L -21.5385,-120.775 L -21.8277,-120.188
 L -22.0825,-119.573 L -22.2927,-118.954 L -22.4203,-118.313 L -22.5072,-117.653 L -22.55,-117 L -22.5072,-116.347
 L -22.4203,-115.687 L -22.2927,-115.046 L -22.0825,-114.427 L -21.8277,-113.812 L -21.5385,-113.225 L -21.1751,-112.681
 L -20.7699,-112.153 L -20.3386,-111.661 L -19.8469,-111.23 L -19.3188,-110.825 L -18.775,-110.462 L -18.1884,-110.172
 L -17.5734,-109.918 L -16.9541,-109.707 L -16.3126,-109.58 L -15.6526,-109.493 L -15,-109.45 L -14.3474,-109.493
 L -14.2927,-109.5 L 14.2927,-109.5 L 14.3474,-109.493 L 15,-109.45 z
M 14.34,-114.537 L 13.725,-114.792 L 13.1969,-115.197 L 12.7916,-115.725 L 12.5369,-116.34 L 12.45,-117
 L 12.5369,-117.66 L 12.7916,-118.275 L 13.1969,-118.803 L 13.725,-119.208 L 14.34,-119.463 L 15,-119.55
 L 15.66,-119.463 L 16.275,-119.208 L 16.8031,-118.803 L 17.2084,-118.275 L 17.4631,-117.66 L 17.55,-117
 L 17.4631,-116.34 L 17.2084,-115.725 L 16.8031,-115.197 L 16.275,-114.792 L 15.66,-114.537 L 15,-114.45
 z
M -15.66,-114.537 L -16.275,-114.792 L -16.8031,-115.197 L -17.2084,-115.725 L -17.4631,-116.34 L -17.55,-117
 L -17.4631,-117.66 L -17.2084,-118.275 L -16.8031,-118.803 L -16.275,-119.208 L -15.66,-119.463 L -15,-119.55
 L -14.34,-119.463 L -13.725,-119.208 L -13.1969,-118.803 L -12.7916,-118.275 L -12.5369,-117.66 L -12.45,-117
 L -12.5369,-116.34 L -12.7916,-115.725 L -13.1969,-115.197 L -13.725,-114.792 L -14.34,-114.537 L -15,-114.45
 z
M -2.08463,-115.45 L -2.25166,-115.7 L -2.40208,-116.005 L -2.5114,-116.327 L -2.57774,-116.661 L -2.59999,-117
 L -2.57774,-117.339 L -2.5114,-117.673 L -2.40208,-117.995 L -2.25166,-118.3 L -2.08463,-118.55 L 2.08463,-118.55
 L 2.25166,-118.3 L 2.40208,-117.995 L 2.5114,-117.673 L 2.57774,-117.339 L 2.59999,-117 L 2.57774,-116.661
 L 2.5114,-116.327 L 2.40208,-116.005 L 2.25166,-115.7 L 2.08463,-115.45 z
M 70,-79.525 L 75,-79.525 L 75,-106.35 L 70,-106.35 L 70,-109.525 L 60,-109.525
 L 60,-106.35 L 55,-106.35 L 55,-79.525 L 60,-79.525 L 60,-76.35 L 70,-76.35
 z
M 64.34,-90.4744 L 63.725,-90.7291 L 63.1969,-91.1344 L 62.7916,-91.6625 L 62.5369,-92.2775 L 62.45,-92.9375
 L 62.5369,-93.5975 L 62.7916,-94.2125 L 63.1969,-94.7406 L 63.725,-95.1459 L 64.34,-95.4006 L 65,-95.4875
 L 65.66,-95.4006 L 66.275,-95.1459 L 66.8031,-94.7406 L 67.2084,-94.2125 L 67.4631,-93.5975 L 67.55,-92.9375
 L 67.4631,-92.2775 L 67.2084,-91.6625 L 66.8031,-91.1344 L 66.275,-90.7291 L 65.66,-90.4744 L 65,-90.3875
 z
M 95,-79.525 L 100,-79.525 L 100,-106.35 L 95,-106.35 L 95,-109.525 L 85,-109.525
 L 85,-106.35 L 80,-106.35 L 80,-79.525 L 85,-79.525 L 85,-76.35 L 95,-76.35
 z
M 89.34,-90.4744 L 88.725,-90.7291 L 88.1969,-91.1344 L 87.7916,-91.6625 L 87.5369,-92.2775 L 87.45,-92.9375
 L 87.5369,-93.5975 L 87.7916,-94.2125 L 88.1969,-94.7406 L 88.725,-95.1459 L 89.34,-95.4006 L 90,-95.4875
 L 90.66,-95.4006 L 91.275,-95.1459 L 91.8031,-94.7406 L 92.2084,-94.2125 L 92.4631,-93.5975 L 92.55,-92.9375
 L 92.4631,-92.2775 L 92.2084,-91.6625 L 91.8031,-91.1344 L 91.275,-90.7291 L 90.66,-90.4744 L 90,-90.3875
 z
M 45,-79.525 L 50,-79.525 L 50,-106.35 L 45,-106.35 L 45,-109.525 L 35,-109.525
 L 35,-106.35 L 30,-106.35 L 30,-79.525 L 35,-79.525 L 35,-76.35 L 45,-76.35
 z
M 39.34,-90.4744 L 38.725,-90.7291 L 38.1969,-91.1344 L 37.7916,-91.6625 L 37.5369,-92.2775 L 37.45,-92.9375
 L 37.5369,-93.5975 L 37.7916,-94.2125 L 38.1969,-94.7406 L 38.725,-95.1459 L 39.34,-95.4006 L 40,-95.4875
 L 40.66,-95.4006 L 41.275,-95.1459 L 41.8031,-94.7406 L 42.2084,-94.2125 L 42.4631,-93.5975 L 42.55,-92.9375
 L 42.4631,-92.2775 L 42.2084,-91.6625 L 41.8031,-91.1344 L 41.275,-90.7291 L 40.66,-90.4744 L 40,-90.3875
 z
M 15.6526,-88.4928 L 16.3126,-88.5797 L 16.9541,-88.7073 L 17.5734,-88.9175 L 18.1884,-89.1723 L 18.775,-89.4615
 L 19.3188,-89.8249 L 19.8469,-90.2301 L 20.3386,-90.6614 L 20.7699,-91.1531 L 21.1751,-91.6812 L 21.5385,-92.225
 L 21.8277,-92.8116 L 22.0825,-93.4266 L 22.2927,-94.0459 L 22.4203,-94.6874 L 22.5072,-95.3474 L 22.55,-96
 L 22.5072,-96.6526 L 22.4203,-97.3126 L 22.2927,-97.9541 L 22.0825,-98.5734 L 21.8277,-99.1884 L 21.5385,-99.775
 L 21.1751,-100.319 L 20.7699,-100.847 L 20.3386,-101.339 L 19.8469,-101.77 L 19.3188,-102.175 L 18.775,-102.538
 L 18.1884,-102.828 L 17.5734,-103.082 L 16.9541,-103.293 L 16.3126,-103.42 L 15.6526,-103.507 L 15,-103.55
 L 14.3474,-103.507 L 14.2927,-103.5 L -14.2927,-103.5 L -14.3474,-103.507 L -15,-103.55 L -15.6526,-103.507
 L -16.3126,-103.42 L -16.9541,-103.293 L -17.5734,-103.082 L -18.1884,-102.828 L -18.775,-102.538 L -19.3188,-102.175
 L -19.8469,-101.77 L -20.3386,-101.339 L -20.7699,-100.847 L -21.1751,-100.319 L -21.5385,-99.775 L -21.8277,-99.1884
 L -22.0825,-98.5734 L -22.2927,-97.9541 L -22.4203,-97.3126 L -22.5072,-96.6526 L -22.55,-96 L -22.5072,-95.3474
 L -22.4203,-94.6874 L -22.2927,-94.0459 L -22.0825,-93.4266 L -21.8277,-92.8116 L -21.5385,-92.225 L -21.1751,-91.6812
 L -20.7699,-91.1531 L -20.3386,-90.6614 L -19.8469,-90.2301 L -19.3188,-89.8249 L -18.775,-89.4615 L -18.1884,-89.1723
 L -17.5734,-88.9175 L -16.9541,-88.7073 L -16.3126,-88.5797 L -15.6526,-88.4928 L -15,-88.45 L -14.3474,-88.4928
 L -14.2927,-88.5 L 14.2927,-88.5 L 14.3474,-88.4928 L 15,-88.45 z
M 14.34,-93.5369 L 13.725,-93.7916 L 13.1969,-94.1969 L 12.7916,-94.725 L 12.5369,-95.34 L 12.45,-96
 L 12.5369,-96.66 L 12.7916,-97.275 L 13.1969,-97.8031 L 13.725,-98.2084 L 14.34,-98.4631 L 15,-98.55
 L 15.66,-98.4631 L 16.275,-98.2084 L 16.8031,-97.8031 L 17.2084,-97.275 L 17.4631,-96.66 L 17.55,-96
 L 17.4631,-95.34 L 17.2084,-94.725 L 16.8031,-94.1969 L 16.275,-93.7916 L 15.66,-93.5369 L 15,-93.45
 z
M -15.66,-93.5369 L -16.275,-93.7916 L -16.8031,-94.1969 L -17.2084,-94.725 L -17.4631,-95.34 L -17.55,-96
 L -17.4631,-96.66 L -17.2084,-97.275 L -16.8031,-97.8031 L -16.275,-98.2084 L -15.66,-98.4631 L -15,-98.55
 L -14.34,-98.4631 L -13.725,-98.2084 L -13.1969,-97.8031 L -12.7916,-97.275 L -12.5369,-96.66 L -12.45,-96
 L -12.5369,-95.34 L -12.7916,-94.725 L -13.1969,-94.1969 L -13.725,-93.7916 L -14.34,-93.5369 L -15,-93.45
 z
M -1.99802,-94.5 L -2.16505,-94.75 L -2.30969,-95.0433 L -2.41481,-95.353 L -2.47861,-95.6737 L -2.5,-96
 L -2.47861,-96.3263 L -2.41481,-96.647 L -2.30969,-96.9567 L -2.16505,-97.25 L -1.99802,-97.5 L 1.99802,-97.5
 L 2.16505,-97.25 L 2.30969,-96.9567 L 2.41481,-96.647 L 2.47861,-96.3263 L 2.5,-96 L 2.47861,-95.6737
 L 2.41481,-95.353 L 2.30969,-95.0433 L 2.16505,-94.75 L 1.99802,-94.5 z
M 0.652618,-55.8685 L 0.733475,-55.8791 L 1.37494,-56.0067 L 1.88155,-56.1787 L 2.13676,-56.162 L 2.78938,-56.2048
 L 3.51106,-56.3472 L 4.13039,-56.5574 L 4.7906,-56.8818 L 5.3344,-57.2452 L 5.42603,-57.3241 L 5.43935,-57.3273
 L 6.05867,-57.5376 L 6.64526,-57.8268 L 6.71695,-57.8658 L 7.26074,-58.2291 L 7.75247,-58.6604 L 7.81163,-58.7165
 L 8.24287,-59.2082 L 8.46274,-59.5373 L 8.79176,-59.7571 L 9.28349,-60.1884 L 9.33965,-60.2475 L 9.56107,-60.5
 L 14.2927,-60.5 L 14.3474,-60.4928 L 15,-60.45 L 15.6526,-60.4928 L 16.3126,-60.5797 L 16.9541,-60.7073
 L 17.5734,-60.9175 L 18.1884,-61.1723 L 18.775,-61.4615 L 19.3188,-61.8249 L 19.8469,-62.2301 L 20.3386,-62.6614
 L 20.7699,-63.1531 L 21.1751,-63.6812 L 21.5385,-64.225 L 21.8277,-64.8116 L 22.0825,-65.4266 L 22.2927,-66.0459
 L 22.4203,-66.6874 L 22.5072,-67.3474 L 22.55,-68 L 22.5072,-68.6526 L 22.4203,-69.3126 L 22.2927,-69.9541
 L 22.0825,-70.5734 L 21.8277,-71.1884 L 21.5385,-71.775 L 21.1751,-72.3188 L 20.7699,-72.8469 L 20.3386,-73.3386
 L 19.8469,-73.7699 L 19.3188,-74.1751 L 18.775,-74.5385 L 18.1884,-74.8277 L 17.5734,-75.0825 L 16.9541,-75.2927
 L 16.3126,-75.4203 L 15.6526,-75.5072 L 15,-75.55 L 14.3474,-75.5072 L 14.2927,-75.5 L 9.56107,-75.5
 L 9.33965,-75.7525 L 9.28349,-75.8116 L 8.79176,-76.2429 L 8.46272,-76.4627 L 8.24287,-76.7918 L 7.81163,-77.2835
 L 7.75247,-77.3396 L 7.26074,-77.7709 L 6.71695,-78.1342 L 6.64526,-78.1732 L 6.05867,-78.4624 L 5.43935,-78.6727
 L 5.42604,-78.6759 L 5.3344,-78.7548 L 4.7906,-79.1182 L 4.13039,-79.4426 L 3.51106,-79.6528 L 2.78938,-79.7952
 L 2.13676,-79.838 L 1.88156,-79.8213 L 1.37495,-79.9933 L 0.73349,-80.1209 L 0.652618,-80.1315 L 0,-80.1743
 L -0.652618,-80.1315 L -0.733475,-80.1209 L -1.37494,-79.9933 L -1.88155,-79.8213 L -2.13676,-79.838 L -2.78938,-79.7952
 L -3.51106,-79.6528 L -4.13039,-79.4426 L -4.79059,-79.1182 L -5.3344,-78.7548 L -5.42603,-78.6759 L -5.43935,-78.6727
 L -6.05867,-78.4624 L -6.64525,-78.1732 L -6.71693,-78.1342 L -7.26074,-77.7709 L -7.75247,-77.3396 L -7.81163,-77.2835
 L -8.24287,-76.7918 L -8.46272,-76.4627 L -8.79176,-76.2429 L -9.28349,-75.8116 L -9.33965,-75.7525 L -9.56107,-75.5
 L -14.2927,-75.5 L -14.3474,-75.5072 L -15,-75.55 L -15.6526,-75.5072 L -16.3126,-75.4203 L -16.9541,-75.2927
 L -17.5734,-75.0825 L -18.1884,-74.8277 L -18.775,-74.5385 L -19.3188,-74.1751 L -19.8469,-73.7699 L -20.3386,-73.3386
 L -20.7699,-72.8469 L -21.1751,-72.3188 L -21.5385,-71.775 L -21.8277,-71.1884 L -22.0825,-70.5734 L -22.2927,-69.9541
 L -22.4203,-69.3126 L -22.5072,-68.6526 L -22.55,-68 L -22.5072,-67.3474 L -22.4203,-66.6874 L -22.2927,-66.0459
 L -22.0825,-65.4266 L -21.8277,-64.8116 L -21.5385,-64.225 L -21.1751,-63.6812 L -20.7699,-63.1531 L -20.3386,-62.6614
 L -19.8469,-62.2301 L -19.3188,-61.8249 L -18.775,-61.4615 L -18.1884,-61.1723 L -17.5734,-60.9175 L -16.9541,-60.7073
 L -16.3126,-60.5797 L -15.6526,-60.4928 L -15,-60.45 L -14.3474,-60.4928 L -14.2927,-60.5 L -9.56107,-60.5
 L -9.33965,-60.2475 L -9.28349,-60.1884 L -8.79176,-59.7571 L -8.46272,-59.5373 L -8.24287,-59.2082 L -7.81163,-58.7165
 L -7.75247,-58.6604 L -7.26074,-58.2291 L -6.71695,-57.8658 L -6.64526,-57.8268 L -6.05867,-57.5376 L -5.43935,-57.3273
 L -5.42604,-57.3241 L -5.3344,-57.2452 L -4.7906,-56.8818 L -4.13039,-56.5574 L -3.51106,-56.3472 L -2.78938,-56.2048
 L -2.13676,-56.162 L -1.88156,-56.1787 L -1.37495,-56.0067 L -0.73349,-55.8791 L -0.652618,-55.8685 L 0,-55.8257
 z
M -0.0808716,-60.8363 L -0.15625,-60.8676 L -0.220963,-60.9172 L -0.27063,-60.9819 L -0.433685,-61.3677 L -0.521698,-61.3712
 L -1.04018,-61.4326 L -1.55225,-61.5344 L -1.63702,-61.5583 L -1.9113,-61.2418 L -1.97855,-61.1956 L -2.05545,-61.1684
 L -2.13676,-61.162 L -2.21698,-61.1768 L -2.2906,-61.212 L -2.35265,-61.2649 L -2.39883,-61.3322 L -2.42607,-61.4091
 L -2.46194,-61.8264 L -2.54457,-61.8569 L -3.01871,-62.0754 L -3.47424,-62.3305 L -3.54749,-62.3795 L -3.90616,-62.1632
 L -3.98438,-62.14 L -4.06593,-62.1379 L -4.14526,-62.157 L -4.21695,-62.1959 L -4.27611,-62.252 L -4.31874,-62.3216
 L -4.3419,-62.3998 L -4.34404,-62.4814 L -4.24921,-62.8893 L -4.31837,-62.9438 L -4.70177,-63.2982 L -5.05617,-63.6816
 L -5.1107,-63.7508 L -5.51865,-63.656 L -5.60019,-63.6581 L -5.67842,-63.6813 L -5.74797,-63.7239 L -5.80412,-63.7831
 L -5.84305,-63.8547 L -5.86209,-63.9341 L -5.85995,-64.0156 L -5.83679,-64.0938 L -5.62053,-64.4525 L -5.66946,-64.5258
 L -5.92456,-64.9813 L -6.14314,-65.4554 L -6.17363,-65.5381 L -6.59093,-65.5739 L -6.66782,-65.6012 L -6.73506,-65.6474
 L -6.78804,-65.7094 L -6.82317,-65.783 L -6.83803,-65.8632 L -6.83162,-65.9446 L -6.80438,-66.0215 L -6.75819,-66.0887
 L -6.44167,-66.363 L -6.46558,-66.4478 L -6.56743,-66.9598 L -6.6288,-67.4783 L -6.63226,-67.5663 L -7.01805,-67.7294
 L -7.08276,-67.7791 L -7.13243,-67.8438 L -7.16365,-67.9191 L -7.1743,-68 L -7.16365,-68.0809 L -7.13243,-68.1562
 L -7.08276,-68.221 L -7.01805,-68.2706 L -6.63226,-68.4337 L -6.6288,-68.5217 L -6.56743,-69.0402 L -6.46558,-69.5522
 L -6.44167,-69.637 L -6.75819,-69.9113 L -6.80438,-69.9785 L -6.83162,-70.0555 L -6.83803,-70.1368 L -6.82317,-70.217
 L -6.78804,-70.2906 L -6.73506,-70.3526 L -6.66782,-70.3988 L -6.59093,-70.4261 L -6.17363,-70.4619 L -6.14314,-70.5446
 L -5.92456,-71.0187 L -5.66946,-71.4742 L -5.62053,-71.5475 L -5.83679,-71.9062 L -5.85995,-71.9844 L -5.86209,-72.0659
 L -5.84305,-72.1453 L -5.80412,-72.2169 L -5.74797,-72.2761 L -5.67841,-72.3187 L -5.60019,-72.3419 L -5.51865,-72.344
 L -5.1107,-72.2492 L -5.05617,-72.3184 L -4.70177,-72.7018 L -4.31837,-73.0562 L -4.24921,-73.1107 L -4.34404,-73.5186
 L -4.3419,-73.6002 L -4.31873,-73.6784 L -4.27611,-73.748 L -4.21695,-73.8041 L -4.14526,-73.843 L -4.06592,-73.8621
 L -3.98438,-73.86 L -3.90616,-73.8368 L -3.54749,-73.6205 L -3.47424,-73.6695 L -3.01871,-73.9246 L -2.54457,-74.1431
 L -2.46194,-74.1736 L -2.42607,-74.5909 L -2.39883,-74.6678 L -2.35263,-74.7351 L -2.2906,-74.788 L -2.21698,-74.8232
 L -2.13676,-74.838 L -2.05544,-74.8316 L -1.97855,-74.8044 L -1.9113,-74.7582 L -1.63702,-74.4417 L -1.55225,-74.4656
 L -1.04018,-74.5674 L -0.521698,-74.6288 L -0.43367,-74.6323 L -0.270615,-75.0181 L -0.220947,-75.0828 L -0.156219,-75.1324
 L -0.0808563,-75.1637 L 0,-75.1743 L 0.0808716,-75.1637 L 0.15625,-75.1324 L 0.220963,-75.0828 L 0.27063,-75.0181
 L 0.433685,-74.6323 L 0.521698,-74.6288 L 1.04018,-74.5674 L 1.55225,-74.4656 L 1.63702,-74.4417 L 1.9113,-74.7582
 L 1.97855,-74.8044 L 2.05545,-74.8316 L 2.13676,-74.838 L 2.21698,-74.8232 L 2.2906,-74.788 L 2.35265,-74.7351
 L 2.39883,-74.6678 L 2.42607,-74.5909 L 2.46194,-74.1736 L 2.54457,-74.1431 L 3.01871,-73.9246 L 3.47424,-73.6695
 L 3.54749,-73.6205 L 3.90616,-73.8368 L 3.98438,-73.86 L 4.06593,-73.8621 L 4.14526,-73.843 L 4.21695,-73.8041
 L 4.27611,-73.748 L 4.31874,-73.6784 L 4.3419,-73.6002 L 4.34404,-73.5186 L 4.24921,-73.1107 L 4.31837,-73.0562
 L 4.70177,-72.7018 L 5.05617,-72.3184 L 5.1107,-72.2492 L 5.51865,-72.344 L 5.60019,-72.3419 L 5.67842,-72.3187
 L 5.74797,-72.2761 L 5.80412,-72.2169 L 5.84305,-72.1453 L 5.86209,-72.0659 L 5.85995,-71.9844 L 5.83679,-71.9062
 L 5.62053,-71.5475 L 5.66946,-71.4742 L 5.92456,-71.0187 L 6.14314,-70.5446 L 6.17363,-70.4619 L 6.59093,-70.4261
 L 6.66782,-70.3988 L 6.73506,-70.3526 L 6.78804,-70.2906 L 6.82317,-70.217 L 6.83803,-70.1368 L 6.83162,-70.0554
 L 6.80438,-69.9785 L 6.75819,-69.9113 L 6.44167,-69.637 L 6.46558,-69.5522 L 6.56743,-69.0402 L 6.6288,-68.5217
 L 6.63226,-68.4337 L 7.01805,-68.2706 L 7.08276,-68.2209 L 7.13243,-68.1562 L 7.16365,-68.0809 L 7.1743,-68
 L 7.16365,-67.9191 L 7.13243,-67.8438 L 7.08276,-67.779 L 7.01805,-67.7294 L 6.63226,-67.5663 L 6.6288,-67.4783
 L 6.56743,-66.9598 L 6.46558,-66.4478 L 6.44167,-66.363 L 6.75819,-66.0887 L 6.80438,-66.0215 L 6.83162,-65.9445
 L 6.83803,-65.8632 L 6.82317,-65.783 L 6.78804,-65.7094 L 6.73506,-65.6474 L 6.66782,-65.6012 L 6.59093,-65.5739
 L 6.17363,-65.5381 L 6.14314,-65.4554 L 5.92456,-64.9813 L 5.66946,-64.5258 L 5.62053,-64.4525 L 5.83679,-64.0938
 L 5.85995,-64.0156 L 5.86209,-63.9341 L 5.84305,-63.8547 L 5.80412,-63.7831 L 5.74797,-63.7239 L 5.67841,-63.6813
 L 5.60019,-63.6581 L 5.51865,-63.656 L 5.1107,-63.7508 L 5.05617,-63.6816 L 4.70177,-63.2982 L 4.31837,-62.9438
 L 4.24921,-62.8893 L 4.34404,-62.4814 L 4.3419,-62.3998 L 4.31873,-62.3216 L 4.27611,-62.252 L 4.21695,-62.1959
 L 4.14526,-62.157 L 4.06592,-62.1379 L 3.98438,-62.14 L 3.90616,-62.1632 L 3.54749,-62.3795 L 3.47424,-62.3305
 L 3.01871,-62.0754 L 2.54457,-61.8569 L 2.46194,-61.8264 L 2.42607,-61.4091 L 2.39883,-61.3322 L 2.35263,-61.2649
 L 2.2906,-61.212 L 2.21698,-61.1768 L 2.13676,-61.162 L 2.05544,-61.1684 L 1.97855,-61.1956 L 1.9113,-61.2418
 L 1.63702,-61.5583 L 1.55225,-61.5344 L 1.04018,-61.4326 L 0.521698,-61.3712 L 0.43367,-61.3677 L 0.270615,-60.9819
 L 0.220947,-60.9172 L 0.156219,-60.8676 L 0.0808563,-60.8363 L 0,-60.8257 z
M -15.66,-65.5369 L -16.275,-65.7916 L -16.8031,-66.1969 L -17.2084,-66.725 L -17.4631,-67.34 L -17.55,-68
 L -17.4631,-68.66 L -17.2084,-69.275 L -16.8031,-69.8031 L -16.275,-70.2084 L -15.66,-70.4631 L -15,-70.55
 L -14.34,-70.4631 L -13.725,-70.2084 L -13.1969,-69.8031 L -12.7916,-69.275 L -12.5369,-68.66 L -12.45,-68
 L -12.5369,-67.34 L -12.7916,-66.725 L -13.1969,-66.1969 L -13.725,-65.7916 L -14.34,-65.5369 L -15,-65.45
 z
M 14.34,-65.5369 L 13.725,-65.7916 L 13.1969,-66.1969 L 12.7916,-66.725 L 12.5369,-67.34 L 12.45,-68
 L 12.5369,-68.66 L 12.7916,-69.275 L 13.1969,-69.8031 L 13.725,-70.2084 L 14.34,-70.4631 L 15,-70.55
 L 15.66,-70.4631 L 16.275,-70.2084 L 16.8031,-69.8031 L 17.2084,-69.275 L 17.4631,-68.66 L 17.55,-68
 L 17.4631,-67.34 L 17.2084,-66.725 L 16.8031,-66.1969 L 16.275,-65.7916 L 15.66,-65.5369 L 15,-65.45
 z
M 95,-41.35 L 100,-41.35 L 100,-68.175 L 95,-68.175 L 95,-71.35 L 85,-71.35
 L 85,-68.175 L 80,-68.175 L 80,-41.35 L 85,-41.35 L 85,-38.175 L 95,-38.175
 z
M 89.34,-52.2994 L 88.725,-52.5541 L 88.1969,-52.9594 L 87.7916,-53.4875 L 87.5369,-54.1025 L 87.45,-54.7625
 L 87.5369,-55.4225 L 87.7916,-56.0375 L 88.1969,-56.5656 L 88.725,-56.9709 L 89.34,-57.2256 L 90,-57.3125
 L 90.66,-57.2256 L 91.275,-56.9709 L 91.8031,-56.5656 L 92.2084,-56.0375 L 92.4631,-55.4225 L 92.55,-54.7625
 L 92.4631,-54.1025 L 92.2084,-53.4875 L 91.8031,-52.9594 L 91.275,-52.5541 L 90.66,-52.2994 L 90,-52.2125
 z
M 70,-41.35 L 75,-41.35 L 75,-68.175 L 70,-68.175 L 70,-71.35 L 60,-71.35
 L 60,-68.175 L 55,-68.175 L 55,-41.35 L 60,-41.35 L 60,-38.175 L 70,-38.175
 z
M 64.34,-52.2994 L 63.725,-52.5541 L 63.1969,-52.9594 L 62.7916,-53.4875 L 62.5369,-54.1025 L 62.45,-54.7625
 L 62.5369,-55.4225 L 62.7916,-56.0375 L 63.1969,-56.5656 L 63.725,-56.9709 L 64.34,-57.2256 L 65,-57.3125
 L 65.66,-57.2256 L 66.275,-56.9709 L 66.8031,-56.5656 L 67.2084,-56.0375 L 67.4631,-55.4225 L 67.55,-54.7625
 L 67.4631,-54.1025 L 67.2084,-53.4875 L 66.8031,-52.9594 L 66.275,-52.5541 L 65.66,-52.2994 L 65,-52.2125
 z
M 45,-41.35 L 50,-41.35 L 50,-68.175 L 45,-68.175 L 45,-71.35 L 35,-71.35
 L 35,-68.175 L 30,-68.175 L 30,-41.35 L 35,-41.35 L 35,-38.175 L 45,-38.175
 z
M 39.34,-52.2994 L 38.725,-52.5541 L 38.1969,-52.9594 L 37.7916,-53.4875 L 37.5369,-54.1025 L 37.45,-54.7625
 L 37.5369,-55.4225 L 37.7916,-56.0375 L 38.1969,-56.5656 L 38.725,-56.9709 L 39.34,-57.2256 L 40,-57.3125
 L 40.66,-57.2256 L 41.275,-56.9709 L 41.8031,-56.5656 L 42.2084,-56.0375 L 42.4631,-55.4225 L 42.55,-54.7625
 L 42.4631,-54.1025 L 42.2084,-53.4875 L 41.8031,-52.9594 L 41.275,-52.5541 L 40.66,-52.2994 L 40,-52.2125
 z
M 0.652618,-28.3051 L 0.733475,-28.3158 L 1.37494,-28.4434 L 1.80693,-28.59 L 2.00185,-28.5772 L 2.65446,-28.62
 L 3.37613,-28.7625 L 3.99545,-28.9727 L 4.65567,-29.2971 L 5.19946,-29.6604 L 5.24963,-29.7033 L 5.80202,-29.8908
 L 6.38861,-30.1801 L 6.4603,-30.219 L 7.00409,-30.5823 L 7.49582,-31.0136 L 7.55499,-31.0697 L 7.98624,-31.5615
 L 8.1674,-31.8326 L 8.43854,-32.0138 L 8.93027,-32.445 L 8.98245,-32.5 L 14.2927,-32.5 L 14.3474,-32.4928
 L 15,-32.45 L 15.6526,-32.4928 L 16.3126,-32.5797 L 16.9541,-32.7073 L 17.5734,-32.9175 L 18.1884,-33.1723
 L 18.775,-33.4615 L 19.3188,-33.8249 L 19.8469,-34.2301 L 20.3386,-34.6614 L 20.7699,-35.1531 L 21.1751,-35.6812
 L 21.5385,-36.225 L 21.8277,-36.8116 L 22.0825,-37.4266 L 22.2927,-38.0459 L 22.4203,-38.6874 L 22.5072,-39.3474
 L 22.55,-40 L 22.5072,-40.6526 L 22.4203,-41.3126 L 22.2927,-41.9541 L 22.0825,-42.5734 L 21.8277,-43.1884
 L 21.5385,-43.775 L 21.1751,-44.3188 L 20.7699,-44.8469 L 20.3386,-45.3386 L 19.8469,-45.7699 L 19.3188,-46.1751
 L 18.775,-46.5385 L 18.1884,-46.8277 L 17.5734,-47.0825 L 16.9541,-47.2927 L 16.3126,-47.4203 L 15.6526,-47.5072
 L 15,-47.55 L 14.3474,-47.5072 L 14.2927,-47.5 L 8.98245,-47.5 L 8.93027,-47.555 L 8.43854,-47.9862
 L 8.16739,-48.1674 L 7.98624,-48.4385 L 7.55499,-48.9303 L 7.49582,-48.9864 L 7.00409,-49.4177 L 6.4603,-49.781
 L 6.38861,-49.8199 L 5.80202,-50.1092 L 5.24965,-50.2967 L 5.19946,-50.3396 L 4.65567,-50.7029 L 3.99545,-51.0273
 L 3.37613,-51.2375 L 2.65446,-51.38 L 2.00185,-51.4228 L 1.80695,-51.41 L 1.37495,-51.5566 L 0.73349,-51.6842
 L 0.652618,-51.6949 L 0,-51.7377 L -0.652618,-51.6949 L -0.733475,-51.6842 L -1.37494,-51.5566 L -1.80693,-51.41
 L -2.00185,-51.4228 L -2.65446,-51.38 L -3.37613,-51.2375 L -3.99545,-51.0273 L -4.65565,-50.7029 L -5.19946,-50.3396
 L -5.24963,-50.2967 L -5.80202,-50.1092 L -6.3886,-49.8199 L -6.46028,-49.781 L -7.00409,-49.4177 L -7.49582,-48.9864
 L -7.55499,-48.9303 L -7.98624,-48.4385 L -8.1674,-48.1674 L -8.43854,-47.9862 L -8.93027,-47.555 L -8.98245,-47.5
 L -14.2927,-47.5 L -14.3474,-47.5072 L -15,-47.55 L -15.6526,-47.5072 L -16.3126,-47.4203 L -16.9541,-47.2927
 L -17.5734,-47.0825 L -18.1884,-46.8277 L -18.775,-46.5385 L -19.3188,-46.1751 L -19.8469,-45.7699 L -20.3386,-45.3386
 L -20.7699,-44.8469 L -21.1751,-44.3188 L -21.5385,-43.775 L -21.8277,-43.1884 L -22.0825,-42.5734 L -22.2927,-41.9541
 L -22.4203,-41.3126 L -22.5072,-40.6526 L -22.55,-40 L -22.5072,-39.3474 L -22.4203,-38.6874 L -22.2927,-38.0459
 L -22.0825,-37.4266 L -21.8277,-36.8116 L -21.5385,-36.225 L -21.1751,-35.6812 L -20.7699,-35.1531 L -20.3386,-34.6614
 L -19.8469,-34.2301 L -19.3188,-33.8249 L -18.775,-33.4615 L -18.1884,-33.1723 L -17.5734,-32.9175 L -16.9541,-32.7073
 L -16.3126,-32.5797 L -15.6526,-32.4928 L -15,-32.45 L -14.3474,-32.4928 L -14.2927,-32.5 L -8.98245,-32.5
 L -8.93027,-32.445 L -8.43854,-32.0138 L -8.16739,-31.8326 L -7.98624,-31.5615 L -7.55499,-31.0697 L -7.49582,-31.0136
 L -7.00409,-30.5823 L -6.4603,-30.219 L -6.38861,-30.1801 L -5.80202,-29.8908 L -5.24965,-29.7033 L -5.19946,-29.6604
 L -4.65567,-29.2971 L -3.99545,-28.9727 L -3.37613,-28.7625 L -2.65446,-28.62 L -2.00185,-28.5772 L -1.80695,-28.59
 L -1.37495,-28.4434 L -0.73349,-28.3158 L -0.652618,-28.3051 L 0,-28.2623 z
M -0.0808716,-33.273 L -0.15625,-33.3042 L -0.220963,-33.3539 L -0.27063,-33.4186 L -0.433685,-33.8044 L -0.487427,-33.8065
 L -0.971863,-33.8638 L -1.45032,-33.959 L -1.50209,-33.9736 L -1.77638,-33.6571 L -1.84361,-33.6109 L -1.92053,-33.5836
 L -2.00185,-33.5772 L -2.08205,-33.5921 L -2.15567,-33.6272 L -2.21771,-33.6802 L -2.26392,-33.7474 L -2.29115,-33.8243
 L -2.32701,-34.2416 L -2.37749,-34.2602 L -2.8205,-34.4645 L -3.24611,-34.7028 L -3.29085,-34.7327 L -3.64952,-34.5164
 L -3.72774,-34.4933 L -3.8093,-34.4911 L -3.88861,-34.5102 L -3.9603,-34.5491 L -4.01947,-34.6053 L -4.0621,-34.6748
 L -4.08527,-34.753 L -4.0874,-34.8346 L -3.99255,-35.2425 L -4.03481,-35.2758 L -4.39302,-35.607 L -4.72415,-35.9652
 L -4.75746,-36.0074 L -5.16541,-35.9126 L -5.24696,-35.9147 L -5.32518,-35.9379 L -5.39474,-35.9805 L -5.4509,-36.0397
 L -5.48981,-36.1114 L -5.50887,-36.1907 L -5.50671,-36.2723 L -5.48355,-36.3505 L -5.26729,-36.7092 L -5.29718,-36.7539
 L -5.53554,-37.1795 L -5.73976,-37.6225 L -5.75838,-37.673 L -6.17567,-37.7088 L -6.25258,-37.7361 L -6.31981,-37.7823
 L -6.37279,-37.8443 L -6.40791,-37.918 L -6.42278,-37.9982 L -6.41637,-38.0795 L -6.38913,-38.1564 L -6.34294,-38.2236
 L -6.02641,-38.4979 L -6.04102,-38.5497 L -6.13618,-39.0281 L -6.19353,-39.5126 L -6.19563,-39.5663 L -6.58142,-39.7294
 L -6.64613,-39.7791 L -6.6958,-39.8438 L -6.72702,-39.9191 L -6.73767,-40 L -6.72702,-40.0809 L -6.6958,-40.1562
 L -6.64613,-40.221 L -6.58142,-40.2706 L -6.19563,-40.4337 L -6.19353,-40.4874 L -6.13618,-40.9719 L -6.04102,-41.4503
 L -6.02641,-41.5021 L -6.34294,-41.7764 L -6.38913,-41.8436 L -6.41637,-41.9205 L -6.42278,-42.0018 L -6.40791,-42.082
 L -6.37279,-42.1557 L -6.31981,-42.2177 L -6.25258,-42.2639 L -6.17567,-42.2912 L -5.75838,-42.327 L -5.73976,-42.3775
 L -5.53554,-42.8205 L -5.29718,-43.2461 L -5.26729,-43.2908 L -5.48355,-43.6495 L -5.50671,-43.7277 L -5.50885,-43.8093
 L -5.48981,-43.8886 L -5.4509,-43.9603 L -5.39474,-44.0195 L -5.32518,-44.0621 L -5.24696,-44.0853 L -5.16541,-44.0874
 L -4.75746,-43.9926 L -4.72415,-44.0348 L -4.39302,-44.393 L -4.03481,-44.7242 L -3.99255,-44.7575 L -4.0874,-45.1654
 L -4.08527,-45.247 L -4.06209,-45.3252 L -4.01947,-45.3947 L -3.9603,-45.4509 L -3.88861,-45.4898 L -3.80928,-45.5089
 L -3.72774,-45.5067 L -3.64952,-45.4836 L -3.29085,-45.2673 L -3.24611,-45.2972 L -2.8205,-45.5355 L -2.37749,-45.7398
 L -2.32701,-45.7584 L -2.29115,-46.1757 L -2.26392,-46.2526 L -2.2177,-46.3198 L -2.15567,-46.3728 L -2.08205,-46.4079
 L -2.00185,-46.4228 L -1.92052,-46.4164 L -1.84361,-46.3891 L -1.77638,-46.3429 L -1.50209,-46.0264 L -1.45032,-46.041
 L -0.971863,-46.1362 L -0.487427,-46.1935 L -0.43367,-46.1956 L -0.270615,-46.5814 L -0.220947,-46.6461 L -0.156219,-46.6958
 L -0.0808563,-46.727 L 0,-46.7377 L 0.0808716,-46.727 L 0.15625,-46.6958 L 0.220963,-46.6461 L 0.27063,-46.5814
 L 0.433685,-46.1956 L 0.487427,-46.1935 L 0.971863,-46.1362 L 1.45032,-46.041 L 1.50209,-46.0264 L 1.77638,-46.3429
 L 1.84361,-46.3891 L 1.92053,-46.4164 L 2.00185,-46.4228 L 2.08205,-46.4079 L 2.15567,-46.3728 L 2.21771,-46.3198
 L 2.26392,-46.2526 L 2.29115,-46.1757 L 2.32701,-45.7584 L 2.37749,-45.7398 L 2.8205,-45.5355 L 3.24611,-45.2972
 L 3.29085,-45.2673 L 3.64952,-45.4836 L 3.72774,-45.5067 L 3.8093,-45.5089 L 3.88861,-45.4898 L 3.9603,-45.4509
 L 4.01947,-45.3947 L 4.0621,-45.3252 L 4.08527,-45.247 L 4.0874,-45.1654 L 3.99255,-44.7575 L 4.03481,-44.7242
 L 4.39302,-44.393 L 4.72415,-44.0348 L 4.75746,-43.9926 L 5.16541,-44.0874 L 5.24696,-44.0853 L 5.32518,-44.0621
 L 5.39474,-44.0195 L 5.4509,-43.9603 L 5.48981,-43.8886 L 5.50887,-43.8093 L 5.50671,-43.7277 L 5.48355,-43.6495
 L 5.26729,-43.2908 L 5.29718,-43.2461 L 5.53554,-42.8205 L 5.73976,-42.3775 L 5.75838,-42.327 L 6.17567,-42.2912
 L 6.25258,-42.2639 L 6.31981,-42.2177 L 6.37279,-42.1557 L 6.40791,-42.082 L 6.42278,-42.0018 L 6.41637,-41.9205
 L 6.38913,-41.8436 L 6.34294,-41.7764 L 6.02641,-41.5021 L 6.04102,-41.4503 L 6.13618,-40.9719 L 6.19353,-40.4874
 L 6.19563,-40.4337 L 6.58142,-40.2706 L 6.64613,-40.2209 L 6.6958,-40.1562 L 6.72702,-40.0809 L 6.73767,-40
 L 6.72702,-39.9191 L 6.6958,-39.8438 L 6.64613,-39.779 L 6.58142,-39.7294 L 6.19563,-39.5663 L 6.19353,-39.5126
 L 6.13618,-39.0281 L 6.04102,-38.5497 L 6.02641,-38.4979 L 6.34294,-38.2236 L 6.38913,-38.1564 L 6.41637,-38.0795
 L 6.42278,-37.9982 L 6.40791,-37.918 L 6.37279,-37.8443 L 6.31981,-37.7823 L 6.25258,-37.7361 L 6.17567,-37.7088
 L 5.75838,-37.673 L 5.73976,-37.6225 L 5.53554,-37.1795 L 5.29718,-36.7539 L 5.26729,-36.7092 L 5.48355,-36.3505
 L 5.50671,-36.2723 L 5.50885,-36.1907 L 5.48981,-36.1114 L 5.4509,-36.0397 L 5.39474,-35.9805 L 5.32518,-35.9379
 L 5.24696,-35.9147 L 5.16541,-35.9126 L 4.75746,-36.0074 L 4.72415,-35.9652 L 4.39302,-35.607 L 4.03481,-35.2758
 L 3.99255,-35.2425 L 4.0874,-34.8346 L 4.08527,-34.753 L 4.06209,-34.6748 L 4.01947,-34.6053 L 3.9603,-34.5491
 L 3.88861,-34.5102 L 3.80928,-34.4911 L 3.72774,-34.4933 L 3.64952,-34.5164 L 3.29085,-34.7327 L 3.24611,-34.7028
 L 2.8205,-34.4645 L 2.37749,-34.2602 L 2.32701,-34.2416 L 2.29115,-33.8243 L 2.26392,-33.7474 L 2.2177,-33.6802
 L 2.15567,-33.6272 L 2.08205,-33.5921 L 2.00185,-33.5772 L 1.92052,-33.5836 L 1.84361,-33.6109 L 1.77638,-33.6571
 L 1.50209,-33.9736 L 1.45032,-33.959 L 0.971863,-33.8638 L 0.487427,-33.8065 L 0.43367,-33.8044 L 0.270615,-33.4186
 L 0.220947,-33.3539 L 0.156219,-33.3042 L 0.0808563,-33.273 L 0,-33.2623 z
M -15.66,-37.5369 L -16.275,-37.7916 L -16.8031,-38.1969 L -17.2084,-38.725 L -17.4631,-39.34 L -17.55,-40
 L -17.4631,-40.66 L -17.2084,-41.275 L -16.8031,-41.8031 L -16.275,-42.2084 L -15.66,-42.4631 L -15,-42.55
 L -14.34,-42.4631 L -13.725,-42.2084 L -13.1969,-41.8031 L -12.7916,-41.275 L -12.5369,-40.66 L -12.45,-40
 L -12.5369,-39.34 L -12.7916,-38.725 L -13.1969,-38.1969 L -13.725,-37.7916 L -14.34,-37.5369 L -15,-37.45
 z
M 14.34,-37.5369 L 13.725,-37.7916 L 13.1969,-38.1969 L 12.7916,-38.725 L 12.5369,-39.34 L 12.45,-40
 L 12.5369,-40.66 L 12.7916,-41.275 L 13.1969,-41.8031 L 13.725,-42.2084 L 14.34,-42.4631 L 15,-42.55
 L 15.66,-42.4631 L 16.275,-42.2084 L 16.8031,-41.8031 L 17.2084,-41.275 L 17.4631,-40.66 L 17.55,-40
 L 17.4631,-39.34 L 17.2084,-38.725 L 16.8031,-38.1969 L 16.275,-37.7916 L 15.66,-37.5369 L 15,-37.45
 z
M 70,-3.175 L 75,-3.175 L 75,-30 L 70,-30 L 70,-33.175 L 60,-33.175
 L 60,-30 L 55,-30 L 55,-3.175 L 60,-3.175 L 60,-0 L 70,-0
 z
M 64.34,-14.1244 L 63.725,-14.3791 L 63.1969,-14.7844 L 62.7916,-15.3125 L 62.5369,-15.9275 L 62.45,-16.5875
 L 62.5369,-17.2475 L 62.7916,-17.8625 L 63.1969,-18.3906 L 63.725,-18.7959 L 64.34,-19.0506 L 65,-19.1375
 L 65.66,-19.0506 L 66.275,-18.7959 L 66.8031,-18.3906 L 67.2084,-17.8625 L 67.4631,-17.2475 L 67.55,-16.5875
 L 67.4631,-15.9275 L 67.2084,-15.3125 L 66.8031,-14.7844 L 66.275,-14.3791 L 65.66,-14.1244 L 65,-14.0375
 z
M 45,-3.175 L 50,-3.175 L 50,-30 L 45,-30 L 45,-33.175 L 35,-33.175
 L 35,-30 L 30,-30 L 30,-3.175 L 35,-3.175 L 35,-0 L 45,-0
 z
M 39.34,-14.1244 L 38.725,-14.3791 L 38.1969,-14.7844 L 37.7916,-15.3125 L 37.5369,-15.9275 L 37.45,-16.5875
 L 37.5369,-17.2475 L 37.7916,-17.8625 L 38.1969,-18.3906 L 38.725,-18.7959 L 39.34,-19.0506 L 40,-19.1375
 L 40.66,-19.0506 L 41.275,-18.7959 L 41.8031,-18.3906 L 42.2084,-17.8625 L 42.4631,-17.2475 L 42.55,-16.5875
 L 42.4631,-15.9275 L 42.2084,-15.3125 L 41.8031,-14.7844 L 41.275,-14.3791 L 40.66,-14.1244 L 40,-14.0375
 z
M 95,-3.175 L 100,-3.175 L 100,-30 L 95,-30 L 95,-33.175 L 85,-33.175
 L 85,-30 L 80,-30 L 80,-3.175 L 85,-3.175 L 85,-0 L 95,-0
 z
M 89.34,-14.1244 L 88.725,-14.3791 L 88.1969,-14.7844 L 87.7916,-15.3125 L 87.5369,-15.9275 L 87.45,-16.5875
 L 87.5369,-17.2475 L 87.7916,-17.8625 L 88.1969,-18.3906 L 88.725,-18.7959 L 89.34,-19.0506 L 90,-19.1375
 L 90.66,-19.0506 L 91.275,-18.7959 L 91.8031,-18.3906 L 92.2084,-17.8625 L 92.4631,-17.2475 L 92.55,-16.5875
 L 92.4631,-15.9275 L 92.2084,-15.3125 L 91.8031,-14.7844 L 91.275,-14.3791 L 90.66,-14.1244 L 90,-14.0375
 z
M 0.652618,-0.74173 L 0.733475,-0.75238 L 1.37494,-0.879974 L 1.73235,-1.0013 L 1.86693,-0.992477 L 2.51955,-1.03526
 L 3.24121,-1.17772 L 3.86053,-1.38795 L 4.52075,-1.71234 L 5.06454,-2.0757 L 5.07448,-2.08418 L 5.54538,-2.24403
 L 6.13197,-2.53329 L 6.20366,-2.57222 L 6.74745,-2.93558 L 7.23918,-3.36682 L 7.29836,-3.42297 L 7.7296,-3.9147
 L 7.87207,-4.12793 L 8.0853,-4.2704 L 8.34709,-4.5 L 14.2927,-4.5 L 14.3474,-4.4928 L 15,-4.45001
 L 15.6526,-4.4928 L 16.3126,-4.57968 L 16.9541,-4.70728 L 17.5734,-4.91751 L 18.1884,-5.17226 L 18.775,-5.46152
 L 19.3188,-5.82487 L 19.8469,-6.23012 L 20.3386,-6.66136 L 20.7699,-7.15309 L 21.1751,-7.68121 L 21.5385,-8.22501
 L 21.8277,-8.8116 L 22.0825,-9.42661 L 22.2927,-10.0459 L 22.4203,-10.6874 L 22.5072,-11.3474 L 22.55,-12
 L 22.5072,-12.6526 L 22.4203,-13.3126 L 22.2927,-13.9541 L 22.0825,-14.5734 L 21.8277,-15.1884 L 21.5385,-15.775
 L 21.1751,-16.3188 L 20.7699,-16.8469 L 20.3386,-17.3386 L 19.8469,-17.7699 L 19.3188,-18.1751 L 18.775,-18.5385
 L 18.1884,-18.8277 L 17.5734,-19.0825 L 16.9541,-19.2927 L 16.3126,-19.4203 L 15.6526,-19.5072 L 15,-19.55
 L 14.3474,-19.5072 L 14.2927,-19.5 L 8.34709,-19.5 L 8.0853,-19.7296 L 7.87207,-19.8721 L 7.7296,-20.0853
 L 7.29836,-20.577 L 7.23918,-20.6332 L 6.74745,-21.0644 L 6.20366,-21.4278 L 6.13197,-21.4667 L 5.54538,-21.756
 L 5.07448,-21.9158 L 5.06454,-21.9243 L 4.52075,-22.2877 L 3.86053,-22.612 L 3.24121,-22.8223 L 2.51955,-22.9647
 L 1.86693,-23.0075 L 1.73236,-22.9987 L 1.37495,-23.12 L 0.73349,-23.2476 L 0.652618,-23.2583 L 0,-23.3011
 L -0.652618,-23.2583 L -0.733475,-23.2476 L -1.37494,-23.12 L -1.73235,-22.9987 L -1.86693,-23.0075 L -2.51955,-22.9647
 L -3.24121,-22.8223 L -3.86053,-22.612 L -4.52074,-22.2877 L -5.06454,-21.9243 L -5.07448,-21.9158 L -5.54538,-21.756
 L -6.13196,-21.4667 L -6.20364,-21.4278 L -6.74745,-21.0644 L -7.23918,-20.6332 L -7.29836,-20.577 L -7.7296,-20.0853
 L -7.87207,-19.8721 L -8.0853,-19.7296 L -8.34709,-19.5 L -14.2927,-19.5 L -14.3474,-19.5072 L -15,-19.55
 L -15.6526,-19.5072 L -16.3126,-19.4203 L -16.9541,-19.2927 L -17.5734,-19.0825 L -18.1884,-18.8277 L -18.775,-18.5385
 L -19.3188,-18.1751 L -19.8469,-17.7699 L -20.3386,-17.3386 L -20.7699,-16.8469 L -21.1751,-16.3188 L -21.5385,-15.775
 L -21.8277,-15.1884 L -22.0825,-14.5734 L -22.2927,-13.9541 L -22.4203,-13.3126 L -22.5072,-12.6526 L -22.55,-12
 L -22.5072,-11.3474 L -22.4203,-10.6874 L -22.2927,-10.0459 L -22.0825,-9.42661 L -21.8277,-8.8116 L -21.5385,-8.22502
 L -21.1751,-7.68121 L -20.7699,-7.15309 L -20.3386,-6.66136 L -19.8469,-6.23012 L -19.3188,-5.82487 L -18.775,-5.46152
 L -18.1884,-5.17226 L -17.5734,-4.91751 L -16.9541,-4.70728 L -16.3126,-4.57968 L -15.6526,-4.4928 L -15,-4.45001
 L -14.3474,-4.4928 L -14.2927,-4.5 L -8.34709,-4.5 L -8.0853,-4.2704 L -7.87207,-4.12793 L -7.7296,-3.9147
 L -7.29836,-3.42297 L -7.23918,-3.36682 L -6.74745,-2.93558 L -6.20366,-2.57222 L -6.13197,-2.53329 L -5.54538,-2.24403
 L -5.07448,-2.08418 L -5.06454,-2.0757 L -4.52075,-1.71234 L -3.86053,-1.38795 L -3.24121,-1.17772 L -2.51955,-1.03526
 L -1.86693,-0.992477 L -1.73236,-1.0013 L -1.37495,-0.879974 L -0.73349,-0.75238 L -0.652618,-0.74173 L 0,-0.698944
 z
M -0.0808716,-5.70959 L -0.15625,-5.74081 L -0.220963,-5.79048 L -0.27063,-5.85519 L -0.433685,-6.24098 L -0.453171,-6.24174
 L -0.903564,-6.29506 L -1.34839,-6.38353 L -1.36717,-6.38882 L -1.64146,-6.07231 L -1.70869,-6.02612 L -1.7856,-5.99889
 L -1.86693,-5.99248 L -1.94713,-6.00734 L -2.02075,-6.04247 L -2.08279,-6.09544 L -2.12898,-6.16267 L -2.15623,-6.23958
 L -2.19209,-6.65686 L -2.2104,-6.66362 L -2.62227,-6.8535 L -3.01797,-7.0751 L -3.03419,-7.08594 L -3.39288,-6.86967
 L -3.4711,-6.84651 L -3.55266,-6.84438 L -3.63197,-6.86342 L -3.70366,-6.90234 L -3.76283,-6.9585 L -3.80547,-7.02806
 L -3.82863,-7.10628 L -3.83076,-7.18782 L -3.73593,-7.59576 L -3.75125,-7.60785 L -4.08429,-7.91571 L -4.39215,-8.24875
 L -4.40424,-8.26407 L -4.81218,-8.16924 L -4.89372,-8.17137 L -4.97195,-8.19455 L -5.0415,-8.23717 L -5.09766,-8.29634
 L -5.13658,-8.36803 L -5.15562,-8.44736 L -5.15349,-8.5289 L -5.13033,-8.60712 L -4.91406,-8.96581 L -4.9249,-8.98203
 L -5.1465,-9.37773 L -5.33638,-9.7896 L -5.34314,-9.80791 L -5.76042,-9.84377 L -5.83733,-9.87102 L -5.90456,-9.91722
 L -5.95753,-9.97925 L -5.99266,-10.0529 L -6.00752,-10.1331 L -6.00113,-10.2144 L -5.97388,-10.2913 L -5.92769,-10.3585
 L -5.61118,-10.6328 L -5.61647,-10.6516 L -5.70494,-11.0964 L -5.75826,-11.5468 L -5.75902,-11.5663 L -6.14481,-11.7294
 L -6.20952,-11.7791 L -6.25919,-11.8438 L -6.29041,-11.9191 L -6.30106,-12 L -6.29041,-12.0809 L -6.25919,-12.1562
 L -6.20952,-12.221 L -6.14481,-12.2706 L -5.75902,-12.4337 L -5.75826,-12.4532 L -5.70494,-12.9036 L -5.61647,-13.3484
 L -5.61118,-13.3672 L -5.92769,-13.6415 L -5.97388,-13.7087 L -6.00111,-13.7856 L -6.00752,-13.8669 L -5.99266,-13.9471
 L -5.95753,-14.0208 L -5.90456,-14.0828 L -5.83733,-14.129 L -5.76042,-14.1562 L -5.34314,-14.1921 L -5.33638,-14.2104
 L -5.1465,-14.6223 L -4.9249,-15.018 L -4.91406,-15.0342 L -5.13033,-15.3929 L -5.15349,-15.4711 L -5.15562,-15.5527
 L -5.13658,-15.632 L -5.09766,-15.7037 L -5.0415,-15.7628 L -4.97194,-15.8055 L -4.89372,-15.8286 L -4.81218,-15.8308
 L -4.40424,-15.7359 L -4.39215,-15.7513 L -4.08429,-16.0843 L -3.75125,-16.3922 L -3.73593,-16.4042 L -3.83076,-16.8122
 L -3.82863,-16.8937 L -3.80545,-16.972 L -3.76283,-17.0415 L -3.70366,-17.0977 L -3.63197,-17.1366 L -3.55264,-17.1556
 L -3.4711,-17.1535 L -3.39288,-17.1303 L -3.03419,-16.9141 L -3.01797,-16.9249 L -2.62227,-17.1465 L -2.2104,-17.3364
 L -2.19209,-17.3431 L -2.15623,-17.7604 L -2.12898,-17.8373 L -2.08278,-17.9046 L -2.02075,-17.9575 L -1.94713,-17.9927
 L -1.86693,-18.0075 L -1.78558,-18.0011 L -1.70869,-17.9739 L -1.64146,-17.9277 L -1.36717,-17.6112 L -1.34839,-17.6165
 L -0.903564,-17.7049 L -0.453171,-17.7583 L -0.43367,-17.759 L -0.270615,-18.1448 L -0.220947,-18.2095 L -0.156219,-18.2592
 L -0.0808563,-18.2904 L 0,-18.3011 L 0.0808716,-18.2904 L 0.15625,-18.2592 L 0.220963,-18.2095 L 0.27063,-18.1448
 L 0.433685,-17.759 L 0.453171,-17.7583 L 0.903564,-17.7049 L 1.34839,-17.6165 L 1.36717,-17.6112 L 1.64146,-17.9277
 L 1.70869,-17.9739 L 1.7856,-18.0011 L 1.86693,-18.0075 L 1.94713,-17.9927 L 2.02075,-17.9575 L 2.08279,-17.9046
 L 2.12898,-17.8373 L 2.15623,-17.7604 L 2.19209,-17.3431 L 2.2104,-17.3364 L 2.62227,-17.1465 L 3.01797,-16.9249
 L 3.03419,-16.9141 L 3.39288,-17.1303 L 3.4711,-17.1535 L 3.55266,-17.1556 L 3.63197,-17.1366 L 3.70366,-17.0977
 L 3.76283,-17.0415 L 3.80547,-16.9719 L 3.82863,-16.8937 L 3.83076,-16.8122 L 3.73593,-16.4042 L 3.75125,-16.3922
 L 4.08429,-16.0843 L 4.39215,-15.7513 L 4.40424,-15.7359 L 4.81218,-15.8308 L 4.89372,-15.8286 L 4.97195,-15.8055
 L 5.0415,-15.7628 L 5.09766,-15.7037 L 5.13658,-15.632 L 5.15562,-15.5526 L 5.15349,-15.4711 L 5.13033,-15.3929
 L 4.91406,-15.0342 L 4.9249,-15.018 L 5.1465,-14.6223 L 5.33638,-14.2104 L 5.34314,-14.1921 L 5.76042,-14.1562
 L 5.83733,-14.129 L 5.90456,-14.0828 L 5.95753,-14.0208 L 5.99266,-13.9471 L 6.00752,-13.8669 L 6.00113,-13.7856
 L 5.97388,-13.7087 L 5.92769,-13.6415 L 5.61118,-13.3672 L 5.61647,-13.3484 L 5.70494,-12.9036 L 5.75826,-12.4532
 L 5.75902,-12.4337 L 6.14481,-12.2706 L 6.20952,-12.2209 L 6.25919,-12.1562 L 6.29041,-12.0809 L 6.30106,-12
 L 6.29041,-11.9191 L 6.25919,-11.8438 L 6.20952,-11.779 L 6.14481,-11.7294 L 5.75902,-11.5663 L 5.75826,-11.5468
 L 5.70494,-11.0964 L 5.61647,-10.6516 L 5.61118,-10.6328 L 5.92769,-10.3585 L 5.97388,-10.2913 L 6.00111,-10.2144
 L 6.00752,-10.1331 L 5.99266,-10.0529 L 5.95753,-9.97925 L 5.90456,-9.91721 L 5.83733,-9.87102 L 5.76042,-9.84377
 L 5.34314,-9.80791 L 5.33638,-9.7896 L 5.1465,-9.37773 L 4.9249,-8.98203 L 4.91406,-8.96581 L 5.13033,-8.60712
 L 5.15349,-8.5289 L 5.15562,-8.44734 L 5.13658,-8.36803 L 5.09766,-8.29634 L 5.0415,-8.23717 L 4.97194,-8.19453
 L 4.89372,-8.17137 L 4.81218,-8.16924 L 4.40424,-8.26407 L 4.39215,-8.24875 L 4.08429,-7.91571 L 3.75125,-7.60785
 L 3.73593,-7.59576 L 3.83076,-7.18782 L 3.82863,-7.10628 L 3.80545,-7.02805 L 3.76283,-6.9585 L 3.70366,-6.90234
 L 3.63197,-6.86342 L 3.55264,-6.84438 L 3.4711,-6.84651 L 3.39288,-6.86967 L 3.03419,-7.08594 L 3.01797,-7.0751
 L 2.62227,-6.8535 L 2.2104,-6.66362 L 2.19209,-6.65686 L 2.15623,-6.23958 L 2.12898,-6.16267 L 2.08278,-6.09544
 L 2.02075,-6.04247 L 1.94713,-6.00734 L 1.86693,-5.99248 L 1.78558,-5.99887 L 1.70869,-6.02612 L 1.64146,-6.07231
 L 1.36717,-6.38882 L 1.34839,-6.38353 L 0.903564,-6.29506 L 0.453171,-6.24174 L 0.43367,-6.24098 L 0.270615,-5.85519
 L 0.220947,-5.79048 L 0.156219,-5.74081 L 0.0808563,-5.70959 L 0,-5.69894 z
M 14.34,-9.5369 L 13.725,-9.79164 L 13.1969,-10.1969 L 12.7916,-10.725 L 12.5369,-11.34 L 12.45,-12
 L 12.5369,-12.66 L 12.7916,-13.275 L 13.1969,-13.8031 L 13.725,-14.2084 L 14.34,-14.4631 L 15,-14.55
 L 15.66,-14.4631 L 16.275,-14.2084 L 16.8031,-13.8031 L 17.2084,-13.275 L 17.4631,-12.66 L 17.55,-12
 L 17.4631,-11.34 L 17.2084,-10.725 L 16.8031,-10.1969 L 16.275,-9.79164 L 15.66,-9.5369 L 15,-9.45001
 z
M -15.66,-9.5369 L -16.275,-9.79164 L -16.8031,-10.1969 L -17.2084,-10.725 L -17.4631,-11.34 L -17.55,-12
 L -17.4631,-12.66 L -17.2084,-13.275 L -16.8031,-13.8031 L -16.275,-14.2084 L -15.66,-14.4631 L -15,-14.55
 L -14.34,-14.4631 L -13.725,-14.2084 L -13.1969,-13.8031 L -12.7916,-13.275 L -12.5369,-12.66 L -12.45,-12
 L -12.5369,-11.34 L -12.7916,-10.725 L -13.1969,-10.1969 L -13.725,-9.79164 L -14.34,-9.5369 L -15,-9.45001
 z
" stroke="black" fill="lightgray" stroke-width="0.5"/></svg>
