<?xml version="1.0" standalone="no"?>
<!DOCTYPE svg PUBLIC "-//W3C//DTD SVG 1.1//EN" "http://www.w3.org/Graphics/SVG/1.1/DTD/svg11.dtd">
<svg width="260" height="437" viewBox="0 -260 260 437" xmlns="http://www.w3.org/2000/svg" version="1.1">
<title>OpenSCAD Model</title>
<path d="
M 260,-260 L 0,-260 L 0,100 L 260,100 z
M 49.34,-249.537 L 48.725,-249.792 L 48.1969,-250.197 L 47.7916,-250.725 L 47.5369,-251.34 L 47.45,-252
 L 47.5369,-252.66 L 47.7916,-253.275 L 48.1969,-253.803 L 48.725,-254.208 L 49.34,-254.463 L 50,-254.55
 L 50.66,-254.463 L 51.275,-254.208 L 51.8031,-253.803 L 52.2084,-253.275 L 52.4631,-252.66 L 52.55,-252
 L 52.4631,-251.34 L 52.2084,-250.725 L 51.8031,-250.197 L 51.275,-249.792 L 50.66,-249.537 L 50,-249.45
 z
M 209.34,-249.537 L 208.725,-249.792 L 208.197,-250.197 L 207.792,-250.725 L 207.537,-251.34 L 207.45,-252
 L 207.537,-252.66 L 207.792,-253.275 L 208.197,-253.803 L 208.725,-254.208 L 209.34,-254.463 L 210,-254.55
 L 210.66,-254.463 L 211.275,-254.208 L 211.803,-253.803 L 212.208,-253.275 L 212.463,-252.66 L 212.55,-252
 L 212.463,-251.34 L 212.208,-250.725 L 211.803,-250.197 L 211.275,-249.792 L 210.66,-249.537 L 210,-249.45
 z
M 236.573,-250.906 L 236.175,-251.071 L 235.833,-251.333 L 235.571,-251.675 L 235.406,-252.073 L 235.35,-252.5
 L 235.406,-252.927 L 235.571,-253.325 L 235.833,-253.667 L 236.175,-253.929 L 236.573,-254.094 L 237,-254.15
 L 237.427,-254.094 L 237.825,-253.929 L 238.167,-253.667 L 238.429,-253.325 L 238.594,-252.927 L 238.65,-252.5
 L 238.594,-252.073 L 238.429,-251.675 L 238.167,-251.333 L 237.825,-251.071 L 237.427,-250.906 L 237,-250.85
 z
M 22.5729,-250.906 L 22.175,-251.071 L 21.8333,-251.333 L 21.571,-251.675 L 21.4062,-252.073 L 21.35,-252.5
 L 21.4062,-252.927 L 21.571,-253.325 L 21.8333,-253.667 L 22.175,-253.929 L 22.5729,-254.094 L 23,-254.15
 L 23.427,-254.094 L 23.825,-253.929 L 24.1667,-253.667 L 24.4289,-253.325 L 24.5938,-252.927 L 24.65,-252.5
 L 24.5938,-252.073 L 24.4289,-251.675 L 24.1667,-251.333 L 23.825,-251.071 L 23.427,-250.906 L 23,-250.85
 z
M 119.34,-247.537 L 118.725,-247.792 L 118.197,-248.197 L 117.792,-248.725 L 117.537,-249.34 L 117.45,-250
 L 117.537,-250.66 L 117.792,-251.275 L 118.197,-251.803 L 118.725,-252.208 L 119.34,-252.463 L 120,-252.55
 L 120.66,-252.463 L 121.275,-252.208 L 121.803,-251.803 L 122.208,-251.275 L 122.463,-250.66 L 122.55,-250
 L 122.463,-249.34 L 122.208,-248.725 L 121.803,-248.197 L 121.275,-247.792 L 120.66,-247.537 L 120,-247.45
 z
M 139.34,-247.537 L 138.725,-247.792 L 138.197,-248.197 L 137.792,-248.725 L 137.537,-249.34 L 137.45,-250
 L 137.537,-250.66 L 137.792,-251.275 L 138.197,-251.803 L 138.725,-252.208 L 139.34,-252.463 L 140,-252.55
 L 140.66,-252.463 L 141.275,-252.208 L 141.803,-251.803 L 142.208,-251.275 L 142.463,-250.66 L 142.55,-250
 L 142.463,-249.34 L 142.208,-248.725 L 141.803,-248.197 L 141.275,-247.792 L 140.66,-247.537 L 140,-247.45
 z
M 109.34,-246.537 L 108.725,-246.792 L 108.197,-247.197 L 107.792,-247.725 L 107.537,-248.34 L 107.45,-249
 L 107.537,-249.66 L 107.792,-250.275 L 108.197,-250.803 L 108.725,-251.208 L 109.34,-251.463 L 110,-251.55
 L 110.66,-251.463 L 111.275,-251.208 L 111.803,-250.803 L 112.208,-250.275 L 112.463,-249.66 L 112.55,-249
 L 112.463,-248.34 L 112.208,-247.725 L 111.803,-247.197 L 111.275,-246.792 L 110.66,-246.537 L 110,-246.45
 z
M 149.34,-246.537 L 148.725,-246.792 L 148.197,-247.197 L 147.792,-247.725 L 147.537,-248.34 L 147.45,-249
 L 147.537,-249.66 L 147.792,-250.275 L 148.197,-250.803 L 148.725,-251.208 L 149.34,-251.463 L 150,-251.55
 L 150.66,-251.463 L 151.275,-251.208 L 151.803,-250.803 L 152.208,-250.275 L 152.463,-249.66 L 152.55,-249
 L 152.463,-248.34 L 152.208,-247.725 L 151.803,-247.197 L 151.275,-246.792 L 150.66,-246.537 L 150,-246.45
 z
M 19.7774,-219.839 L 16.6956,-220.84 L 13.8893,-222.46 L 11.4813,-224.628 L 9.57661,-227.25 L 8.25864,-230.21
 L 7.58492,-233.38 L 7.58492,-236.62 L 8.25864,-239.79 L 9.57661,-242.75 L 11.4813,-245.372 L 13.8893,-247.54
 L 16.6956,-249.16 L 19.7774,-250.161 L 23,-250.5 L 26.2226,-250.161 L 29.3044,-249.16 L 32.1107,-247.54
 L 34.5187,-245.372 L 36.4234,-242.75 L 37.7414,-239.79 L 38.4151,-236.62 L 38.4151,-233.38 L 37.7414,-230.21
 L 36.4234,-227.25 L 34.5187,-224.628 L 32.1107,-222.46 L 29.3044,-220.84 L 26.2226,-219.839 L 23,-219.5
 z
M 233.777,-219.839 L 230.696,-220.84 L 227.889,-222.46 L 225.481,-224.628 L 223.577,-227.25 L 222.259,-230.21
 L 221.585,-233.38 L 221.585,-236.62 L 222.259,-239.79 L 223.577,-242.75 L 225.481,-245.372 L 227.889,-247.54
 L 230.696,-249.16 L 233.777,-250.161 L 237,-250.5 L 240.223,-250.161 L 243.304,-249.16 L 246.111,-247.54
 L 248.519,-245.372 L 250.423,-242.75 L 251.741,-239.79 L 252.415,-236.62 L 252.415,-233.38 L 251.741,-230.21
 L 250.423,-227.25 L 248.519,-224.628 L 246.111,-222.46 L 243.304,-220.84 L 240.223,-219.839 L 237,-219.5
 z
M 99.34,-244.537 L 98.725,-244.792 L 98.1969,-245.197 L 97.7916,-245.725 L 97.5369,-246.34 L 97.45,-247
 L 97.5369,-247.66 L 97.7916,-248.275 L 98.1969,-248.803 L 98.725,-249.208 L 99.34,-249.463 L 100,-249.55
 L 100.66,-249.463 L 101.275,-249.208 L 101.803,-248.803 L 102.208,-248.275 L 102.463,-247.66 L 102.55,-247
 L 102.463,-246.34 L 102.208,-245.725 L 101.803,-245.197 L 101.275,-244.792 L 100.66,-244.537 L 100,-244.45
 z
M 159.34,-244.537 L 158.725,-244.792 L 158.197,-245.197 L 157.792,-245.725 L 157.537,-246.34 L 157.45,-247
 L 157.537,-247.66 L 157.792,-248.275 L 158.197,-248.803 L 158.725,-249.208 L 159.34,-249.463 L 160,-249.55
 L 160.66,-249.463 L 161.275,-249.208 L 161.803,-248.803 L 162.208,-248.275 L 162.463,-247.66 L 162.55,-247
 L 162.463,-246.34 L 162.208,-245.725 L 161.803,-245.197 L 161.275,-244.792 L 160.66,-244.537 L 160,-244.45
 z
M 169.34,-242.537 L 168.725,-242.792 L 168.197,-243.197 L 167.792,-243.725 L 167.537,-244.34 L 167.45,-245
 L 167.537,-245.66 L 167.792,-246.275 L 168.197,-246.803 L 168.725,-247.208 L 169.34,-247.463 L 170,-247.55
 L 170.66,-247.463 L 171.275,-247.208 L 171.803,-246.803 L 172.208,-246.275 L 172.463,-245.66 L 172.55,-245
 L 172.463,-244.34 L 172.208,-243.725 L 171.803,-243.197 L 171.275,-242.792 L 170.66,-242.537 L 170,-242.45
 z
M 89.34,-242.537 L 88.725,-242.792 L 88.1969,-243.197 L 87.7916,-243.725 L 87.5369,-244.34 L 87.45,-245
 L 87.5369,-245.66 L 87.7916,-246.275 L 88.1969,-246.803 L 88.725,-247.208 L 89.34,-247.463 L 90,-247.55
 L 90.66,-247.463 L 91.275,-247.208 L 91.8031,-246.803 L 92.2084,-246.275 L 92.4631,-245.66 L 92.55,-245
 L 92.4631,-244.34 L 92.2084,-243.725 L 91.8031,-243.197 L 91.275,-242.792 L 90.66,-242.537 L 90,-242.45
 z
M 10,-130 L 10.2368,-137.08 L 10.9462,-144.133 L 12.1255,-151.13 L 13.77,-158.043 L 15.8732,-164.846
 L 18.4268,-171.511 L 21.4208,-178.012 L 24.8432,-184.324 L 28.6807,-190.421 L 32.918,-196.28 L 37.5384,-201.878
 L 42.5238,-207.192 L 47.8544,-212.201 L 53.5091,-216.885 L 59.4658,-221.227 L 65.7008,-225.209 L 72.1896,-228.815
 L 78.9065,-232.031 L 85.8251,-234.844 L 92.918,-237.244 L 100.157,-239.22 L 107.514,-240.766 L 114.96,-241.874
 L 122.465,-242.541 L 130,-242.763 L 137.535,-242.541 L 145.04,-241.874 L 152.486,-240.766 L 159.843,-239.22
 L 167.082,-237.244 L 174.175,-234.844 L 181.094,-232.031 L 187.81,-228.815 L 194.299,-225.209 L 200.534,-221.227
 L 206.491,-216.885 L 212.146,-212.201 L 217.476,-207.192 L 222.462,-201.878 L 227.082,-196.28 L 231.319,-190.421
 L 235.157,-184.324 L 238.579,-178.012 L 241.573,-171.511 L 244.127,-164.846 L 246.23,-158.043 L 247.874,-151.13
 L 249.054,-144.133 L 249.763,-137.08 L 250,-130 L 160,-130 L 160,-165 L 100,-165
 L 100,-130 z
M 209.34,-229.537 L 208.725,-229.792 L 208.197,-230.197 L 207.792,-230.725 L 207.537,-231.34 L 207.45,-232
 L 207.537,-232.66 L 207.792,-233.275 L 208.197,-233.803 L 208.725,-234.208 L 209.34,-234.463 L 210,-234.55
 L 210.66,-234.463 L 211.275,-234.208 L 211.803,-233.803 L 212.208,-233.275 L 212.463,-232.66 L 212.55,-232
 L 212.463,-231.34 L 212.208,-230.725 L 211.803,-230.197 L 211.275,-229.792 L 210.66,-229.537 L 210,-229.45
 z
M 49.34,-229.537 L 48.725,-229.792 L 48.1969,-230.197 L 47.7916,-230.725 L 47.5369,-231.34 L 47.45,-232
 L 47.5369,-232.66 L 47.7916,-233.275 L 48.1969,-233.803 L 48.725,-234.208 L 49.34,-234.463 L 50,-234.55
 L 50.66,-234.463 L 51.275,-234.208 L 51.8031,-233.803 L 52.2084,-233.275 L 52.4631,-232.66 L 52.55,-232
 L 52.4631,-231.34 L 52.2084,-230.725 L 51.8031,-230.197 L 51.275,-229.792 L 50.66,-229.537 L 50,-229.45
 z
M 22.5729,-215.906 L 22.175,-216.071 L 21.8333,-216.333 L 21.571,-216.675 L 21.4062,-217.073 L 21.35,-217.5
 L 21.4062,-217.927 L 21.571,-218.325 L 21.8333,-218.667 L 22.175,-218.929 L 22.5729,-219.094 L 23,-219.15
 L 23.427,-219.094 L 23.825,-218.929 L 24.1667,-218.667 L 24.4289,-218.325 L 24.5938,-217.927 L 24.65,-217.5
 L 24.5938,-217.073 L 24.4289,-216.675 L 24.1667,-216.333 L 23.825,-216.071 L 23.427,-215.906 L 23,-215.85
 z
M 236.573,-215.906 L 236.175,-216.071 L 235.833,-216.333 L 235.571,-216.675 L 235.406,-217.073 L 235.35,-217.5
 L 235.406,-217.927 L 235.571,-218.325 L 235.833,-218.667 L 236.175,-218.929 L 236.573,-219.094 L 237,-219.15
 L 237.427,-219.094 L 237.825,-218.929 L 238.167,-218.667 L 238.429,-218.325 L 238.594,-217.927 L 238.65,-217.5
 L 238.594,-217.073 L 238.429,-216.675 L 238.167,-216.333 L 237.825,-216.071 L 237.427,-215.906 L 237,-215.85
 z
M 127.909,-98.1096 L 123.82,-98.9789 L 120,-100.679 L 116.617,-103.137 L 113.82,-106.244 L 111.729,-109.865
 L 110.437,-113.842 L 110,-118 L 110.437,-122.158 L 111.729,-126.135 L 113.82,-129.756 L 116.617,-132.863
 L 120,-135.32 L 123.82,-137.021 L 127.909,-137.89 L 132.091,-137.89 L 136.18,-137.021 L 140,-135.32
 L 143.383,-132.863 L 146.18,-129.756 L 148.271,-126.135 L 149.563,-122.158 L 150,-118 L 149.563,-113.842
 L 148.271,-109.865 L 146.18,-106.244 L 143.383,-103.137 L 140,-100.679 L 136.18,-98.9789 L 132.091,-98.1096
 z
M 223.223,-3.09314 L 219.747,-3.83205 L 216.5,-5.27757 L 213.625,-7.36655 L 211.247,-10.0077 L 209.47,-13.0855
 L 208.372,-16.4655 L 208,-20 L 208.372,-23.5345 L 209.47,-26.9145 L 211.247,-29.9923 L 213.625,-32.6335
 L 216.5,-34.7224 L 219.747,-36.168 L 223.223,-36.9069 L 226.777,-36.9069 L 230.253,-36.168 L 233.5,-34.7224
 L 236.375,-32.6335 L 238.753,-29.9923 L 240.53,-26.9145 L 241.628,-23.5345 L 242,-20 L 241.628,-16.4655
 L 240.53,-13.0855 L 238.753,-10.0077 L 236.375,-7.36655 L 233.5,-5.27757 L 230.253,-3.83205 L 226.777,-3.09314
 z
M 33.223,-3.09314 L 29.7467,-3.83205 L 26.5,-5.27757 L 23.6248,-7.36655 L 21.2467,-10.0077 L 19.4697,-13.0855
 L 18.3715,-16.4655 L 18,-20 L 18.3715,-23.5345 L 19.4697,-26.9145 L 21.2467,-29.9923 L 23.6248,-32.6335
 L 26.5,-34.7224 L 29.7467,-36.168 L 33.223,-36.9069 L 36.777,-36.9069 L 40.2533,-36.168 L 43.5,-34.7224
 L 46.3752,-32.6335 L 48.7533,-29.9923 L 50.5303,-26.9145 L 51.6285,-23.5345 L 52,-20 L 51.6285,-16.4655
 L 50.5303,-13.0855 L 48.7533,-10.0077 L 46.3752,-7.36655 L 43.5,-5.27757 L 40.2533,-3.83205 L 36.777,-3.09314
 z
M 15.5229,-18.4062 L 15.125,-18.5711 L 14.7833,-18.8333 L 14.5211,-19.175 L 14.3562,-19.573 L 14.3,-20
 L 14.3562,-20.427 L 14.5211,-20.825 L 14.7833,-21.1667 L 15.125,-21.4289 L 15.5229,-21.5938 L 15.95,-21.65
 L 16.3771,-21.5938 L 16.775,-21.4289 L 17.1167,-21.1667 L 17.379,-20.825 L 17.5438,-20.427 L 17.6,-20
 L 17.5438,-19.573 L 17.379,-19.175 L 17.1167,-18.8333 L 16.775,-18.5711 L 16.3771,-18.4062 L 15.95,-18.35
 z
M 53.6229,-18.4062 L 53.225,-18.5711 L 52.8833,-18.8333 L 52.621,-19.175 L 52.4562,-19.573 L 52.4,-20
 L 52.4562,-20.427 L 52.621,-20.825 L 52.8833,-21.1667 L 53.225,-21.4289 L 53.6229,-21.5938 L 54.05,-21.65
 L 54.4771,-21.5938 L 54.875,-21.4289 L 55.2167,-21.1667 L 55.4789,-20.825 L 55.6438,-20.427 L 55.7,-20
 L 55.6438,-19.573 L 55.4789,-19.175 L 55.2167,-18.8333 L 54.875,-18.5711 L 54.4771,-18.4062 L 54.05,-18.35
 z
M 243.623,-18.4062 L 243.225,-18.5711 L 242.883,-18.8333 L 242.621,-19.175 L 242.456,-19.573 L 242.4,-20
 L 242.456,-20.427 L 242.621,-20.825 L 242.883,-21.1667 L 243.225,-21.4289 L 243.623,-21.5938 L 244.05,-21.65
 L 244.477,-21.5938 L 244.875,-21.4289 L 245.217,-21.1667 L 245.479,-20.825 L 245.644,-20.427 L 245.7,-20
 L 245.644,-19.573 L 245.479,-19.175 L 245.217,-18.8333 L 244.875,-18.5711 L 244.477,-18.4062 L 244.05,-18.35
 z
M 205.523,-18.4062 L 205.125,-18.5711 L 204.783,-18.8333 L 204.521,-19.175 L 204.356,-19.573 L 204.3,-20
 L 204.356,-20.427 L 204.521,-20.825 L 204.783,-21.1667 L 205.125,-21.4289 L 205.523,-21.5938 L 205.95,-21.65
 L 206.377,-21.5938 L 206.775,-21.4289 L 207.117,-21.1667 L 207.379,-20.825 L 207.544,-20.427 L 207.6,-20
 L 207.544,-19.573 L 207.379,-19.175 L 207.117,-18.8333 L 206.775,-18.5711 L 206.377,-18.4062 L 205.95,-18.35
 z
M 223.223,46.9069 L 219.747,46.168 L 216.5,44.7224 L 213.625,42.6335 L 211.247,39.9923 L 209.47,36.9145
 L 208.372,33.5345 L 208,30 L 208.372,26.4655 L 209.47,23.0855 L 211.247,20.0077 L 213.625,17.3665
 L 216.5,15.2776 L 219.747,13.832 L 223.223,13.0931 L 226.777,13.0931 L 230.253,13.832 L 233.5,15.2776
 L 236.375,17.3665 L 238.753,20.0077 L 240.53,23.0855 L 241.628,26.4655 L 242,30 L 241.628,33.5345
 L 240.53,36.9145 L 238.753,39.9923 L 236.375,42.6335 L 233.5,44.7224 L 230.253,46.168 L 226.777,46.9069
 z
M 33.223,46.9069 L 29.7467,46.168 L 26.5,44.7224 L 23.6248,42.6335 L 21.2467,39.9923 L 19.4697,36.9145
 L 18.3715,33.5345 L 18,30 L 18.3715,26.4655 L 19.4697,23.0855 L 21.2467,20.0077 L 23.6248,17.3665
 L 26.5,15.2776 L 29.7467,13.832 L 33.223,13.0931 L 36.777,13.0931 L 40.2533,13.832 L 43.5,15.2776
 L 46.3752,17.3665 L 48.7533,20.0077 L 50.5303,23.0855 L 51.6285,26.4655 L 52,30 L 51.6285,33.5345
 L 50.5303,36.9145 L 48.7533,39.9923 L 46.3752,42.6335 L 43.5,44.7224 L 40.2533,46.168 L 36.777,46.9069
 z
M 15.5229,31.5938 L 15.125,31.4289 L 14.7833,31.1667 L 14.5211,30.825 L 14.3562,30.427 L 14.3,30
 L 14.3562,29.573 L 14.5211,29.175 L 14.7833,28.8333 L 15.125,28.5711 L 15.5229,28.4062 L 15.95,28.35
 L 16.3771,28.4062 L 16.775,28.5711 L 17.1167,28.8333 L 17.379,29.175 L 17.5438,29.573 L 17.6,30
 L 17.5438,30.427 L 17.379,30.825 L 17.1167,31.1667 L 16.775,31.4289 L 16.3771,31.5938 L 15.95,31.65
 z
M 53.6229,31.5938 L 53.225,31.4289 L 52.8833,31.1667 L 52.621,30.825 L 52.4562,30.427 L 52.4,30
 L 52.4562,29.573 L 52.621,29.175 L 52.8833,28.8333 L 53.225,28.5711 L 53.6229,28.4062 L 54.05,28.35
 L 54.4771,28.4062 L 54.875,28.5711 L 55.2167,28.8333 L 55.4789,29.175 L 55.6438,29.573 L 55.7,30
 L 55.6438,30.427 L 55.4789,30.825 L 55.2167,31.1667 L 54.875,31.4289 L 54.4771,31.5938 L 54.05,31.65
 z
M 205.523,31.5938 L 205.125,31.4289 L 204.783,31.1667 L 204.521,30.825 L 204.356,30.427 L 204.3,30
 L 204.356,29.573 L 204.521,29.175 L 204.783,28.8333 L 205.125,28.5711 L 205.523,28.4062 L 205.95,28.35
 L 206.377,28.4062 L 206.775,28.5711 L 207.117,28.8333 L 207.379,29.175 L 207.544,29.573 L 207.6,30
 L 207.544,30.427 L 207.379,30.825 L 207.117,31.1667 L 206.775,31.4289 L 206.377,31.5938 L 205.95,31.65
 z
M 243.623,31.5938 L 243.225,31.4289 L 242.883,31.1667 L 242.621,30.825 L 242.456,30.427 L 242.4,30
 L 242.456,29.573 L 242.621,29.175 L 242.883,28.8333 L 243.225,28.5711 L 243.623,28.4062 L 244.05,28.35
 L 244.477,28.4062 L 244.875,28.5711 L 245.217,28.8333 L 245.479,29.175 L 245.644,29.573 L 245.7,30
 L 245.644,30.427 L 245.479,30.825 L 245.217,31.1667 L 244.875,31.4289 L 244.477,31.5938 L 244.05,31.65
 z
M 33.223,96.9069 L 29.7467,96.168 L 26.5,94.7224 L 23.6248,92.6335 L 21.2467,89.9923 L 19.4697,86.9145
 L 18.3715,83.5345 L 18,80 L 18.3715,76.4655 L 19.4697,73.0855 L 21.2467,70.0077 L 23.6248,67.3665
 L 26.5,65.2776 L 29.7467,63.832 L 33.223,63.0931 L 36.777,63.0931 L 40.2533,63.832 L 43.5,65.2776
 L 46.3752,67.3665 L 48.7533,70.0077 L 50.5303,73.0855 L 51.6285,76.4655 L 52,80 L 51.6285,83.5345
 L 50.5303,86.9145 L 48.7533,89.9923 L 46.3752,92.6335 L 43.5,94.7224 L 40.2533,96.168 L 36.777,96.9069
 z
M 223.223,96.9069 L 219.747,96.168 L 216.5,94.7224 L 213.625,92.6335 L 211.247,89.9923 L 209.47,86.9145
 L 208.372,83.5345 L 208,80 L 208.372,76.4655 L 209.47,73.0855 L 211.247,70.0077 L 213.625,67.3665
 L 216.5,65.2776 L 219.747,63.832 L 223.223,63.0931 L 226.777,63.0931 L 230.253,63.832 L 233.5,65.2776
 L 236.375,67.3665 L 238.753,70.0077 L 240.53,73.0855 L 241.628,76.4655 L 242,80 L 241.628,83.5345
 L 240.53,86.9145 L 238.753,89.9923 L 236.375,92.6335 L 233.5,94.7224 L 230.253,96.168 L 226.777,96.9069
 z
M 15.5229,81.5938 L 15.125,81.4289 L 14.7833,81.1667 L 14.5211,80.825 L 14.3562,80.427 L 14.3,80
 L 14.3562,79.573 L 14.5211,79.175 L 14.7833,78.8333 L 15.125,78.5711 L 15.5229,78.4062 L 15.95,78.35
 L 16.3771,78.4062 L 16.775,78.5711 L 17.1167,78.8333 L 17.379,79.175 L 17.5438,79.573 L 17.6,80
 L 17.5438,80.427 L 17.379,80.825 L 17.1167,81.1667 L 16.775,81.4289 L 16.3771,81.5938 L 15.95,81.65
 z
M 53.6229,81.5938 L 53.225,81.4289 L 52.8833,81.1667 L 52.621,80.825 L 52.4562,80.427 L 52.4,80
 L 52.4562,79.573 L 52.621,79.175 L 52.8833,78.8333 L 53.225,78.5711 L 53.6229,78.4062 L 54.05,78.35
 L 54.4771,78.4062 L 54.875,78.5711 L 55.2167,78.8333 L 55.4789,79.175 L 55.6438,79.573 L 55.7,80
 L 55.6438,80.427 L 55.4789,80.825 L 55.2167,81.1667 L 54.875,81.4289 L 54.4771,81.5938 L 54.05,81.65
 z
M 205.523,81.5938 L 205.125,81.4289 L 204.783,81.1667 L 204.521,80.825 L 204.356,80.427 L 204.3,80
 L 204.356,79.573 L 204.521,79.175 L 204.783,78.8333 L 205.125,78.5711 L 205.523,78.4062 L 205.95,78.35
 L 206.377,78.4062 L 206.775,78.5711 L 207.117,78.8333 L 207.379,79.175 L 207.544,79.573 L 207.6,80
 L 207.544,80.427 L 207.379,80.825 L 207.117,81.1667 L 206.775,81.4289 L 206.377,81.5938 L 205.95,81.65
 z
M 243.623,81.5938 L 243.225,81.4289 L 242.883,81.1667 L 242.621,80.825 L 242.456,80.427 L 242.4,80
 L 242.456,79.573 L 242.621,79.175 L 242.883,78.8333 L 243.225,78.5711 L 243.623,78.4062 L 244.05,78.35
 L 244.477,78.4062 L 244.875,78.5711 L 245.217,78.8333 L 245.479,79.175 L 245.644,79.573 L 245.7,80
 L 245.644,80.427 L 245.479,80.825 L 245.217,81.1667 L 244.875,81.4289 L 244.477,81.5938 L 244.05,81.65
 z
M 132,102 L 72,102 L 72,176.492 L 132,176.492 z
M 100.38,156.661 L 97.2103,155.988 L 94.25,154.67 L 91.6285,152.765 L 89.4603,150.357 L 87.8401,147.551
 L 86.8387,144.469 L 86.5,141.246 L 86.7628,138.746 L 86.5,136.246 L 86.7628,133.746 L 86.5,131.246
 L 86.7628,128.746 L 86.5,126.246 L 86.7628,123.746 L 86.5,121.246 L 86.8387,118.024 L 87.8401,114.942
 L 89.4603,112.136 L 91.6285,109.727 L 94.25,107.823 L 97.2103,106.505 L 100.38,105.831 L 103.62,105.831
 L 106.79,106.505 L 109.75,107.823 L 112.372,109.727 L 114.54,112.136 L 116.16,114.942 L 117.161,118.024
 L 117.5,121.246 L 117.237,123.746 L 117.5,126.246 L 117.237,128.746 L 117.5,131.246 L 117.237,133.746
 L 117.5,136.246 L 117.237,138.746 L 117.5,141.246 L 117.161,144.469 L 116.16,147.551 L 114.54,150.357
 L 112.372,152.765 L 109.75,154.67 L 106.79,155.988 L 103.62,156.661 z
M 119.073,122.84 L 118.675,122.675 L 118.333,122.413 L 118.071,122.071 L 117.906,121.673 L 117.85,121.246
 L 117.906,120.819 L 118.071,120.421 L 118.333,120.079 L 118.675,119.817 L 119.073,119.652 L 119.5,119.596
 L 119.927,119.652 L 120.325,119.817 L 120.667,120.079 L 120.929,120.421 L 121.094,120.819 L 121.15,121.246
 L 121.094,121.673 L 120.929,122.071 L 120.667,122.413 L 120.325,122.675 L 119.927,122.84 L 119.5,122.896
 z
M 84.073,122.84 L 83.675,122.675 L 83.3333,122.413 L 83.0711,122.071 L 82.9062,121.673 L 82.85,121.246
 L 82.9062,120.819 L 83.0711,120.421 L 83.3333,120.079 L 83.675,119.817 L 84.073,119.652 L 84.5,119.596
 L 84.9271,119.652 L 85.325,119.817 L 85.6667,120.079 L 85.929,120.421 L 86.0938,120.819 L 86.15,121.246
 L 86.0938,121.673 L 85.929,122.071 L 85.6667,122.413 L 85.325,122.675 L 84.9271,122.84 L 84.5,122.896
 z
M 119.073,127.84 L 118.675,127.675 L 118.333,127.413 L 118.071,127.071 L 117.906,126.673 L 117.85,126.246
 L 117.906,125.819 L 118.071,125.421 L 118.333,125.079 L 118.675,124.817 L 119.073,124.652 L 119.5,124.596
 L 119.927,124.652 L 120.325,124.817 L 120.667,125.079 L 120.929,125.421 L 121.094,125.819 L 121.15,126.246
 L 121.094,126.673 L 120.929,127.071 L 120.667,127.413 L 120.325,127.675 L 119.927,127.84 L 119.5,127.896
 z
M 84.073,127.84 L 83.675,127.675 L 83.3333,127.413 L 83.0711,127.071 L 82.9062,126.673 L 82.85,126.246
 L 82.9062,125.819 L 83.0711,125.421 L 83.3333,125.079 L 83.675,124.817 L 84.073,124.652 L 84.5,124.596
 L 84.9271,124.652 L 85.325,124.817 L 85.6667,125.079 L 85.929,125.421 L 86.0938,125.819 L 86.15,126.246
 L 86.0938,126.673 L 85.929,127.071 L 85.6667,127.413 L 85.325,127.675 L 84.9271,127.84 L 84.5,127.896
 z
M 119.073,132.84 L 118.675,132.675 L 118.333,132.413 L 118.071,132.071 L 117.906,131.673 L 117.85,131.246
 L 117.906,130.819 L 118.071,130.421 L 118.333,130.079 L 118.675,129.817 L 119.073,129.652 L 119.5,129.596
 L 119.927,129.652 L 120.325,129.817 L 120.667,130.079 L 120.929,130.421 L 121.094,130.819 L 121.15,131.246
 L 121.094,131.673 L 120.929,132.071 L 120.667,132.413 L 120.325,132.675 L 119.927,132.84 L 119.5,132.896
 z
M 84.073,132.84 L 83.675,132.675 L 83.3333,132.413 L 83.0711,132.071 L 82.9062,131.673 L 82.85,131.246
 L 82.9062,130.819 L 83.0711,130.421 L 83.3333,130.079 L 83.675,129.817 L 84.073,129.652 L 84.5,129.596
 L 84.9271,129.652 L 85.325,129.817 L 85.6667,130.079 L 85.929,130.421 L 86.0938,130.819 L 86.15,131.246
 L 86.0938,131.673 L 85.929,132.071 L 85.6667,132.413 L 85.325,132.675 L 84.9271,132.84 L 84.5,132.896
 z
M 119.073,137.84 L 118.675,137.675 L 118.333,137.413 L 118.071,137.071 L 117.906,136.673 L 117.85,136.246
 L 117.906,135.819 L 118.071,135.421 L 118.333,135.079 L 118.675,134.817 L 119.073,134.652 L 119.5,134.596
 L 119.927,134.652 L 120.325,134.817 L 120.667,135.079 L 120.929,135.421 L 121.094,135.819 L 121.15,136.246
 L 121.094,136.673 L 120.929,137.071 L 120.667,137.413 L 120.325,137.675 L 119.927,137.84 L 119.5,137.896
 z
M 84.073,137.84 L 83.675,137.675 L 83.3333,137.413 L 83.0711,137.071 L 82.9062,136.673 L 82.85,136.246
 L 82.9062,135.819 L 83.0711,135.421 L 83.3333,135.079 L 83.675,134.817 L 84.073,134.652 L 84.5,134.596
 L 84.9271,134.652 L 85.325,134.817 L 85.6667,135.079 L 85.929,135.421 L 86.0938,135.819 L 86.15,136.246
 L 86.0938,136.673 L 85.929,137.071 L 85.6667,137.413 L 85.325,137.675 L 84.9271,137.84 L 84.5,137.896
 z
M 119.073,142.84 L 118.675,142.675 L 118.333,142.413 L 118.071,142.071 L 117.906,141.673 L 117.85,141.246
 L 117.906,140.819 L 118.071,140.421 L 118.333,140.079 L 118.675,139.817 L 119.073,139.652 L 119.5,139.596
 L 119.927,139.652 L 120.325,139.817 L 120.667,140.079 L 120.929,140.421 L 121.094,140.819 L 121.15,141.246
 L 121.094,141.673 L 120.929,142.071 L 120.667,142.413 L 120.325,142.675 L 119.927,142.84 L 119.5,142.896
 z
M 84.073,142.84 L 83.675,142.675 L 83.3333,142.413 L 83.0711,142.071 L 82.9062,141.673 L 82.85,141.246
 L 82.9062,140.819 L 83.0711,140.421 L 83.3333,140.079 L 83.675,139.817 L 84.073,139.652 L 84.5,139.596
 L 84.9271,139.652 L 85.325,139.817 L 85.6667,140.079 L 85.929,140.421 L 86.0938,140.819 L 86.15,141.246
 L 86.0938,141.673 L 85.929,142.071 L 85.6667,142.413 L 85.325,142.675 L 84.9271,142.84 L 84.5,142.896
 z
M 70,109.015 L 0,109.015 L 0,129.015 L 70,154.492 z
M 70,156.492 L 0,131.015 L 0,176.492 L 70,176.492 z
" stroke="black" fill="lightgray" stroke-width="0.5"/></svg>
