<?xml version="1.0" standalone="no"?>
<!DOCTYPE svg PUBLIC "-//W3C//DTD SVG 1.1//EN" "http://www.w3.org/Graphics/SVG/1.1/DTD/svg11.dtd">
<svg width="298" height="501" viewBox="0 0 298 501" xmlns="http://www.w3.org/2000/svg" version="1.1">
<title>OpenSCAD Model</title>
<path d="
M 292.98,33.175 L 297.98,33.175 L 297.98,3.17499 L 292.98,3.17499 L 292.98,-0 L 282.98,-0
 L 282.98,3.17499 L 277.98,3.17499 L 277.98,33.175 L 282.98,33.175 L 282.98,36.35 L 292.98,36.35
 z
M 287.32,20.6381 L 286.705,20.3833 L 286.177,19.9781 L 285.772,19.45 L 285.517,18.835 L 285.43,18.175
 L 285.517,17.515 L 285.772,16.9 L 286.177,16.3719 L 286.705,15.9666 L 287.32,15.7119 L 287.98,15.625
 L 288.64,15.7119 L 289.255,15.9666 L 289.783,16.3719 L 290.189,16.9 L 290.443,17.515 L 290.53,18.175
 L 290.443,18.835 L 290.189,19.45 L 289.783,19.9781 L 289.255,20.3833 L 288.64,20.6381 L 287.98,20.725
 z
M 267.98,33.175 L 272.98,33.175 L 272.98,3.17499 L 267.98,3.17499 L 267.98,-0 L 257.98,-0
 L 257.98,3.17499 L 252.98,3.17499 L 252.98,33.175 L 257.98,33.175 L 257.98,36.35 L 267.98,36.35
 z
M 262.32,20.6381 L 261.705,20.3833 L 261.177,19.9781 L 260.772,19.45 L 260.517,18.835 L 260.43,18.175
 L 260.517,17.515 L 260.772,16.9 L 261.177,16.3719 L 261.705,15.9666 L 262.32,15.7119 L 262.98,15.625
 L 263.64,15.7119 L 264.255,15.9666 L 264.783,16.3719 L 265.189,16.9 L 265.443,17.515 L 265.53,18.175
 L 265.443,18.835 L 265.189,19.45 L 264.783,19.9781 L 264.255,20.3833 L 263.64,20.6381 L 262.98,20.725
 z
M 167.958,239.923 L 194.425,226.032 L 216.798,206.211 L 233.778,181.611 L 244.377,153.663 L 247.98,123.99
 L 244.377,94.3173 L 233.778,66.369 L 216.798,41.7695 L 194.425,21.9482 L 167.958,8.05734 L 138.935,0.904022
 L 109.045,0.904022 L 80.0226,8.05734 L 53.5557,21.9482 L 31.1822,41.7695 L 14.2023,66.369 L 3.60292,94.3173
 L 0,123.99 L 3.60292,153.663 L 14.2023,181.611 L 31.1822,206.211 L 53.5557,226.032 L 80.0226,239.923
 L 109.045,247.076 L 138.935,247.076 z
M 104.737,8.15114 L 114.962,6.90961 L 115.763,13.5111 L 105.538,14.7526 z
M 158.417,18.6902 L 160.775,12.4724 L 170.406,16.1248 L 168.048,22.3427 z
M 53.1092,30.3672 L 61.5859,24.5161 L 65.3635,29.989 L 56.8868,35.84 z
M 105.329,58.2961 L 103.867,56.9876 L 102.588,55.4995 L 101.514,53.8572 L 100.664,52.0888 L 100.052,50.2245
 L 99.6891,48.2964 L 99.5805,46.3373 L 99.7285,44.3808 L 100.131,42.4604 L 100.78,40.6088 L 101.666,38.8579
 L 102.772,37.2375 L 104.08,35.7755 L 105.569,34.4967 L 107.211,33.4231 L 108.979,32.5731 L 110.843,31.9611
 L 112.772,31.5977 L 114.731,31.4891 L 116.687,31.6371 L 118.608,32.0393 L 120.459,32.6887 L 122.21,33.5741
 L 123.83,34.6806 L 125.293,35.9891 L 126.571,37.4772 L 127.645,39.1195 L 128.495,40.8879 L 129.107,42.7521
 L 129.47,44.6803 L 129.579,46.6394 L 129.431,48.5959 L 129.029,50.5163 L 128.379,52.3678 L 127.494,54.1188
 L 126.387,55.7391 L 117.137,67.5469 z
M 137.996,57.1487 L 137.309,55.3106 L 136.869,53.3986 L 136.681,51.4455 L 136.75,49.4846 L 137.075,47.5496
 L 137.649,45.6734 L 138.463,43.8882 L 139.504,42.2246 L 140.752,40.7111 L 142.188,39.3734 L 143.786,38.2346
 L 145.518,37.314 L 147.356,36.6275 L 149.268,36.1867 L 151.221,35.9993 L 153.182,36.0685 L 155.117,36.3929
 L 156.994,36.9672 L 158.779,37.7815 L 160.442,38.8218 L 161.956,40.0703 L 163.294,41.5058 L 164.432,43.1035
 L 165.353,44.8363 L 166.039,46.6743 L 166.48,48.5863 L 166.668,50.5394 L 166.598,52.5003 L 166.274,54.4354
 L 165.7,56.3115 L 164.885,58.0967 L 163.845,59.7603 L 162.597,61.2739 L 161.161,62.6115 L 159.563,63.7504
 L 157.831,64.671 L 144.152,70.8271 z
M 203.409,46.7507 L 208.387,42.341 L 215.217,50.0506 L 210.239,54.4604 z
M 76.9369,74.4932 L 75.0342,74.0141 L 73.2104,73.2907 L 71.4965,72.3354 L 69.922,71.1646 L 68.5138,69.7983
 L 67.296,68.2599 L 66.2894,66.5757 L 65.5112,64.7745 L 64.9748,62.8872 L 64.6894,60.9459 L 64.6598,58.9841
 L 64.8864,57.0351 L 65.3656,55.1324 L 66.089,53.3086 L 67.0443,51.5947 L 68.2151,50.0202 L 69.5813,48.612
 L 71.1198,47.3942 L 72.804,46.3876 L 74.6052,45.6094 L 76.4925,45.073 L 78.4337,44.7876 L 80.3956,44.758
 L 82.3446,44.9846 L 84.2473,45.4638 L 86.0711,46.1872 L 87.785,47.1425 L 89.3595,48.3133 L 90.7677,49.6796
 L 91.9855,51.218 L 92.9921,52.9022 L 93.7702,54.7034 L 94.3066,56.5907 L 94.5921,58.532 L 94.6217,60.4938
 L 94.395,62.4428 L 91.6912,77.1971 z
M 166.549,86.2864 L 167.454,71.3138 L 167.701,69.3672 L 168.199,67.4695 L 168.941,65.653 L 169.913,63.9488
 L 171.1,62.3862 L 172.48,60.9918 L 174.031,59.7895 L 175.725,58.8 L 177.534,58.04 L 179.427,57.5226
 L 181.371,57.2567 L 183.333,57.2468 L 185.279,57.4931 L 187.177,57.9914 L 188.994,58.7332 L 190.698,59.7056
 L 192.26,60.8922 L 193.655,62.2726 L 194.857,63.8232 L 195.847,65.5175 L 196.607,67.3264 L 197.124,69.2191
 L 197.39,71.1631 L 197.4,73.1251 L 197.153,75.0717 L 196.655,76.9695 L 195.913,78.786 L 194.941,80.4901
 L 193.754,82.0527 L 192.374,83.4471 L 190.823,84.6494 L 189.129,85.639 L 187.32,86.399 L 185.427,86.9163
 L 183.483,87.1822 L 181.521,87.1921 z
M 17.7194,74.0312 L 22.5061,64.911 L 28.3943,68.0014 L 23.6077,77.1216 z
M 53.5042,102.647 L 51.5659,102.342 L 49.6841,101.787 L 47.8908,100.991 L 46.2168,99.967 L 44.6908,98.7338
 L 43.3387,97.3119 L 42.1838,95.7257 L 41.2459,94.0023 L 40.5409,92.1712 L 40.0809,90.2638 L 39.8739,88.3127
 L 39.9232,86.3512 L 40.2282,84.413 L 40.7836,82.5311 L 41.5798,80.7379 L 42.6033,79.0639 L 43.8366,77.5378
 L 45.2585,76.1858 L 46.8447,75.0309 L 48.5681,74.0929 L 50.3991,73.3879 L 52.3066,72.928 L 54.2577,72.7209
 L 56.2192,72.7703 L 58.1574,73.0753 L 60.0393,73.6306 L 61.8325,74.4269 L 63.5065,75.4504 L 65.0326,76.6836
 L 66.3846,78.1055 L 67.5395,79.6917 L 68.4775,81.4151 L 69.1825,83.2462 L 73.645,97.567 L 59.3242,102.03
 L 57.4168,102.489 L 55.4657,102.697 z
M 197.536,120.136 L 195.619,119.714 L 193.774,119.046 L 192.032,118.143 L 179.196,110.383 L 186.956,97.5464
 L 188.078,95.9373 L 189.402,94.4885 L 190.903,93.2247 L 192.556,92.1677 L 194.332,91.3355 L 196.203,90.7424
 L 198.134,90.3984 L 200.095,90.3096 L 202.049,90.4773 L 203.966,90.8987 L 205.811,91.5667 L 207.553,92.4698
 L 209.162,93.5925 L 210.611,94.9157 L 211.874,96.4166 L 212.931,98.0696 L 213.763,99.8465 L 214.357,101.717
 L 214.701,103.648 L 214.789,105.609 L 214.622,107.563 L 214.2,109.48 L 213.532,111.325 L 212.629,113.067
 L 211.507,114.676 L 210.183,116.125 L 208.682,117.388 L 207.029,118.445 L 205.253,119.277 L 203.382,119.871
 L 201.451,120.215 L 199.49,120.303 z
M 230.207,92.5059 L 236.664,90.9144 L 239.129,100.915 L 232.672,102.507 z
M 43.9612,138.862 L 42.0368,138.479 L 40.1789,137.848 L 38.4191,136.98 L 36.7877,135.89 L 35.3125,134.597
 L 34.0188,133.122 L 32.9287,131.49 L 32.0609,129.73 L 31.4302,127.872 L 31.0474,125.948 L 30.9191,123.99
 L 31.0474,122.032 L 31.4302,120.108 L 32.0609,118.25 L 32.9287,116.49 L 34.0188,114.859 L 35.3125,113.384
 L 36.7877,112.09 L 38.4191,111 L 40.1789,110.132 L 42.0368,109.501 L 43.9612,109.118 L 45.9191,108.99
 L 47.877,109.118 L 49.8014,109.501 L 51.6594,110.132 L 53.4191,111 L 55.0505,112.09 L 56.5257,113.384
 L 67.1323,123.99 L 56.5257,134.597 L 55.0505,135.89 L 53.4191,136.98 L 51.6594,137.848 L 49.8014,138.479
 L 47.877,138.862 L 45.9191,138.99 z
M 6.675,129.14 L 6.675,118.84 L 13.325,118.84 L 13.325,129.14 z
M 123.343,126.405 L 122.74,126.155 L 122.222,125.758 L 121.825,125.24 L 121.575,124.637 L 121.49,123.99
 L 121.575,123.343 L 121.825,122.74 L 122.222,122.222 L 122.74,121.825 L 123.343,121.575 L 123.99,121.49
 L 124.637,121.575 L 125.24,121.825 L 125.758,122.222 L 126.155,122.74 L 126.405,123.343 L 126.49,123.99
 L 126.405,124.637 L 126.155,125.24 L 125.758,125.758 L 125.24,126.155 L 124.637,126.405 L 123.99,126.49
 z
M 198.134,157.582 L 196.203,157.238 L 194.332,156.645 L 192.556,155.812 L 190.903,154.755 L 189.402,153.492
 L 188.078,152.043 L 186.956,150.434 L 179.196,137.597 L 192.032,129.837 L 193.774,128.934 L 195.619,128.266
 L 197.536,127.844 L 199.49,127.677 L 201.451,127.766 L 203.382,128.11 L 205.253,128.703 L 207.029,129.535
 L 208.682,130.592 L 210.183,131.856 L 211.507,133.305 L 212.629,134.914 L 213.532,136.656 L 214.2,138.5
 L 214.622,140.417 L 214.789,142.372 L 214.701,144.332 L 214.357,146.263 L 213.763,148.134 L 212.931,149.911
 L 211.874,151.564 L 210.611,153.065 L 209.162,154.388 L 207.553,155.51 L 205.811,156.413 L 203.966,157.081
 L 202.049,157.503 L 200.095,157.671 z
M 52.3066,175.052 L 50.3991,174.592 L 48.5681,173.887 L 46.8447,172.949 L 45.2585,171.794 L 43.8366,170.442
 L 42.6033,168.916 L 41.5798,167.242 L 40.7836,165.449 L 40.2282,163.567 L 39.9232,161.629 L 39.8739,159.668
 L 40.0809,157.716 L 40.5409,155.809 L 41.2459,153.978 L 42.1838,152.255 L 43.3387,150.668 L 44.6908,149.246
 L 46.2168,148.013 L 47.8908,146.99 L 49.6841,146.193 L 51.5659,145.638 L 53.5042,145.333 L 55.4657,145.284
 L 57.4168,145.491 L 59.3242,145.951 L 73.645,150.413 L 69.1825,164.734 L 68.4775,166.565 L 67.5395,168.288
 L 66.3846,169.875 L 65.0326,171.297 L 63.5065,172.53 L 61.8325,173.553 L 60.0393,174.35 L 58.1574,174.905
 L 56.2192,175.21 L 54.2577,175.259 z
M 230.207,155.474 L 232.672,145.474 L 239.129,147.065 L 236.664,157.066 z
M 181.371,190.723 L 179.427,190.458 L 177.534,189.94 L 175.725,189.18 L 174.031,188.191 L 172.48,186.988
 L 171.1,185.594 L 169.913,184.031 L 168.941,182.327 L 168.199,180.511 L 167.701,178.613 L 167.454,176.666
 L 166.549,161.694 L 181.521,160.788 L 183.483,160.798 L 185.427,161.064 L 187.32,161.581 L 189.129,162.341
 L 190.823,163.331 L 192.374,164.533 L 193.754,165.927 L 194.941,167.49 L 195.913,169.194 L 196.655,171.011
 L 197.153,172.909 L 197.4,174.855 L 197.39,176.817 L 197.124,178.761 L 196.607,180.654 L 195.847,182.463
 L 194.857,184.157 L 193.655,185.708 L 192.26,187.088 L 190.698,188.275 L 188.994,189.247 L 187.177,189.989
 L 185.279,190.487 L 183.333,190.733 z
M 78.4337,203.193 L 76.4925,202.907 L 74.6052,202.371 L 72.804,201.593 L 71.1198,200.586 L 69.5813,199.368
 L 68.2151,197.96 L 67.0443,196.386 L 66.089,194.672 L 65.3656,192.848 L 64.8864,190.945 L 64.6598,188.996
 L 64.6894,187.034 L 64.9748,185.093 L 65.5112,183.206 L 66.2894,181.405 L 67.296,179.72 L 68.5138,178.182
 L 69.922,176.816 L 71.4965,175.645 L 73.2104,174.69 L 75.0342,173.966 L 76.9369,173.487 L 91.6912,170.783
 L 94.395,185.537 L 94.6217,187.486 L 94.5921,189.448 L 94.3066,191.389 L 93.7702,193.277 L 92.9921,195.078
 L 91.9855,196.762 L 90.7677,198.301 L 89.3595,199.667 L 87.785,200.838 L 86.0711,201.793 L 84.2473,202.516
 L 82.3446,202.996 L 80.3956,203.222 z
M 17.7194,173.949 L 23.6077,170.859 L 28.3943,179.979 L 22.5061,183.069 z
M 149.268,211.794 L 147.356,211.353 L 145.518,210.666 L 143.786,209.746 L 142.188,208.607 L 140.752,207.269
 L 139.504,205.756 L 138.463,204.092 L 137.649,202.307 L 137.075,200.431 L 136.75,198.496 L 136.681,196.535
 L 136.869,194.582 L 137.309,192.67 L 137.996,190.832 L 144.152,177.153 L 157.831,183.309 L 159.563,184.23
 L 161.161,185.369 L 162.597,186.706 L 163.845,188.22 L 164.885,189.884 L 165.7,191.669 L 166.274,193.545
 L 166.598,195.48 L 166.668,197.441 L 166.48,199.394 L 166.039,201.306 L 165.353,203.144 L 164.432,204.877
 L 163.294,206.474 L 161.956,207.91 L 160.442,209.158 L 158.779,210.199 L 156.994,211.013 L 155.117,211.587
 L 153.182,211.912 L 151.221,211.981 z
M 112.772,216.383 L 110.843,216.019 L 108.979,215.407 L 107.211,214.557 L 105.569,213.484 L 104.08,212.205
 L 102.772,210.743 L 101.666,209.122 L 100.78,207.371 L 100.131,205.52 L 99.7285,203.599 L 99.5805,201.643
 L 99.6891,199.684 L 100.052,197.756 L 100.664,195.891 L 101.514,194.123 L 102.588,192.481 L 103.867,190.993
 L 105.329,189.684 L 117.137,180.433 L 126.387,192.241 L 127.494,193.861 L 128.379,195.612 L 129.029,197.464
 L 129.431,199.384 L 129.579,201.341 L 129.47,203.3 L 129.107,205.228 L 128.495,207.092 L 127.645,208.861
 L 126.571,210.503 L 125.293,211.991 L 123.83,213.3 L 122.21,214.406 L 120.459,215.292 L 118.608,215.941
 L 116.687,216.343 L 114.731,216.491 z
M 203.409,201.229 L 210.239,193.52 L 215.217,197.93 L 208.387,205.639 z
M 53.1092,217.613 L 56.8868,212.14 L 65.3635,217.991 L 61.5859,223.464 z
M 158.417,229.29 L 168.048,225.638 L 170.406,231.855 L 160.775,235.508 z
M 104.737,239.829 L 105.538,233.228 L 115.763,234.469 L 114.962,241.071 z
M 292.98,74.525 L 297.98,74.525 L 297.98,44.525 L 292.98,44.525 L 292.98,41.35 L 282.98,41.35
 L 282.98,44.525 L 277.98,44.525 L 277.98,74.525 L 282.98,74.525 L 282.98,77.7 L 292.98,77.7
 z
M 287.32,61.9881 L 286.705,61.7334 L 286.177,61.3281 L 285.772,60.8 L 285.517,60.185 L 285.43,59.525
 L 285.517,58.865 L 285.772,58.25 L 286.177,57.7219 L 286.705,57.3166 L 287.32,57.0619 L 287.98,56.975
 L 288.64,57.0619 L 289.255,57.3166 L 289.783,57.7219 L 290.189,58.25 L 290.443,58.865 L 290.53,59.525
 L 290.443,60.185 L 290.189,60.8 L 289.783,61.3281 L 289.255,61.7334 L 288.64,61.9881 L 287.98,62.075
 z
M 267.98,74.525 L 272.98,74.525 L 272.98,44.525 L 267.98,44.525 L 267.98,41.35 L 257.98,41.35
 L 257.98,44.525 L 252.98,44.525 L 252.98,74.525 L 257.98,74.525 L 257.98,77.7 L 267.98,77.7
 z
M 262.32,61.9881 L 261.705,61.7334 L 261.177,61.3281 L 260.772,60.8 L 260.517,60.185 L 260.43,59.525
 L 260.517,58.865 L 260.772,58.25 L 261.177,57.7219 L 261.705,57.3166 L 262.32,57.0619 L 262.98,56.975
 L 263.64,57.0619 L 264.255,57.3166 L 264.783,57.7219 L 265.189,58.25 L 265.443,58.865 L 265.53,59.525
 L 265.443,60.185 L 265.189,60.8 L 264.783,61.3281 L 264.255,61.7334 L 263.64,61.9881 L 262.98,62.075
 z
M 292.98,115.875 L 297.98,115.875 L 297.98,85.875 L 292.98,85.875 L 292.98,82.7 L 282.98,82.7
 L 282.98,85.875 L 277.98,85.875 L 277.98,115.875 L 282.98,115.875 L 282.98,119.05 L 292.98,119.05
 z
M 287.32,103.338 L 286.705,103.083 L 286.177,102.678 L 285.772,102.15 L 285.517,101.535 L 285.43,100.875
 L 285.517,100.215 L 285.772,99.6 L 286.177,99.0719 L 286.705,98.6666 L 287.32,98.4119 L 287.98,98.325
 L 288.64,98.4119 L 289.255,98.6666 L 289.783,99.0719 L 290.189,99.6 L 290.443,100.215 L 290.53,100.875
 L 290.443,101.535 L 290.189,102.15 L 289.783,102.678 L 289.255,103.083 L 288.64,103.338 L 287.98,103.425
 z
M 267.98,115.875 L 272.98,115.875 L 272.98,85.875 L 267.98,85.875 L 267.98,82.7 L 257.98,82.7
 L 257.98,85.875 L 252.98,85.875 L 252.98,115.875 L 257.98,115.875 L 257.98,119.05 L 267.98,119.05
 z
M 262.32,103.338 L 261.705,103.083 L 261.177,102.678 L 260.772,102.15 L 260.517,101.535 L 260.43,100.875
 L 260.517,100.215 L 260.772,99.6 L 261.177,99.0719 L 261.705,98.6666 L 262.32,98.4119 L 262.98,98.325
 L 263.64,98.4119 L 264.255,98.6666 L 264.783,99.0719 L 265.189,99.6 L 265.443,100.215 L 265.53,100.875
 L 265.443,101.535 L 265.189,102.15 L 264.783,102.678 L 264.255,103.083 L 263.64,103.338 L 262.98,103.425
 z
M 292.98,157.225 L 297.98,157.225 L 297.98,127.225 L 292.98,127.225 L 292.98,124.05 L 282.98,124.05
 L 282.98,127.225 L 277.98,127.225 L 277.98,157.225 L 282.98,157.225 L 282.98,160.4 L 292.98,160.4
 z
M 287.32,144.688 L 286.705,144.433 L 286.177,144.028 L 285.772,143.5 L 285.517,142.885 L 285.43,142.225
 L 285.517,141.565 L 285.772,140.95 L 286.177,140.422 L 286.705,140.017 L 287.32,139.762 L 287.98,139.675
 L 288.64,139.762 L 289.255,140.017 L 289.783,140.422 L 290.189,140.95 L 290.443,141.565 L 290.53,142.225
 L 290.443,142.885 L 290.189,143.5 L 289.783,144.028 L 289.255,144.433 L 288.64,144.688 L 287.98,144.775
 z
M 267.98,157.225 L 272.98,157.225 L 272.98,127.225 L 267.98,127.225 L 267.98,124.05 L 257.98,124.05
 L 257.98,127.225 L 252.98,127.225 L 252.98,157.225 L 257.98,157.225 L 257.98,160.4 L 267.98,160.4
 z
M 262.32,144.688 L 261.705,144.433 L 261.177,144.028 L 260.772,143.5 L 260.517,142.885 L 260.43,142.225
 L 260.517,141.565 L 260.772,140.95 L 261.177,140.422 L 261.705,140.017 L 262.32,139.762 L 262.98,139.675
 L 263.64,139.762 L 264.255,140.017 L 264.783,140.422 L 265.189,140.95 L 265.443,141.565 L 265.53,142.225
 L 265.443,142.885 L 265.189,143.5 L 264.783,144.028 L 264.255,144.433 L 263.64,144.688 L 262.98,144.775
 z
M 292.98,198.575 L 297.98,198.575 L 297.98,168.575 L 292.98,168.575 L 292.98,165.4 L 282.98,165.4
 L 282.98,168.575 L 277.98,168.575 L 277.98,198.575 L 282.98,198.575 L 282.98,201.75 L 292.98,201.75
 z
M 287.32,186.038 L 286.705,185.783 L 286.177,185.378 L 285.772,184.85 L 285.517,184.235 L 285.43,183.575
 L 285.517,182.915 L 285.772,182.3 L 286.177,181.772 L 286.705,181.367 L 287.32,181.112 L 287.98,181.025
 L 288.64,181.112 L 289.255,181.367 L 289.783,181.772 L 290.189,182.3 L 290.443,182.915 L 290.53,183.575
 L 290.443,184.235 L 290.189,184.85 L 289.783,185.378 L 289.255,185.783 L 288.64,186.038 L 287.98,186.125
 z
M 267.98,198.575 L 272.98,198.575 L 272.98,168.575 L 267.98,168.575 L 267.98,165.4 L 257.98,165.4
 L 257.98,168.575 L 252.98,168.575 L 252.98,198.575 L 257.98,198.575 L 257.98,201.75 L 267.98,201.75
 z
M 262.32,186.038 L 261.705,185.783 L 261.177,185.378 L 260.772,184.85 L 260.517,184.235 L 260.43,183.575
 L 260.517,182.915 L 260.772,182.3 L 261.177,181.772 L 261.705,181.367 L 262.32,181.112 L 262.98,181.025
 L 263.64,181.112 L 264.255,181.367 L 264.783,181.772 L 265.189,182.3 L 265.443,182.915 L 265.53,183.575
 L 265.443,184.235 L 265.189,184.85 L 264.783,185.378 L 264.255,185.783 L 263.64,186.038 L 262.98,186.125
 z
M 292.98,239.925 L 297.98,239.925 L 297.98,209.925 L 292.98,209.925 L 292.98,206.75 L 282.98,206.75
 L 282.98,209.925 L 277.98,209.925 L 277.98,239.925 L 282.98,239.925 L 282.98,243.1 L 292.98,243.1
 z
M 287.32,227.388 L 286.705,227.133 L 286.177,226.728 L 285.772,226.2 L 285.517,225.585 L 285.43,224.925
 L 285.517,224.265 L 285.772,223.65 L 286.177,223.122 L 286.705,222.717 L 287.32,222.462 L 287.98,222.375
 L 288.64,222.462 L 289.255,222.717 L 289.783,223.122 L 290.189,223.65 L 290.443,224.265 L 290.53,224.925
 L 290.443,225.585 L 290.189,226.2 L 289.783,226.728 L 289.255,227.133 L 288.64,227.388 L 287.98,227.475
 z
M 267.98,239.925 L 272.98,239.925 L 272.98,209.925 L 267.98,209.925 L 267.98,206.75 L 257.98,206.75
 L 257.98,209.925 L 252.98,209.925 L 252.98,239.925 L 257.98,239.925 L 257.98,243.1 L 267.98,243.1
 z
M 262.32,227.388 L 261.705,227.133 L 261.177,226.728 L 260.772,226.2 L 260.517,225.585 L 260.43,224.925
 L 260.517,224.265 L 260.772,223.65 L 261.177,223.122 L 261.705,222.717 L 262.32,222.462 L 262.98,222.375
 L 263.64,222.462 L 264.255,222.717 L 264.783,223.122 L 265.189,223.65 L 265.443,224.265 L 265.53,224.925
 L 265.443,225.585 L 265.189,226.2 L 264.783,226.728 L 264.255,227.133 L 263.64,227.388 L 262.98,227.475
 z
M 267.98,281.275 L 272.98,281.275 L 272.98,251.275 L 267.98,251.275 L 267.98,248.1 L 257.98,248.1
 L 257.98,251.275 L 252.98,251.275 L 252.98,281.275 L 257.98,281.275 L 257.98,284.45 L 267.98,284.45
 z
M 262.32,268.738 L 261.705,268.483 L 261.177,268.078 L 260.772,267.55 L 260.517,266.935 L 260.43,266.275
 L 260.517,265.615 L 260.772,265 L 261.177,264.472 L 261.705,264.067 L 262.32,263.812 L 262.98,263.725
 L 263.64,263.812 L 264.255,264.067 L 264.783,264.472 L 265.189,265 L 265.443,265.615 L 265.53,266.275
 L 265.443,266.935 L 265.189,267.55 L 264.783,268.078 L 264.255,268.483 L 263.64,268.738 L 262.98,268.825
 z
M 167.958,492.903 L 194.425,479.012 L 216.798,459.191 L 233.778,434.591 L 244.377,406.643 L 247.98,376.97
 L 244.377,347.298 L 233.778,319.349 L 216.798,294.75 L 194.425,274.928 L 167.958,261.038 L 138.935,253.884
 L 109.045,253.884 L 80.0226,261.038 L 53.5557,274.928 L 31.1822,294.75 L 14.2023,319.349 L 3.60292,347.298
 L 0,376.97 L 3.60292,406.643 L 14.2023,434.591 L 31.1822,459.191 L 53.5557,479.012 L 80.0226,492.903
 L 109.045,500.056 L 138.935,500.056 z
M 104.737,261.131 L 114.962,259.89 L 115.763,266.491 L 105.538,267.733 z
M 158.417,271.67 L 160.775,265.453 L 170.406,269.105 L 168.048,275.323 z
M 104.013,300.437 L 102.551,299.128 L 101.272,297.64 L 100.198,295.998 L 99.3483,294.23 L 98.7363,292.365
 L 98.3729,290.437 L 98.2643,288.478 L 98.4124,286.522 L 98.8145,284.601 L 99.4639,282.75 L 100.349,280.999
 L 101.456,279.378 L 102.764,277.916 L 104.252,276.637 L 105.895,275.564 L 107.663,274.714 L 109.527,274.102
 L 111.455,273.738 L 113.415,273.63 L 115.371,273.778 L 117.292,274.18 L 119.143,274.829 L 120.894,275.715
 L 122.514,276.821 L 123.976,278.13 L 125.255,279.618 L 126.329,281.26 L 127.179,283.029 L 127.791,284.893
 L 128.154,286.821 L 128.263,288.78 L 128.115,290.737 L 127.713,292.657 L 127.063,294.509 L 126.178,296.26
 L 125.071,297.88 L 115.821,309.688 z
M 53.1092,283.347 L 61.5859,277.496 L 65.3635,282.969 L 56.8868,288.82 z
M 141.868,299.919 L 141.181,298.081 L 140.741,296.169 L 140.553,294.216 L 140.622,292.255 L 140.947,290.32
 L 141.521,288.444 L 142.335,286.659 L 143.376,284.995 L 144.624,283.482 L 146.06,282.144 L 147.658,281.005
 L 149.39,280.085 L 151.228,279.398 L 153.14,278.957 L 155.093,278.77 L 157.054,278.839 L 158.989,279.164
 L 160.866,279.738 L 162.651,280.552 L 164.314,281.592 L 165.828,282.841 L 167.165,284.277 L 168.304,285.874
 L 169.225,287.607 L 169.911,289.445 L 170.352,291.357 L 170.54,293.31 L 170.47,295.271 L 170.146,297.206
 L 169.572,299.082 L 168.757,300.867 L 167.717,302.531 L 166.469,304.045 L 165.033,305.382 L 163.435,306.521
 L 161.703,307.442 L 148.024,313.598 z
M 70.7341,318.487 L 68.8315,318.008 L 67.0076,317.285 L 65.2937,316.329 L 63.7193,315.159 L 62.311,313.792
 L 61.0932,312.254 L 60.0866,310.57 L 59.3085,308.769 L 58.7721,306.881 L 58.4866,304.94 L 58.457,302.978
 L 58.6837,301.029 L 59.1628,299.126 L 59.8862,297.303 L 60.8415,295.589 L 62.0123,294.014 L 63.3786,292.606
 L 64.917,291.388 L 66.6012,290.382 L 68.4024,289.603 L 70.2897,289.067 L 72.231,288.782 L 74.1928,288.752
 L 76.1418,288.979 L 78.0445,289.458 L 79.8684,290.181 L 81.5822,291.136 L 83.1567,292.307 L 84.5649,293.674
 L 85.7827,295.212 L 86.7893,296.896 L 87.5675,298.697 L 88.1039,300.585 L 88.3893,302.526 L 88.419,304.488
 L 88.1923,306.437 L 85.4884,321.191 z
M 203.409,299.731 L 208.387,295.321 L 215.217,303.031 L 210.239,307.441 z
M 174.722,332.026 L 175.628,317.053 L 175.874,315.107 L 176.372,313.209 L 177.114,311.393 L 178.086,309.688
 L 179.273,308.126 L 180.653,306.731 L 182.204,305.529 L 183.898,304.54 L 185.707,303.78 L 187.6,303.262
 L 189.544,302.996 L 191.506,302.986 L 193.452,303.233 L 195.35,303.731 L 197.167,304.473 L 198.871,305.445
 L 200.433,306.632 L 201.828,308.012 L 203.03,309.563 L 204.02,311.257 L 204.78,313.066 L 205.297,314.959
 L 205.563,316.903 L 205.573,318.865 L 205.326,320.811 L 204.828,322.709 L 204.086,324.526 L 203.114,326.23
 L 201.927,327.792 L 200.547,329.187 L 198.996,330.389 L 197.302,331.379 L 195.493,332.139 L 193.601,332.656
 L 191.657,332.922 L 189.694,332.932 z
M 17.7194,327.011 L 22.5061,317.891 L 28.3943,320.982 L 23.6077,330.102 z
M 43.8358,350.553 L 41.8976,350.248 L 40.0157,349.693 L 38.2224,348.896 L 36.5484,347.873 L 35.0224,346.64
 L 33.6703,345.218 L 32.5155,343.632 L 31.5775,341.908 L 30.8725,340.077 L 30.4125,338.17 L 30.2055,336.219
 L 30.2549,334.257 L 30.5598,332.319 L 31.1152,330.437 L 31.9115,328.644 L 32.935,326.97 L 34.1682,325.444
 L 35.5901,324.092 L 37.1763,322.937 L 38.8997,321.999 L 40.7307,321.294 L 42.6382,320.834 L 44.5893,320.627
 L 46.5508,320.676 L 48.489,320.981 L 50.3709,321.537 L 52.1641,322.333 L 53.8381,323.356 L 55.3642,324.59
 L 56.7162,326.011 L 57.8711,327.598 L 58.8091,329.321 L 59.5141,331.152 L 63.9766,345.473 L 49.6558,349.935
 L 47.7484,350.395 L 45.7973,350.602 z
M 208.137,370.503 L 206.221,370.081 L 204.376,369.413 L 202.634,368.51 L 189.798,360.75 L 197.558,347.914
 L 198.68,346.304 L 200.003,344.856 L 201.504,343.592 L 203.157,342.535 L 204.934,341.703 L 206.805,341.11
 L 208.736,340.766 L 210.696,340.677 L 212.651,340.844 L 214.568,341.266 L 216.412,341.934 L 218.154,342.837
 L 219.764,343.96 L 221.212,345.283 L 222.476,346.784 L 223.533,348.437 L 224.365,350.214 L 224.958,352.084
 L 225.302,354.016 L 225.391,355.976 L 225.224,357.931 L 224.802,359.847 L 224.134,361.692 L 223.231,363.434
 L 222.108,365.043 L 220.785,366.492 L 219.284,367.755 L 217.631,368.812 L 215.854,369.645 L 213.984,370.238
 L 212.052,370.582 L 210.092,370.671 z
M 230.207,345.486 L 236.664,343.895 L 239.129,353.895 L 232.672,355.487 z
M 33.0421,391.842 L 31.1177,391.459 L 29.2598,390.829 L 27.5,389.961 L 25.8686,388.871 L 24.3934,387.577
 L 23.0997,386.102 L 22.0096,384.47 L 21.1418,382.711 L 20.5111,380.853 L 20.1283,378.928 L 20,376.97
 L 20.1283,375.012 L 20.5111,373.088 L 21.1418,371.23 L 22.0096,369.47 L 23.0997,367.839 L 24.3934,366.364
 L 25.8686,365.07 L 27.5,363.98 L 29.2598,363.112 L 31.1177,362.481 L 33.0421,362.099 L 35,361.97
 L 36.9579,362.099 L 38.8823,362.481 L 40.7402,363.112 L 42.5,363.98 L 44.1314,365.07 L 45.6066,366.364
 L 56.2132,376.97 L 45.6066,387.577 L 44.1314,388.871 L 42.5,389.961 L 40.7402,390.829 L 38.8823,391.459
 L 36.9579,391.842 L 35,391.97 z
M 6.675,382.12 L 6.675,371.82 L 13.325,371.82 L 13.325,382.12 z
M 123.343,379.385 L 122.74,379.135 L 122.222,378.738 L 121.825,378.22 L 121.575,377.617 L 121.49,376.97
 L 121.575,376.323 L 121.825,375.72 L 122.222,375.203 L 122.74,374.805 L 123.343,374.556 L 123.99,374.47
 L 124.637,374.556 L 125.24,374.805 L 125.758,375.203 L 126.155,375.72 L 126.405,376.323 L 126.49,376.97
 L 126.405,377.617 L 126.155,378.22 L 125.758,378.738 L 125.24,379.135 L 124.637,379.385 L 123.99,379.47
 z
M 208.736,413.175 L 206.805,412.831 L 204.934,412.238 L 203.157,411.406 L 201.504,410.349 L 200.003,409.085
 L 198.68,407.636 L 197.558,406.027 L 189.798,393.19 L 202.634,385.43 L 204.376,384.527 L 206.221,383.859
 L 208.137,383.438 L 210.092,383.27 L 212.052,383.359 L 213.984,383.703 L 215.854,384.296 L 217.631,385.128
 L 219.284,386.185 L 220.785,387.449 L 222.108,388.898 L 223.231,390.507 L 224.134,392.249 L 224.802,394.094
 L 225.224,396.01 L 225.391,397.965 L 225.302,399.925 L 224.958,401.857 L 224.365,403.727 L 223.533,405.504
 L 222.476,407.157 L 221.212,408.658 L 219.764,409.981 L 218.154,411.104 L 216.412,412.007 L 214.568,412.675
 L 212.651,413.096 L 210.696,413.264 z
M 230.207,408.455 L 232.672,398.454 L 239.129,400.045 L 236.664,410.046 z
M 42.6382,433.107 L 40.7307,432.647 L 38.8997,431.942 L 37.1763,431.004 L 35.5901,429.849 L 34.1682,428.497
 L 32.935,426.971 L 31.9115,425.297 L 31.1152,423.504 L 30.5598,421.622 L 30.2549,419.684 L 30.2055,417.722
 L 30.4125,415.771 L 30.8725,413.864 L 31.5775,412.033 L 32.5155,410.309 L 33.6703,408.723 L 35.0224,407.301
 L 36.5484,406.068 L 38.2224,405.044 L 40.0157,404.248 L 41.8976,403.693 L 43.8358,403.388 L 45.7973,403.338
 L 47.7484,403.545 L 49.6558,404.005 L 63.9766,408.468 L 59.5141,422.789 L 58.8091,424.62 L 57.8711,426.343
 L 56.7162,427.929 L 55.3642,429.351 L 53.8381,430.584 L 52.1641,431.608 L 50.3709,432.404 L 48.489,432.96
 L 46.5508,433.265 L 44.5893,433.314 z
M 189.544,450.944 L 187.6,450.679 L 185.707,450.161 L 183.898,449.401 L 182.204,448.412 L 180.653,447.209
 L 179.273,445.815 L 178.086,444.252 L 177.114,442.548 L 176.372,440.732 L 175.874,438.834 L 175.628,436.887
 L 174.722,421.915 L 189.694,421.009 L 191.657,421.019 L 193.601,421.285 L 195.493,421.802 L 197.302,422.562
 L 198.996,423.552 L 200.547,424.754 L 201.927,426.148 L 203.114,427.711 L 204.086,429.415 L 204.828,431.232
 L 205.326,433.129 L 205.573,435.076 L 205.563,437.038 L 205.297,438.982 L 204.78,440.875 L 204.02,442.684
 L 203.03,444.378 L 201.828,445.929 L 200.433,447.309 L 198.871,448.496 L 197.167,449.468 L 195.35,450.21
 L 193.452,450.708 L 191.506,450.954 z
M 17.7194,426.929 L 23.6077,423.839 L 28.3943,432.959 L 22.5061,436.049 z
M 72.231,465.159 L 70.2897,464.874 L 68.4024,464.337 L 66.6012,463.559 L 64.917,462.553 L 63.3786,461.335
 L 62.0123,459.927 L 60.8415,458.352 L 59.8862,456.638 L 59.1628,454.814 L 58.6837,452.912 L 58.457,450.963
 L 58.4866,449.001 L 58.7721,447.06 L 59.3085,445.172 L 60.0866,443.371 L 61.0932,441.687 L 62.311,440.148
 L 63.7193,438.782 L 65.2937,437.611 L 67.0076,436.656 L 68.8315,435.933 L 70.7341,435.453 L 85.4884,432.75
 L 88.1923,447.504 L 88.419,449.453 L 88.3893,451.415 L 88.1039,453.356 L 87.5675,455.243 L 86.7893,457.045
 L 85.7827,458.729 L 84.5649,460.267 L 83.1567,461.633 L 81.5822,462.804 L 79.8684,463.76 L 78.0445,464.483
 L 76.1418,464.962 L 74.1928,465.189 z
M 153.14,474.983 L 151.228,474.543 L 149.39,473.856 L 147.658,472.935 L 146.06,471.797 L 144.624,470.459
 L 143.376,468.945 L 142.335,467.282 L 141.521,465.497 L 140.947,463.62 L 140.622,461.685 L 140.553,459.725
 L 140.741,457.771 L 141.181,455.859 L 141.868,454.021 L 148.024,440.343 L 161.703,446.499 L 163.435,447.42
 L 165.033,448.558 L 166.469,449.896 L 167.717,451.41 L 168.757,453.073 L 169.572,454.858 L 170.146,456.735
 L 170.47,458.67 L 170.54,460.631 L 170.352,462.584 L 169.911,464.496 L 169.225,466.334 L 168.304,468.066
 L 167.165,469.664 L 165.828,471.1 L 164.314,472.348 L 162.651,473.389 L 160.866,474.203 L 158.989,474.777
 L 157.054,475.102 L 155.093,475.171 z
M 111.455,480.202 L 109.527,479.839 L 107.663,479.227 L 105.895,478.377 L 104.252,477.303 L 102.764,476.024
 L 101.456,474.562 L 100.349,472.942 L 99.4639,471.191 L 98.8145,469.34 L 98.4124,467.419 L 98.2643,465.463
 L 98.3729,463.504 L 98.7363,461.575 L 99.3483,459.711 L 100.198,457.943 L 101.272,456.301 L 102.551,454.812
 L 104.013,453.504 L 115.821,444.253 L 125.071,456.061 L 126.178,457.681 L 127.063,459.432 L 127.713,461.284
 L 128.115,463.204 L 128.263,465.161 L 128.154,467.12 L 127.791,469.048 L 127.179,470.912 L 126.329,472.68
 L 125.255,474.323 L 123.976,475.811 L 122.514,477.119 L 120.894,478.226 L 119.143,479.111 L 117.292,479.761
 L 115.371,480.163 L 113.415,480.311 z
M 203.409,454.21 L 210.239,446.5 L 215.217,450.91 L 208.387,458.619 z
M 53.1092,470.593 L 56.8868,465.12 L 65.3635,470.971 L 61.5859,476.444 z
M 158.417,482.27 L 168.048,478.618 L 170.406,484.836 L 160.775,488.488 z
M 104.737,492.809 L 105.538,486.208 L 115.763,487.449 L 114.962,494.051 z
" stroke="black" fill="lightgray" stroke-width="0.5"/></svg>
